<svg xmlns="http://www.w3.org/2000/svg" width="24" height="24"><!--Boxicons v3.0 https://boxicons.com | License  https://docs.boxicons.com/free--><path d="M20.29 6.71 21 6l.71-.71-1.51-1.5-1.5-1.5-.71.71-.71.71 1.51 1.5zM21 13c0-4.88-4.12-9-9-9-1.84 0-3.56.59-5 1.59L5.91 4.5l.79-.79L5.99 3l-.71-.71-.79.79L2.7 1.29 1.29 2.7l20 20 1.41-1.41L19.41 18c.99-1.44 1.59-3.16 1.59-5m-9-7c3.79 0 7 3.21 7 7 0 1.29-.38 2.51-1.02 3.56L15.42 14h1.59v-2h-3.59l-.41-.41V8h-2v1.59L8.45 7.03a6.84 6.84 0 0 1 3.56-1.02ZM12 20c-3.79 0-7-3.21-7-7 0-1.08.27-2.11.73-3.03L4.26 8.5A8.8 8.8 0 0 0 3 13c0 4.88 4.12 9 9 9 1.63 0 3.17-.47 4.5-1.26l-1.47-1.47c-.92.46-1.95.73-3.03.73"/></svg>