<svg xmlns="http://www.w3.org/2000/svg" width="24" height="24"><!--Boxicons v3.0 https://boxicons.com | License  https://docs.boxicons.com/free--><path d="M19.1 7.8c-.38-.5-.97-.8-1.6-.8H15V6c0-1.1-.9-2-2-2H4c-1.1 0-2 .9-2 2v10c0 1.1.9 2 2 2 0 1.65 1.35 3 3 3s3-1.35 3-3h4c0 1.65 1.35 3 3 3s3-1.35 3-3c1.1 0 2-.9 2-2v-3.67c0-.43-.14-.86-.4-1.2zM17.5 9l1.5 2h-4V9zM7 19a1.003 1.003 0 0 1-.87-1.5c.37-.63 1.36-.63 1.73 0 .09.15.13.32.13.49 0 .55-.45 1-1 1Zm2.23-3s-.05-.05-.08-.07c-.06-.06-.12-.11-.17-.16-.12-.11-.25-.21-.38-.29a2.882 2.882 0 0 0-.67-.32c-.07-.02-.14-.05-.21-.07Q7.375 15 7 15c-.375 0-.49.04-.72.09-.07.02-.14.05-.21.07-.16.05-.31.11-.45.19-.07.04-.15.08-.22.13-.13.09-.26.18-.38.29-.06.05-.12.1-.18.16-.02.03-.05.04-.08.07h-.77V6h9v10H9.22ZM17 19a1.003 1.003 0 0 1-.87-1.5c.37-.63 1.36-.63 1.73 0 .09.15.13.32.13.49 0 .55-.45 1-1 1Zm3-3h-.77s-.05-.05-.08-.07c-.06-.06-.12-.11-.17-.16-.12-.11-.25-.21-.38-.29a2.882 2.882 0 0 0-.67-.32c-.07-.02-.14-.05-.21-.07Q17.375 15 17 15c-.375 0-.47.04-.7.09-.06.01-.12.03-.18.05-.18.06-.36.13-.52.22l-.12.06c-.17.1-.33.21-.48.35v-2.76h5v3Z"/><path d="M9.5 7h-2v2.5H5v2h2.5V14h2v-2.5H12v-2H9.5z"/></svg>