<svg xmlns="http://www.w3.org/2000/svg" width="24" height="24"><!--Boxicons v3.0 https://boxicons.com | License  https://docs.boxicons.com/free--><path d="M5 3a2 2 0 1 0 0 4 2 2 0 1 0 0-4M12 3a2 2 0 1 0 0 4 2 2 0 1 0 0-4M19 2.5a2.5 2.5 0 1 0 0 5 2.5 2.5 0 1 0 0-5M5 9.5a2.5 2.5 0 1 0 0 5 2.5 2.5 0 1 0 0-5M12 10a2 2 0 1 0 0 4 2 2 0 1 0 0-4M19 10a2 2 0 1 0 0 4 2 2 0 1 0 0-4M5 17a2 2 0 1 0 0 4 2 2 0 1 0 0-4M12 17a2 2 0 1 0 0 4 2 2 0 1 0 0-4M19.33 16.5a2.5 2.5 0 1 0 0 5 2.5 2.5 0 1 0 0-5" class="b"/></svg>