<svg xmlns="http://www.w3.org/2000/svg" width="24" height="24"><!--Boxicons v3.0 https://boxicons.com | License  https://docs.boxicons.com/free--><path d="M20 2H4c-1.1 0-2 .9-2 2v7c0 1.1.9 2 2 2h16c1.1 0 2-.9 2-2V4c0-1.1-.9-2-2-2m0 9H4V4h16z"/><path d="M6 9h12v1H6zM13.5 15h-2c0 .21-.04.26-.26.51-.29.34-.74.86-.74 1.82s.45 1.47.74 1.82c.22.25.26.31.26.52s-.04.26-.26.52c-.29.34-.74.86-.74 1.82h2c0-.21.04-.26.26-.52.29-.34.74-.86.74-1.82s-.45-1.47-.74-1.82c-.22-.25-.26-.31-.26-.52s.04-.26.26-.51c.29-.34.74-.86.74-1.82M17.5 15h-2c0 .21-.04.26-.26.51-.29.34-.74.86-.74 1.82s.45 1.47.74 1.82c.22.25.26.31.26.52s-.04.26-.26.52c-.29.34-.74.86-.74 1.82h2c0-.21.04-.26.26-.52.29-.34.74-.86.74-1.82s-.45-1.47-.74-1.82c-.22-.25-.26-.31-.26-.52s.04-.26.26-.51c.29-.34.74-.86.74-1.82M9.5 15h-2c0 .21-.04.26-.26.51-.29.34-.74.86-.74 1.82s.45 1.47.74 1.82c.22.25.26.31.26.52s-.04.26-.26.52c-.29.34-.74.86-.74 1.82h2c0-.21.04-.26.26-.52.29-.34.74-.86.74-1.82s-.45-1.47-.74-1.82c-.22-.25-.26-.31-.26-.52s.04-.26.26-.51c.29-.34.74-.86.74-1.82M17.5 6a.5.5 0 1 0 0 1 .5.5 0 1 0 0-1"/></svg>