<svg xmlns="http://www.w3.org/2000/svg" width="24" height="24"><!--Boxicons v3.0 https://boxicons.com | License  https://docs.boxicons.com/free--><path d="M12 4c-4.88 0-9 4.12-9 9s4.12 9 9 9 9-4.12 9-9-4.12-9-9-9m0 16c-3.79 0-7-3.21-7-7s3.21-7 7-7 7 3.21 7 7-3.21 7-7 7m6.7-17.71-.71.71-.71.71 1.51 1.5 1.5 1.5L21 6l.71-.71-1.51-1.5zM3.71 6.71l1.49-1.5 1.5-1.5L5.99 3l-.71-.71-1.49 1.5-1.5 1.5L3 6z"/><path d="M14.83 10.55c.2-.31.22-.7.05-1.03a.98.98 0 0 0-.88-.53H9v2h3.13l-2.96 4.45c-.2.31-.22.7-.05 1.03s.51.53.88.53h5v-2h-3.13z"/></svg>