<svg xmlns="http://www.w3.org/2000/svg" width="24" height="24"><!--Boxicons v3.0 https://boxicons.com | License  https://docs.boxicons.com/free--><path d="M19 2a2 2 0 1 0 0 4 2 2 0 1 0 0-4M17.67 12.21l-3.56.59 2.85-2.85c.52-.52.78-1.23.72-1.96s-.43-1.4-1.02-1.83l-3.39-2.47c-.8-.58-1.89-.5-2.59.2l-3.4 3.4L8.69 8.7l3.4-3.4 1.84 1.34-3.53 3.53c-.45-.11-.92-.17-1.41-.17-1.29 0-2.49.42-3.47 1.12l1.45 1.45c.59-.35 1.28-.57 2.02-.57 2.21 0 4 1.79 4 4 0 .74-.22 1.42-.57 2.02l1.45 1.45a5.96 5.96 0 0 0 .98-4.77l3.14-.52V20h2v-5.82c0-.59-.26-1.15-.71-1.53s-1.04-.55-1.62-.45ZM9 20c-2.21 0-4-1.79-4-4 0-.74.22-1.42.57-2.02l-1.45-1.45C3.42 13.51 3 14.71 3 16c0 3.31 2.69 6 6 6 1.29 0 2.49-.42 3.47-1.12l-1.45-1.45c-.59.35-1.28.57-2.02.57"/></svg>