<svg xmlns="http://www.w3.org/2000/svg" width="24" height="24"><!--Boxicons v3.0 https://boxicons.com | License  https://docs.boxicons.com/free--><path d="M12 14c-3 0-4 3-4 3h8s-1-3-4-3"/><path d="M12 2C6.49 2 2 6.49 2 12s4.49 10 10 10 10-4.49 10-10S17.51 2 12 2m0 18c-4.41 0-8-3.59-8-8s3.59-8 8-8 8 3.59 8 8-3.59 8-8 8"/><path d="m12.63 10.07.74 1.86 1.68-.67c.12.42.49.74.95.74.55 0 1-.45 1-1 0-.17-.06-.33-.13-.47l1.5-.6-.74-1.86zm-3.68 1.19 1.68.67.74-1.86-5-2-.74 1.86 1.5.6c-.08.14-.13.3-.13.47 0 .55.45 1 1 1 .46 0 .83-.32.95-.74"/></svg>