<svg xmlns="http://www.w3.org/2000/svg" width="24" height="24"><!--Boxicons v3.0 https://boxicons.com | License  https://docs.boxicons.com/free--><path d="M19.24 5.04c-.23-.13-.5-.17-.76-.1s-.47.24-.61.47c-.27.46-.7.79-1.21.93-.52.14-1.06.07-1.52-.2l-4.33-2.5c-.48-.28-1.09-.11-1.37.37l-2.5 4.33L1.95 17c-.28.48-.11 1.09.37 1.37l3.46 2c.15.09.33.13.5.13.09 0 .17-.01.26-.03.26-.07.47-.24.61-.47l4.5-7.79c.96.55 1.28 1.78.73 2.73-.28.48-.11 1.09.37 1.37.92.53 1.92.8 2.94.8.56 0 1.12-.08 1.66-.25 1.56-.47 2.93-1.6 3.84-3.18 1.85-3.21 1.02-6.92-1.95-8.63ZM5.91 18.13l-1.73-1 4-6.93.58.33 1.15.67zm13.54-5.46c-.67 1.16-1.6 1.94-2.69 2.27-.74.22-1.51.21-2.25-.02.17-.66.16-1.35-.02-2.02a4.02 4.02 0 0 0-1.86-2.43l-3.46-2 1.5-2.6 3.46 2c.93.53 2 .67 3.04.4.67-.18 1.27-.52 1.75-1 1.42 1.28 1.66 3.42.52 5.39Z" class="b"/></svg>