<svg xmlns="http://www.w3.org/2000/svg" width="24" height="24"><!--Boxicons v3.0 https://boxicons.com | License  https://docs.boxicons.com/free--><path d="M10.5 10a3.5 3.5 0 1 0 0 7 3.5 3.5 0 1 0 0-7"/><path d="M17.73 2.05c-1.13-.16-2.24.05-3.22.61a26.2 26.2 0 0 1-6.33 2.66c-3.17.89-5.55 3.55-6.07 6.76-.45 2.76.42 5.47 2.38 7.42a8.42 8.42 0 0 0 6 2.49c.47 0 .94-.04 1.42-.12 3.22-.52 5.87-2.9 6.76-6.06l.03-.11c.56-2.09 1.45-4.18 2.63-6.23.56-.97.77-2.08.61-3.22a4.985 4.985 0 0 0-4.21-4.21Zm1.87 6.43c-1.27 2.2-2.22 4.46-2.85 6.79-.67 2.39-2.75 4.25-5.16 4.64-2.12.34-4.19-.32-5.69-1.82s-2.16-3.57-1.81-5.69c.39-2.41 2.26-4.49 4.72-5.18 2.25-.61 4.51-1.56 6.71-2.83.45-.26.96-.4 1.48-.4q.225 0 .45.03c1.28.18 2.33 1.24 2.52 2.52.1.68-.03 1.35-.36 1.93Z"/></svg>