<svg xmlns="http://www.w3.org/2000/svg" width="24" height="24"><!--Boxicons v3.0 https://boxicons.com | License  https://docs.boxicons.com/free--><path d="M12 7c-2.76 0-5 2.24-5 5s2.24 5 5 5 5-2.24 5-5-2.24-5-5-5m0 8c-1.65 0-3-1.35-3-3s1.35-3 3-3 3 1.35 3 3-1.35 3-3 3"/><path d="M19.37 15.11c-.4.95-.98 1.81-1.72 2.54-.73.74-1.59 1.31-2.54 1.71-1.94.82-4.17.83-6.12.04-.05-1.34-1.14-2.41-2.49-2.41S4 18.1 4 19.49s1.11 2.5 2.5 2.5c.69 0 1.31-.28 1.77-.73 1.19.48 2.44.73 3.73.73s2.66-.26 3.89-.79c1.19-.5 2.26-1.23 3.18-2.14s1.64-1.99 2.14-3.18c.52-1.23.79-2.54.79-3.89h-2c0 1.08-.21 2.13-.63 3.11ZM4.63 8.89c.4-.95.98-1.81 1.72-2.54.73-.74 1.59-1.31 2.54-1.71 1.94-.82 4.17-.83 6.12-.04.05 1.34 1.14 2.41 2.49 2.41S20 5.9 20 4.51s-1.11-2.5-2.5-2.5c-.69 0-1.32.28-1.77.73-2.43-.98-5.21-.96-7.63.06-1.19.5-2.26 1.23-3.18 2.14S3.28 6.93 2.78 8.12a9.95 9.95 0 0 0-.79 3.89h2c0-1.08.21-2.13.63-3.11Z"/></svg>