<svg xmlns="http://www.w3.org/2000/svg" width="24" height="24"><!--Boxicons v3.0 https://boxicons.com | License  https://docs.boxicons.com/free--><path d="M18 6h-5.87c.51-1.86 2.44-1.99 2.88-2V2c-1.58 0-4.42.87-4.92 4H6c-2.21 0-4 1.79-4 4v1c0 .55.45 1 1 1v.67c0 3.05 1.69 5.79 4.42 7.16l3.68 1.84c.28.14.59.21.89.21s.61-.07.89-.21l3.68-1.84a7.95 7.95 0 0 0 4.42-7.16V12c.55 0 1-.45 1-1v-1c0-2.21-1.79-4-4-4ZM6 8h12c1.1 0 2 .9 2 2H4c0-1.1.9-2 2-2m13 4.67c0 2.29-1.27 4.34-3.32 5.37L12 19.88l-3.68-1.84A5.96 5.96 0 0 1 5 12.67V12h14z"/></svg>