<svg xmlns="http://www.w3.org/2000/svg" width="24" height="24"><!--Boxicons v3.0 https://boxicons.com | License  https://docs.boxicons.com/free--><path d="M21 9h-9V6c0-2.21-1.79-4-4-4S4 3.79 4 6v.18C2.84 6.59 2 7.69 2 9h2v2c0 3.52 2.04 6.57 5 8.05V22h2v-2.23c.64.15 1.31.23 2 .23v2h2v-2.23c3.81-.87 6.7-4.16 6.97-8.16.02-.2.03-.41.03-.61v-1c0-.55-.45-1-1-1m-1 2c0 2.21-1.79 4-4 4s-4-1.79-4-4zM6 11V6c0-1.1.9-2 2-2s2 .9 2 2v5c0 3.31 2.69 6 6 6 .22 0 .43-.01.65-.04A6.97 6.97 0 0 1 13 18c-3.86 0-7-3.14-7-7"/><path d="M8 6a1 1 0 1 0 0 2 1 1 0 1 0 0-2"/></svg>