<svg xmlns="http://www.w3.org/2000/svg" width="24" height="24"><!--Boxicons v3.0 https://boxicons.com | License  https://docs.boxicons.com/free--><path d="M19 8.59V6c0-.55-.45-1-1-1h-2.59L12.7 2.29a.996.996 0 0 0-1.41 0L8.58 5H5.99c-.55 0-1 .45-1 1v2.59L2.28 11.3a.996.996 0 0 0 0 1.41l2.71 2.71v2.59c0 .55.45 1 1 1h2.59l2.71 2.71c.2.2.45.29.71.29s.51-.1.71-.29l2.71-2.71h2.59c.55 0 1-.45 1-1v-2.59l2.71-2.71a.996.996 0 0 0 0-1.41l-2.71-2.71Zm-1.71 5.71a1 1 0 0 0-.29.71v2h-2c-.27 0-.52.11-.71.29L12 19.59 9.71 17.3a1 1 0 0 0-.71-.29H7v-2c0-.27-.11-.52-.29-.71l-2.29-2.29 2.29-2.29A1 1 0 0 0 7 9.01v-2h2c.27 0 .52-.11.71-.29L12 4.43l2.29 2.29c.19.19.44.29.71.29h2v2c0 .27.11.52.29.71l2.29 2.29z"/><path d="M8 12c0 2.21 1.79 4 4 4V8c-2.21 0-4 1.79-4 4"/></svg>