<svg xmlns="http://www.w3.org/2000/svg" width="24" height="24"><!--Boxicons v3.0 https://boxicons.com | License  https://docs.boxicons.com/free--><path d="m21.55 9.11-1.84.92c-.37-1.63-1.09-3.09-2.07-4.25l2.07-2.07L18.3 2.3l-2.12 2.12c-1.22-.89-2.64-1.41-4.17-1.41s-2.96.52-4.17 1.41L5.72 2.3 4.31 3.71l2.07 2.07c-.98 1.16-1.7 2.62-2.07 4.25l-1.84-.92-.89 1.79 2.46 1.23c0 .12-.02.25-.02.37 0 .51.04 1.01.11 1.5H2.02v2h2.57c.17.5.37.97.6 1.42L3.31 19.3l1.41 1.41 1.58-1.58C7.75 20.9 9.78 22 12.02 22s4.26-1.1 5.72-2.87l1.58 1.58 1.41-1.41-1.88-1.88c.23-.45.43-.92.6-1.42h2.57v-2h-2.11c.07-.49.11-.99.11-1.5 0-.13-.01-.25-.02-.37l2.46-1.23-.89-1.79ZM16.79 8H7.21c1.1-1.82 2.83-3 4.79-3s3.69 1.18 4.79 3M13 19.89V13h-2v6.89c-1.28-.27-2.43-1.05-3.3-2.17s-.06-.07-.06-.07c-1.02-1.34-1.65-3.15-1.65-5.15 0-.88.13-1.72.35-2.5h11.3c.22.78.35 1.62.35 2.5 0 1.99-.63 3.8-1.65 5.15l-.06.06c-.87 1.13-2.02 1.91-3.3 2.18Z"/></svg>