<svg xmlns="http://www.w3.org/2000/svg" width="24" height="24"><!--Boxicons v3.0 https://boxicons.com | License  https://docs.boxicons.com/free--><path d="M17.41 12.9c.17 0 .35-.05.5-.13.23-.13.4-.35.47-.61 1.14-4.26-1.4-8.66-5.66-9.8s-8.66 1.4-9.8 5.66c-.14.53.17 1.08.71 1.22l5.8 1.55-2.85 10.63 1.93.52 2.85-10.63 1.93.52 3.86 1.03c.08.02.17.03.26.03ZM7.08 8.1 5.2 7.6C5.93 6 7.32 4.85 8.94 4.36 8.19 5.38 7.55 6.7 7.08 8.1m5.73 1.54-1.9-.51-1.9-.51c1.01-2.97 2.58-4.48 3.19-4.32.62.17 1.22 2.27.61 5.34m3.81 1.02-1.88-.5c.3-1.45.4-2.91.26-4.17a6.03 6.03 0 0 1 1.62 4.68Z"/><path d="M17.5 15c-1.93 0-3.5 1.57-3.5 3.5s1.57 3.5 3.5 3.5 3.5-1.57 3.5-3.5-1.57-3.5-3.5-3.5m0 5c-.83 0-1.5-.67-1.5-1.5s.67-1.5 1.5-1.5 1.5.67 1.5 1.5-.67 1.5-1.5 1.5"/></svg>