<svg xmlns="http://www.w3.org/2000/svg" width="24" height="24"><!--Boxicons v3.0 https://boxicons.com | License  https://docs.boxicons.com/free--><path d="M16 9a1 1 0 1 0 0 2 1 1 0 1 0 0-2M8 9a1 1 0 1 0 0 2 1 1 0 1 0 0-2M12 10c-2.21 0-4 1.51-4 4s1.79 5 4 5 4-2.51 4-5-1.79-4-4-4m0 4c-.83 0-1.5-.67-1.5-1.33 0-.37.67-.67 1.5-.67s1.5.3 1.5.67c0 .67-.67 1.33-1.5 1.33"/><path d="M18 2c-1.19 0-2.3.53-3.05 1.43-1.92-.57-3.99-.57-5.91 0C8.29 2.53 7.18 2 5.99 2c-2.21 0-4 1.79-4 4 0 .94.33 1.82.92 2.53-.6 1.24-.92 2.6-.92 3.97 0 5.24 4.49 9.5 10 9.5s10-4.26 10-9.5c0-1.37-.31-2.73-.92-3.97.59-.71.92-1.6.92-2.53 0-2.21-1.79-4-4-4Zm.99 6.86A7.14 7.14 0 0 1 20 12.5c0 4.14-3.59 7.5-8 7.5s-8-3.36-8-7.5c0-1.27.35-2.53 1.01-3.64l.45-.75-.69-.54C4.28 7.18 4 6.61 4 6.01c0-1.1.9-2 2-2 .74 0 1.41.41 1.76 1.08l.41.79.83-.32c1.92-.73 4.07-.73 6 0l.83.32.41-.79A1.98 1.98 0 0 1 18 4.01c1.1 0 2 .9 2 2 0 .61-.28 1.17-.77 1.56l-.69.54z"/><path d="M6.5 5.5a.997.997 0 0 0-.38 1.92c.4-.41.85-.78 1.34-1.1-.09-.47-.47-.82-.96-.82M17.5 5.5c-.49 0-.88.36-.96.82.49.32.94.69 1.34 1.1.36-.15.62-.51.62-.92 0-.55-.45-1-1-1"/></svg>