<svg xmlns="http://www.w3.org/2000/svg" width="24" height="24"><!--Boxicons v3.0 https://boxicons.com | License  https://docs.boxicons.com/free--><path d="M19 22H5c-1.1 0-2-.9-2-2V9.32c-.6-.75-.95-1.66-1-2.62-.05-1.14.36-2.22 1.15-3.05 1.02-1.07 2.59-1.66 4.42-1.66h9.73c1.29 0 2.55.54 3.45 1.48.85.89 1.29 2.04 1.24 3.23a4.43 4.43 0 0 1-1 2.62V20c0 1.1-.9 2-2 2ZM7.58 4C6.3 4 5.24 4.37 4.6 5.04c-.42.44-.63.98-.6 1.58.03.61.28 1.19.71 1.63.18.19.28.44.28.7v11.06h14V8.95c0-.26.1-.51.28-.7.43-.44.69-1.02.71-1.63.03-.64-.21-1.26-.68-1.75-.52-.55-1.25-.86-2-.86H7.58Z"/><path d="M12 7a1 1 0 1 0 0 2 1 1 0 1 0 0-2M15.5 10a.5.5 0 1 0 0 1 .5.5 0 1 0 0-1M16 6a1 1 0 1 0 0 2 1 1 0 1 0 0-2"/></svg>