<svg xmlns="http://www.w3.org/2000/svg" width="24" height="24"><!--Boxicons v3.0 https://boxicons.com | License  https://docs.boxicons.com/free--><path d="M18.5 2h-12C4.57 2 3 3.57 3 5.5V21c0 .35.18.67.47.85s.66.2.97.04l5.55-2.78 5.55 2.78a.997.997 0 0 0 1.45-.89v-8h4c.55 0 1-.45 1-1V5.5c0-1.93-1.57-3.5-3.5-3.5ZM15 19.38l-4.55-2.28a1 1 0 0 0-.89 0l-4.55 2.28V5.5c0-.83.67-1.5 1.5-1.5h8.85c-.22.46-.35.96-.35 1.5v13.88ZM20 11h-3V5.5c0-.83.67-1.5 1.5-1.5s1.5.67 1.5 1.5z"/><path d="M11 7H9v2H7v2h2v2h2v-2h2V9h-2z"/></svg>