<svg xmlns="http://www.w3.org/2000/svg" width="24" height="24"><!--Boxicons v3.0 https://boxicons.com | License  https://docs.boxicons.com/free--><path d="M21 6c0-2.21-1.79-4-4-4H7C4.79 2 3 3.79 3 6v2H2v4h1v6c0 .74.41 1.38 1 1.72V21c0 .55.45 1 1 1h1c.55 0 1-.45 1-1v-1h10v1c0 .55.45 1 1 1h1c.55 0 1-.45 1-1v-1.28A2 2 0 0 0 21 18v-6h1V8h-1zm-2 12H5v-5h14zM5 7h6v4H5zm8 0h6v4h-6zM7 4h10c.74 0 1.38.41 1.72 1H5.28A2 2 0 0 1 7 4"/><path d="M7.5 14a1.5 1.5 0 1 0 0 3 1.5 1.5 0 1 0 0-3m9 0a1.5 1.5 0 1 0 0 3 1.5 1.5 0 1 0 0-3"/></svg>