<svg xmlns="http://www.w3.org/2000/svg" width="24" height="24"><!--Boxicons v3.0 https://boxicons.com | License  https://docs.boxicons.com/free--><path d="m5.69 16.9-1.47 1.47 1.41 1.41 1.47-1.47c1.11.86 2.44 1.44 3.9 1.62V22h2v-2.07c1.46-.18 2.79-.76 3.9-1.62l1.47 1.47 1.41-1.41-1.47-1.47a7.94 7.94 0 0 0 1.62-3.9H22v-2h-2.07a7.94 7.94 0 0 0-1.62-3.9l1.47-1.47-1.41-1.41-1.47 1.47A7.94 7.94 0 0 0 13 4.07V2h-2v2.07c-1.46.18-2.79.76-3.9 1.62L5.63 4.22 4.22 5.63 5.69 7.1A7.94 7.94 0 0 0 4.07 11H2v2h2.07c.18 1.46.76 2.79 1.62 3.9m.4-3.9h2.05c.09.36.24.7.42 1.02l-1.45 1.45A5.95 5.95 0 0 1 6.09 13M12 10c1.1 0 2 .9 2 2s-.9 2-2 2-2-.9-2-2 .9-2 2-2m-3.47 6.89 1.45-1.45q.48.285 1.02.42v2.05a5.95 5.95 0 0 1-2.47-1.02M13 17.91v-2.05c.36-.09.7-.24 1.02-.42l1.45 1.45c-.72.51-1.56.87-2.47 1.02m3.89-2.44-1.45-1.45q.285-.48.42-1.02h2.05a5.95 5.95 0 0 1-1.02 2.47M17.91 11h-2.05c-.09-.36-.24-.7-.42-1.02l1.45-1.45c.51.72.87 1.56 1.02 2.47m-2.44-3.89-1.45 1.45q-.48-.285-1.02-.42V6.09c.91.15 1.75.51 2.47 1.02M11 6.09v2.05c-.36.09-.7.24-1.02.42L8.53 7.11A5.95 5.95 0 0 1 11 6.09M7.11 8.53l1.45 1.45q-.285.48-.42 1.02H6.09c.15-.91.51-1.75 1.02-2.47"/></svg>