<svg xmlns="http://www.w3.org/2000/svg" width="24" height="24"><!--Boxicons v3.0 https://boxicons.com | License  https://docs.boxicons.com/free--><path d="M12 2a2 2 0 1 0 0 4 2 2 0 1 0 0-4"/><path d="m20.27 6.96-.55-1.92-13.2 3.77-.54-1.08C6.58 7.39 7 6.74 7 6c0-1.1-.9-2-2-2s-2 .9-2 2c0 .55.23 1.06.59 1.42l1.14 2.29c.35.69 1.05 1.11 1.79 1.11.18 0 .37-.02.55-.08L9.64 10l-3.6 11.71 1.91.59 2.35-7.63v.03l3.46.99-1.73 6.04 1.92.55 1.73-6.04c.15-.51.08-1.05-.17-1.52-.26-.47-.69-.81-1.2-.95l-1.61-.46 1.13-4.5 6.45-1.84Z"/></svg>