<svg xmlns="http://www.w3.org/2000/svg" width="24" height="24"><!--Boxicons v3.0 https://boxicons.com | License  https://docs.boxicons.com/free--><path d="M3 12h18c.55 0 1-.45 1-1V9c0-3.93-4.39-7-10-7S2 5.07 2 9v2c0 .55.45 1 1 1m1-3c0-2.71 3.66-5 8-5s8 2.29 8 5v1H4zM2 13h20v2H2zM5 22h14c1.65 0 3-1.35 3-3v-2c0-.55-.45-1-1-1h-9c-.27 0-.52.11-.71.29L9 18.58l-2.29-2.29A1 1 0 0 0 6 16H3c-.55 0-1 .45-1 1v2c0 1.65 1.35 3 3 3m7.41-4H20v1c0 .55-.45 1-1 1h-8.59zM4 18h1.59l2 2H5c-.55 0-1-.45-1-1z"/><path d="M15 6a1 1 0 1 0 0 2 1 1 0 1 0 0-2M12.5 7a.5.5 0 1 0 0 1 .5.5 0 1 0 0-1M17.5 8a.5.5 0 1 0 0 1 .5.5 0 1 0 0-1"/></svg>