<svg xmlns="http://www.w3.org/2000/svg" width="24" height="24"><!--Boxicons v3.0 https://boxicons.com | License  https://docs.boxicons.com/free--><path d="M12 2C6.49 2 2 6.49 2 12s4.49 10 10 10 10-4.49 10-10S17.51 2 12 2m3.77 5.38c-.44-.29-.97-.47-1.53-.49-.45-1.18-1.01-2.13-1.54-2.86 1.8.16 3.42.91 4.68 2.06zM10.24 4.2c.53.54 1.43 1.63 2.09 3.29-.11.08-.21.16-.31.26-2.6-.97-4.72-.99-6.26-.73a8.03 8.03 0 0 1 4.48-2.81ZM4.41 9.48c.83-.39 3.19-1.19 6.74.08-.01.11-.03.21-.03.33 0 .14.02.27.04.41-1.03.69-4.15 2.96-5.8 6.16A7.93 7.93 0 0 1 4 12.01c0-.88.15-1.73.41-2.52Zm2.4 8.6c1.18-2.93 4.14-5.21 5.27-6 .32.3.71.52 1.13.65.14 1.28.32 4.47-.81 7.25-.14 0-.27.02-.41.02-1.98 0-3.79-.73-5.18-1.92m7.87 1.45c.8-2.75.68-5.51.55-6.86.35-.14.66-.34.92-.59.96.72 2.56 2.2 2.85 3.78a8.1 8.1 0 0 1-4.33 3.68Zm5.24-6.45c-.96-1.39-2.27-2.4-2.84-2.81.02-.13.04-.26.04-.39 0-.31-.06-.61-.15-.89l1.72-1.37A7.95 7.95 0 0 1 20.01 12c0 .37-.03.73-.08 1.08Z"/></svg>