<svg xmlns="http://www.w3.org/2000/svg" width="24" height="24"><!--Boxicons v3.0 https://boxicons.com | License  https://docs.boxicons.com/free--><path d="M19.03 4.97c-.18-.68-.53-1.3-1.03-1.8A3.996 3.996 0 0 0 11.18 6c0 .73.19 1.42.55 2.03l-3.71 3.71c-1.53-.9-3.54-.7-4.85.62-.75.75-1.17 1.76-1.17 2.83s.42 2.07 1.17 2.83c.5.5 1.12.85 1.8 1.03a3.974 3.974 0 0 0 3.86 2.97c1.07 0 2.07-.42 2.83-1.17a4.006 4.006 0 0 0 .62-4.85l3.71-3.71c1.5.89 3.59.65 4.86-.62.75-.75 1.17-1.76 1.17-2.83s-.42-2.07-1.17-2.83c-.5-.5-1.12-.85-1.8-1.03Zm.38 5.26c-.75.75-2.07.75-2.82 0l-.71-.71-6.36 6.36.71.71c.78.78.78 2.04 0 2.82-.75.75-2.07.75-2.82 0a2.02 2.02 0 0 1-.57-1.31l-.05-.9-.9-.05c-.35-.02-.87-.13-1.31-.57C4.2 16.2 4 15.7 4 15.17s.21-1.04.58-1.41c.39-.39.9-.58 1.41-.58s1.02.19 1.41.58l.71.71 6.36-6.36-.71-.71c-.38-.38-.58-.88-.58-1.41s.21-1.04.58-1.41c.78-.78 2.04-.78 2.82 0 .44.44.55.95.57 1.31l.05.9.9.05c.5.03.97.23 1.31.57.38.38.58.88.58 1.41s-.21 1.04-.58 1.41"/></svg>