<svg xmlns="http://www.w3.org/2000/svg" width="24" height="24"><!--Boxicons v3.0 https://boxicons.com | License  https://docs.boxicons.com/free--><path d="M16 2H8C4.69 2 2 4.69 2 8c0 .55.45 1 1 1h18c.55 0 1-.45 1-1 0-3.31-2.69-6-6-6M4.13 7C4.58 5.28 6.14 4 8 4h8c1.86 0 3.43 1.28 3.87 3zM21 15H3c-.55 0-1 .45-1 1 0 3.31 2.69 6 6 6h8c3.31 0 6-2.69 6-6 0-.55-.45-1-1-1m-5 5H8c-1.86 0-3.43-1.28-3.87-3h15.75c-.45 1.72-2.01 3-3.87 3ZM17 10c-1.6 0-2.45.68-3.12 1.22-.59.47-.98.78-1.88.78s-1.29-.31-1.88-.78C9.44 10.68 8.6 10 6.99 10s-2.45.68-3.13 1.22c-.59.47-.98.78-1.88.78v2c1.6 0 2.45-.68 3.13-1.22.59-.47.98-.78 1.88-.78s1.29.31 1.88.78C9.55 13.32 10.39 14 12 14s2.45-.68 3.12-1.22c.59-.47.98-.78 1.87-.78s1.29.31 1.87.78c.68.54 1.52 1.22 3.12 1.22v-2c-.9 0-1.29-.31-1.87-.78-.68-.54-1.52-1.22-3.12-1.22Z"/></svg>