<svg xmlns="http://www.w3.org/2000/svg" width="24" height="24"><!--Boxicons v3.0 https://boxicons.com | License  https://docs.boxicons.com/free--><path d="M21 16.28V13c0-4.1-2.76-7.56-6.51-8.64C14.41 3.05 13.33 2 12 2S9.59 3.05 9.51 4.36C5.75 5.44 3 8.9 3 13v3.28A2 2 0 0 0 2 18v2c0 1.1.9 2 2 2h16c1.1 0 2-.9 2-2v-2c0-.74-.41-1.38-1-1.72m-15.95-4.1 3.44 1.97 3.5-2 3.5 2 3.45-1.97c.03.27.05.54.05.82v3H5v-3c0-.28.02-.55.05-.82m5.16-5.94c.45.47 1.09.76 1.79.76s1.33-.29 1.79-.76c2.07.55 3.77 2.02 4.62 3.95l-2.91 1.66-3.5-2-3.5 2-2.9-1.66c.85-1.93 2.55-3.4 4.62-3.95ZM4 20v-2h16v2z"/></svg>