<svg xmlns="http://www.w3.org/2000/svg" width="24" height="24"><!--Boxicons v3.0 https://boxicons.com | License  https://docs.boxicons.com/free--><path d="M12 22c1.31 0 2.41-.83 2.82-2H9.18c.41 1.17 1.51 2 2.82 2m8-4c.55 0 1-.45 1-1v-2c0-.27-.11-.52-.29-.71L19 12.58V9.99c0-3.22-2.18-5.93-5.14-6.74-.29-.74-1.01-1.26-1.86-1.26s-1.56.52-1.86 1.26c-1.32.37-2.48 1.1-3.37 2.1L2.71 1.29 1.3 2.7l20 20 1.41-1.41L19.42 18h.59ZM12 5c2.76 0 5 2.24 5 5v3c0 .27.11.52.29.71L19 15.42v.59h-1.59l-9.2-9.22A4.92 4.92 0 0 1 12 5m-.24 11H5v-.59l1.71-1.71a1 1 0 0 0 .29-.71v-1.76L5.04 9.27c-.02.24-.04.48-.04.72v2.59l-1.71 1.71A1 1 0 0 0 3 15v2c0 .55.45 1 1 1h9.76z"/></svg>