<svg xmlns="http://www.w3.org/2000/svg" width="24" height="24"><!--Boxicons v3.0 https://boxicons.com | License  https://docs.boxicons.com/free--><path d="M21 10h-.61a5.01 5.01 0 0 0-3.47-3.79C16.54 3.83 14.49 2 12 2S7.52 3.77 7.09 6.09C5.09 6.46 3.5 8.01 3.1 10H3c-.55 0-1 .45-1 1 0 3.61 1.9 6.87 5 8.66V21c0 .55.45 1 1 1h8c.55 0 1-.45 1-1v-1.34c3.1-1.78 5-5.05 5-8.66 0-.55-.45-1-1-1m-2.67 0H12.9c-.02-.11-.05-.21-.08-.31.01-.03.02-.06.04-.08.03-.05.06-.1.09-.16.04-.07.09-.15.14-.22.04-.05.07-.1.11-.14.05-.07.11-.13.17-.19l.13-.13c.06-.06.13-.11.2-.16.05-.04.1-.07.15-.11.07-.05.15-.09.22-.13.05-.03.1-.06.16-.08.08-.04.16-.07.25-.1.05-.02.1-.04.16-.06.09-.03.19-.05.29-.07.05 0 .09-.02.14-.03q.225-.03.45-.03c.13 0 .26 0 .37.02 1.15.15 2.08.94 2.45 1.98ZM12 4c1.32 0 2.44.86 2.84 2.04-.02 0-.03 0-.05.01-.28.04-.56.1-.82.19-.03 0-.05.02-.08.03-.24.08-.47.18-.69.29-.08.04-.16.09-.24.14-.16.09-.31.19-.46.3-.08.06-.16.13-.24.2-.13.11-.26.23-.38.36-.04.04-.09.08-.13.12l-.15-.15c-.09-.1-.19-.19-.28-.28a6 6 0 0 0-.6-.46c-.1-.07-.21-.13-.31-.19-.12-.06-.23-.12-.36-.18-.11-.05-.22-.1-.34-.14-.13-.05-.25-.09-.38-.12-.06-.02-.12-.04-.19-.06a3 3 0 0 1 2.87-2.13ZM8 8c.16 0 .31.01.47.04 1.07.17 1.98.9 2.35 1.94V10H5.17C5.58 8.84 6.69 8 8 8m7.56 10.16c-.34.17-.56.52-.56.9V20H9v-.94c0-.38-.21-.73-.56-.9A7.93 7.93 0 0 1 4.06 12h15.88a7.94 7.94 0 0 1-4.38 6.16"/></svg>