<svg xmlns="http://www.w3.org/2000/svg" width="24" height="24"><!--Boxicons v3.0 https://boxicons.com | License  https://docs.boxicons.com/free--><path d="M4 8c0 2.8-1.68 2.99-2.01 3v2c.1 0 2.01.03 2.01 3 0 4.74 3.27 6 5 6h1v-2h-.99C8.7 20 6 19.83 6 16c0-1.99-.67-3.25-1.5-4C5.34 11.25 6 9.99 6 8c0-3.83 2.7-3.99 3-4h1V2H9C7.27 2 4 3.26 4 8m16 0c0-4.74-3.27-6-5-6h-1v2h.99C15.3 4 18 4.17 18 8c0 1.99.67 3.25 1.5 4-.84.75-1.5 2.01-1.5 4 0 3.83-2.7 3.99-3 4h-1v2h1c1.73 0 5-1.26 5-6 0-2.8 1.68-2.99 2.01-3v-2c-.1 0-2.01-.03-2.01-3"/></svg>