<svg xmlns="http://www.w3.org/2000/svg" width="24" height="24"><!--Boxicons v3.0 https://boxicons.com | License  https://docs.boxicons.com/free--><path d="M18.29 4.29 17 5.58l-1.29-1.29A1 1 0 0 0 15 4c-.27 0-.52.11-.71.29l-1.13 1.13a8.3 8.3 0 0 0-2.66-.43C5.81 4.99 2 8.8 2 13.49s3.81 8.5 8.5 8.5 8.5-3.81 8.5-8.5c0-.91-.14-1.8-.43-2.66L19.7 9.7a.996.996 0 0 0 0-1.41L18.41 7l1.3-1.3c.23-.23.84-.7 1.29-.7h1V3h-1c-1.4 0-2.58 1.17-2.71 1.29m-1.8 6.69c.34.8.51 1.65.51 2.52 0 3.58-2.92 6.5-6.5 6.5S4 17.08 4 13.5 6.92 7 10.5 7c.87 0 1.72.17 2.52.51.37.15.83.07 1.11-.22l.87-.88 2.58 2.58-.88.88c-.29.29-.37.72-.21 1.1Z"/><path d="M6 13.5h2a2.5 2.5 0 0 1 2.5-2.5V9C8.02 9 6 11.02 6 13.5"/></svg>