<svg xmlns="http://www.w3.org/2000/svg" width="24" height="24"><!--Boxicons v3.0 https://boxicons.com | License  https://docs.boxicons.com/free--><path d="M21.86 13.78c-.05-.22-.14-.45-.23-.68 0-.02-.01-.04-.02-.05v-.02l-2.88-8.3-.06-.15A3 3 0 0 0 16.03 3c-1.63 0-2.97 1.31-3 2.94V6h-2.01v-.06A3.01 3.01 0 0 0 8.01 3c-1.1 0-2.11.61-2.64 1.58q-.045.075-.06.15l-2.85 8.2c-.12.26-.21.53-.28.81v.04c-.1.38-.16.78-.16 1.21 0 2.76 2.24 5 5 5s4.91-2.17 4.99-4.86h.03c.08 2.69 2.28 4.86 4.99 4.86s5-2.24 5-5c0-.39-.06-.77-.14-1.13v-.09ZM13.91 8c.51 0 .94-.38.99-.89l.11-1V6c0-.55.45-1 1-1 .34 0 .66.18.85.48l1.65 4.75c-.12-.04-.25-.06-.37-.09-.07-.02-.14-.04-.21-.05-.3-.06-.6-.09-.91-.09h-.05c-.28 0-.55.03-.82.08-.13.02-.25.06-.38.09-.14.04-.28.08-.42.13q-.225.075-.45.18l-.21.12c-.57.3-1.07.71-1.48 1.2-.04.04-.07.08-.1.13-.03.04-.06.07-.09.11V8.01h.9ZM7.16 5.48c.18-.3.5-.48.85-.48.55 0 1 .45 1 1v.11l.11 1c.06.51.48.89.99.89H11v4.03c-.07-.09-.13-.18-.2-.26s-.14-.15-.21-.23c-.11-.12-.23-.23-.35-.33-.08-.07-.16-.13-.25-.2-.13-.1-.26-.18-.4-.27-.09-.06-.18-.11-.27-.16-.14-.08-.29-.14-.45-.2-.09-.04-.19-.08-.28-.11-.17-.06-.34-.1-.52-.14-.09-.02-.17-.05-.26-.06-.27-.04-.54-.07-.81-.07s-.54.02-.8.07c-.12.02-.23.05-.35.08s-.23.05-.35.08l1.65-4.75ZM7.01 18c-1.65 0-3-1.35-3-3 0-.25.03-.48.09-.71l.19-.54c.1-.23.23-.43.39-.62l.08-.11c.06-.07.14-.14.21-.21.04-.04.08-.07.12-.11.07-.06.14-.11.22-.17.05-.03.1-.07.15-.1.07-.05.15-.09.23-.13.06-.03.13-.06.19-.08.07-.03.15-.06.22-.08.08-.03.17-.05.26-.07.06-.01.12-.03.19-.04.15-.02.31-.04.47-.04 1.39 0 2.61.98 2.92 2.33l.08.72a3.005 3.005 0 0 1-3 2.95Zm10 0c-1.65 0-3-1.35-3-3 0-.19.02-.38.06-.56.01-.03.03-.06.04-.09.18-.84.72-1.54 1.44-1.95l.06-.03c.12-.07.25-.13.38-.18.05-.02.1-.03.16-.05.11-.03.22-.07.34-.09.14-.03.29-.04.43-.04h.11c.19 0 .38.02.56.06.03 0 .06.01.09.02.17.04.34.09.5.15h.02c.71.3 1.28.87 1.58 1.58l.03.08c.14.34.22.71.22 1.1 0 1.65-1.35 3-3 3Z"/></svg>