<svg xmlns="http://www.w3.org/2000/svg" width="24" height="24"><!--Boxicons v3.0 https://boxicons.com | License  https://docs.boxicons.com/free--><path d="M19 5h-6V2h-2v3H5C3.35 5 2 6.35 2 8v12c0 .55.45 1 1 1h18c.55 0 1-.45 1-1V8c0-1.65-1.35-3-3-3M5 7h14c.55 0 1 .45 1 1v3.12c-.9.23-1.47.73-1.92 1.13-.51.45-.84.75-1.59.75s-1.08-.3-1.59-.75c-.59-.53-1.41-1.25-2.92-1.25s-2.32.72-2.91 1.25c-.51.45-.84.75-1.59.75s-1.08-.3-1.58-.75c-.45-.4-1.02-.9-1.91-1.13V8c0-.55.45-1 1-1ZM4 19v-5.71c.19.12.37.27.58.46.59.53 1.41 1.25 2.91 1.25s2.32-.72 2.91-1.25c.51-.45.84-.75 1.59-.75s1.08.3 1.59.75c.59.53 1.41 1.25 2.92 1.25s2.32-.72 2.92-1.25c.21-.19.39-.34.59-.46v5.72H4Z"/></svg>