<svg xmlns="http://www.w3.org/2000/svg" width="24" height="24"><!--Boxicons v3.0 https://boxicons.com | License  https://docs.boxicons.com/free--><path d="M19 12.59V10c0-3.22-2.18-5.93-5.14-6.74C13.57 2.52 12.85 2 12 2s-1.56.52-1.86 1.26C7.18 4.08 5 6.79 5 10v2.59L3.29 14.3a1 1 0 0 0-.29.71v2c0 .55.45 1 1 1h16c.55 0 1-.45 1-1v-2c0-.27-.11-.52-.29-.71zM19 16H5v-.59l1.71-1.71a1 1 0 0 0 .29-.71v-3c0-2.76 2.24-5 5-5s5 2.24 5 5v3c0 .27.11.52.29.71L19 15.41zm-4.18 4H9.18c.41 1.17 1.51 2 2.82 2s2.41-.83 2.82-2"/><path d="M13 8h-2v2H9v2h2v2h2v-2h2v-2h-2z"/></svg>