<svg xmlns="http://www.w3.org/2000/svg" width="24" height="24"><!--Boxicons v3.0 https://boxicons.com | License  https://docs.boxicons.com/free--><path d="M7 19.66V21c0 .55.45 1 1 1h8c.55 0 1-.45 1-1v-1.34c3.1-1.78 5-5.05 5-8.66 0-.55-.45-1-1-1a3.6 3.6 0 0 0-1.8-3 3.66 3.66 0 0 0-3.63-3.13c-.34 0-.68.05-1.01.14C13.88 3.36 12.98 3 12.01 3s-1.87.37-2.55 1.01c-.33-.09-.67-.14-1.01-.14h-.07C6.56 3.91 5.06 5.26 4.82 7a3.58 3.58 0 0 0-1.8 3c-.55 0-1 .45-1 1 0 3.61 1.9 6.87 5 8.66ZM6.11 8.61l.81-.26-.14-.84c0-.88.73-1.6 1.63-1.62.95.02 1.72.79 1.72 1.75h2c0-.93-.35-1.77-.92-2.43.24-.13.51-.2.79-.2.57 0 1.1.28 1.41.76l.51.77.81-.44c.25-.14.53-.21.82-.21.92 0 1.67.73 1.67 1.62l-.14.84.81.27c.62.21 1.03.76 1.09 1.39H5.02c.05-.63.47-1.19 1.09-1.39ZM19.94 12a7.94 7.94 0 0 1-4.38 6.16c-.34.17-.56.52-.56.9V20H9v-.94c0-.38-.21-.73-.56-.9A7.93 7.93 0 0 1 4.06 12z"/></svg>