<svg xmlns="http://www.w3.org/2000/svg" width="24" height="24"><!--Boxicons v3.0 https://boxicons.com | License  https://docs.boxicons.com/free--><path d="m20.29 7.29-1.9 1.9A7.9 7.9 0 0 0 15 6.58V4h1V2H8v2h1v2.58C5.98 7.79 4 10.68 4 14c0 4.16 3.12 7.58 7.21 7.95.27.04.52.05.79.05s.52-.01.74-.04C16.88 21.59 20 18.17 20 14c0-1.06-.22-2.06-.59-2.99l2.3-2.3L20.3 7.3Zm-7.78 12.68c-.35.05-.63.05-1.07 0A5.95 5.95 0 0 1 6 14.01c0-.43.06-.84.14-1.24 2.59.03 3.86.86 5.3 1.83 1.41.94 3.02 1.99 5.88 2.14a5.98 5.98 0 0 1-4.82 3.25Zm5.42-5.22c-2.65-.02-3.91-.85-5.38-1.83-1.37-.91-2.92-1.93-5.61-2.13a5.9 5.9 0 0 1 3.35-2.54l.71-.21V4h2v4.04l.71.21A5.97 5.97 0 0 1 18 14c0 .26-.04.5-.07.75"/></svg>