<svg xmlns="http://www.w3.org/2000/svg" width="24" height="24"><!--Boxicons v3.0 https://boxicons.com | License  https://docs.boxicons.com/free--><path d="M12 4C6.67 4 2 8.21 2 13c0 3.92 4.39 7 10 7s10-3.08 10-7c0-4.79-4.67-9-10-9m0 14c-4.34 0-8-2.29-8-5 0-2.14 1.45-4.45 3.71-5.8C7.31 8.31 7 9.83 7 12h2c0-3.64.94-5.03 1.52-5.86C11 6.05 11.49 6 12 6c.21 0 .41.02.61.03C11.76 7.1 11 8.92 11 12h2c0-4.06 1.46-5.17 1.99-5.44.53.2 1.03.46 1.5.75C15.76 8.04 15 9.42 15 12h2c0-2.24.68-3.1 1.05-3.39C19.27 9.9 20 11.49 20 13c0 2.71-3.66 5-8 5"/></svg>