<svg xmlns="http://www.w3.org/2000/svg" width="24" height="24"><!--Boxicons v3.0 https://boxicons.com | License  https://docs.boxicons.com/free--><path d="M20.22 3.78c-2.36-2.36-6.21-2.36-8.57 0l-7.88 7.88c-2.36 2.36-2.36 6.21 0 8.57C4.95 21.41 6.5 22 8.06 22s3.11-.59 4.29-1.77l7.88-7.88c2.36-2.36 2.36-6.21 0-8.57ZM5.18 18.82a4.07 4.07 0 0 1-.65-4.86l5.51 5.51c-1.55.87-3.54.66-4.86-.65m6.39-.64-5.75-5.75 6.59-6.59 5.75 5.75zm7.88-8.12-5.51-5.51c1.55-.87 3.54-.66 4.86.65 1.32 1.32 1.52 3.31.65 4.86"/><path d="M9 11a1 1 0 1 0 0 2 1 1 0 1 0 0-2m6 0a1 1 0 1 0 0 2 1 1 0 1 0 0-2m-3 3a1 1 0 1 0 0 2 1 1 0 1 0 0-2m0-6a1 1 0 1 0 0 2 1 1 0 1 0 0-2"/></svg>