<svg xmlns="http://www.w3.org/2000/svg" width="24" height="24"><!--Boxicons v3.0 https://boxicons.com | License  https://docs.boxicons.com/free--><path d="M12 22c5.51 0 10-4.49 10-10S17.51 2 12 2 2 6.49 2 12s4.49 10 10 10m-4.9-3.69 2.51-2.51c.69.44 1.51.7 2.39.7s1.69-.26 2.39-.7l2.51 2.51C15.54 19.36 13.85 20 12 20s-3.54-.63-4.9-1.69m2.97-7.88.35-.35c.43-.35.97-.57 1.57-.57s1.14.22 1.57.57l.35.35c.35.43.57.97.57 1.57s-.22 1.14-.57 1.57l-.35.35c-.43.35-.97.57-1.57.57s-1.14-.22-1.57-.57l-.35-.35c-.35-.43-.57-.97-.57-1.57s.22-1.14.57-1.57m8.24 6.47-2.51-2.51c.44-.69.7-1.51.7-2.39s-.26-1.69-.7-2.39l2.51-2.51C19.36 8.46 20 10.15 20 12s-.63 3.54-1.69 4.9M16.9 5.69 14.39 8.2c-.69-.44-1.51-.7-2.39-.7s-1.69.26-2.39.7L7.1 5.69C8.46 4.64 10.15 4 12 4s3.54.63 4.9 1.69M5.69 7.1 8.2 9.61c-.44.69-.7 1.51-.7 2.39s.26 1.69.7 2.39L5.69 16.9C4.64 15.54 4 13.85 4 12s.63-3.54 1.69-4.9"/></svg>