<svg xmlns="http://www.w3.org/2000/svg" width="24" height="24"><!--Boxicons v3.0 https://boxicons.com | License  https://docs.boxicons.com/free--><path d="m19.5 6.13-7-4a.98.98 0 0 0-.99 0l-7 4c-.15.08-.27.21-.36.35l-3 5 1.71 1.03.14-.24v8.72c0 .55.45 1 1 1h16c.55 0 1-.45 1-1v-8.72l.14.24 1.71-1.03-3-5a.93.93 0 0 0-.36-.35ZM11.24 17.5 9 19.46v-3.92zm.76.66L14.1 20H9.9zm.76-.66L15 15.54v3.92zm-.76-.66L9.9 15h4.2zM19 9v11h-2v-6c0-.55-.45-1-1-1H8c-.55 0-1 .45-1 1v6H5V9h-.03l.76-1.26 6.28-3.59 6.28 3.59.76 1.26h-.03Z"/><path d="M12 7a2 2 0 1 0 0 4 2 2 0 1 0 0-4"/></svg>