<svg xmlns="http://www.w3.org/2000/svg" width="24" height="24"><!--Boxicons v3.0 https://boxicons.com | License  https://docs.boxicons.com/free--><path d="M8 6a1 1 0 1 0 0 2 1 1 0 1 0 0-2"/><path d="M13.05 4.41A5.5 5.5 0 0 0 8.5 2 5.51 5.51 0 0 0 3 7.5c0 .09.02.17.02.26C2.4 8.31 2 9.1 2 10h1.62a5.56 5.56 0 0 0 3.37 2.77c.2 1.65.99 5.22 4.01 6.63V22h2v-2.05c.27.03.55.05.85.05.41 0 .78-.04 1.15-.07V22h2v-2.4c1.22-.32 2.14-.78 2.75-1.17l1.42 2.13 1.66-1.11-1.99-2.99zm.8 13.59c-4.47 0-4.89-5.08-4.93-6.1l-.03-.84-.84-.11C6.31 10.72 5 9.24 5 7.5 5 5.57 6.57 4 8.5 4c1.16 0 2.24.57 2.89 1.53l1.13 1.75c-1.77 2.31-1.93 5.27-.41 7.75.84 1.36 2.04 2.33 3.43 2.85-.51.08-1.07.13-1.69.13Zm-.04-4.02c-.75-1.23-1.11-3.09-.1-4.86l4.62 7.14c-2.15.19-3.73-1-4.51-2.27Z"/></svg>