<svg xmlns="http://www.w3.org/2000/svg" width="24" height="24"><!--Boxicons v3.0 https://boxicons.com | License  https://docs.boxicons.com/free--><path d="M12 8c-1.1 0-2 .9-2 2 0 .85.53 1.57 1.28 1.86l-.53 10.13h2.5l-.53-10.13C13.47 11.57 14 10.85 14 10c0-1.1-.9-2-2-2m-2.83-.83L7.76 5.75A5.97 5.97 0 0 0 6 9.99c0 1.6.62 3.11 1.76 4.25l1.41-1.41A3.96 3.96 0 0 1 8 10c0-1.07.42-2.07 1.17-2.82Zm7.07-1.41-1.41 1.41C15.59 7.93 16 8.93 16 10s-.42 2.07-1.17 2.83l1.41 1.41C17.37 13.11 18 11.6 18 10s-.62-3.11-1.76-4.24"/><path d="M6.34 4.34 4.93 2.92C3.04 4.81 2 7.32 2 9.99s1.04 5.18 2.93 7.07l1.41-1.41c-1.51-1.51-2.35-3.52-2.35-5.66s.83-4.15 2.34-5.65Zm11.32 0c3.12 3.12 3.12 8.2 0 11.31l1.41 1.41c3.9-3.9 3.9-10.24 0-14.14l-1.41 1.41Z"/></svg>