<svg xmlns="http://www.w3.org/2000/svg" width="24" height="24"><!--Boxicons v3.0 https://boxicons.com | License  https://docs.boxicons.com/free--><path d="M19 12.59V10c0-3.22-2.18-5.93-5.14-6.74C13.57 2.52 12.85 2 12 2s-1.56.52-1.86 1.26C7.18 4.08 5 6.79 5 10v2.59L3.29 14.3a1 1 0 0 0-.29.71v2c0 .55.45 1 1 1h16c.55 0 1-.45 1-1v-2c0-.27-.11-.52-.29-.71zM19 16H5v-.59l1.71-1.71a1 1 0 0 0 .29-.71v-3c0-2.76 2.24-5 5-5s5 2.24 5 5v3c0 .27.11.52.29.71L19 15.41zM5.64 3.3 4.23 1.89A10.9 10.9 0 0 0 1 9.67h2c0-2.4.94-4.66 2.64-6.36ZM18.36 3.3C20.06 5 21 7.26 21 9.66h2c0-2.94-1.14-5.7-3.22-7.78l-1.41 1.41ZM12 22c1.31 0 2.41-.83 2.82-2H9.18c.41 1.17 1.51 2 2.82 2"/></svg>