<svg xmlns="http://www.w3.org/2000/svg" width="24" height="24"><!--Boxicons v3.0 https://boxicons.com | License  https://docs.boxicons.com/free--><path d="m15.09 4.16 7.05-.99-.28-1.98-20 2.82.28 1.98 2.52-.36s-.01.07-.01.11c0 .79.36 1.23.57 1.5q.13.16.13.25t-.13.25c-.21.27-.57.71-.57 1.5 0 .3.06.54.14.75H3c-.55 0-1 .45-1 1 0 3.61 1.9 6.87 5 8.66v1.34c0 .55.45 1 1 1h8c.55 0 1-.45 1-1v-1.34c3.1-1.78 5-5.05 5-8.66 0-.55-.45-1-1-1h-5.81c-.13-.27-.29-.48-.4-.62-.17-.21-.18-.23-.18-.38s.02-.17.18-.38c.23-.29.62-.77.62-1.63s-.39-1.33-.62-1.62c-.17-.21-.18-.23-.18-.37s.02-.17.18-.37c.09-.11.21-.27.31-.46ZM6.78 9.5q-.13-.16-.13-.25T6.78 9c.21-.27.57-.71.57-1.5S6.99 6.27 6.78 6q-.13-.16-.13-.25 0-.08.13-.25c.04-.05.09-.12.14-.18l1.69-.24c.03.8.39 1.26.61 1.54.17.21.18.23.18.37s-.02.17-.18.38c-.23.29-.62.77-.62 1.62 0 .42.09.74.22 1h-1.7c-.11-.21-.24-.38-.33-.5Zm8.77 8.66c-.34.17-.56.52-.56.9V20h-6v-.94c0-.38-.21-.73-.56-.9A7.93 7.93 0 0 1 4.05 12h15.88a7.94 7.94 0 0 1-4.38 6.16M11.18 10c-.13-.27-.29-.48-.4-.62-.17-.21-.18-.23-.18-.38s.02-.17.18-.38c.23-.29.62-.77.62-1.63s-.39-1.33-.62-1.62c-.17-.21-.18-.23-.18-.37 0-.09.01-.14.06-.21l2-.28c-.03.15-.05.31-.05.49 0 .85.39 1.33.62 1.62.17.21.18.23.18.37s-.02.17-.18.38c-.23.29-.62.77-.62 1.62 0 .42.09.74.22 1H11.2Z"/></svg>