<svg xmlns="http://www.w3.org/2000/svg" width="24" height="24"><!--Boxicons v3.0 https://boxicons.com | License  https://docs.boxicons.com/free--><path d="M21.98 10.49c-.07-.38-.35-.69-.72-.79l-3.32-.9.9-3.38c.1-.38-.03-.78-.33-1.03s-.72-.3-1.07-.13l-3.09 1.47-1.44-3.15a1.005 1.005 0 0 0-1.82 0L9.65 5.73 6.56 4.26c-.35-.17-.77-.12-1.07.13s-.43.65-.33 1.03l.9 3.38-3.32.9c-.37.1-.66.41-.72.79s.09.77.41.99l2.82 2-1.98 2.87c-.22.32-.24.74-.04 1.07s.57.52.95.49l3.41-.31.29 3.48c.03.39.29.72.66.86.37.13.78.04 1.05-.24L12 19.24l2.41 2.46c.19.2.45.3.71.3a1.011 1.011 0 0 0 1-.92l.29-3.48 3.41.31c.39.03.76-.16.95-.49.2-.34.18-.75-.04-1.07l-1.98-2.87 2.82-2c.32-.22.47-.61.41-.99m-5.44 3.32 1.33 1.92-2.28-.21c-.27-.02-.53.06-.73.23s-.33.42-.35.68l-.19 2.31-1.6-1.63c-.19-.19-.45-.3-.71-.3s-.53.11-.71.3l-1.6 1.63-.19-2.31a.99.99 0 0 0-.35-.68c-.2-.17-.46-.25-.73-.23l-2.28.21 1.33-1.92c.31-.45.2-1.07-.24-1.39l-1.9-1.35 2.23-.6c.53-.14.85-.69.71-1.22L7.68 7l2.06.98c.24.12.52.13.77.04s.46-.28.57-.52l.95-2.09.95 2.09c.11.24.32.43.57.52s.53.08.77-.04L16.38 7l-.6 2.25c-.14.53.17 1.08.71 1.22l2.23.6-1.9 1.35c-.45.32-.56.93-.24 1.39Z"/></svg>