<svg xmlns="http://www.w3.org/2000/svg" width="24" height="24"><!--Boxicons v3.0 https://boxicons.com | License  https://docs.boxicons.com/free--><path d="M5.67 5.67c-2.04 2.04-3.32 4.6-3.61 7.21-.3 2.7.48 5.13 2.2 6.85C5.74 21.21 7.75 22 10 22q.555 0 1.11-.06c2.61-.29 5.18-1.57 7.21-3.61s3.32-4.6 3.61-7.21c.3-2.7-.48-5.13-2.2-6.85C16.24.78 9.93 1.41 5.67 5.68ZM4.05 13.1c.24-2.16 1.32-4.3 3.04-6.02 2.03-2.03 4.58-3.09 6.89-3.09 1.67 0 3.21.55 4.34 1.68l.01.01-1.47.13c-3.13.28-5.49 2.85-5.49 5.97 0 1.96-1.42 3.62-3.37 3.94l-3.58.59c-.36-.97-.5-2.06-.37-3.23Zm15.9-2.21c-.24 2.16-1.32 4.3-3.04 6.02s-3.85 2.79-6.02 3.04c-2.09.23-3.93-.35-5.22-1.63-.05-.05-.08-.1-.13-.15l2.77-.46a5.994 5.994 0 0 0 5.05-5.92c0-2.08 1.58-3.79 3.67-3.98l2.51-.23c.39.98.53 2.1.4 3.31Z"/></svg>