<svg xmlns="http://www.w3.org/2000/svg" width="24" height="24"><!--Boxicons v3.0 https://boxicons.com | License  https://docs.boxicons.com/free--><path d="M21.45 14.11 18 12.39v-.38a.99.99 0 0 0-.49-.86L13 8.44V6.01h2v-2h-2v-2h-2v2H9v2h2v2.43l-4.51 2.71c-.3.18-.49.51-.49.86v.38l-3.45 1.72A1 1 0 0 0 2 15v6c0 .55.45 1 1 1h18c.55 0 1-.45 1-1v-6c0-.38-.21-.72-.55-.89M12 10.17l4 2.4V20h-2v-2c0-1.1-.9-2-2-2s-2 .9-2 2v2H8v-7.43zm-8 5.45 2-1V20H4zM20 20h-2v-5.38l2 1z"/><path d="M12 12a1.5 1.5 0 1 0 0 3 1.5 1.5 0 1 0 0-3"/></svg>