<svg xmlns="http://www.w3.org/2000/svg" width="24" height="24"><!--Boxicons v3.0 https://boxicons.com | License  https://docs.boxicons.com/free--><path d="M18 6c0-2.21-1.79-4-4-4-.7 0-1.39.19-2 .55-.61-.35-1.3-.55-2-.55-2.21 0-4 1.79-4 4-2.21 0-4 1.79-4 4 0 .7.19 1.39.55 2-.35.61-.55 1.3-.55 2 0 2.21 1.79 4 4 4 0 2.21 1.79 4 4 4 .7 0 1.39-.19 2-.55.61.35 1.3.55 2 .55 2.21 0 4-1.79 4-4 2.21 0 4-1.79 4-4 0-.7-.19-1.39-.55-2 .35-.61.55-1.3.55-2 0-2.21-1.79-4-4-4m-8-2c.62 0 1.07.28 1.33.52l.67.6.67-.6c.26-.24.71-.52 1.33-.52 1.1 0 2 .9 2 2 0 .25-.05.5-.16.75L12 10.59 8.16 6.75C8.05 6.5 8 6.25 8 6c0-1.1.9-2 2-2M4 14c0-.62.28-1.07.52-1.33l.6-.67-.6-.67C4.28 11.07 4 10.62 4 10c0-1.1.9-2 2-2 .25 0 .5.05.75.16L10.59 12l-3.84 3.84C5.42 16.42 4 15.35 4 14m10 6c-.62 0-1.07-.28-1.33-.52l-.67-.6-.67.6c-.26.24-.71.52-1.33.52-1.1 0-2-.9-2-2 0-.25.05-.5.16-.75L12 13.41l3.84 3.84c.11.25.16.5.16.75 0 1.1-.9 2-2 2m5.48-7.33c.24.26.52.71.52 1.33 0 1.35-1.41 2.42-2.75 1.84L13.41 12l3.84-3.84C18.58 7.58 20 8.65 20 10c0 .62-.28 1.07-.52 1.33l-.6.67z"/></svg>