<svg xmlns="http://www.w3.org/2000/svg" width="24" height="24"><!--Boxicons v3.0 https://boxicons.com | License  https://docs.boxicons.com/free--><path d="m21.55 11.17-1.26-.84c-.23-.15-.39-.38-.45-.67-.07-.3-.01-.6.15-.84l.84-1.26c.2-.31.22-.7.05-1.03A.98.98 0 0 0 20 6h-2.07a.87.87 0 0 1-.54-.17c-.17-.14-.29-.29-.35-.44l-1.1-2.76c-.11-.27-.33-.48-.61-.58-.28-.09-.58-.06-.83.09l-2.52 1.51c-.39.24-.78.38-1.19.43-.99.13-2.01-.15-2.79-.78L6.64 2.21a1.004 1.004 0 0 0-1.63.78v4.49c0 .1-.05.21-.1.29a.47.47 0 0 1-.4.22h-1.5c-.4 0-.77.24-.92.62-.15.37-.07.8.22 1.09l1.42 1.42c.19.19.31.4.33.62.05.45-.1.89-.41 1.2l-1.34 1.34c-.29.29-.37.72-.22 1.09s.52.62.92.62H6.1c.2 0 .39.06.54.18.24.19.37.45.37.72v4.09c0 .4.24.77.62.92a.995.995 0 0 0 1.09-.21l2.76-2.76c.57-.57 1.28-.94 2.1-1.08.92-.16 1.88-.02 2.71.4l1.27.64a.995.995 0 0 0 1.42-1.09l-.45-2.23c-.05-.26 0-.54.17-.75v-.01c.08-.11.16-.19.25-.25l2.6-1.73c.28-.19.45-.5.45-.83s-.17-.65-.45-.83m-3.71 1.73c-.27.18-.52.43-.74.71l-.02.02c-.49.67-.68 1.52-.52 2.33l.05.26a6.55 6.55 0 0 0-3.43-.33c-1.2.21-2.28.77-3.14 1.63l-1.06 1.06V16.9c0-.88-.41-1.72-1.13-2.3-.49-.39-1.12-.61-1.77-.61h-.72c.54-.71.78-1.6.66-2.51-.07-.58-.33-1.14-.75-1.62.56-.19 1.04-.56 1.35-1.08.25-.42.37-.85.37-1.3V5.06c1.17.83 2.62 1.19 4.06 1 .65-.08 1.3-.32 1.93-.7l1.51-.91.67 1.67c.19.48.51.9.97 1.26.48.39 1.12.6 1.79.6h.23c-.32.63-.42 1.38-.26 2.1.17.78.63 1.45 1.29 1.89h.01l-1.35.91Z"/></svg>