<svg xmlns="http://www.w3.org/2000/svg" width="24" height="24"><!--Boxicons v3.0 https://boxicons.com | License  https://docs.boxicons.com/free--><path d="M12 2C8.02 2 4 3.37 4 6v12c0 2.63 4.02 4 8 4s8-1.37 8-4V6c0-2.63-4.02-4-8-4m0 18c-3.72 0-6-1.29-6-2v-1.27c1.54.84 3.78 1.27 6 1.27s4.46-.43 6-1.27V18c0 .71-2.28 2-6 2m0-4c-3.72 0-6-1.29-6-2v-1.27c1.54.84 3.78 1.27 6 1.27s4.46-.43 6-1.27V14c0 .71-2.28 2-6 2m0-4c-3.72 0-6-1.29-6-2V8.73C7.54 9.57 9.78 10 12 10s4.46-.43 6-1.27V10c0 .71-2.28 2-6 2m0-4C8.28 8 6 6.71 6 6s2.28-2 6-2 6 1.29 6 2-2.28 2-6 2"/></svg>