<svg xmlns="http://www.w3.org/2000/svg" width="24" height="24"><!--Boxicons v3.0 https://boxicons.com | License  https://docs.boxicons.com/free--><path d="M21.71 3.71 20.3 2.3l-2.29 2.29V2h-2v2.22c-.41-.14-.84-.22-1.27-.22a5.99 5.99 0 0 0-5.05 2.75L2.93 17.26c-.7 1.08-.54 2.53.37 3.44.53.53 1.24.8 1.95.8.51 0 1.03-.14 1.48-.43l10.51-6.76c1.73-1.11 2.76-3 2.76-5.05 0-.44-.09-.86-.22-1.27H22v-2h-2.59L21.7 3.7Zm-5.54 8.93-.37.24-2.58-2.58-1.41 1.41 2.28 2.28-1.32.85-1.54-1.54-1.41 1.41 1.23 1.23-5.38 3.46c-.3.19-.69.15-.94-.1a.76.76 0 0 1-.1-.94l6.76-10.51c.74-1.15 2-1.84 3.36-1.84.54 0 1.08.22 1.46.61l1.2 1.2c.38.38.61.92.61 1.46 0 1.37-.69 2.62-1.84 3.37Z"/></svg>