<svg xmlns="http://www.w3.org/2000/svg" width="24" height="24"><!--Boxicons v3.0 https://boxicons.com | License  https://docs.boxicons.com/free--><path d="M12 6C7.03 6 2 7.55 2 10.5v5C2 18.45 7.03 20 12 20s10-1.55 10-4.5v-5C22 7.55 16.97 6 12 6m-8 9.5v-2.2c.58.34 1.25.62 2 .86v2.88c-1.31-.51-2-1.13-2-1.54m12-.85v2.97c-.87.18-1.87.31-3 .36v-3c1.03-.04 2.04-.16 3-.33m-5 .33v3c-1.13-.05-2.13-.18-3-.36v-2.97c.96.17 1.97.29 3 .33m7 2.07v-2.88c.75-.24 1.42-.52 2-.86v2.2c0 .42-.69 1.03-2 1.54m-6-4.04c-5.18 0-8-1.65-8-2.5s2.82-2.5 8-2.5 8 1.65 8 2.5-2.82 2.5-8 2.5"/></svg>