<svg xmlns="http://www.w3.org/2000/svg" width="24" height="24"><!--Boxicons v3.0 https://boxicons.com | License  https://docs.boxicons.com/free--><path d="M21 15H3c-.55 0-1 .45-1 1v4c0 .55.45 1 1 1h18c.55 0 1-.45 1-1v-4c0-.55-.45-1-1-1M4 19v-2h12v2zm16 0h-2v-2h2zM19.01 6.89c-.82-.49-1.63-.71-2.2-.81C16.4 4.9 15.11 3 11 3v2c3.79 0 3.99 1.82 4 2 0 .55.45.99.99 1 .41 0 4.01.19 4.01 5h2c0-3.57-1.62-5.29-2.99-6.11M8.75 11.41a6.24 6.24 0 0 0 5.83.63c.32-.13.67-.09.96.1s.45.51.45.85h2c0-1.01-.5-1.95-1.33-2.51-.83-.57-1.89-.68-2.83-.3-1.33.53-2.78.38-3.97-.43a4.2 4.2 0 0 1-1.87-3.53V2.99h-2v3.23c0 2.08 1.03 4.02 2.75 5.18Z"/></svg>