<svg xmlns="http://www.w3.org/2000/svg" width="24" height="24"><!--Boxicons v3.0 https://boxicons.com | License  https://docs.boxicons.com/free--><path d="M19.38 7.25C18.79 4.25 16.12 2 13 2c-2.04 0-3.92.94-5.15 2.54-.21-.03-.4-.04-.6-.04a5.25 5.25 0 1 0 0 10.5H18c2.21 0 4-1.79 4-4 0-1.71-1.07-3.19-2.62-3.75M18 13H7.25C5.46 13 4 11.54 4 9.75S5.46 6.5 7.25 6.5c.24 0 .5.04.81.12l.72.18.39-.63A4.47 4.47 0 0 1 13.01 4c2.32 0 4.29 1.81 4.48 4.13l.06.78.77.12c.97.16 1.68.98 1.68 1.96 0 1.1-.9 2-2 2ZM7 16l-1 4h2v3l4-4.99h-2L11 16zM15 16l-1 3h1.5v2l2.5-3h-1.5l1-2z"/></svg>