<svg xmlns="http://www.w3.org/2000/svg" width="24" height="24"><!--Boxicons v3.0 https://boxicons.com | License  https://docs.boxicons.com/free--><path d="M21 14h-1c0-1.08-.21-2.13-.63-3.11A7.95 7.95 0 0 0 15.86 7c-.45-1.72-2-2.99-3.86-2.99S8.6 5.29 8.14 7q-.99.54-1.8 1.35c-.73.73-1.31 1.59-1.71 2.54C4.21 11.88 4 12.92 4 14H3c-.55 0-1 .45-1 1v4c0 .55.45 1 1 1h4c.55 0 1-.45 1-1v-4c0-.55-.45-1-1-1H6c0-.81.16-1.6.47-2.34.3-.71.73-1.36 1.29-1.91.15-.15.33-.27.49-.41.56 1.54 2.02 2.65 3.75 2.65s3.19-1.11 3.75-2.65c.17.13.34.25.49.41.55.55.98 1.19 1.29 1.91.31.74.47 1.52.47 2.33h-1c-.55 0-1 .45-1 1v4c0 .55.45 1 1 1h4c.55 0 1-.45 1-1v-4c0-.55-.45-1-1-1ZM6 18H4v-2h2zm6-8c-1.1 0-2-.9-2-2s.9-2 2-2 2 .9 2 2-.9 2-2 2m8 8h-2v-2h2z"/></svg>