<svg xmlns="http://www.w3.org/2000/svg" width="24" height="24"><!--Boxicons v3.0 https://boxicons.com | License  https://docs.boxicons.com/free--><path d="M20 9.8C19.9 5.27 16.36 2 11.5 2s-9.49 3.24-9.49 8.67c0 2.71 1.03 5.05 2.99 6.79V22h2v-5.48l-.37-.3c-1.74-1.4-2.62-3.26-2.62-5.55C4.01 6.34 7.87 4 11.5 4c3.83 0 6.5 2.47 6.5 6v.19L19.52 14H17v4h-4v4h2v-2h2c1.1 0 2-.9 2-2v-2h1.26a1.5 1.5 0 0 0 1.39-2.06L19.99 9.8Z"/><path d="M11 10h-1v2h1c1.65 0 3-1.35 3-3s-1.35-3-3-3c-1.33 0-2.59.52-3.54 1.46C6.52 8.4 6 9.66 6 11s.52 2.59 1.46 3.54C8.4 15.48 9.66 16 11 16s2.59-.52 3.54-1.46l-1.41-1.42c-1.13 1.13-3.11 1.13-4.24 0-.57-.57-.88-1.32-.88-2.12s.31-1.55.88-2.12S10.21 8 11.01 8c.55 0 1 .45 1 1s-.45 1-1 1Z"/></svg>