<svg xmlns="http://www.w3.org/2000/svg" width="24" height="24"><!--Boxicons v3.0 https://boxicons.com | License  https://docs.boxicons.com/free--><path d="M21.61 9.95c.13-.3.23-.62.29-.94.07-.33.1-.67.1-1.01s-.03-.68-.1-1.01a6 6 0 0 0-.29-.94 5 5 0 0 0-1.07-1.59c-.23-.23-.48-.43-.74-.61-.27-.18-.55-.34-.85-.46-.3-.13-.62-.23-.94-.29-.66-.13-1.35-.13-2.01 0-.32.07-.64.17-.94.29a5 5 0 0 0-1.59 1.07c-.23.23-.43.48-.61.74-.18.27-.34.55-.46.85l-.03.1c-.44-.09-.9-.15-1.36-.15-3.11 0-5.79 2.25-6.37 5.25A3.97 3.97 0 0 0 2.01 15c0 2.21 1.79 4 4 4h10.75c2.9 0 5.25-2.36 5.25-5.25 0-1.08-.33-2.08-.89-2.91 0-.01.02-.03.03-.04.18-.27.34-.55.46-.85m-7.37-3.12c.07-.18.17-.35.28-.51s.23-.31.37-.44a3.2 3.2 0 0 1 .96-.65 3.1 3.1 0 0 1 1.77-.17c.2.04.38.1.56.18.18.07.35.17.51.28s.31.23.44.37a3.2 3.2 0 0 1 .65.96 3.1 3.1 0 0 1 .17 1.77c-.04.19-.1.38-.18.56-.03.07-.08.14-.11.21-.83-.55-1.83-.88-2.9-.88-.2 0-.4.01-.6.04a6.7 6.7 0 0 0-1.92-1.68c0-.01 0-.02.01-.03ZM16.75 17H6c-1.1 0-2-.9-2-2 0-.98.71-1.81 1.68-1.96l.77-.12.06-.78c.19-2.32 2.16-4.13 4.48-4.13 1.58 0 3.02.81 3.84 2.17l.39.63.72-.18c.31-.08.56-.12.81-.12 1.79 0 3.25 1.46 3.25 3.25s-1.46 3.25-3.25 3.25Z"/></svg>