<svg xmlns="http://www.w3.org/2000/svg" width="24" height="24"><!--Boxicons v3.0 https://boxicons.com | License  https://docs.boxicons.com/free--><path d="M19.62 11.11C19.19 7.12 15.94 4 12 4 8.95 4 6.31 5.88 5.13 8.82c-.21.06-.41.15-.61.24C2.48 9.78 1 11.71 1 13.99h.03c0 .11-.03.22-.03.33 0 3.12 2.44 5.67 5.44 5.67h12.22c2.39 0 4.33-2.02 4.33-4.5 0-2.14-1.45-3.94-3.38-4.39ZM18.67 18H6.44C4.54 18 3 16.36 3 14.33c0-1.44.97-2.82 2.28-3.42.31-.1.63-.17.97-.17 1.79 0 3.25 1.46 3.25 3.25h2c0-2.52-1.79-4.63-4.17-5.14C8.3 7.06 10 5.99 12 5.99c3.12 0 5.67 2.69 5.67 6v1h1c1.29 0 2.33 1.12 2.33 2.5s-1.05 2.5-2.33 2.5Z"/></svg>