<svg xmlns="http://www.w3.org/2000/svg" width="24" height="24"><!--Boxicons v3.0 https://boxicons.com | License  https://docs.boxicons.com/free--><path d="M12 2C6.49 2 2 6.49 2 12s4.49 10 10 10 10-4.49 10-10S17.51 2 12 2m0 13c-1.65 0-3-1.35-3-3s1.35-3 3-3 3 1.35 3 3-1.35 3-3 3m2.75-7.17A4.9 4.9 0 0 0 13 7.1V4.07c1.46.18 2.79.76 3.9 1.62l-2.14 2.14ZM11 7.1c-.64.13-1.23.38-1.75.73L7.11 5.69a7.94 7.94 0 0 1 3.9-1.62V7.1ZM7.83 9.25c-.35.52-.6 1.12-.73 1.75H4.07c.18-1.46.76-2.79 1.62-3.9zM7.1 13c.13.64.38 1.23.73 1.75L5.69 16.9A7.94 7.94 0 0 1 4.07 13zm2.15 3.17c.52.35 1.12.6 1.75.73v3.03a7.94 7.94 0 0 1-3.9-1.62l2.14-2.14Zm3.75.73c.64-.13 1.23-.38 1.75-.73l2.14 2.14a7.94 7.94 0 0 1-3.9 1.62V16.9Zm3.17-2.15c.35-.52.6-1.12.73-1.75h3.03a7.94 7.94 0 0 1-1.62 3.9zM16.9 11c-.13-.64-.38-1.23-.73-1.75l2.14-2.15a7.94 7.94 0 0 1 1.62 3.9z"/></svg>