<svg xmlns="http://www.w3.org/2000/svg" width="24" height="24"><!--Boxicons v3.0 https://boxicons.com | License  https://docs.boxicons.com/free--><path d="M12 9c-2.17 0-4 1.83-4 4s1.83 4 4 4 4-1.83 4-4-1.83-4-4-4m0 6c-1.07 0-2-.93-2-2s.93-2 2-2 2 .93 2 2-.93 2-2 2" class="b"/><path d="M20 5h-3.15l-2.23-1.78c-.18-.14-.4-.22-.62-.22h-4c-.23 0-.45.08-.62.22L7.15 5H4c-1.1 0-2 .9-2 2v12c0 1.1.9 2 2 2h16c1.1 0 2-.9 2-2V7c0-1.1-.9-2-2-2m0 14H4V7h3.5c.23 0 .45-.08.62-.22L10.35 5h3.3l2.23 1.78c.18.14.4.22.62.22H20z" class="b"/><path d="M18 8a1 1 0 1 0 0 2 1 1 0 1 0 0-2" class="b"/></svg>