<svg xmlns="http://www.w3.org/2000/svg" width="24" height="24"><!--Boxicons v3.0 https://boxicons.com | License  https://docs.boxicons.com/free--><path d="M15.8 4.4a.99.99 0 0 0-1.19-.32l-1.69.71a3.504 3.504 0 0 0-6.93.72c0 .7.21 1.36.59 1.93L2.61 9.09c-.37.16-.62.52-.62.92v8a1 1 0 0 0 .84.99l18 3c.05 0 .11.01.16.01.23 0 .46-.08.65-.24.22-.19.35-.47.35-.76v-8c0-.22-.07-.43-.2-.6l-6-8Zm-1.13 1.82 4.46 5.95L5.74 9.94l2.68-1.11c.07.02.13.03.2.05.06.02.12.03.18.04.23.05.46.08.7.08.18 0 .35-.02.52-.04.06 0 .11-.02.16-.03.12-.02.23-.05.34-.08.06-.02.12-.04.17-.06.1-.04.21-.08.31-.13.05-.03.11-.06.16-.08.1-.05.2-.11.29-.18.05-.03.09-.06.13-.1.1-.07.19-.15.28-.24.03-.03.07-.06.1-.1.1-.1.19-.2.27-.31.02-.03.04-.05.06-.08.09-.13.18-.26.26-.41 0-.01.02-.03.03-.04 0-.02.02-.03.03-.05l2.04-.85ZM9.5 4c.83 0 1.5.67 1.5 1.5 0 .16-.03.34-.07.48-.25.71-1.03 1.11-1.73.98-.12-.02-.24-.06-.35-.11-.51-.25-.84-.78-.84-1.35 0-.83.67-1.5 1.5-1.5ZM4 17.15v-5.47l16 2.67v1.97L6.16 14.01l-.33 1.97 14.16 2.36v1.47l-16-2.67Z"/></svg>