<svg xmlns="http://www.w3.org/2000/svg" width="24" height="24"><!--Boxicons v3.0 https://boxicons.com | License  https://docs.boxicons.com/free--><path d="M17 7.5c-2.48 0-4.5 2.02-4.5 4.5s2.02 4.5 4.5 4.5 4.5-2.02 4.5-4.5-2.02-4.5-4.5-4.5m0 7a2.5 2.5 0 0 1 0-5 2.5 2.5 0 0 1 0 5M7.5 13C5.02 13 3 15.02 3 17.5S5.02 22 7.5 22s4.5-2.02 4.5-4.5S9.98 13 7.5 13m0 7a2.5 2.5 0 0 1 0-5 2.5 2.5 0 0 1 0 5M7.5 2C5.02 2 3 4.02 3 6.5S5.02 11 7.5 11 12 8.98 12 6.5 9.98 2 7.5 2m0 7a2.5 2.5 0 0 1 0-5 2.5 2.5 0 0 1 0 5"/></svg>