<svg xmlns="http://www.w3.org/2000/svg" width="24" height="24"><!--Boxicons v3.0 https://boxicons.com | License  https://docs.boxicons.com/free--><path d="M15.7 2h-.18c-2.19 0-4.26 1.21-5.53 3.25-.81 1.3-1.12 2.62-.93 4.03L2.9 15.37c-.57.56-.89 1.34-.89 2.13V19c0 1.65 1.35 3 3 3H6.6c.8 0 1.55-.31 2.12-.88l.56-.56c.26-.26.46-.58.58-.92.34-.12.65-.32.92-.58l.5-.5c.26-.26.46-.58.58-.92.34-.12.65-.32.92-.58l.5-.5c.29-.29.51-.65.62-1.03.35-.11.66-.31.93-.57.23.03.45.04.68.04 1.14 0 2.25-.35 3.3-1.03 2.13-1.38 3.32-3.56 3.18-5.85-.2-3.38-2.9-6.02-6.29-6.12m2.02 10.29c-.8.52-1.54.71-2.22.71-.49 0-.95-.1-1.39-.24l-.68.76c-.08.09-.19.13-.31.13-.15 0-.31-.06-.48-.19L12 13v1.79c0 .13-.05.26-.15.35l-.5.5a.485.485 0 0 1-.7 0l-.65-.65v1.79c0 .13-.05.26-.15.35l-.5.5a.485.485 0 0 1-.7 0L8 16.98v1.79c0 .13-.05.26-.15.35l-.56.56a1 1 0 0 1-.71.29H4.99c-.55 0-1-.45-1-1v-1.5a1 1 0 0 1 .3-.71l6.95-6.88c-.35-1.06-.43-2.24.43-3.61.85-1.35 2.25-2.31 3.84-2.31h.12c2.33.07 4.22 1.92 4.35 4.23.1 1.66-.88 3.15-2.28 4.05Z"/><path d="M14 6.69 17.31 10c.92-.92.92-2.4 0-3.31s-2.4-.91-3.31 0"/></svg>