<svg xmlns="http://www.w3.org/2000/svg" width="24" height="24"><!--Boxicons v3.0 https://boxicons.com | License  https://docs.boxicons.com/free--><path d="M12 6c-4.41 0-8 3.59-8 8s3.59 8 8 8 8-3.59 8-8c0-3.47-2.23-6.43-5.33-7.53A6.97 6.97 0 0 1 20 4V2c-1.61 0-3.12.43-4.42 1.17C14.96 2.73 13.69 2 12 2 9.6 2 8 3.5 8 3.5S9.6 5 12 5c.55 0 1.04-.08 1.5-.2-.36.38-.7.79-.99 1.23-.17-.01-.34-.03-.51-.03m6 8c0 3.31-2.69 6-6 6s-6-2.69-6-6 2.43-5.73 5.52-5.98c-.31.88-.49 1.81-.51 2.79a2.8 2.8 0 0 1-1.18-.88l-1.66 1.12c.05.08 1.33 1.94 3.83 1.94s3.78-1.87 3.83-1.94l-1.66-1.12s-.42.57-1.16.87c.03-.92.22-1.79.57-2.59 2.54.7 4.42 3.02 4.42 5.78Z"/></svg>