<svg xmlns="http://www.w3.org/2000/svg" width="24" height="24"><!--Boxicons v3.0 https://boxicons.com | License  https://docs.boxicons.com/free--><path d="M20 17h-2.22c.59-1.1 1.22-2.61 1.22-4 0-2.79-1.4-5.46-3.55-6.91.03-.19.05-.39.05-.59 0-1.1-.5-2.11-1.38-2.78-.87-.67-2-.88-3.08-.59-1.17.32-2.12 1.29-2.43 2.49q-.195.75-.06 1.47C6.4 7.54 5 10.21 5 13c0 1.4.37 2.8 1.02 4H4c-1.1 0-2 .9-2 2v1c0 1.1.9 2 2 2h16c1.1 0 2-.9 2-2v-1c0-1.1-.9-2-2-2m0 3H4v-1h4a1.002 1.002 0 0 0 .7-1.71c-.83-.83-1.71-2.39-1.71-4.29 0-2.32 1.31-4.61 3.19-5.56.48-.24.68-.83.45-1.32-.16-.33-.19-.65-.09-1.01.13-.5.53-.92 1.01-1.05s.96-.04 1.35.25c.38.29.59.72.59 1.19 0 .21-.05.42-.15.62-.23.49-.03 1.07.45 1.32.2.1.38.22.56.35-1.06.8-2.37 2.37-2.37 5.21h2c0-2.25 1.11-3.32 1.79-3.77.75 1.07 1.21 2.41 1.21 3.77 0 1.54-1.31 3.71-1.81 4.42a.997.997 0 0 0 .81 1.58h4v1Z"/></svg>