<svg xmlns="http://www.w3.org/2000/svg" width="24" height="24"><!--Boxicons v3.0 https://boxicons.com | License  https://docs.boxicons.com/free--><path d="M15.16 2.01a.98.98 0 0 0-.67.12L2.5 9.14s-.08.07-.13.1c-.03.03-.07.05-.1.08-.07.08-.13.16-.17.25 0 .01-.02.03-.03.04-.05.11-.07.23-.07.35v10.03c0 .55.45 1 1 1h18c.55 0 1-.45 1-1v-10C22 4.57 17.53 2.4 15.16 2Zm0 2.04c1.06.27 4.25 1.35 4.76 4.94H6.7l8.47-4.94Zm4.83 14.94H4v-8h16v8Z"/><path d="M6.5 15a1.5 1.5 0 1 0 0 3 1.5 1.5 0 1 0 0-3m5-3a1.5 1.5 0 1 0 0 3 1.5 1.5 0 1 0 0-3m5.5 2a2 2 0 1 0 0 4 2 2 0 1 0 0-4"/></svg>