<svg xmlns="http://www.w3.org/2000/svg" width="24" height="24"><!--Boxicons v3.0 https://boxicons.com | License  https://docs.boxicons.com/free--><path d="M20.75 8.28c-1.95.5-3.75 1.42-5.27 2.67 0-.15.02-.3.02-.45 0-2.82-.93-5.61-2.69-8.08A1.01 1.01 0 0 0 12 2c-.32 0-.63.16-.81.42C9.31 5.05 8.41 8 8.53 10.96a13.5 13.5 0 0 0-5.28-2.67c-.34-.09-.7.01-.95.26s-.35.61-.26.95a13.4 13.4 0 0 0 3.51 6.21c.19.19.4.38.6.56-.97.28-1.91.76-2.77 1.45a.99.99 0 0 0-.37.78c0 .3.14.59.37.78 1.4 1.13 3 1.72 4.63 1.72 1.03 0 2.04-.26 3-.72V22h2v-1.72c.96.46 1.97.72 3 .72 1.63 0 3.23-.6 4.63-1.72a.99.99 0 0 0 .37-.78c0-.3-.14-.59-.37-.78-.86-.69-1.8-1.18-2.77-1.45.2-.18.41-.36.6-.56 1.71-1.71 2.92-3.85 3.51-6.21.09-.34-.01-.7-.26-.95a.99.99 0 0 0-.95-.26ZM12 4.87c.99 1.78 1.5 3.7 1.5 5.63 0 1.09-.17 2.17-.5 3.25-.11.36-.24.72-.38 1.08-.04.1-.08.19-.13.29-.12.28-.26.56-.41.84-.03.05-.05.1-.08.14-.03-.06-.06-.12-.1-.18-.14-.26-.27-.52-.39-.79-.04-.1-.09-.2-.13-.31-.15-.36-.28-.73-.39-1.1-.91-2.97-.55-6.07 1-8.87Zm-7.39 5.99c1.8.8 3.36 2.04 4.52 3.62.06.19.13.38.2.56.04.12.08.25.13.37.09.22.18.43.28.65.05.1.09.21.14.32-.1-.05-.2-.09-.29-.14a.5.5 0 0 0-.1-.05c-.92-.5-1.77-1.14-2.52-1.89-.99-.99-1.78-2.15-2.35-3.43Zm1.25 7.64c.94-.45 1.92-.6 2.9-.44.21.12.43.21.65.31.16.07.31.16.48.23 0 0 .02 0 .02.01-1.32.55-2.74.51-4.05-.11m8.24.11s.02 0 .02-.01c.16-.07.32-.15.47-.23.22-.1.44-.2.65-.31.98-.16 1.96 0 2.9.44-1.31.62-2.73.66-4.05.11Zm2.95-4.31c-.75.75-1.6 1.38-2.52 1.89-.04.02-.07.03-.11.05-.09.05-.2.09-.29.14.15-.31.29-.63.41-.95.05-.13.09-.26.14-.39.07-.18.14-.37.19-.55 1.16-1.57 2.72-2.82 4.52-3.62-.57 1.28-1.36 2.44-2.35 3.43Z"/></svg>