<svg xmlns="http://www.w3.org/2000/svg" width="24" height="24"><!--Boxicons v3.0 https://boxicons.com | License  https://docs.boxicons.com/free--><path d="M17.86 2.5c-.18-.31-.51-.5-.87-.5s-.69.2-.87.51c-.06.1-1.44 2.49-4.13 2.49v2c1.72 0 3.04-.66 4-1.41v1.12c-.39.58-1.72 2.29-4 2.29v2c1.72 0 3.04-.66 4-1.41V12H7.5v.04c-.35 0-.69.16-.87.47l-4.5 8c-.17.31-.17.69 0 1s.51.5.86.5h18c.36 0 .68-.19.86-.5s.18-.69 0-1l-3.87-6.88V9.57c.97.76 2.3 1.44 4 1.44v-2c-2.18 0-3.58-1.71-4-2.3V5.57c.97.76 2.3 1.44 4 1.44v-2c-2.62 0-4.12-2.48-4.14-2.5ZM4.71 20l2.79-4.96L10.29 20zm7.87 0L9.2 14h6.71l3.38 6zM5.5 9C7.43 9 9 7.43 9 5.5S7.43 2 5.5 2 2 3.57 2 5.5 3.57 9 5.5 9m0-5C6.33 4 7 4.67 7 5.5S6.33 7 5.5 7 4 6.33 4 5.5 4.67 4 5.5 4"/></svg>