<svg xmlns="http://www.w3.org/2000/svg" width="24" height="24"><!--Boxicons v3.0 https://boxicons.com | License  https://docs.boxicons.com/free--><path d="M4 2H2v19c0 .55.45 1 1 1h19v-2H4z" class="b"/><path d="M8 17c1.1 0 2-.9 2-2 0-.47-.17-.9-.45-1.25l1.62-3.77c.19-.02.38-.06.56-.12l2.31 1.84c-.01.1-.03.19-.03.3 0 1.1.9 2 2 2s2-.9 2-2c0-.41-.12-.78-.33-1.1l1.46-2.91c1.04-.07 1.88-.93 1.88-1.99s-.9-2-2-2-2 .9-2 2c0 .41.12.78.33 1.1l-1.46 2.91c-.21.01-.41.05-.6.13L12.98 8.3c.01-.1.03-.19.03-.3 0-1.1-.9-2-2-2s-2 .9-2 2c0 .42.13.81.36 1.13l-1.67 3.9c-.95.15-1.68.97-1.68 1.97 0 1.1.9 2 2 2Z" class="b"/></svg>