<svg xmlns="http://www.w3.org/2000/svg" width="24" height="24"><!--Boxicons v3.0 https://boxicons.com | License  https://docs.boxicons.com/free--><path d="M12 8c-2.21 0-4 1.79-4 4s1.79 4 4 4 4-1.79 4-4-1.79-4-4-4m0 6c-1.08 0-2-.92-2-2s.92-2 2-2 2 .92 2 2-.92 2-2 2"/><path d="m20.42 13.4-.51-.29c.05-.37.08-.74.08-1.11s-.03-.74-.08-1.11l.51-.29c.96-.55 1.28-1.78.73-2.73l-1-1.73a2.006 2.006 0 0 0-2.73-.73l-.53.31c-.58-.46-1.22-.83-1.9-1.11v-.6c0-1.1-.9-2-2-2h-2c-1.1 0-2 .9-2 2v.6c-.67.28-1.31.66-1.9 1.11l-.53-.31c-.96-.55-2.18-.22-2.73.73l-1 1.73c-.55.96-.22 2.18.73 2.73l.51.29c-.05.37-.08.74-.08 1.11s.03.74.08 1.11l-.51.29c-.96.55-1.28 1.78-.73 2.73l1 1.73c.55.95 1.77 1.28 2.73.73l.53-.31c.58.46 1.22.83 1.9 1.11v.6c0 1.1.9 2 2 2h2c1.1 0 2-.9 2-2v-.6a8.7 8.7 0 0 0 1.9-1.11l.53.31c.95.55 2.18.22 2.73-.73l1-1.73c.55-.96.22-2.18-.73-2.73m-2.59-2.78c.11.45.17.92.17 1.38s-.06.92-.17 1.38a1 1 0 0 0 .47 1.11l1.12.65-1 1.73-1.14-.66c-.38-.22-.87-.16-1.19.14-.68.65-1.51 1.13-2.38 1.4-.42.13-.71.52-.71.96v1.3h-2v-1.3c0-.44-.29-.83-.71-.96-.88-.27-1.7-.75-2.38-1.4a1.01 1.01 0 0 0-1.19-.15l-1.14.66-1-1.73 1.12-.65c.39-.22.58-.68.47-1.11-.11-.45-.17-.92-.17-1.38s.06-.93.17-1.38A1 1 0 0 0 5.7 9.5l-1.12-.65 1-1.73 1.14.66c.38.22.87.16 1.19-.14.68-.65 1.51-1.13 2.38-1.4.42-.13.71-.52.71-.96v-1.3h2v1.3c0 .44.29.83.71.96.88.27 1.7.75 2.38 1.4.32.31.81.36 1.19.14l1.14-.66 1 1.73-1.12.65c-.39.22-.58.68-.47 1.11Z"/></svg>