<svg xmlns="http://www.w3.org/2000/svg" width="24" height="24"><!--Boxicons v3.0 https://boxicons.com | License  https://docs.boxicons.com/free--><path d="M12 13.04c2.76 0 5-2.24 5-5 0-1-.27-1.95-.81-2.83a.98.98 0 0 0-.76-.47.99.99 0 0 0-.83.32c-.29.32-.68.49-1.1.49-.83 0-1.5-.67-1.5-1.5 0-.1.01-.21.04-.33a1.004 1.004 0 0 0-1.48-1.08C9.23 3.41 7 5.13 7 8.05c0 2.76 2.24 5 5 5Zm-1.75-7.7a3.52 3.52 0 0 0 3.26 2.21c.49 0 .96-.1 1.4-.3.06.26.09.52.09.79 0 1.65-1.35 3-3 3s-3-1.35-3-3c0-1.14.55-2.03 1.25-2.7"/><path d="M19.55 12.11 12 15.88l-7.55-3.77-.9 1.78L9.76 17l-6.21 3.11.9 1.78L12 18.12l7.55 3.77.9-1.78L14.24 17l6.21-3.11z"/></svg>