<svg xmlns="http://www.w3.org/2000/svg" width="24" height="24"><!--Boxicons v3.0 https://boxicons.com | License  https://docs.boxicons.com/free--><path d="M12 11c1.71 0 3-1.29 3-3s-1.29-3-3-3-3 1.29-3 3 1.29 3 3 3m0-4c.6 0 1 .4 1 1s-.4 1-1 1-1-.4-1-1 .4-1 1-1M13 12h-2c-2.76 0-5 2.24-5 5v.5c0 .83.67 1.5 1.5 1.5h9c.83 0 1.5-.67 1.5-1.5V17c0-2.76-2.24-5-5-5m-5 5c0-1.65 1.35-3 3-3h2c1.65 0 3 1.35 3 3zM6.5 11c.47 0 .9-.12 1.27-.33a5.03 5.03 0 0 1-.42-4.52C7.09 6.06 6.8 6 6.5 6 5.06 6 4 7.06 4 8.5S5.06 11 6.5 11M6.11 12H5.5C3.57 12 2 13.57 2 15.5v1c0 .28.22.5.5.5H4c0-1.96.81-3.73 2.11-5M17.5 11c1.44 0 2.5-1.06 2.5-2.5S18.94 6 17.5 6c-.31 0-.59.06-.85.15a5.025 5.025 0 0 1-.42 4.52c.37.21.79.33 1.27.33M18.5 12h-.61A6.97 6.97 0 0 1 20 17h1.5c.28 0 .5-.22.5-.5v-1c0-1.93-1.57-3.5-3.5-3.5"/></svg>