<svg xmlns="http://www.w3.org/2000/svg" width="24" height="24"><!--Boxicons v3.0 https://boxicons.com | License  https://docs.boxicons.com/free--><path d="M16.5 7c0-2.48-2.02-4.5-4.5-4.5S7.5 4.52 7.5 7s2.02 4.5 4.5 4.5 4.5-2.02 4.5-4.5M12 9.5a2.5 2.5 0 0 1 0-5 2.5 2.5 0 0 1 0 5M17.5 12c-2.48 0-4.5 2.02-4.5 4.5s2.02 4.5 4.5 4.5 4.5-2.02 4.5-4.5-2.02-4.5-4.5-4.5m0 7a2.5 2.5 0 0 1 0-5 2.5 2.5 0 0 1 0 5M6.5 12C4.02 12 2 14.02 2 16.5S4.02 21 6.5 21s4.5-2.02 4.5-4.5S8.98 12 6.5 12m0 7a2.5 2.5 0 0 1 0-5 2.5 2.5 0 0 1 0 5"/></svg>