<svg xmlns="http://www.w3.org/2000/svg" width="24" height="24"><!--Boxicons v3.0 https://boxicons.com | License  https://docs.boxicons.com/free--><path d="M12 2C6.49 2 2 6.49 2 12s4.49 10 10 10 10-4.49 10-10S17.51 2 12 2m0 2c2.95 0 5.53 1.61 6.92 4H5.08C6.47 5.61 9.04 4 12 4m0 16c-4.41 0-8-3.59-8-8 0-.69.1-1.36.26-2H5c0 1.66 1.34 3 3 3s3-1.34 3-3h2c0 1.66 1.34 3 3 3s3-1.34 3-3h.74c.17.64.26 1.31.26 2 0 4.41-3.59 8-8 8"/><path d="m9.17 14.83-1.41 1.41c1.17 1.17 2.71 1.75 4.24 1.75s3.07-.58 4.24-1.75l-1.41-1.41a4.01 4.01 0 0 1-5.66 0"/></svg>