<svg xmlns="http://www.w3.org/2000/svg" width="24" height="24"><!--Boxicons v3.0 https://boxicons.com | License  https://docs.boxicons.com/free--><path d="m21.45 5.83 1.11-1.66-3-2a1.003 1.003 0 0 0-1.41.32L15.44 7h-4.48a4.44 4.44 0 0 0-1.27-2.68C8.84 3.47 7.71 3 6.51 3s-2.33.47-3.18 1.32S2.01 6.3 2.01 7.5s.47 2.33 1.32 3.18a4.46 4.46 0 0 0 2.94 1.29c.16.62.38 1.21.68 1.76l-.03.05s.04.02.07.03a8.02 8.02 0 0 0 6.03 4.11v2.07h-3v2h8v-2h-3v-2.07c3.94-.49 7-3.86 7-7.93v-2c0-.55-.45-1-1-1h-3.23l1.55-2.59 2.13 1.42ZM4 7.5c0-.67.26-1.3.73-1.77.95-.94 2.59-.94 3.54 0 .35.35.59.79.68 1.27H7c-.55 0-1 .45-1 1v1.95A2.488 2.488 0 0 1 4 7.5M14 16c-1.5 0-2.87-.56-3.92-1.47.08 0 .15.01.23.01 1.48 0 2.96-.4 4.23-1.19 1.43-.89 3.21-1.11 4.82-.65a5.99 5.99 0 0 1-5.35 3.3Zm6-6c0 .27-.02.53-.06.79-2.16-.62-4.55-.33-6.47.86-1.49.93-3.36 1.14-5.03.6C8.16 11.55 8 10.8 8 10V9h12z"/></svg>