<svg xmlns="http://www.w3.org/2000/svg" width="24" height="24"><!--Boxicons v3.0 https://boxicons.com | License  https://docs.boxicons.com/free--><path d="m20.49 6.63-8-4.5c-.3-.17-.68-.17-.98 0l-8 4.5c-.31.18-.51.51-.51.87v9c0 .36.19.69.51.87l8 4.5c.15.09.32.13.49.13s.34-.04.49-.13l8-4.5c.31-.18.51-.51.51-.87v-9c0-.36-.19-.69-.51-.87m-7.99-2.2 5.46 3.07-5.46 3.07zm-1 6.14L6.04 7.5l5.46-3.07zm-1.03 1.71L5 15.36V9.21l5.47 3.08Zm.53.85v6.15L5.53 16.2 11 13.12Zm2 0 5.47 3.08L13 19.29v-6.15Zm.53-.85L19 9.2v6.15l-5.47-3.08Z" class="b"/></svg>