<svg xmlns="http://www.w3.org/2000/svg" width="24" height="24"><!--Boxicons v3.0 https://boxicons.com | License  https://docs.boxicons.com/free--><path d="M10 6.5C10 4.57 8.43 3 6.5 3S3 4.57 3 6.5 4.57 10 6.5 10c.6 0 1.16-.17 1.65-.43L10.58 12l-2.43 2.43C7.66 14.16 7.1 14 6.5 14 4.57 14 3 15.57 3 17.5S4.57 21 6.5 21s3.5-1.57 3.5-3.5c0-.6-.17-1.16-.43-1.65L12 13.42l6.59 6.59h2.83L9.57 8.16c.27-.49.43-1.05.43-1.65ZM6.5 19c-.83 0-1.5-.67-1.5-1.5S5.67 16 6.5 16s1.5.67 1.5 1.5S7.33 19 6.5 19M5 6.5C5 5.67 5.67 5 6.5 5S8 5.67 8 6.5 7.33 8 6.5 8 5 7.33 5 6.5m8.4 2.69 1.41 1.41 6.6-6.6h-2.82z"/></svg>