<svg xmlns="http://www.w3.org/2000/svg" width="24" height="24"><!--Boxicons v3.0 https://boxicons.com | License  https://docs.boxicons.com/free--><path d="M13.44 3.12C13.27 2.48 12.69 2 12 2s-1.27.48-1.44 1.12C5.73 3.82 2 7.98 2 13v3c0 .55.45 1 1 1v2.18c0 .91.44 1.77 1.18 2.3s1.69.67 2.55.37c3.29-1.12 7.25-1.12 10.54 0a2.85 2.85 0 0 0 2.55-.37c.74-.53 1.18-1.39 1.18-2.3V17c.55 0 1-.45 1-1v-3c0-5.02-3.73-9.18-8.56-9.88M15 13v.24c-.91-.14-1.91-.24-3-.24s-2.09.09-3 .24V13c0-4.88 1.78-8 3-8s3 3.12 3 8M4 14.85V13c0-3.13 1.81-5.84 4.44-7.15C7.54 7.64 7 10.14 7 13v.67c-1.4.39-2.42.87-3 1.18m15 4.33c0 .27-.12.51-.34.67-.22.15-.49.19-.74.11-1.85-.63-3.84-.95-5.92-.95s-4.06.32-5.92.95a.78.78 0 0 1-.74-.11.81.81 0 0 1-.34-.67v-2.59c.97-.5 3.45-1.58 7-1.58s6.03 1.08 7 1.58zm1-4.33c-.58-.31-1.6-.78-3-1.18V13c0-2.86-.54-5.37-1.44-7.15C18.19 7.16 20 9.87 20 13z"/></svg>