<svg xmlns="http://www.w3.org/2000/svg" width="24" height="24"><!--Boxicons v3.0 https://boxicons.com | License  https://docs.boxicons.com/free--><path d="M21.6 11.04a.96.96 0 0 0-.85-.17c-.29.07-.52.11-.74.11-1.65 0-3-1.35-3-2.95 0-.03.02-.13.02-.17a.997.997 0 0 0-1.25-1.01c-.29.08-.53.11-.76.11-1.65 0-3-1.35-3-3.01 0-.22.03-.45.1-.72A.99.99 0 0 0 11.06 2C5.88 2.5 2 6.79 2 11.98 2 17.51 6.49 22 12 22s10-4.5 10-10.02v-.16c-.01-.31-.16-.59-.4-.78M12 20c-4.41 0-8-3.6-8-8.02 0-3.73 2.51-6.88 6.01-7.77.13 2.68 2.36 4.85 5.09 4.76a5.01 5.01 0 0 0 4.84 4.01C19.45 16.93 16.08 20 12 20"/><path d="M12.5 10a1.5 1.5 0 1 0 0 3 1.5 1.5 0 1 0 0-3M15.5 2a1.5 1.5 0 1 0 0 3 1.5 1.5 0 1 0 0-3M7.5 11a1.5 1.5 0 1 0 0 3 1.5 1.5 0 1 0 0-3M9 8a1 1 0 1 0 0 2 1 1 0 1 0 0-2M15 14a1 1 0 1 0 0 2 1 1 0 1 0 0-2M21 5a1 1 0 1 0 0 2 1 1 0 1 0 0-2M10.5 15a1.5 1.5 0 1 0 0 3 1.5 1.5 0 1 0 0-3"/></svg>