<svg xmlns="http://www.w3.org/2000/svg" width="24" height="24"><!--Boxicons v3.0 https://boxicons.com | License  https://docs.boxicons.com/free--><path d="M19.62 11.11C19.19 7.12 15.94 4 12 4 8.95 4 6.31 5.87 5.13 8.82 2.77 9.53 1 11.85 1 14.33 1 17.45 3.44 20 6.44 20h12.22c2.39 0 4.33-2.02 4.33-4.5 0-2.14-1.45-3.94-3.38-4.39ZM18.67 18H6.44C4.54 18 3 16.35 3 14.33c0-1.72 1.38-3.37 3.07-3.68l.58-.11.19-.56C7.64 7.53 9.62 6 12 6c3.12 0 5.67 2.69 5.67 6v1h1c1.29 0 2.33 1.12 2.33 2.5S19.95 18 18.67 18"/></svg>