<svg xmlns="http://www.w3.org/2000/svg" width="24" height="24"><!--Boxicons v3.0 https://boxicons.com | License  https://docs.boxicons.com/free--><path d="M5.78 19.83c1.17.93 2.56 1.6 4.01 1.93l.44-1.95a8 8 0 0 1-3.21-1.54l-1.25 1.56ZM2 12.02c0 1.52.34 2.98 1 4.34l1.8-.87a7.96 7.96 0 0 1-.8-3.47zM13.79 19.8l.44 1.95c1.45-.33 2.84-1 4.01-1.93l-1.25-1.56c-.93.75-2.04 1.28-3.2 1.55ZM19.21 15.47l1.8.87c.66-1.36.99-2.82.99-4.3v-.08L20 12c0 1.22-.27 2.38-.79 3.47M18.21 4.16l-1.24 1.57c.94.74 1.71 1.7 2.23 2.77l1.8-.88c-.65-1.34-1.62-2.54-2.79-3.47ZM13.76 4.19l.44-1.95c-1.45-.33-3-.32-4.45.01l.45 1.95a8.1 8.1 0 0 1 3.56-.01M7 5.76 5.75 4.2c-1.17.94-2.12 2.14-2.77 3.48l1.8.87a8.2 8.2 0 0 1 2.21-2.79ZM18 12c0-3.31-2.69-6-6-6s-6 2.69-6 6 2.69 6 6 6 6-2.69 6-6m-6 4c-2.21 0-4-1.79-4-4s1.79-4 4-4 4 1.79 4 4-1.79 4-4 4"/></svg>