<svg xmlns="http://www.w3.org/2000/svg" width="24" height="24"><!--Boxicons v3.0 https://boxicons.com | License  https://docs.boxicons.com/free--><path d="m21.41 12.09-3.91-1.74V5c0-.4-.23-.75-.59-.91l-4.5-2a.96.96 0 0 0-.81 0l-4.5 2c-.36.16-.59.52-.59.91v5.35L2.6 12.09c-.36.16-.59.52-.59.91v6c0 .4.23.75.59.91l4.5 2a.98.98 0 0 0 .82 0l4.09-1.82 4.09 1.82a.98.98 0 0 0 .82 0l4.5-2c.36-.16.59-.52.59-.91v-6c0-.4-.23-.75-.59-.91Zm-4.91 2.82-3.16-1.41 2.72-1.21.44-.19 3.16 1.4zM11 8.65v2.81l-2.5-1.11V7.54zm4.5 1.7L13 11.46V8.65l2.5-1.11zm-8 1.74.44.19 2.72 1.21L7.5 14.9l-3.16-1.41zm1 4.56 2.5-1.11v2.81l-2.5 1.11zM12 4.09l3.16 1.4L12 6.9 8.84 5.49zM4 15.54l2.5 1.11v2.81L4 18.35zm9 0 2.5 1.11v2.81L13 18.35zm4.5 3.92v-2.81l2.5-1.11v2.81z"/></svg>