<svg xmlns="http://www.w3.org/2000/svg" width="24" height="24"><!--Boxicons v3.0 https://boxicons.com | License  https://docs.boxicons.com/free--><path d="M17.13 5.54C16.33 3.42 14.32 2 12 2S7.67 3.42 6.87 5.54A5.506 5.506 0 0 0 2 11c0 2.07 1.18 3.95 3 4.88V18c0 .55.45 1 1 1h12c.55 0 1-.45 1-1v-2.12c1.82-.93 3-2.81 3-4.88 0-2.82-2.13-5.15-4.87-5.46m.53 8.75c-.4.14-.67.52-.67.94v1.78H7v-1.78c0-.42-.27-.8-.67-.94-1.4-.5-2.33-1.82-2.33-3.28 0-1.93 1.57-3.5 3.42-3.5.04 0 .14.01.18.02.49 0 .9-.31 1-.78.36-1.61 1.76-2.73 3.41-2.73s3.05 1.12 3.41 2.73c.1.47.51.81 1 .78.06 0 .12 0 .09-.01 1.93 0 3.5 1.57 3.5 3.5 0 1.47-.94 2.79-2.33 3.28ZM5 20h14v2H5z"/></svg>