<svg xmlns="http://www.w3.org/2000/svg" width="24" height="24"><!--Boxicons v3.0 https://boxicons.com | License  https://docs.boxicons.com/free--><path d="M21.61 8.95c.13-.3.23-.62.29-.94.07-.33.1-.67.1-1.01 0-.55-.45-1-1-1-1.65 0-3-1.35-3-3 0-.55-.45-1-1-1-.34 0-.67.03-1.01.1-.32.07-.64.17-.94.29a5 5 0 0 0-1.59 1.07c-.23.22-.43.47-.61.74s-.34.55-.46.85c-.13.3-.23.62-.29.94 0 .04 0 .07-.01.11-.36-.06-.72-.1-1.09-.1-3.11 0-5.79 2.25-6.38 5.25A3.96 3.96 0 0 0 2 15c0 2.21 1.79 4 4 4h10.75c2.9 0 5.25-2.36 5.25-5.25 0-1.31-.5-2.5-1.3-3.42.16-.17.31-.34.44-.54.18-.27.34-.55.46-.85ZM14.06 6.4c.04-.19.1-.38.18-.56.07-.18.17-.35.28-.51s.23-.31.37-.45a3.2 3.2 0 0 1 .96-.65c.1-.04.19-.08.29-.11a5.02 5.02 0 0 0 3.74 3.74c-.03.1-.07.2-.11.3-.07.18-.17.35-.28.51-.1.15-.22.29-.35.43-.72-.37-1.52-.6-2.39-.6-.2 0-.4.01-.6.04a6.5 6.5 0 0 0-2.12-1.79c0-.12.01-.24.04-.36ZM16.75 17H6c-1.1 0-2-.9-2-2 0-.98.71-1.81 1.68-1.96l.77-.12.06-.78c.19-2.32 2.16-4.13 4.48-4.13 1.58 0 3.02.81 3.84 2.17l.39.63.72-.18c.31-.08.56-.12.81-.12 1.79 0 3.25 1.46 3.25 3.25s-1.46 3.25-3.25 3.25Z"/></svg>