<svg xmlns="http://www.w3.org/2000/svg" width="24" height="24"><!--Boxicons v3.0 https://boxicons.com | License  https://docs.boxicons.com/free--><path d="M4 18V8.24L2.12 6.36c-.07.2-.12.42-.12.64v11c0 1.1.9 2 2 2h11.76l-2-2zm18 0V7c0-1.1-.9-2-2-2h-2.59L14.7 2.29a1 1 0 0 0-.71-.29h-4c-.27 0-.52.11-.71.29L6.57 5H6.4L2.71 1.29 1.3 2.7l20 20 1.41-1.41-1.62-1.62c.55-.36.91-.97.91-1.67M10.41 4h3.17l2.71 2.71c.19.19.44.29.71.29h3v11h-.59l-3.99-3.99c.36-.59.57-1.28.57-2.01 0-2.17-1.83-4-4-4-.73 0-1.42.21-2.01.57L7.91 6.5zm1.08 6.08c.16-.05.33-.08.51-.08 1.07 0 2 .93 2 2 0 .17-.03.34-.08.51z"/><path d="M8.03 12.27c.14 1.95 1.75 3.56 3.7 3.7z"/></svg>