<svg xmlns="http://www.w3.org/2000/svg" width="24" height="24"><!--Boxicons v3.0 https://boxicons.com | License  https://docs.boxicons.com/free--><path d="M21.38 4.08a.98.98 0 0 0-1.09.22l-3.14 3.14-1.32-1.98c-.17-.25-.44-.41-.73-.44-.3-.03-.59.08-.81.29l-3.14 3.14-1.32-1.98c-.17-.25-.44-.41-.73-.44-.3-.03-.59.08-.81.29L4 10.61V2H2v19c0 .55.45 1 1 1h19V5c0-.4-.24-.77-.62-.92M8.84 8.57l1.32 1.98c.17.25.44.41.73.44.3.03.59-.08.81-.29l3.14-3.14 1.32 1.98c.17.25.44.41.73.44.3.03.59-.08.81-.29l2.29-2.29v4.17l-2.84 2.84-1.32-1.98c-.17-.25-.44-.41-.73-.44-.3-.03-.59.08-.81.29l-3.14 3.14-1.32-1.98c-.17-.25-.44-.41-.73-.44-.3-.03-.59.08-.81.29L4 17.58v-4.17zM20 20H4.41l4.43-4.43 1.32 1.98c.17.25.44.41.73.44.3.03.59-.08.81-.29l3.14-3.14 1.32 1.98c.17.25.44.41.73.44.3.03.59-.08.81-.29l2.29-2.29v5.59Z"/></svg>