<svg xmlns="http://www.w3.org/2000/svg" width="24" height="24"><!--Boxicons v3.0 https://boxicons.com | License  https://docs.boxicons.com/free--><path d="M16.99 2.89A.996.996 0 0 0 16 2H8c-.51 0-.94.38-.99.89l-1 9V12c0 2.97 2.17 5.43 5 5.91V20h-3v2h8v-2h-3v-2.09c2.83-.48 5-2.94 5-5.91v-.11l-1-9ZM15.1 4l.46 4.15c-1.45-.38-3 0-4.23 1.11-.93.83-2.06.96-3.06.38l.63-5.63h6.21ZM12 16c-2.19 0-3.97-1.77-4-3.95l.04-.33q.735.27 1.5.27c1.11 0 2.21-.42 3.13-1.25.96-.86 2.13-.97 3.15-.33l.18 1.63a4.01 4.01 0 0 1-4 3.95Z"/></svg>