<svg xmlns="http://www.w3.org/2000/svg" width="24" height="24"><!--Boxicons v3.0 https://boxicons.com | License  https://docs.boxicons.com/free--><path d="m18.03 9.98.95-4.29c.26-1.19-.18-2.37-1.16-3.09s-2.24-.79-3.29-.19L12 3.86 9.47 2.41c-1.05-.6-2.32-.53-3.29.19S4.76 4.5 5.02 5.69l.95 4.29-2.94 10.76c-.08.3-.02.62.17.87s.48.39.79.39h16a1 1 0 0 0 .79-.39c.19-.25.25-.57.17-.87L18.01 9.98ZM7.36 4.2c.13-.09.58-.37 1.12-.06l3.03 1.73c.31.18.68.18.99 0l3.03-1.73c.54-.31.99-.03 1.12.07.13.09.53.44.39 1.05l-.83 3.75H7.8l-.83-3.75c-.13-.6.27-.96.39-1.05ZM15 20v-6h-2v6h-2v-6H9v6H5.31l2.45-9h8.47l2.45 9h-3.69Z"/></svg>