<svg xmlns="http://www.w3.org/2000/svg" width="24" height="24"><!--Boxicons v3.0 https://boxicons.com | License  https://docs.boxicons.com/free--><path d="M19.87 5.83 8.28 2.72c-1.07-.28-2.16.35-2.45 1.41L2.72 15.72c-.29 1.06.35 2.16 1.41 2.45l11.59 3.11c.17.05.35.07.52.07.88 0 1.69-.59 1.93-1.48l3.11-11.59c.29-1.06-.35-2.16-1.41-2.45m-3.62 13.52L4.66 16.24 7.77 4.65l11.59 3.11-3.1 11.59Z"/><path d="M9.2 12.8c.8.21 1.62-.26 1.84-1.06.21-.8-.26-1.62-1.06-1.84-.8-.21-1.62.26-1.84 1.06-.21.8.26 1.62 1.06 1.84m4.83 1.3c.8.21 1.62-.26 1.84-1.06.21-.8-.26-1.62-1.06-1.84-.8-.21-1.62.26-1.84 1.06-.21.8.26 1.62 1.06 1.84"/></svg>