<svg xmlns="http://www.w3.org/2000/svg" width="24" height="24"><!--Boxicons v3.0 https://boxicons.com | License  https://docs.boxicons.com/free--><path d="m15.71 5.29-3-3a.996.996 0 0 0-1.41 0l-3 3a.996.996 0 0 0 0 1.41l3 3c.2.2.45.29.71.29s.51-.1.71-.29l3-3a.996.996 0 0 0 0-1.41ZM12 7.58l-1.59-1.59L12 4.4l1.59 1.59zm-.71 6.71-3 3a.996.996 0 0 0 0 1.41l3 3c.2.2.45.29.71.29s.51-.1.71-.29l3-3a.996.996 0 0 0 0-1.41l-3-3a.996.996 0 0 0-1.41 0ZM13.58 18l-1.59 1.59L10.4 18l1.59-1.59zm5.13-9.71a.996.996 0 0 0-1.41 0l-3 3a.996.996 0 0 0 0 1.41l3 3c.2.2.45.29.71.29s.51-.1.71-.29l3-3a.996.996 0 0 0 0-1.41l-3-3ZM18 13.58l-1.59-1.59L18 10.4l1.59 1.59zM6 16c.26 0 .51-.1.71-.29l3-3a.996.996 0 0 0 0-1.41l-3-3a.996.996 0 0 0-1.41 0l-3 3a.996.996 0 0 0 0 1.41l3 3c.2.2.45.29.71.29Zm0-5.59L7.59 12 6 13.59 4.41 12z"/></svg>