<svg xmlns="http://www.w3.org/2000/svg" width="24" height="24"><!--Boxicons v3.0 https://boxicons.com | License  https://docs.boxicons.com/free--><path d="M18.16 3.01A2.02 2.02 0 0 0 16.42 2H7.58c-.72 0-1.38.39-1.74 1.01l-3.37 5.9c-.41.71-.33 1.62.19 2.26l7.79 9.52c.38.47.95.73 1.55.73s1.17-.27 1.55-.73l7.79-9.52c.52-.64.6-1.54.19-2.26zM16.42 4l2.86 5h-3.07l-1.79-5zm-8.63 7 2 5.73L5.11 11zm6.3 0L12 16.97 9.91 11zM9.92 9l1.79-5h.59l1.79 5H9.93Zm6.29 2h2.68l-4.68 5.73zM7.58 4V3zh2L7.79 9H4.72z"/></svg>