<svg xmlns="http://www.w3.org/2000/svg" width="24" height="24"><!--Boxicons v3.0 https://boxicons.com | License  https://docs.boxicons.com/free--><path d="M12 2C6.49 2 2 6.49 2 12s4.49 10 10 10 10-4.49 10-10S17.51 2 12 2m0 18c-4.41 0-8-3.59-8-8s3.59-8 8-8 8 3.59 8 8-3.59 8-8 8"/><path d="M17.29 8.29 16 9.59l-1.29-1.3-1.42 1.42 1.3 1.29-1.3 1.29 1.42 1.42 1.29-1.3 1.29 1.3 1.42-1.42-1.3-1.29 1.3-1.29zm-6.58 4L9.41 11l1.3-1.29-1.42-1.42L8 9.59l-1.29-1.3-1.42 1.42L6.59 11l-1.3 1.29 1.42 1.42L8 12.41l1.29 1.3zM10 16h4v2h-4z"/></svg>