<svg xmlns="http://www.w3.org/2000/svg" width="24" height="24"><!--Boxicons v3.0 https://boxicons.com | License  https://docs.boxicons.com/free--><path d="M16.5 11a1.5 1.5 0 1 0 0 3 1.5 1.5 0 1 0 0-3M7.5 11a1.5 1.5 0 1 0 0 3 1.5 1.5 0 1 0 0-3"/><path d="M21.79 9.01c-.12-1.17-.31-2.31-.56-3.33-.26-1.02-.56-1.83-.91-2.4C19.82 2.43 19.2 2 18.49 2s-1.33.43-1.83 1.28c-.23.39-.45.89-.65 1.49-2.5-1.01-5.56-1.01-8.05 0-.2-.6-.41-1.1-.64-1.48-.5-.85-1.12-1.28-1.83-1.28s-1.33.43-1.83 1.28c-.35.58-.65 1.39-.91 2.42-.25 1-.44 2.15-.55 3.31-.14 1.25-.21 2.59-.21 4 0 .65.08 1.31.25 1.97-.17.43-.25.86-.25 1.29 0 3.22 4.39 5.74 10 5.74s10-2.52 10-5.74c0-.43-.08-.86-.25-1.29.17-.66.25-1.32.25-1.97 0-1.41-.07-2.75-.21-3.99Zm-2 6.49c.14.27.2.52.2.76 0 1.67-2.93 3.52-7.23 3.72-.16-.29-.27-.62-.27-.98v-.3c0-.41.26-.78.65-.93 1.09-.43 1.85-1.43 1.85-2.44 0-.74-1.34-1.33-3-1.33s-3 .6-3 1.33c0 1.01.77 2.01 1.85 2.44.39.15.65.51.65.93v.3c0 .36-.1.69-.27.98-4.3-.2-7.23-2.05-7.23-3.72 0-.24.07-.49.2-.76l.18-.35-.11-.38c-.18-.6-.27-1.19-.27-1.76 0-1.33.07-2.6.2-3.79.11-1.07.28-2.13.5-3.03.26-1.03.52-1.59.69-1.88.04-.07.08-.12.11-.17.03.05.07.1.11.17.17.28.43.84.68 1.84l.42 1.83 1.25-1.01c2.4-1.27 5.65-1.27 8.08 0l1.25 1.01.4-1.8c.26-1.03.52-1.59.69-1.88.04-.07.08-.12.11-.17.03.05.07.1.11.17.17.28.43.84.69 1.86.22.92.4 1.97.51 3.05.13 1.18.19 2.45.19 3.78 0 .57-.09 1.17-.27 1.76l-.11.38.18.35Z"/></svg>