<svg xmlns="http://www.w3.org/2000/svg" width="24" height="24"><!--Boxicons v3.0 https://boxicons.com | License  https://docs.boxicons.com/free--><path d="M13.29 15.71A1 1 0 0 1 13 15c0-.1.03-.19.06-.28.85-.46 1.44-1.42 1.44-2.39 0-.74-1.12-1.33-2.5-1.33s-2.5.6-2.5 1.33c0 .97.59 1.93 1.44 2.39.03.09.06.18.06.28 0 .27-.1.52-.29.71-.38.38-1.04.38-1.41 0l-.71.71c.38.38.88.59 1.41.59.36 0 .7-.1 1-.28v.28c0 .55.45 1 1 1s1-.45 1-1v-.28c.3.18.64.28 1 .28.53 0 1.04-.21 1.41-.59l-.71-.71c-.38.38-1.04.38-1.41 0M16 10a1 1 0 1 0 0 2 1 1 0 1 0 0-2M8 10a1 1 0 1 0 0 2 1 1 0 1 0 0-2"/><path d="M21.24 5.69c-.25-1.01-.56-1.82-.9-2.41C19.72 2.22 19 2 18.51 2c-.96 0-2.83 2.06-3.79 3.53-1.83-.47-3.58-.47-5.41 0C8.35 4.06 6.48 2 5.52 2c-.49 0-1.21.22-1.83 1.28-.35.58-.65 1.4-.9 2.41-.24.98-.43 2.09-.56 3.32-.19 1.85-.2 4.07-.2 4.5 0 5.4 3.65 8.5 10 8.5s10-3.1 10-8.5c0-.43 0-2.65-.2-4.5-.13-1.22-.32-2.34-.56-3.32ZM12 20c-3.65 0-8-1.13-8-6.5 0-.41 0-2.54.19-4.29.12-1.11.29-2.17.51-3.04.26-1.03.51-1.59.69-1.88.03-.05.06-.1.09-.14.64.54 1.91 1.86 2.45 2.98l.38.79.83-.27c1.98-.64 3.75-.64 5.74 0l.83.27.38-.79c.54-1.12 1.81-2.44 2.45-2.98.03.04.06.08.09.14.17.29.43.85.69 1.88.22.87.4 1.92.51 3.04.18 1.75.19 3.88.19 4.29 0 5.37-4.35 6.5-8 6.5Z"/><path d="M5.92 6.23s-.76 1.52-.95 4.55c.63-.97 1.51-1.79 2.57-2.4L5.93 6.23ZM16.47 8.38c1.06.61 1.94 1.43 2.57 2.4-.2-3.03-.95-4.55-.95-4.55l-1.61 2.15Z"/></svg>