<svg xmlns="http://www.w3.org/2000/svg" width="24" height="24"><!--Boxicons v3.0 https://boxicons.com | License  https://docs.boxicons.com/free--><path d="M20 8h-3V4c0-1.1-.9-2-2-2H4c-1.1 0-2 .9-2 2v8c0 1.1.9 2 2 2h1v2c0 .38.21.72.55.89.14.07.29.11.45.11.21 0 .42-.07.6-.2L9 15v2c0 1.1.9 2 2 2h3.67l3.73 2.8c.18.13.39.2.6.2.15 0 .31-.04.45-.11A1 1 0 0 0 20 21v-2c1.1 0 2-.9 2-2v-7c0-1.1-.9-2-2-2M6 12H4V4h11v8h-5c-.12 0-.24.03-.35.07-.04.02-.07.04-.11.06-.05.02-.09.04-.14.07L7 14v-1c0-.55-.45-1-1-1m14 5h-1c-.55 0-1 .45-1 1v1l-2.4-1.8a1 1 0 0 0-.6-.2h-4v-3h4c1.1 0 2-.9 2-2v-2h3z"/></svg>