<svg xmlns="http://www.w3.org/2000/svg" width="24" height="24"><!--Boxicons v3.0 https://boxicons.com | License  https://docs.boxicons.com/free--><path d="M12 3C7.66 3 4 4.83 4 7v10c0 2.17 3.66 4 8 4s8-1.83 8-4V7c0-2.17-3.66-4-8-4m0 2c3.68 0 5.91 1.49 6 2-.09.51-2.32 2-6 2S6.07 7.49 6 7.01C6.07 6.51 8.31 5 12 5M6 9.61c1.48.85 3.64 1.39 6 1.39s4.52-.55 6-1.39V12c-.07.5-2.31 2-6 2s-5.93-1.51-6-2zM12 19c-3.69 0-5.93-1.51-6-2v-2.39c1.48.85 3.64 1.39 6 1.39s4.52-.55 6-1.39V17c-.07.5-2.31 2-6 2"/></svg>