<svg xmlns="http://www.w3.org/2000/svg" width="24" height="24"><!--Boxicons v3.0 https://boxicons.com | License  https://docs.boxicons.com/free--><path d="M20 11h-6c-.55 0-1 .45-1 1v8c0 .55.45 1 1 1h6c.55 0 1-.45 1-1v-8c0-.55-.45-1-1-1m-1 8h-4v-6h4zM10 15H4c-.55 0-1 .45-1 1v4c0 .55.45 1 1 1h6c.55 0 1-.45 1-1v-4c0-.55-.45-1-1-1m-1 4H5v-2h4zM20 3h-6c-.55 0-1 .45-1 1v4c0 .55.45 1 1 1h6c.55 0 1-.45 1-1V4c0-.55-.45-1-1-1m-1 4h-4V5h4zM10 3H4c-.55 0-1 .45-1 1v8c0 .55.45 1 1 1h6c.55 0 1-.45 1-1V4c0-.55-.45-1-1-1m-1 8H5V5h4z"/></svg>