<svg xmlns="http://www.w3.org/2000/svg" width="24" height="24"><!--Boxicons v3.0 https://boxicons.com | License  https://docs.boxicons.com/free--><path d="M12 8c-2.21 0-4 1.79-4 4s1.79 4 4 4 4-1.79 4-4-1.79-4-4-4m0 6c-1.1 0-2-.9-2-2s.9-2 2-2 2 .9 2 2-.9 2-2 2"/><path d="M20.31 7.96c-.1.02-.2.04-.31.04-1.1 0-2-.9-2-1.97 0-.03.02-.13.02-.16a.99.99 0 0 0-.4-.86.99.99 0 0 0-.94-.14A1.9 1.9 0 0 1 16 5c-1.08 0-1.97-.88-1.99-1.96a.993.993 0 0 0-.89-.97C12.75 2.03 12.38 2 12 2 6.49 2 2 6.49 2 12s4.49 10 10 10 10-4.49 10-10c0-1.14-.2-2.28-.6-3.39a1 1 0 0 0-1.09-.65M12 20c-4.41 0-8-3.59-8-8s3.59-8 8-8h.13a4.054 4.054 0 0 0 3.99 3 4 4 0 0 0 3.61 2.99c.17.66.26 1.34.26 2.01 0 4.41-3.59 8-8 8Z"/></svg>