<svg xmlns="http://www.w3.org/2000/svg" width="24" height="24"><!--Boxicons v3.0 https://boxicons.com | License  https://docs.boxicons.com/free--><path d="M19.5 2A2.5 2.5 0 0 0 17 4.5v4c0 .28-.22.5-.5.5s-.5-.22-.5-.5v-3C16 3.57 14.43 2 12.5 2S9 3.57 9 5.5V12c0 .55-.45 1-1 1s-1-.45-1-1V8.5a2.5 2.5 0 0 0-5 0v4.16C2 15.61 4.4 18 7.34 18H9v2H5v2h14v-2h-3v-6h.66C19.61 14 22 11.6 22 8.66V4.5A2.5 2.5 0 0 0 19.5 2m.5 6.66C20 10.5 18.5 12 16.66 12H15c-.55 0-1 .45-1 1v7h-3v-3c0-.55-.45-1-1-1H7.34C5.5 16 4 14.5 4 12.66V8.5c0-.28.22-.5.5-.5s.5.22.5.5V12c0 1.65 1.35 3 3 3s3-1.35 3-3V5.5c0-.83.67-1.5 1.5-1.5s1.5.67 1.5 1.5v3a2.5 2.5 0 0 0 5 0v-4c0-.28.22-.5.5-.5s.5.22.5.5z"/></svg>