<svg xmlns="http://www.w3.org/2000/svg" width="24" height="24"><!--Boxicons v3.0 https://boxicons.com | License  https://docs.boxicons.com/free--><path d="M12 2C7.66 2 4 3.83 4 6v12c0 2.17 3.66 4 8 4s8-1.83 8-4V6c0-2.17-3.66-4-8-4m0 2c3.68 0 5.91 1.49 6 2-.09.51-2.32 2-6 2S6.07 6.49 6 6.01C6.07 5.51 8.31 4 12 4M6 8.61C7.48 9.46 9.64 10 12 10s4.52-.55 6-1.39V10c-.07.5-2.31 2-6 2s-5.93-1.51-6-2zm0 4c1.48.85 3.64 1.39 6 1.39s4.52-.55 6-1.39V14c-.07.5-2.31 2-6 2s-5.93-1.51-6-2zM12 20c-3.69 0-5.93-1.51-6-2v-1.39c1.48.85 3.64 1.39 6 1.39s4.52-.55 6-1.39V18c-.07.5-2.31 2-6 2"/></svg>