<svg xmlns="http://www.w3.org/2000/svg" width="24" height="24"><!--Boxicons v3.0 https://boxicons.com | License  https://docs.boxicons.com/free--><path d="M12 9c-3.58 0-6.5 2.92-6.5 6.5S8.42 22 12 22s6.5-2.92 6.5-6.5S15.58 9 12 9m0 11.5c-2.76 0-5-2.24-5-5s2.24-5 5-5 5 2.24 5 5-2.24 5-5 5"/><path d="M12 14.89c-1.22 0-1.22-.38-1.22-.61 0-.29.43-.61 1.22-.61.72 0 .84.39.85.62h.61l.61-.01c0-.62-.41-1.5-1.46-1.75v-.68h-1.22v.66c-1.2.2-1.83.99-1.83 1.77 0 .68.32 1.83 2.43 1.83 1.22 0 1.22.41 1.22.61 0 .25-.38.61-1.22.61-1.12 0-1.21-.52-1.22-.61H9.55c0 .56.4 1.55 1.83 1.78v.66h1.22v-.66c1.2-.2 1.83-.99 1.83-1.77 0-.68-.32-1.83-2.43-1.83ZM9.88 8 12 6.59 14.12 8l-.71-2.29L15 4.12l-2.04-.18L12 2l-.96 1.94L9 4.12l1.59 1.59zM20.3 7.62 19.5 6l-.8 1.62-1.7.14 1.32 1.33-.58 1.91 1.76-1.18L21.26 11l-.58-1.91L22 7.76zM5.68 9.09 7 7.76l-1.7-.14L4.5 6l-.8 1.62-1.7.14 1.32 1.33L2.74 11 4.5 9.82 6.26 11z"/></svg>