<svg xmlns="http://www.w3.org/2000/svg" width="24" height="24"><!--Boxicons v3.0 https://boxicons.com | License  https://docs.boxicons.com/free--><path d="M12 2C6.49 2 2 6.49 2 12s4.49 10 10 10 10-4.49 10-10S17.51 2 12 2m0 18c-4.41 0-8-3.59-8-8s3.59-8 8-8 8 3.59 8 8-3.59 8-8 8"/><path d="M12 11c-2 0-2-.63-2-1 0-.48.7-1 2-1 1.18 0 1.39.64 1.4 1.02l1-.02h1c0-1.03-.67-2.47-2.4-2.88V6h-2v1.09C9.03 7.42 8 8.72 8 10c0 1.12.52 3 4 3 2 0 2 .68 2 1 0 .42-.62 1-2 1-1.84 0-1.99-.86-2-1H8c0 .92.66 2.55 3 2.92V18h2v-1.09c1.97-.33 3-1.63 3-2.91 0-1.12-.52-3-4-3"/></svg>