<svg xmlns="http://www.w3.org/2000/svg" width="24" height="24"><!--Boxicons v3.0 https://boxicons.com | License  https://docs.boxicons.com/free--><path d="m21.32 12.05-2.23-.74c-.81-.27-1.69-.11-2.35.42l-3.4 2.72-1.17-2.34A2 2 0 0 0 10.38 11H4c-1.1 0-2 .9-2 2v6c0 1.1.9 2 2 2h9.62c1.17 0 2.28-.51 3.04-1.4l5.1-5.95c.22-.25.29-.6.2-.92s-.33-.58-.65-.68Zm-6.18 6.25c-.38.44-.93.7-1.52.7H4v-6h6.38l1 2H7v2h6c.23 0 .45-.08.63-.22l4.36-3.49c.13-.11.31-.14.47-.08l.81.27z"/><path d="M13.28 10.69a.99.99 0 0 0 1.44 0l3.4-3.57C18.69 6.55 19 5.8 19 5s-.31-1.55-.88-2.12S16.8 2 16 2c-.06 0-1 .02-2 .7-1-.68-1.85-.74-2-.7-.8 0-1.56.31-2.12.88C9.31 3.45 9 4.2 9 5s.31 1.56.86 2.1l3.41 3.59Zm-1.98-6.4c.19-.19.44-.29.68-.29.03 0 .65.04 1.31.71.39.39 1.02.39 1.41 0 .67-.67 1.29-.71 1.29-.71a.99.99 0 0 1 1 1c0 .27-.1.52-.31.72l-2.69 2.83-2.71-2.84c-.19-.19-.29-.44-.29-.71s.1-.52.29-.71Z"/></svg>