<svg xmlns="http://www.w3.org/2000/svg" width="24" height="24"><!--Boxicons v3.0 https://boxicons.com | License  https://docs.boxicons.com/free--><path d="m21.49 8.73-1.91-1.1v-2.2c0-.55-.45-1-1-1h-2.2l-1.1-1.91a1 1 0 0 0-1.37-.37l-1.21.7-.7.41-.7-.41-1.2-.7c-.48-.28-1.09-.11-1.37.37l-1.1 1.91h-2.2c-.55 0-1 .45-1 1v2.2l-1.91 1.1a1 1 0 0 0-.37 1.37l.7 1.2.41.7-1.1 1.91a.998.998 0 0 0 .37 1.37l1.2.7.71.41v2.2c0 .55.45 1 1 1h2.2l.41.71.7 1.2c.19.32.52.5.87.5.17 0 .34-.04.5-.13l1.2-.7.7-.41.7.41 1.21.7c.23.13.5.17.76.1s.47-.24.61-.47l.7-1.2.41-.7h2.2c.55 0 1-.45 1-1v-2.2l.71-.41 1.2-.7c.48-.28.64-.89.37-1.37l-.7-1.21-.41-.7.41-.7.7-1.2c.28-.48.11-1.09-.37-1.37Zm-2.21 5.51-.79.46-.42.24-.5.29v2.35h-2.35l-.83 1.44-.35.6-.34-.2-.99-.57-.21-.12-.5-.29-.5.29-.41.24-.8.46-.34.2-.66-1.13-.53-.91H6.41v-2.35l-.5-.29-.42-.24-.79-.46-.34-.2.2-.34.99-1.71-.29-.5-.89-1.54 1.54-.89.5-.29V6.43h2.35l.98-1.7.2-.34 1.54.89.5.29.5-.29 1.15-.67.05-.03.34-.2.62 1.08.56.96h2.35v2.35l.5.29.42.25.78.45.34.2-.58 1.01-.6 1.04.39.68.79 1.37-.34.2Z"/><path d="m14.2 7.4-3 4-3 4 .8.6.8.6 3-4 3-4L15 8zM14.5 13a1.5 1.5 0 1 0 0 3 1.5 1.5 0 1 0 0-3M9.5 8a1.5 1.5 0 1 0 0 3 1.5 1.5 0 1 0 0-3"/></svg>