<svg xmlns="http://www.w3.org/2000/svg" width="24" height="24"><!--Boxicons v3.0 https://boxicons.com | License  https://docs.boxicons.com/free--><path d="M19 22H5c-1.1 0-2-.9-2-2V4c0-1.1.9-2 2-2h14c1.1 0 2 .9 2 2v16c0 1.1-.9 2-2 2M5 4v16h14V4z"/><path d="M14 5a1 1 0 1 0 0 2 1 1 0 1 0 0-2M17 5a1 1 0 1 0 0 2 1 1 0 1 0 0-2M12 8c-2.76 0-5 2.24-5 5s2.24 5 5 5 5-2.24 5-5-2.24-5-5-5m-1.18 4.61c.33.27.78.65.78 1.38s-.45 1.11-.78 1.38c-.31.26-.42.37-.42.62h-1c0-.73.45-1.11.78-1.38.31-.26.42-.37.42-.62s-.11-.36-.42-.62c-.33-.27-.78-.65-.78-1.38s.45-1.11.78-1.38c.31-.26.42-.37.42-.61h1c0 .73-.45 1.11-.78 1.38-.31.26-.42.37-.42.61s.11.36.42.62m3 0c.33.27.78.65.78 1.38s-.45 1.11-.78 1.38c-.31.26-.42.37-.42.62h-1c0-.73.45-1.11.78-1.38.31-.26.42-.37.42-.62s-.11-.36-.42-.62c-.33-.27-.78-.65-.78-1.38s.45-1.11.78-1.38c.31-.26.42-.37.42-.61h1c0 .73-.45 1.11-.78 1.38-.31.26-.42.37-.42.61s.11.36.42.62"/></svg>