<svg xmlns="http://www.w3.org/2000/svg" width="24" height="24"><!--Boxicons v3.0 https://boxicons.com | License  https://docs.boxicons.com/free--><path d="M18.09 14.72c.85-.98 1.91-2.2 1.91-4.72 0-4.41-3.59-8-8-8-2.35 0-4.47 1.03-5.93 2.65L2.71 1.29 1.3 2.7l3.61 3.61 1.51 1.51 1.64 1.64.53.53 6.45 6.45 1.81 1.81 4.45 4.45 1.41-1.41-5.44-5.44c.19-.38.47-.72.83-1.13Zm-7.77-5.81c.08-.12.16-.22.26-.32.76-.76 2.07-.76 2.83 0a1.983 1.983 0 0 1 0 2.82l1.41 1.42c.76-.76 1.17-1.76 1.17-2.83s-.42-2.07-1.17-2.83c-1.51-1.51-4.14-1.51-5.66 0-.1.1-.18.21-.27.32L7.48 6.08C8.58 4.82 10.19 4 11.99 4c3.31 0 6 2.69 6 6 0 1.77-.66 2.53-1.42 3.41-.26.3-.53.63-.77.99l-5.49-5.49ZM12 20c-1.65 0-3-1.35-3-3H7c0 2.76 2.24 5 5 5 1.06 0 2.75-.59 3.87-1.89l-1.42-1.42C13.66 19.72 12.28 20 12 20"/></svg>