<svg xmlns="http://www.w3.org/2000/svg" width="24" height="24"><!--Boxicons v3.0 https://boxicons.com | License  https://docs.boxicons.com/free--><path d="M11 9a3 3 0 1 0 0 6 3 3 0 1 0 0-6"/><path d="M20.95 9.73c-.6-.84-1.41-1.51-2.33-1.92-1.35-.6-2.28-1.41-2.78-2.39-1.09-2.17-2.9-3.36-5.23-3.42a6.21 6.21 0 0 0-6.16 4.27 6.16 6.16 0 0 0-.26 2.97c.18 1.11-.45 2.1-.84 2.59a6.19 6.19 0 0 0-1.25 5.02c.46 2.55 2.55 4.62 5.1 5.05.36.06.73.09 1.09.09 1.58 0 3.1-.59 4.27-1.68.77-.71 2-1.55 3.54-1.51 1.92.06 3.64-.8 4.78-2.34 1.46-1.97 1.48-4.74.06-6.74Zm-1.67 5.55c-.75 1.01-1.88 1.58-3.12 1.53-1.74-.05-3.49.68-4.95 2.04-.98.91-2.32 1.3-3.66 1.08-1.73-.29-3.16-1.7-3.47-3.43-.22-1.24.08-2.46.85-3.43 1.02-1.29 1.47-2.76 1.25-4.15-.1-.66-.04-1.35.18-2.03.59-1.77 2.18-2.9 4.08-2.9h.13c1.57.04 2.75.82 3.5 2.32.7 1.41 1.96 2.52 3.75 3.32.61.27 1.12.69 1.52 1.25.93 1.3.91 3.1-.04 4.38Z"/></svg>