<svg xmlns="http://www.w3.org/2000/svg" width="24" height="24"><!--Boxicons v3.0 https://boxicons.com | License  https://docs.boxicons.com/free--><path d="m20.29 2.29-3.4 3.4A8 8 0 0 0 11.99 4c-4.41 0-8 3.59-8 8 0 1.85.63 3.54 1.69 4.9l-3.4 3.4 1.41 1.41 3.4-3.4a8 8 0 0 0 4.9 1.69c4.41 0 8-3.59 8-8 0-1.85-.63-3.54-1.69-4.9l3.4-3.4zM6 12c0-3.31 2.69-6 6-6 1.29 0 2.49.42 3.47 1.11l-8.36 8.36C6.41 14.49 6 13.29 6 12m12 0c0 3.31-2.69 6-6 6-1.29 0-2.49-.42-3.47-1.11l8.36-8.36c.7.98 1.11 2.18 1.11 3.47"/></svg>