<svg xmlns="http://www.w3.org/2000/svg" width="24" height="24"><!--Boxicons v3.0 https://boxicons.com | License  https://docs.boxicons.com/free--><path d="M6 3H5C3.35 3 2 4.35 2 6v4c0 1.65 1.35 3 3 3v5c0 1.65 1.35 3 3 3s3-1.35 3-3V8c0-2.76-2.24-5-5-5m3 15c0 .55-.45 1-1 1s-1-.45-1-1v-6c0-.55-.45-1-1-1H5c-.55 0-1-.45-1-1V6c0-.55.45-1 1-1h1c1.65 0 3 1.35 3 3zM19 3h-1c-2.76 0-5 2.24-5 5v10c0 1.65 1.35 3 3 3s3-1.35 3-3v-5c1.65 0 3-1.35 3-3V6c0-1.65-1.35-3-3-3m1 7c0 .55-.45 1-1 1h-1c-.55 0-1 .45-1 1v6c0 .55-.45 1-1 1s-1-.45-1-1V8c0-1.65 1.35-3 3-3h1c.55 0 1 .45 1 1z"/><path d="M18.5 6c-.28 0-.5.22-.5.5v3c0 .28.22.5.5.5s.5-.22.5-.5v-3c0-.28-.22-.5-.5-.5M5.5 6c-.28 0-.5.22-.5.5v3c0 .28.22.5.5.5s.5-.22.5-.5v-3c0-.28-.22-.5-.5-.5"/></svg>