<svg xmlns="http://www.w3.org/2000/svg" width="24" height="24"><!--Boxicons v3.0 https://boxicons.com | License  https://docs.boxicons.com/free--><path d="m21.45 8.61-9-4.5a1 1 0 0 0-.89 0l-6 3-3 1.5-1 .5a1 1 0 0 0-.55.89v6h2v-5.38l2 1v3.83c0 2.06 3.12 4.56 7 4.56s7-2.49 7-4.56v-3.83l2.45-1.22c.34-.17.55-.52.55-.89s-.21-.72-.55-.89Zm-15 .29L12 6.12l6.76 3.38L12 12.88 5.24 9.5l1.21-.61ZM17 15.45c0 .76-2.11 2.56-5 2.56s-5-1.79-5-2.56v-2.83l4.55 2.28c.14.07.29.11.45.11s.31-.04.45-.11L17 12.62z" class="b"/></svg>