<svg xmlns="http://www.w3.org/2000/svg" width="24" height="24"><!--Boxicons v3.0 https://boxicons.com | License  https://docs.boxicons.com/free--><path d="M12 5c-7.63 0-9.93 6.62-9.95 6.68-.07.21-.07.43 0 .63.02.07 2.32 6.68 9.95 6.68s9.93-6.62 9.95-6.68c.07-.21.07-.43 0-.63C21.93 11.61 19.63 5 12 5m0 12c-5.35 0-7.42-3.84-7.93-5 .5-1.16 2.58-5 7.93-5s7.42 3.85 7.93 5c-.5 1.16-2.58 5-7.93 5"/><path d="M13.5 12c-.83 0-1.5-.67-1.5-1.5 0-.6.36-1.12.87-1.35-.28-.09-.56-.15-.87-.15-1.64 0-3 1.36-3 3s1.36 3 3 3 3-1.36 3-3c0-.3-.06-.59-.15-.87-.24.51-.75.87-1.35.87"/></svg>