<svg xmlns="http://www.w3.org/2000/svg" width="24" height="24"><!--Boxicons v3.0 https://boxicons.com | License  https://docs.boxicons.com/free--><path d="M7.51 18.35c1.63 1.71 3.8 2.65 6.11 2.65s4.48-.94 6.11-2.65l-1.45-1.38c-1.25 1.31-2.9 2.03-4.66 2.03s-3.41-.72-4.66-2.03c-.55-.58-.99-1.25-1.31-1.97h4.36v-2H7.08c-.04-.33-.07-.66-.07-1s.03-.67.07-1h4.93V9H7.65c.32-.72.76-1.39 1.31-1.97C10.21 5.72 11.86 5 13.62 5s3.41.72 4.66 2.03l1.45-1.38C18.1 3.94 15.93 3 13.62 3s-4.48.94-6.11 2.65C6.59 6.61 5.92 7.75 5.5 9H3v2h2.06c-.03.33-.06.66-.06 1s.02.67.06 1H3v2h2.5a9 9 0 0 0 2.01 3.35"/></svg>