<svg xmlns="http://www.w3.org/2000/svg" width="24" height="24"><!--Boxicons v3.0 https://boxicons.com | License  https://docs.boxicons.com/free--><path d="M12 2c-4.41 0-8 3.59-8 8h2c0-3.31 2.69-6 6-6s6 2.69 6 6c0 3.07-1.15 3.8-2.74 4.81-.66.42-1.34.85-1.97 1.48-.61.6-1.11 1.19-1.56 1.7-1.17 1.35-1.78 2-2.73 2-1.65 0-3-1.35-3-3H4c0 2.76 2.24 5 5 5 1.91 0 2.99-1.25 4.24-2.69.45-.51.91-1.04 1.46-1.6.47-.47 1.04-.83 1.63-1.21 1.72-1.09 3.66-2.33 3.66-6.5 0-4.41-3.59-8-8-8Z"/><path d="M13.41 8.59c.38.38.59.88.59 1.41h2c0-1.07-.42-2.07-1.17-2.83-1.51-1.51-4.15-1.51-5.66 0C8.41 7.93 8 8.93 8 10v4h2v-2.82c1.16.41 2 1.51 2 2.82h2c0-2.34-1.63-4.3-3.81-4.84.1-.21.23-.41.39-.57.75-.76 2.07-.76 2.83 0"/></svg>