<svg xmlns="http://www.w3.org/2000/svg" width="24" height="24"><!--Boxicons v3.0 https://boxicons.com | License  https://docs.boxicons.com/free--><path d="M11.97 8C9.76 8.02 8.02 9.76 8 12.03c.02 2.21 1.76 3.95 4.03 3.97 2.21-.02 3.95-1.76 3.97-3.98v-.05c-.02-2.21-1.76-3.95-4.03-3.97M14 12.01A2 2 0 0 1 11.99 14c-1.1 0-1.98-.88-1.99-2.01A2 2 0 0 1 12.01 10c1.1 0 1.98.88 1.99 1.99h1l-1 .03Z"/><path d="M16.76 5.45C16.11 3.43 14.21 2 12.01 2s-4.1 1.43-4.75 3.45c-2.13 0-4.08 1.37-4.75 3.46-.68 2.1.1 4.34 1.82 5.59-.66 2.02.03 4.29 1.81 5.59.88.64 1.92.95 2.94.95s2.07-.32 2.94-.94a5.05 5.05 0 0 0 5.88 0 5 5 0 0 0 1.81-5.59 5.003 5.003 0 0 0-2.93-9.05Zm1.25 7.73c-.25.12-.45.33-.54.6s-.06.56.08.8a2.99 2.99 0 0 1-.85 3.89c-1.23.89-2.94.73-3.97-.38-.38-.41-1.09-.41-1.46 0a3.015 3.015 0 0 1-3.97.38 2.99 2.99 0 0 1-.85-3.89c.14-.24.17-.53.08-.8s-.28-.49-.54-.6a2.996 2.996 0 0 1-1.6-3.65 3 3 0 0 1 3.44-2.02c.28.05.56 0 .78-.17.23-.17.37-.42.4-.69.17-1.51 1.45-2.64 2.98-2.64s2.8 1.14 2.98 2.64a.986.986 0 0 0 1.18.86c1.49-.3 2.98.57 3.44 2.02.47 1.45-.22 3.02-1.6 3.65Z"/></svg>