<svg xmlns="http://www.w3.org/2000/svg" width="24" height="24"><!--Boxicons v3.0 https://boxicons.com | License  https://docs.boxicons.com/free--><path d="M21 2h-8.68c-1.26 0-2.32.94-2.48 2.19L9.11 10H4.99c-1.65 0-3 1.35-3 3s1.35 3 3 3h9.38l-.29.58c-.79 1.58-.28 3.5 1.19 4.48l.33.22a2 2 0 0 0 1.51.3c.52-.1.98-.41 1.27-.85l3.45-5.17a1 1 0 0 0 .17-.55V3c0-.55-.45-1-1-1m-1 12.7-3.28 4.92-.33-.22c-.63-.42-.85-1.24-.51-1.92l1.01-2.03c.15-.31.14-.68-.04-.97a1 1 0 0 0-.85-.47H5c-.55 0-1-.45-1-1s.45-1 1-1h5c.5 0 .93-.38.99-.88l.84-6.69c.03-.25.24-.44.5-.44h7.68v10.7Z"/></svg>