<svg xmlns="http://www.w3.org/2000/svg" width="24" height="24"><!--Boxicons v3.0 https://boxicons.com | License  https://docs.boxicons.com/free--><path d="m12.19 11.55-.19.19-.19-.19a1.89 1.89 0 0 0-2.66 0c-.74.74-.74 1.9 0 2.63L12 17l2.85-2.82c.74-.73.74-1.89 0-2.63a1.89 1.89 0 0 0-2.66 0"/><path d="m19.94 7.68-.03-.09a.8.8 0 0 0-.2-.29l-5-5a1 1 0 0 0-.3-.2l-.09-.03a.9.9 0 0 0-.27-.05c-.02 0-.04-.01-.05-.01H6c-1.1 0-2 .9-2 2v16c0 1.1.9 2 2 2h12c1.1 0 2-.9 2-2v-12s-.01-.04-.01-.06c0-.09-.02-.17-.05-.26ZM6 20V4h7v4c0 .55.45 1 1 1h4v11z"/></svg>