<svg xmlns="http://www.w3.org/2000/svg" width="24" height="24"><!--Boxicons v3.0 https://boxicons.com | License  https://docs.boxicons.com/free--><path d="M13.12 12.76 12 10.5l-1.12 2.26-2.38.21 1.85 1.85-.82 2.68L12 15.85l2.47 1.65-.82-2.68 1.85-1.85z"/><path d="m19.94 7.68-.03-.09a.8.8 0 0 0-.2-.29l-5-5a1 1 0 0 0-.3-.2l-.09-.03a.9.9 0 0 0-.27-.05c-.02 0-.04-.01-.05-.01H6c-1.1 0-2 .9-2 2v16c0 1.1.9 2 2 2h12c1.1 0 2-.9 2-2v-12s-.01-.04-.01-.06c0-.09-.02-.17-.05-.26ZM6 20V4h7v4c0 .55.45 1 1 1h4v11z"/></svg>