<svg xmlns="http://www.w3.org/2000/svg" width="24" height="24"><!--Boxicons v3.0 https://boxicons.com | License  https://docs.boxicons.com/free--><path d="M11.42 3.99 5.99 9.42c-2.27 2.27-2.6 5.71-.93 8.11L2.29 20.3l1.41 1.41 2.77-2.77c1 .7 2.19 1.06 3.4 1.06 1.67 0 3.39-.67 4.71-1.98l5.43-5.43c2.53-2.53 2.66-6.51.29-8.88s-6.35-2.24-8.88.29ZM7.4 10.83l5.43-5.43c1.48-1.48 3.64-1.79 5.24-.89L6.51 16.07c-.9-1.6-.59-3.76.89-5.24m5.77 5.77c-1.48 1.48-3.64 1.79-5.24.89L11.42 14h4.35zm5.43-5.43-.83.83h-4.35l6.07-6.07c.9 1.6.59 3.76-.89 5.24"/></svg>