<svg xmlns="http://www.w3.org/2000/svg" width="24" height="24"><!--Boxicons v3.0 https://boxicons.com | License  https://docs.boxicons.com/free--><path d="M8.5 13a1.5 1.5 0 1 0 0 3 1.5 1.5 0 1 0 0-3M15.5 13a1.5 1.5 0 1 0 0 3 1.5 1.5 0 1 0 0-3"/><path d="M23 5.5C23 3.02 20.98 1 18.5 1c-1.66 0-3.14.93-3.92 2.35C13.76 3.13 12.89 3 12 3 6.49 3 2 7.49 2 13s4.49 10 10 10 10-4.49 10-10c0-1.39-.29-2.71-.8-3.92C22.31 8.24 23 6.93 23 5.5m-6.82.69c.15.09.29.19.44.29.08.05.15.11.23.17.11.08.22.17.33.26s.21.18.31.28c.07.07.15.13.22.2.14.14.27.29.4.44.03.03.06.07.09.1.7.85 1.22 1.85 1.52 2.94a7.06 7.06 0 0 1-4.83-3.51c.15-.28.3-.56.42-.85.09-.22.17-.44.24-.67.17.08.33.17.49.26l.15.09ZM12 5c.57 0 1.12.06 1.65.17-.06.19-.13.37-.2.55-.15.35-.33.68-.53 1l-.04.06c-.31.48-.67.91-1.07 1.29-.05.05-.11.1-.16.14-.14.13-.29.25-.45.37-.07.05-.13.1-.2.15-.18.12-.36.24-.55.35-.04.02-.08.05-.11.07-.22.12-.45.23-.69.32-.08.03-.17.06-.25.09-.17.06-.34.12-.52.17-.09.02-.17.05-.26.07-.19.04-.38.08-.57.11-.08.01-.16.03-.24.04a6.8 6.8 0 0 1-3.05-.33C6.04 6.89 8.8 5 12 5m0 16c-4.41 0-8-3.59-8-8 0-.5.05-1 .14-1.48.92.31 1.87.48 2.86.48.31 0 .62-.02.93-.05.11-.01.23-.04.34-.05.18-.03.37-.05.55-.08h.03c.12-.03.25-.06.37-.1.17-.04.33-.08.5-.13s.33-.12.49-.18c.1-.04.21-.07.31-.11.01 0 .02-.01.04-.02.16-.07.32-.15.48-.23.11-.05.21-.1.32-.16.15-.08.29-.17.44-.26.08-.05.17-.1.26-.16.03-.02.05-.04.07-.05.12-.08.24-.18.36-.27s.25-.19.37-.29l.28-.25c.09-.08.18-.15.26-.24.05-.05.1-.11.14-.16.03-.03.06-.06.09-.08a9.07 9.07 0 0 0 6.4 3.82v.06c0 4.41-3.59 8-8 8Zm7.57-14.52c-.1-.11-.19-.22-.29-.32-.18-.19-.36-.37-.56-.55-.08-.07-.16-.15-.25-.22-.6-.51-1.26-.95-1.96-1.3-.01 0-.03-.02-.04-.02.46-.65 1.21-1.06 2.03-1.06a2.5 2.5 0 0 1 2.5 2.5c0 .69-.29 1.34-.78 1.81-.06-.08-.13-.16-.19-.24-.15-.2-.3-.39-.46-.58Z"/></svg>