<svg xmlns="http://www.w3.org/2000/svg" width="24" height="24"><!--Boxicons v3.0 https://boxicons.com | License  https://docs.boxicons.com/free--><path d="M7 1C4.43 1 2 4.4 2 8c0 2.76.79 5.47 1 6.16V16c0 1.65 1.35 3 3 3s3-1.35 3-3v-2c0-1.31.45-2.43.93-3.63C10.46 9.05 11 7.69 11 6c0-2.48-1.38-5-4-5m0 15c0 .55-.45 1-1 1s-1-.45-1-1v-2h2zm1.07-6.37c-.3.75-.6 1.53-.81 2.37H4.49c-.25-1.08-.5-2.55-.5-4 0-2.58 1.69-5 3-5 1.58 0 2 1.96 2 3 0 1.31-.45 2.43-.93 3.63ZM17 5c-2.62 0-4 2.52-4 5 0 1.69.54 3.05 1.07 4.37.48 1.19.93 2.32.93 3.63v2c0 1.65 1.35 3 3 3s3-1.35 3-3v-1.84c.21-.68 1-3.4 1-6.16 0-3.6-2.43-7-5-7m2 15c0 .55-.45 1-1 1s-1-.45-1-1v-2h2zm.5-4h-2.77c-.21-.84-.5-1.62-.81-2.37-.48-1.19-.93-2.32-.93-3.63 0-1.04.42-3 2-3 1.31 0 3 2.42 3 5 0 1.45-.25 2.92-.5 4Z"/></svg>