<svg xmlns="http://www.w3.org/2000/svg" width="24" height="24"><!--Boxicons v3.0 https://boxicons.com | License  https://docs.boxicons.com/free--><path d="M17.55 6.17c-.31-.2-.7-.22-1.03-.05-.32.17-.53.51-.53.88 0 1.63-.5 5-2 5-.23 0-.63-.13-.78-.41-.21-.39.02-1.15.61-2.03 2-3-.59-6.12-2.23-7.35a.99.99 0 0 0-.83-.17.98.98 0 0 0-.66.53C9.52 3.74 8.24 4.79 7.01 5.8c-.63.52-1.22 1-1.73 1.51-2.27 2.27-2.29 5.57-2.29 5.71 0 4.96 4.04 9 9 9s9-4.04 9-9c0-.19-.04-4.56-3.45-6.83ZM12 20c-3.86 0-7-3.14-7-7 0-.03.04-2.63 1.71-4.3.44-.44.99-.9 1.58-1.38 1-.82 2.1-1.73 2.92-2.79.85.89 1.94 2.45.96 3.91-1.33 1.99-1.12 3.32-.71 4.08.54 1.02 1.67 1.47 2.54 1.47 1.21 0 2.82-.65 3.59-3.76.09-.35.16-.71.21-1.05 1.15 1.7 1.19 3.75 1.19 3.8 0 3.86-3.14 7-7 7Z"/></svg>