<svg xmlns="http://www.w3.org/2000/svg" width="24" height="24"><!--Boxicons v3.0 https://boxicons.com | License  https://docs.boxicons.com/free--><path d="M19 8H9.62l.29-.58c.79-1.58.28-3.5-1.19-4.48l-.33-.22c-.44-.3-.98-.4-1.5-.3s-.98.41-1.27.85L2.17 8.44a1 1 0 0 0-.17.55v12c0 .55.45 1 1 1h8.68c1.26 0 2.32-.94 2.48-2.19l.73-5.81h4.12c1.65 0 3-1.35 3-3s-1.35-3-3-3Zm0 4h-5c-.5 0-.93.38-.99.88l-.84 6.69c-.03.25-.24.44-.5.44H3.99V9.31l3.28-4.92.33.22c.63.42.85 1.24.51 1.92L7.1 8.56c-.15.31-.14.68.04.97s.5.47.85.47h11c.55 0 1 .45 1 1s-.45 1-1 1Z"/></svg>