<svg xmlns="http://www.w3.org/2000/svg" width="24" height="24"><!--Boxicons v3.0 https://boxicons.com | License  https://docs.boxicons.com/free--><path d="M12.66 3.25c-.29-.26-.72-.33-1.07-.17-.36.16-.59.52-.59.91v4h-1c-4.41 0-8 3.59-8 8v4c0 .42.27.8.67.94q.165.06.33.06c.3 0 .59-.13.78-.38l1.9-2.37a5.98 5.98 0 0 1 4.69-2.25h.64v4c0 .39.23.75.59.91s.78.1 1.07-.17l9-8c.21-.19.34-.46.34-.75s-.12-.56-.34-.75zM13 17.77V14h-2.64a7.97 7.97 0 0 0-6.25 3l-.12.15V16c0-3.31 2.69-6 6-6h3V6.23L19.48 12l-6.49 5.77Z"/></svg>