<svg xmlns="http://www.w3.org/2000/svg" width="24" height="24"><!--Boxicons v3.0 https://boxicons.com | License  https://docs.boxicons.com/free--><path d="M11.97 8C9.76 8.02 8.02 9.76 8 12.03c.02 2.21 1.76 3.95 4.03 3.97 2.21-.02 3.95-1.76 3.97-3.98v-.05c-.02-2.21-1.76-3.95-4.03-3.97M14 12.01A2 2 0 0 1 11.99 14c-1.1 0-1.98-.88-1.99-2.01A2 2 0 0 1 12.01 10c1.1 0 1.98.88 1.99 1.99h1l-1 .03Z"/><path d="M20.16 8.63c.3-1.32-.09-2.71-1.09-3.7-.99-1-2.38-1.39-3.7-1.09C14.65 2.71 13.4 2 12 2s-2.65.71-3.37 1.84a3.97 3.97 0 0 0-3.7 1.08c-1 .99-1.39 2.39-1.09 3.7C2.71 9.34 2 10.59 2 11.99s.71 2.65 1.84 3.37c-.3 1.32.09 2.71 1.09 3.7.99 1 2.38 1.39 3.7 1.09.72 1.13 1.97 1.84 3.37 1.84s2.65-.71 3.37-1.84c1.32.3 2.71-.09 3.7-1.08 1-.99 1.39-2.39 1.09-3.7C21.29 14.65 22 13.4 22 12s-.71-2.65-1.84-3.37m-1.54 5.26c-.28.09-.51.3-.63.57s-.1.58.04.85c.41.78.26 1.72-.37 2.34-.62.62-1.56.77-2.34.37a.994.994 0 0 0-1.42.59c-.26.83-1.02 1.39-1.9 1.39s-1.64-.56-1.9-1.39c-.09-.28-.3-.51-.57-.63a1 1 0 0 0-.38-.08c-.16 0-.32.04-.46.11-.78.41-1.72.26-2.34-.37a1.99 1.99 0 0 1-.37-2.34c.14-.26.15-.57.04-.85s-.34-.48-.63-.57C4.56 13.62 4 12.86 4 11.99s.56-1.64 1.39-1.89c.28-.09.51-.3.63-.57s.1-.58-.04-.85c-.41-.78-.26-1.72.37-2.34.62-.62 1.56-.77 2.34-.37a.994.994 0 0 0 1.42-.59c.26-.83 1.02-1.39 1.9-1.39s1.64.56 1.9 1.39c.09.28.3.51.57.63.27.11.58.1.85-.04.78-.41 1.72-.26 2.34.37.63.62.77 1.56.37 2.34-.14.26-.15.57-.04.85s.34.48.63.57c.83.26 1.39 1.02 1.39 1.89s-.56 1.64-1.39 1.89Z"/></svg>