<svg xmlns="http://www.w3.org/2000/svg" width="24" height="24"><!--Boxicons v3.0 https://boxicons.com | License  https://docs.boxicons.com/free--><path d="M11 14h2v2h-2zm4 0h2v2h-2zm-8 0h2v2H7z"/><path d="M8 3H4c-.55 0-1 .45-1 1v15c0 .55.45 1 1 1h16c.55 0 1-.45 1-1V6c0-.4-.24-.77-.62-.92a.99.99 0 0 0-1.09.22L17 7.59V6c0-.4-.24-.77-.62-.92a.98.98 0 0 0-1.09.22L13 7.59V6c0-.4-.24-.77-.62-.92a.99.99 0 0 0-1.09.22L9 7.59V4c0-.55-.45-1-1-1m3 5.41V10c0 .4.24.77.62.92.37.16.8.07 1.09-.22L15 8.41V10c0 .4.24.77.62.92.37.16.8.07 1.09-.22L19 8.41V18H5V5h2v5c0 .4.24.77.62.92.37.16.8.07 1.09-.22z"/></svg>