<svg xmlns="http://www.w3.org/2000/svg" width="24" height="24"><!--Boxicons v3.0 https://boxicons.com | License  https://docs.boxicons.com/free--><path d="m4.19 14.16 5.81.73v4.12c0 1.65 1.35 3 3 3s3-1.35 3-3V9.63l.58.29c1.58.79 3.5.28 4.48-1.19l.22-.33c.3-.44.4-.98.3-1.5s-.41-.98-.85-1.27l-5.17-3.45a1 1 0 0 0-.55-.17H3c-.55 0-1 .45-1 1v8.68c0 1.26.94 2.32 2.19 2.48ZM4 4h10.7l4.92 3.28-.22.33c-.42.63-1.24.85-1.92.51l-2.03-1.01c-.31-.15-.68-.14-.97.04s-.47.5-.47.85v11c0 .55-.45 1-1 1s-1-.45-1-1v-5c0-.5-.38-.93-.88-.99l-6.69-.84a.5.5 0 0 1-.44-.5V3.99Z"/></svg>