<svg xmlns="http://www.w3.org/2000/svg" width="24" height="24"><!--Boxicons v3.0 https://boxicons.com | License  https://docs.boxicons.com/free--><path d="M5 15.64c2-.87 4.28-.76 6.18.33 1.37.78 2.89 1.18 4.42 1.18 1.12 0 2.24-.21 3.32-.64l1.45-.58A1 1 0 0 0 21 15V4a1 1 0 0 0-1.37-.93l-1.45.58c-1.97.79-4.16.63-6-.42A8.9 8.9 0 0 0 3.77 3l-.21.1a1 1 0 0 0-.55.89v18h2v-6.36ZM5 4.63c2-.87 4.28-.75 6.18.34 2.37 1.36 5.19 1.55 7.74.54l.08-.03v8.85l-.82.33a6.85 6.85 0 0 1-6-.42 8.95 8.95 0 0 0-4.42-1.18c-.93 0-1.86.15-2.75.44V4.63Z"/></svg>