<svg xmlns="http://www.w3.org/2000/svg" width="24" height="24"><!--Boxicons v3.0 https://boxicons.com | License  https://docs.boxicons.com/free--><path d="M22 7.5C22 4.47 19.53 2 16.5 2c-1.86 0-3.5.93-4.5 2.35C11 2.93 9.36 2 7.5 2A5.51 5.51 0 0 0 2 7.5c0 1.86.93 3.5 2.35 4.5C2.93 13 2 14.64 2 16.5 2 19.53 4.47 22 7.5 22c1.86 0 3.5-.93 4.5-2.35 1 1.42 2.64 2.35 4.5 2.35 3.03 0 5.5-2.47 5.5-5.5 0-1.86-.93-3.5-2.35-4.5C21.07 11 22 9.36 22 7.5M15 12v.02c-.02 1.66-1.32 2.96-3.02 2.98-1.65-.01-2.96-1.32-2.98-3.02.02-1.66 1.32-2.96 3.02-2.98 1.65.01 2.96 1.32 2.98 2.98zM7.5 4c1.8 0 3.28 1.36 3.48 3.1h-.01c-.01 0-.03 0-.04.01-.28.06-.55.15-.81.25l-.21.09a5.4 5.4 0 0 0-.77.44c-.5.35-.94.79-1.28 1.3 0 0 0 .01-.01.02-.35.53-.61 1.12-.74 1.76-1.74-.2-3.1-1.68-3.1-3.48 0-1.93 1.57-3.5 3.5-3.5Zm0 16C5.57 20 4 18.43 4 16.5c0-1.8 1.36-3.28 3.1-3.48v.01c0 .02.01.03.01.05.06.28.15.54.25.8.03.07.06.14.1.21.1.21.21.42.34.61a4.946 4.946 0 0 0 1.4 1.43s.01 0 .02.01c.53.35 1.11.61 1.76.74-.2 1.74-1.68 3.1-3.48 3.1Zm9 0c-1.8 0-3.28-1.36-3.48-3.1h.01c.02 0 .03 0 .05-.01.28-.06.54-.15.8-.25.08-.03.16-.07.23-.11.2-.09.38-.19.56-.31.07-.04.14-.08.21-.13.47-.33.88-.74 1.21-1.21.04-.06.08-.13.12-.19.12-.19.23-.39.32-.59.03-.07.07-.14.09-.21.11-.28.21-.56.27-.86 1.74.2 3.1 1.68 3.1 3.48 0 1.93-1.57 3.5-3.5 3.5Zm.4-9.02v-.01c0-.02-.01-.03-.01-.05-.06-.28-.15-.54-.25-.8-.03-.07-.06-.14-.1-.21-.1-.21-.21-.42-.34-.61a4.946 4.946 0 0 0-1.4-1.43s-.01 0-.02-.01a4.9 4.9 0 0 0-1.76-.74c.2-1.74 1.68-3.1 3.48-3.1 1.93 0 3.5 1.57 3.5 3.5 0 1.8-1.36 3.28-3.1 3.48Z"/></svg>