<svg xmlns="http://www.w3.org/2000/svg" width="24" height="24"><!--Boxicons v3.0 https://boxicons.com | License  https://docs.boxicons.com/free--><path d="M18.78 7.39a1 1 0 0 0-.83.32c-.77.84-1.82 1.31-2.94 1.31-2.21 0-4.01-1.8-4.01-4.01 0-.27.03-.56.1-.87a.99.99 0 0 0-.39-1.02c-.32-.23-.75-.26-1.09-.06-2.48 1.42-6.63 4.61-6.63 9.95 0 4.96 4.04 9 9 9s9-4.04 9-9c0-1.82-.49-3.55-1.47-5.14a.98.98 0 0 0-.76-.47ZM9.5 17.5c0-1.77 1.71-2.93 2.5-3.38.79.45 2.5 1.61 2.5 3.38a2.5 2.5 0 0 1-5 0m6.9.94c.06-.3.1-.62.1-.94 0-3.62-3.94-5.35-4.11-5.42a.99.99 0 0 0-.79 0c-.17.07-4.11 1.8-4.11 5.42 0 .32.04.64.1.94A6.96 6.96 0 0 1 4.99 13c0-3.36 2.12-5.72 4.06-7.18.4 2.93 2.92 5.19 5.95 5.19 1.22 0 2.38-.37 3.37-1.05.41.97.62 1.98.62 3.04a7.02 7.02 0 0 1-2.6 5.44Z"/></svg>