<svg xmlns="http://www.w3.org/2000/svg" width="24" height="24"><!--Boxicons v3.0 https://boxicons.com | License  https://docs.boxicons.com/free--><path d="M8.5 12a1.5 1.5 0 1 0 0 3 1.5 1.5 0 1 0 0-3M15.5 12a1.5 1.5 0 1 0 0 3 1.5 1.5 0 1 0 0-3"/><path d="M12 2C6.52 2 2.06 6.43 2 11.9L.88 22h22.23l-1.12-10.1c-.05-5.47-4.51-9.9-10-9.9Zm7.72 7.93c-4.96-.52-6.26-4.02-6.59-5.84 3.19.45 5.77 2.79 6.59 5.84m-8.84-5.84c-.34 1.82-1.64 5.32-6.59 5.84a8 8 0 0 1 6.59-5.84M3.12 20l.32-2.86A9.8 9.8 0 0 0 6.03 20zM4 12v-.03c4.67-.31 6.92-2.74 8-5 1.08 2.26 3.32 4.69 8 5V12c0 4.41-3.59 8-8 8s-8-3.59-8-8m13.97 8c1.04-.78 1.92-1.75 2.59-2.86l.32 2.86z"/></svg>