<svg xmlns="http://www.w3.org/2000/svg" width="24" height="24"><!--Boxicons v3.0 https://boxicons.com | License  https://docs.boxicons.com/free--><path d="M5.81 17.66c1.04 1.66 1.04 2.89 1.04 4.33h2c0-1.52 0-3.24-1.34-5.39zM4.5 16.01c.07.06.15.12.21.18l1.5-1.33c-.12-.14-.27-.27-.42-.39-.07-.06-.15-.12-.21-.19-1.66-1.71-2.51-6.02 0-8.61 2.52-2.61 8.07-1.58 9.78-.58 2.69 1.57 4.1 4.31 4.11 4.33l1.79-.89c-.07-.13-1.67-3.29-4.89-5.17C13.84 1.88 7.41.9 4.15 4.28c-3.37 3.48-2.25 9.07 0 11.39.12.12.24.23.37.33Z"/><path d="M12.85 21.98c0-2.04 0-4.34-3.2-8.6-.13-.18-.29-.37-.46-.58-1.03-1.26-1.79-2.32-1.39-3.51.26-.79.81-1.33 1.64-1.6 1.22-.41 2.92-.16 4.04.6l1.12-1.65c-1.65-1.12-3.98-1.46-5.8-.84-1.41.48-2.44 1.49-2.89 2.87-.78 2.33.8 4.25 1.74 5.4.15.18.29.35.41.51 2.8 3.72 2.8 5.51 2.8 7.4h2Zm7.98-4.21c-.94-4.68-2.32-7.69-4.46-9.75l-1.39 1.44c1.83 1.76 3.03 4.45 3.89 8.7z"/><path d="M16.02 15.99c-1.3-4.58-4.47-6.75-4.61-6.84l-1.12 1.66s2.71 1.88 3.8 5.72l1.92-.54Zm.83 5.99c0-1.33-.11-2.61-.34-3.89l-1.97.35c.21 1.17.31 2.33.31 3.54z"/></svg>