<svg xmlns="http://www.w3.org/2000/svg" width="24" height="24"><!--Boxicons v3.0 https://boxicons.com | License  https://docs.boxicons.com/free--><path d="M11.21 21.95c.27.04.52.05.79.05s.52-.01.74-.04C16.88 21.59 20 18.17 20 14c0-3.31-1.98-6.21-5-7.42V4h1V2H8v2h1v2.58C5.98 7.79 4 10.68 4 14c0 4.16 3.12 7.58 7.21 7.95m-.93-13.7.71-.21V4h2v4.04l.71.21A5.97 5.97 0 0 1 17.99 14c0 .26-.04.5-.07.75-2.65-.02-3.91-.85-5.38-1.83-1.37-.91-2.92-1.93-5.61-2.13a5.9 5.9 0 0 1 3.35-2.54m-4.14 4.51c2.59.03 3.86.86 5.3 1.83 1.41.94 3.02 1.99 5.88 2.14a5.98 5.98 0 0 1-4.82 3.25c-.35.05-.63.05-1.07 0a5.95 5.95 0 0 1-5.44-5.96c0-.43.06-.84.14-1.24Z" class="b"/></svg>