<svg xmlns="http://www.w3.org/2000/svg" width="24" height="24"><!--Boxicons v3.0 https://boxicons.com | License  https://docs.boxicons.com/free--><path d="M21 3h-5.69c-1.24 0-2.31.93-2.48 2.16L12.3 9H9.1c-1.52 0-2.83 1.08-3.07 2.5A2.998 2.998 0 0 0 8.99 15h5.85l-.33.68c-.46.94-.4 2.02.15 2.91S16.16 20 17.21 20h.16c.41 0 .79-.2 1.02-.53l3.43-4.89c.12-.17.18-.37.18-.57V4c0-.55-.45-1-1-1m-1 10.68-3.01 4.29a1 1 0 0 1-.63-.45.98.98 0 0 1-.05-.97l1.04-2.12a.999.999 0 0 0-.9-1.44H9c-.29 0-.57-.13-.76-.35-.19-.23-.27-.52-.22-.82.08-.46.56-.83 1.09-.83h4.07c.5 0 .92-.37.99-.86l.65-4.7c.03-.25.25-.43.5-.43h4.69v8.68Z"/><path d="M4 12.5c0-3.4 1.82-6.28 4.31-7.19L10 7V2H5l1.8 1.8C3.98 5.27 2 8.61 2 12.5c0 5.24 3.59 9.5 8 9.5v-2c-3.31 0-6-3.36-6-7.5"/></svg>