<svg xmlns="http://www.w3.org/2000/svg" width="24" height="24"><!--Boxicons v3.0 https://boxicons.com | License  https://docs.boxicons.com/free--><path d="M12 7a2 2 0 1 0 0 4 2 2 0 1 0 0-4"/><path d="M21 11c-.87 0-1.72.12-2.53.34.13-.8-.01-1.63-.42-2.34a3.5 3.5 0 0 0 .01-3.5 3.5 3.5 0 0 0-3.03-1.74C14.42 2.69 13.27 2 12 2s-2.41.69-3.03 1.76c-1.23 0-2.4.65-3.03 1.74A3.5 3.5 0 0 0 5.95 9c-.41.71-.55 1.54-.42 2.34C4.72 11.13 3.88 11 3 11c-.55 0-1 .45-1 1 0 5.51 4.49 10 10 10s10-4.49 10-10c0-.55-.45-1-1-1M7.91 8.3c-.47-.48-.57-1.22-.24-1.8s1.02-.86 1.68-.69l.96.25.26-.95c.18-.65.77-1.11 1.44-1.11s1.26.45 1.44 1.11l.26.95.96-.25c.65-.17 1.34.11 1.68.69.33.58.23 1.32-.24 1.8l-.69.7.69.7c.47.48.57 1.22.24 1.8s-1.02.86-1.68.69l-.96-.25-.26.95c-.18.65-.77 1.11-1.44 1.11s-1.26-.46-1.44-1.11l-.26-.95-.96.25c-.65.17-1.34-.11-1.68-.69-.33-.58-.23-1.32.24-1.8L8.6 9zm-3.84 4.77a8.02 8.02 0 0 1 6.86 6.86 8.02 8.02 0 0 1-6.86-6.86m9 6.86a8.02 8.02 0 0 1 6.86-6.86 8.02 8.02 0 0 1-6.86 6.86"/></svg>