<svg xmlns="http://www.w3.org/2000/svg" width="24" height="24"><!--Boxicons v3.0 https://boxicons.com | License  https://docs.boxicons.com/free--><path d="M16 10a1 1 0 1 0 0 2 1 1 0 1 0 0-2"/><path d="M1.99 15v2c1.29 0 3.41-.58 4.43-2.48C7.7 16.11 9.97 18 13.5 18c5.95 0 8.32-5.38 8.42-5.61.11-.25.11-.54 0-.79-.1-.23-2.47-5.61-8.42-5.61-3.53 0-5.8 1.89-7.08 3.48C5.4 7.56 3.28 6.99 2 6.99v2c.5 0 3 .18 3 3s-2.5 2.99-3.01 3ZM13.5 8c3.83 0 5.79 2.91 6.38 4-.6 1.09-2.55 4-6.38 4s-5.79-2.92-6.38-4c.6-1.09 2.55-4 6.38-4"/></svg>