<svg xmlns="http://www.w3.org/2000/svg" width="24" height="24"><!--Boxicons v3.0 https://boxicons.com | License  https://docs.boxicons.com/free--><path d="M15 13.5c0-1.93-1.57-3.5-3.5-3.5S8 11.57 8 13.5 9.57 17 11.5 17c.6 0 1.16-.17 1.65-.43l2.14 2.14 1.41-1.41-2.14-2.14c.27-.49.43-1.05.43-1.65Zm-5 0c0-.83.67-1.5 1.5-1.5s1.5.67 1.5 1.5-.67 1.5-1.5 1.5-1.5-.67-1.5-1.5"/><path d="m19.94 7.68-.03-.09a.8.8 0 0 0-.2-.29l-5-5c-.09-.09-.19-.15-.29-.2l-.09-.03a.8.8 0 0 0-.27-.05c-.02 0-.04-.01-.06-.01H6c-1.1 0-2 .9-2 2v16c0 1.1.9 2 2 2h12c1.1 0 2-.9 2-2v-12s-.01-.04-.01-.06c0-.09-.02-.17-.05-.26ZM6 20V4h7v4c0 .55.45 1 1 1h4v11z"/></svg>