<svg xmlns="http://www.w3.org/2000/svg" width="24" height="24"><!--Boxicons v3.0 https://boxicons.com | License  https://docs.boxicons.com/free--><path d="M20 4h-8.59L10 2.59C9.62 2.21 9.12 2 8.59 2H4c-1.1 0-2 .9-2 2v14c0 1.1.9 2 2 2h16c1.1 0 2-.9 2-2V6c0-1.1-.9-2-2-2m0 14H4V6h16z"/><path d="M10.94 8.64v.39c-.35.13-.68.32-.97.57l-.34-.2a.65.65 0 0 0-.88.23l-.42.73c-.18.31-.07.7.23.88l.33.19c-.04.19-.05.38-.05.57s.02.38.05.57l-.33.19c-.31.18-.41.57-.23.88l.42.73c.18.3.57.41.88.23l.34-.2c.29.25.62.44.97.57v.39c0 .35.29.64.64.64h.84c.35 0 .64-.29.64-.64v-.39c.35-.13.68-.32.97-.57l.34.2c.31.18.7.07.88-.23l.42-.73c.18-.31.07-.7-.23-.88l-.33-.19c.04-.19.05-.38.05-.57s-.02-.38-.05-.57l.33-.19c.31-.18.41-.57.23-.88l-.42-.73a.64.64 0 0 0-.88-.23l-.34.2c-.29-.25-.62-.44-.97-.57v-.39c0-.35-.29-.64-.64-.64h-.84c-.35 0-.64.29-.64.64M13.55 12c0 .84-.71 1.55-1.55 1.55s-1.55-.71-1.55-1.55.71-1.55 1.55-1.55 1.55.71 1.55 1.55"/></svg>