<svg xmlns="http://www.w3.org/2000/svg" width="24" height="24"><!--Boxicons v3.0 https://boxicons.com | License  https://docs.boxicons.com/free--><path d="M8.5 12a1.5 1.5 0 1 0 0 3 1.5 1.5 0 1 0 0-3M15.5 12a1.5 1.5 0 1 0 0 3 1.5 1.5 0 1 0 0-3"/><path d="M12 22c5.51 0 10-4.49 10-10S17.51 2 12 2 2 6.49 2 12s4.49 10 10 10m7.7-12.13a7.06 7.06 0 0 1-4.83-3.51c.15-.28.3-.56.42-.85.09-.22.17-.44.24-.67 2.02 1 3.55 2.82 4.17 5.03M12 4c.57 0 1.12.06 1.65.17-.06.19-.13.37-.2.55-.15.35-.33.68-.53 1l-.04.06c-.31.48-.67.91-1.07 1.29-.05.05-.11.1-.16.14-.14.13-.29.25-.45.37-.07.05-.13.1-.2.15-.18.12-.36.24-.55.35-.04.02-.08.05-.11.07-.22.12-.45.23-.69.32-.08.03-.17.06-.25.09-.17.06-.34.12-.52.17-.09.02-.17.05-.26.07-.19.04-.38.08-.57.11-.08.01-.16.03-.24.04a6.8 6.8 0 0 1-3.05-.33C6.04 5.89 8.8 4 12 4m-7.86 6.52c.92.31 1.87.48 2.86.48.31 0 .62-.02.93-.05.11-.01.23-.04.34-.05.18-.03.37-.05.55-.08h.03c.12-.03.25-.06.37-.1.17-.04.33-.08.5-.13s.33-.12.49-.18c.1-.04.21-.07.31-.11.01 0 .02-.01.04-.02.16-.07.32-.15.48-.23.11-.05.21-.1.32-.16.15-.08.29-.17.44-.26.08-.05.17-.1.26-.16.03-.02.05-.04.07-.05.12-.08.24-.18.36-.27s.25-.19.37-.29l.28-.25c.09-.08.18-.15.26-.24.05-.05.1-.11.14-.16.03-.03.06-.06.09-.08a9.07 9.07 0 0 0 6.4 3.82v.06c0 4.41-3.59 8-8 8s-8-3.59-8-8c0-.5.05-1 .14-1.48Z"/></svg>