<svg xmlns="http://www.w3.org/2000/svg" width="24" height="24"><!--Boxicons v3.0 https://boxicons.com | License  https://docs.boxicons.com/free--><path d="M16.88 5.58C16.36 3.52 14.15 2 11.5 2c-.55 0-1 .45-1 1v2.45c-1.29.4-2.45 1.05-3.36 1.9A6.93 6.93 0 0 0 3 6c-.55 0-1 .45-1 1 0 1.91.77 3.7 2.1 5A6.98 6.98 0 0 0 2 17c0 .55.45 1 1 1 1.51 0 2.94-.48 4.14-1.35.92.85 2.07 1.51 3.36 1.9V21c0 .55.45 1 1 1 2.65 0 4.87-1.52 5.38-3.58C19.97 17.33 22 14.82 22 12s-2.03-5.33-5.12-6.42m-1.16 11.1c-.41.11-.71.48-.73.91-.06 1.08-1.1 1.99-2.49 2.3v-2.11c0-.47-.33-.88-.79-.98-1.54-.34-2.86-1.11-3.73-2.17-.18-.22-.44-.35-.72-.37h-.05c-.26 0-.52.1-.7.29-.67.66-1.49 1.11-2.38 1.31a5 5 0 0 1 2.11-3.04c.28-.19.45-.5.45-.83s-.17-.65-.45-.83a4.97 4.97 0 0 1-2.11-3.04c.89.21 1.71.65 2.38 1.31.2.2.47.3.76.29.28-.01.54-.15.72-.37.87-1.06 2.19-1.83 3.73-2.17.46-.1.79-.51.79-.98V4.09c1.39.3 2.43 1.22 2.49 2.3.02.43.32.79.73.91 2.56.71 4.28 2.59 4.28 4.69s-1.72 3.98-4.28 4.69Z"/><path d="M17 10a1 1 0 1 0 0 2 1 1 0 1 0 0-2M13.61 8.11C12.57 9.15 12 10.53 12 12s.57 2.85 1.61 3.89l.71-.71C13.47 14.33 13 13.2 13 12s.47-2.33 1.32-3.18z"/></svg>