<svg xmlns="http://www.w3.org/2000/svg" width="24" height="24"><!--Boxicons v3.0 https://boxicons.com | License  https://docs.boxicons.com/free--><path d="M8.5 12a1.5 1.5 0 1 0 0 3 1.5 1.5 0 1 0 0-3M15.5 12a1.5 1.5 0 1 0 0 3 1.5 1.5 0 1 0 0-3"/><path d="M12 2C6.49 2 2 6.49 2 12s4.49 10 10 10 10-4.49 10-10S17.51 2 12 2m0 2c3.87 0 7.11 2.77 7.84 6.43l-2.26-2.26A3.96 3.96 0 0 0 14.75 7H9.24c-1.07 0-2.07.42-2.83 1.17l-2.26 2.26C4.88 6.77 8.12 4 11.99 4Zm0 16c-3.97 0-7.26-2.91-7.88-6.7l3.71-3.71c.38-.38.88-.59 1.41-.59h5.51c.53 0 1.04.21 1.41.59l3.71 3.71c-.62 3.79-3.92 6.7-7.88 6.7Z"/></svg>