<svg xmlns="http://www.w3.org/2000/svg" width="24" height="24"><!--Boxicons v3.0 https://boxicons.com | License  https://docs.boxicons.com/free--><path d="M14.12 10.46 12 12.59l-2.12-2.13-1.42 1.42L10.59 14l-2.13 2.12 1.42 1.42L12 15.41l2.12 2.13 1.42-1.42L13.41 14l2.13-2.12z"/><path d="m19.94 7.68-.03-.09a.8.8 0 0 0-.2-.29l-5-5c-.09-.09-.19-.15-.29-.2l-.09-.03a.8.8 0 0 0-.26-.05c-.02 0-.04-.01-.06-.01H6c-1.1 0-2 .9-2 2v16c0 1.1.9 2 2 2h12c1.1 0 2-.9 2-2v-12s-.01-.04-.01-.06c0-.09-.02-.17-.05-.26ZM6 20V4h7v4c0 .55.45 1 1 1h4v11z"/></svg>