<svg xmlns="http://www.w3.org/2000/svg" width="24" height="24"><!--Boxicons v3.0 https://boxicons.com | License  https://docs.boxicons.com/free--><path d="M13 6.03V3c0-.55-.45-1-1-1-3.16 0-5.68 3.88-5.97 9H3c-.55 0-1 .45-1 1 0 3.16 3.88 5.68 9 5.97V21c0 .55.45 1 1 1 3.16 0 5.68-3.88 5.97-9H21c.55 0 1-.45 1-1 0-3.16-3.88-5.68-9-5.97M17 11c-.55 0-1 .45-1 1 0 3.89-1.44 6.81-3 7.71V17c0-.55-.45-1-1-1-3.89 0-6.81-1.44-7.71-3H7c.55 0 1-.45 1-1 0-3.89 1.44-6.81 3-7.71V7c0 .55.45 1 1 1 3.89 0 6.81 1.44 7.71 3z"/><path d="M12 10.5a1.5 1.5 0 1 0 0 3 1.5 1.5 0 1 0 0-3"/></svg>