<svg xmlns="http://www.w3.org/2000/svg" width="24" height="24"><!--Boxicons v3.0 https://boxicons.com | License  https://docs.boxicons.com/free--><path d="M8.5 11a1.5 1.5 0 1 0 0 3 1.5 1.5 0 1 0 0-3M15.5 11a1.5 1.5 0 1 0 0 3 1.5 1.5 0 1 0 0-3"/><path d="M12 2C6.49 2 2 6.49 2 12s4.49 10 10 10 10-4.49 10-10S17.51 2 12 2m7.32 6.78a7.04 7.04 0 0 1-4.44-3.42c.12-.22.23-.45.34-.68 1.83.8 3.3 2.27 4.11 4.1ZM20 12c0 1.11-.23 2.17-.64 3.13-.98.24-3.83.87-7.36.87s-6.38-.62-7.36-.87a7.992 7.992 0 0 1-.27-5.54C5.22 9.85 6.1 10 7 10c.31 0 .62-.02.93-.05.11-.01.23-.04.34-.05.18-.03.37-.05.55-.08h.03c.13-.03.26-.07.39-.1.16-.04.32-.08.47-.12.18-.05.35-.12.52-.19.09-.04.19-.07.29-.1.01 0 .02-.01.04-.02.16-.07.32-.15.48-.23a5.213 5.213 0 0 0 .76-.43c.08-.05.17-.1.26-.16.02-.02.05-.04.07-.05l.36-.27c.12-.09.24-.18.36-.28.1-.08.19-.17.28-.25s.18-.15.26-.23c.05-.05.1-.11.14-.16.03-.03.06-.06.09-.08 1.46 2.1 3.77 3.5 6.32 3.81.05.35.08.71.08 1.07Zm-8-8c.43 0 .85.04 1.26.11-.11.21-.22.42-.35.62l-.04.06c-.29.46-.64.86-1.02 1.23-.28.27-.58.52-.9.74-.17.12-.34.23-.52.33-.04.02-.07.05-.11.07-.22.12-.46.23-.7.33-.08.03-.17.06-.25.09-.17.06-.34.12-.51.17-.09.02-.17.05-.26.07-.19.04-.38.08-.57.11-.08.01-.16.03-.24.04-.27.03-.54.05-.81.05q-.915 0-1.77-.24c1.42-2.26 3.92-3.76 6.77-3.76Zm0 16c-2.28 0-4.33-.96-5.79-2.5 1.47.25 3.48.5 5.79.5s4.33-.24 5.79-.5C16.33 19.03 14.28 20 12 20"/></svg>