<svg xmlns="http://www.w3.org/2000/svg" width="24" height="24"><!--Boxicons v3.0 https://boxicons.com | License  https://docs.boxicons.com/free--><path d="M19.81 9.84 14 9.11V4.99c0-1.65-1.35-3-3-3s-3 1.35-3 3v9.38l-.58-.29c-1.58-.79-3.5-.28-4.48 1.19l-.22.33c-.3.44-.4.98-.3 1.5s.41.98.85 1.27l5.17 3.45c.16.11.36.17.55.17h12c.55 0 1-.45 1-1v-8.68c0-1.26-.94-2.32-2.19-2.48ZM20 20H9.3l-4.92-3.28.22-.33c.42-.63 1.24-.85 1.92-.51l2.03 1.01c.31.15.68.14.97-.04s.47-.5.47-.85V5c0-.55.45-1 1-1s1 .45 1 1v5c0 .5.38.93.88.99l6.69.84c.25.03.44.24.44.5v7.68Z"/></svg>