<svg xmlns="http://www.w3.org/2000/svg" width="24" height="24"><!--Boxicons v3.0 https://boxicons.com | License  https://docs.boxicons.com/free--><path d="M20 4h-8.59L10 2.59C9.62 2.21 9.12 2 8.59 2H4c-1.1 0-2 .9-2 2v14c0 1.1.9 2 2 2h16c1.1 0 2-.9 2-2V6c0-1.1-.9-2-2-2m0 14H4V6h16z"/><path d="M8 11.5c0 1.93 1.57 3.5 3.5 3.5.73 0 1.41-.23 1.97-.61l1.82 1.82 1.41-1.41-1.97-1.97c.17-.41.26-.85.26-1.32 0-1.93-1.57-3.5-3.5-3.5s-3.5 1.57-3.5 3.5Zm5 0c0 .83-.67 1.5-1.5 1.5s-1.5-.67-1.5-1.5.67-1.5 1.5-1.5 1.5.67 1.5 1.5"/></svg>