<svg xmlns="http://www.w3.org/2000/svg" width="24" height="24"><!--Boxicons v3.0 https://boxicons.com | License  https://docs.boxicons.com/free--><path d="M19.5 13h-15c-.83 0-1.5.67-1.5 1.5v5c0 .83.67 1.5 1.5 1.5h15c.83 0 1.5-.67 1.5-1.5v-5c0-.83-.67-1.5-1.5-1.5m-.5 6H5v-4h14zM4.5 11h5c.83 0 1.5-.67 1.5-1.5v-5c0-.83-.67-1.5-1.5-1.5h-5C3.67 3 3 3.67 3 4.5v5c0 .83.67 1.5 1.5 1.5M5 5h4v4H5zm14.5-2h-5c-.83 0-1.5.67-1.5 1.5v5c0 .83.67 1.5 1.5 1.5h5c.83 0 1.5-.67 1.5-1.5v-5c0-.83-.67-1.5-1.5-1.5M19 9h-4V5h4z"/></svg>