<svg xmlns="http://www.w3.org/2000/svg" width="24" height="24"><!--Boxicons v3.0 https://boxicons.com | License  https://docs.boxicons.com/free--><path d="M9.5 15c3.58 0 6.5-2.92 6.5-6.5S13.08 2 9.5 2 3 4.92 3 8.5 5.92 15 9.5 15m0-11C11.98 4 14 6.02 14 8.5S11.98 13 9.5 13 5 10.98 5 8.5 7.02 4 9.5 4"/><path d="M15.33 2.67c1.56 1.56 2.43 3.64 2.43 5.83s-.86 4.27-2.43 5.83c-3.22 3.22-8.45 3.22-11.67 0l-1.41 1.41c2 2 4.62 3 7.25 3 .5 0 1-.05 1.5-.12V20H8v2h8v-2h-3v-1.88a10.2 10.2 0 0 0 3.75-2.37c1.94-1.94 3.01-4.52 3.01-7.25s-1.07-5.31-3.01-7.25l-1.41 1.41Z"/></svg>