<svg xmlns="http://www.w3.org/2000/svg" width="24" height="24"><!--Boxicons v3.0 https://boxicons.com | License  https://docs.boxicons.com/free--><path d="M12 2C6.49 2 2 6.49 2 12s4.49 10 10 10 10-4.49 10-10S17.51 2 12 2m0 18c-4.41 0-8-3.59-8-8 0-3.41 2.15-6.33 5.17-7.47.4.07.95.05 1.41-.08.62-.17 1.38-.17 1.69 0s.98.42 1.48.55 1 .27 1.1.31.05.21-.11.37-.73.22-1.26.12-1.17-.16-1.44-.13-.57-.12-.67-.33-.5-.3-.87-.21-.95.36-1.29.59c-.33.23-1.06.78-1.62 1.23-.55.45-1.05 1.17-1.09 1.61-.05.44.22 1.14.59 1.55.37.42 1.23.74 1.92.71s1.37.23 1.54.56c.16.34.47 1.04.69 1.55.22.52.33 1.16.24 1.42-.09.27.15 1.17.52 2 .37.84 1.11 1.43 1.64 1.31.53-.11 1.43-.95 1.99-1.85s1.02-2.09 1.02-2.64.33-1.3.74-1.67.84-1.01.95-1.42-.16-.73-.6-.71c-.45.02-1.21-.57-1.69-1.32-.49-.74-.83-1.38-.78-1.42.06-.04.66.42 1.33 1.02s1.48.99 1.8.86c.2-.08.43-.23.63-.38.63 1.14.99 2.45.99 3.84 0 4.41-3.59 8-8 8Z"/><path d="M17.59 14.46c-.29.25-.59.78-.66 1.17-.07.4.05.74.26.76s.57-.42.81-.97.36-1.09.28-1.21c-.09-.11-.4 0-.69.24Z"/></svg>