<svg xmlns="http://www.w3.org/2000/svg" width="24" height="24"><!--Boxicons v3.0 https://boxicons.com | License  https://docs.boxicons.com/free--><path d="M12 2C6.49 2 2 6.49 2 12s4.49 10 10 10 10-4.49 10-10S17.51 2 12 2m0 18c-4.41 0-8-3.59-8-8 0-.35.03-.7.08-1.04q.18.09.42.09c.83-.03 1.72.18 2 .45s.72 1.29 1 2.25.67 1.64.88 1.5.43-.48.5-.75c.07-.28.35-.73.62-1 .28-.28.73-.53 1.01-.57s.61.03.74.15.27.38.33.57c.05.19.23.39.39.45.16.05.34.39.41.74.06.35.22.75.35.87s.36.24.51.26.19-.18.08-.43c-.11-.26-.05-.43.13-.38s.5-.02.72-.17c.22-.14.38-.44.35-.67-.02-.23-.15-.51-.29-.63-.13-.12-.24-.32-.24-.45s.17-.27.37-.31.65-.28 1.01-.55.73-.74.82-1.06.08-.74-.01-.95-.13-.66-.07-1.02c.06-.35.2-.43.32-.18.11.26.3.41.4.33.11-.07.19-.45.18-.82s.31-1.24.71-1.91c.05-.08.08-.16.1-.24A7.98 7.98 0 0 1 20 12c0 4.41-3.59 8-8 8"/><path d="M13.48 16.93c-.2-.16-.52-.4-.72-.54-.19-.13-.45-.24-.57-.24s-.18.11-.13.25.2.36.34.5l.5.5c.14.14.35.28.47.32s.32.09.45.11c.13.03.26-.09.29-.27.03-.17-.01-.32-.1-.33-.09 0-.33-.14-.53-.31Zm4.09-7.43c-.23.56-.41 1.24-.41 1.51s.16.26.35-.03.5-.81.68-1.16.28-.78.2-.97-.2-.35-.27-.35-.32.44-.55 1m-1.17 5.9c-.14-.02-.42.14-.62.36-.21.22-.54.51-.75.65s-.32.39-.26.56c.07.17.34.32.62.34.28.01.65-.22.84-.51s.35-.72.38-.94c.02-.23-.07-.43-.21-.45Z"/></svg>