<svg xmlns="http://www.w3.org/2000/svg" width="24" height="24"><!--Boxicons v3.0 https://boxicons.com | License  https://docs.boxicons.com/free--><path d="M20 7h-.69a3.05 3.05 0 0 0-.21-4.1c-1.16-1.16-3.19-1.16-4.35 0l-2.04 2.04C12.07 3.23 10.44 2 8.5 2 6.02 2 4 4.02 4 6.5c0 .17 0 .34.03.5H4c-.52 0-.95.4-1 .92l-.91 10.92a2.007 2.007 0 0 0 1.99 2.17h15.83a2.007 2.007 0 0 0 1.99-2.17l-.91-10.92c-.04-.52-.48-.92-1-.92Zm-3.84-2.68c.41-.41 1.12-.41 1.53 0 .2.2.32.47.32.76s-.11.56-.32.76L16.53 7h-3.05zM6 6.5a2.5 2.5 0 0 1 5 0c0 .14-.01.29-.05.46 0 .01-.01.03-.01.04H6.05C6.02 6.84 6 6.67 6 6.5M4.09 19l.83-10h14.16l.83 10z" class="b"/><path d="M12 14c-1.65 0-3-1.35-3-3H7c0 2.76 2.24 5 5 5s5-2.24 5-5h-2c0 1.65-1.35 3-3 3" class="b"/></svg>