<svg xmlns="http://www.w3.org/2000/svg" width="24" height="24"><!--Boxicons v3.0 https://boxicons.com | License  https://docs.boxicons.com/free--><path d="M12 2C6.49 2 2 6.49 2 12s4.49 10 10 10 10-4.49 10-10S17.51 2 12 2m-.74 2.04c-.07.03-.14.06-.22.08-.4.14-.8.18-1.11.16.43-.12.88-.2 1.33-.24M4 12c0-2.84 1.5-5.34 3.74-6.76.09.27.05.82-.13 1.4-.22.71-.23 1.78-.02 2.38s.67 1.39 1.02 1.76.99.79 1.42.94.96.41 1.19.59.57.4.76.51.24.54.1.97c-.13.43-.09 1.08.09 1.45s.55.87.81 1.1.3 1.14.09 2c-.2.78-.27 1.45-.19 1.6-.29.03-.58.05-.88.05-4.41 0-8-3.59-8-8Zm9.13 7.91c.32-.17.93-.61 1.56-1.13l.96-.8c.85-.7 1.77-1.8 2.06-2.45.28-.65.11-1.41-.4-1.69s-1.2-.7-1.55-.93-1.09-.53-1.64-.66c-.55-.14-1.15-.14-1.33-.02-.18.13-.58-.02-.89-.33s-.65-.77-.76-1.04c-.11-.26-.38-.29-.61-.06s-.54.13-.69-.22-.01-.77.31-.93.8-.23 1.05-.16c.26.08.54.25.63.4.09.14.22.18.29.09s.19-.41.26-.71c.08-.29.39-.85.71-1.24.31-.39.84-.83 1.17-.98s.34-.47.02-.71-.72-.56-.88-.73c-.16-.16-.22-.43-.12-.6.09-.17.41-.14.71.07.29.21.59.3.66.21s.11-.42.1-.73V4.5C17.81 5.62 20 8.56 20 12c0 4.03-2.99 7.36-6.87 7.91"/></svg>