<svg xmlns="http://www.w3.org/2000/svg" width="24" height="24"><!--Boxicons v3.0 https://boxicons.com | License  https://docs.boxicons.com/free--><path d="M3 19c0 1.65 1.35 3 3 3s3-1.35 3-3c0-1.3-.84-2.4-2-2.82V7.82C8.16 7.41 9 6.31 9 5c0-1.65-1.35-3-3-3S3 3.35 3 5c0 1.3.84 2.4 2 2.82v8.37c-1.16.41-2 1.51-2 2.82Zm3 1c-.55 0-1-.45-1-1s.45-1 1-1 1 .45 1 1-.45 1-1 1M6 4c.55 0 1 .45 1 1s-.45 1-1 1-1-.45-1-1 .45-1 1-1m11 5v7.18c-1.16.41-2 1.51-2 2.82 0 1.65 1.35 3 3 3s3-1.35 3-3c0-1.3-.84-2.4-2-2.82V9zm1 11c-.55 0-1-.45-1-1s.45-1 1-1 1 .45 1 1-.45 1-1 1m1.79-18.21L18 3.59l-1.79-1.8-1.42 1.42L16.59 5l-1.8 1.79 1.42 1.42L18 6.41l1.79 1.8 1.42-1.42L19.41 5l1.8-1.79z"/></svg>