<svg xmlns="http://www.w3.org/2000/svg" width="24" height="24"><!--Boxicons v3.0 https://boxicons.com | License  https://docs.boxicons.com/free--><path d="M5 7.82v2.68A2.5 2.5 0 0 0 7.5 13H11v3.18c-1.16.41-2 1.51-2 2.82 0 1.65 1.35 3 3 3s3-1.35 3-3c0-1.3-.84-2.4-2-2.82V13h3.5a2.5 2.5 0 0 0 2.5-2.5V7.82c1.16-.41 2-1.51 2-2.82 0-1.65-1.35-3-3-3s-3 1.35-3 3c0 1.3.84 2.4 2 2.82v2.68c0 .28-.22.5-.5.5h-9c-.28 0-.5-.22-.5-.5V7.82C8.16 7.41 9 6.31 9 5c0-1.65-1.35-3-3-3S3 3.35 3 5c0 1.3.84 2.4 2 2.82M12 20c-.55 0-1-.45-1-1s.45-1 1-1 1 .45 1 1-.45 1-1 1m6-16c.55 0 1 .45 1 1s-.45 1-1 1-1-.45-1-1 .45-1 1-1M6 4c.55 0 1 .45 1 1s-.45 1-1 1-1-.45-1-1 .45-1 1-1"/></svg>