<svg xmlns="http://www.w3.org/2000/svg" width="24" height="24"><!--Boxicons v3.0 https://boxicons.com | License  https://docs.boxicons.com/free--><path d="M12 2C6.49 2 2 6.49 2 12s4.49 10 10 10 10-4.49 10-10S17.51 2 12 2m5.66 4.35c-.72.17-1.45.3-2.19.4-.18-.83-.42-1.59-.7-2.25a8.05 8.05 0 0 1 2.89 1.85M12 20c-.31 0-.97-1-1.45-2.94.96-.05 1.93-.05 2.9 0C12.97 19 12.31 20 12 20m-1.81-4.93c-.08-.63-.14-1.32-.17-2.07h3.96c-.03.75-.09 1.44-.17 2.07-1.2-.08-2.42-.08-3.62 0M12 4c.31 0 .97 1 1.45 2.94-.96.05-1.93.05-2.9 0C11.03 5 11.69 4 12 4m0 5c.61 0 1.21-.03 1.81-.06.08.63.14 1.32.17 2.06h-3.96c.03-.75.09-1.43.17-2.06.6.04 1.2.06 1.81.06m-3.98 2H4.07c.13-1.05.47-2.04.97-2.92 1.03.28 2.09.51 3.16.66-.09.74-.15 1.5-.18 2.27Zm0 2c.03.77.09 1.53.18 2.27-1.08.15-2.13.38-3.16.65-.5-.88-.84-1.87-.97-2.93h3.95Zm7.96 0h3.95a8 8 0 0 1-.97 2.93c-1.03-.28-2.09-.5-3.16-.65.09-.74.15-1.51.18-2.27Zm0-2c-.03-.76-.09-1.53-.18-2.27 1.08-.15 2.13-.38 3.16-.66.5.88.83 1.87.97 2.92h-3.95ZM9.24 4.5c-.28.66-.52 1.43-.7 2.25-.74-.1-1.47-.24-2.19-.4.81-.81 1.8-1.44 2.89-1.85M6.35 17.65c.72-.17 1.45-.3 2.19-.4.18.83.42 1.59.7 2.25a8.05 8.05 0 0 1-2.89-1.85m8.42 1.85c.28-.66.52-1.43.7-2.25.74.1 1.47.24 2.19.4-.81.81-1.8 1.44-2.89 1.85"/></svg>