<svg xmlns="http://www.w3.org/2000/svg" width="24" height="24"><!--Boxicons v3.0 https://boxicons.com | License  https://docs.boxicons.com/free--><path d="M2 5c0 1.3.84 2.4 2 2.82v9.68A2.5 2.5 0 0 0 6.5 20H10v2l4-3-4-3v2H6.5c-.28 0-.5-.22-.5-.5V7.82C7.16 7.41 8 6.31 8 5c0-1.65-1.35-3-3-3S2 3.35 2 5m3-1c.55 0 1 .45 1 1s-.45 1-1 1-1-.45-1-1 .45-1 1-1m15 12.18V6.5A2.5 2.5 0 0 0 17.5 4H14V2l-4 3 4 3V6h3.5c.28 0 .5.22.5.5v9.68c-1.16.41-2 1.51-2 2.82 0 1.65 1.35 3 3 3s3-1.35 3-3c0-1.3-.84-2.4-2-2.82M19 20c-.55 0-1-.45-1-1s.45-1 1-1 1 .45 1 1-.45 1-1 1"/></svg>