<svg xmlns="http://www.w3.org/2000/svg" width="24" height="24"><!--Boxicons v3.0 https://boxicons.com | License  https://docs.boxicons.com/free--><path d="M12 2C6.49 2 2 6.49 2 12s4.49 10 10 10 10-4.49 10-10S17.51 2 12 2m0 18c-4.41 0-8-3.59-8-8s3.59-8 8-8c.36 0 .71.03 1.06.08.38.97 1.01 1.91 1.47 2.14.48.24 1.31.48 1.84.52.44.04.98-.12 1.33-.35A7.97 7.97 0 0 1 20.01 12c0 4.41-3.59 8-8 8Z"/><path d="M15.12 12.48c-.07-.51-1.03-1.16-2.12-1.44-1.1-.28-2.36-.43-2.8-.34-.22.05-.47.25-.68.54-.55.74-1.25 1.36-2.11 1.7 0 0-.08.04-.11.04-.33.04-.89-.26-1.24-.47s-.49-.09-.31.28.57.79.86.94.37.84.18 1.53.3 1.57 1.1 1.96c.8.38 1.62.28 1.84-.23.21-.51.61-.55.88-.08s.52 1.2.54 1.63c.03.43.72.71 1.53.62s1.79-.61 2.18-1.17c.38-.55.75-1.51.8-2.12.06-.61-.01-1.41-.16-1.79-.14-.37-.32-1.1-.39-1.61Z"/></svg>