<svg xmlns="http://www.w3.org/2000/svg" width="24" height="24"><!--Boxicons v3.0 https://boxicons.com | License  https://docs.boxicons.com/free--><path d="M10 2H3c-.55 0-1 .45-1 1v7c0 .55.45 1 1 1h7c.55 0 1-.45 1-1V3c0-.55-.45-1-1-1M9 9H4V4h5zM17.5 13c-2.48 0-4.5 2.02-4.5 4.5s2.02 4.5 4.5 4.5 4.5-2.02 4.5-4.5-2.02-4.5-4.5-4.5m0 7a2.5 2.5 0 0 1 0-5 2.5 2.5 0 0 1 0 5M9.54 13.04 6.5 16.09l-3.04-3.05-1.42 1.42 3.05 3.04-3.05 3.04 1.42 1.42 3.04-3.05 3.04 3.05 1.42-1.42-3.05-3.04 3.05-3.04zM18.37 2.5c-.36-.62-1.38-.62-1.74 0l-4 7a1 1 0 0 0 .86 1.5h8c.36 0 .69-.19.86-.5.18-.31.18-.69 0-1l-4-7ZM15.22 9l2.28-3.98L19.78 9h-4.55Z"/></svg>