<svg xmlns="http://www.w3.org/2000/svg" width="24" height="24"><!--Boxicons v3.0 https://boxicons.com | License  https://docs.boxicons.com/free--><path d="M9.5 3h-5C3.67 3 3 3.67 3 4.5v5c0 .83.67 1.5 1.5 1.5h5c.83 0 1.5-.67 1.5-1.5v-5c0-.83-.67-1.5-1.5-1.5M9 9H5V5h4zM19.5 3h-5c-.83 0-1.5.67-1.5 1.5v5c0 .83.67 1.5 1.5 1.5h5c.83 0 1.5-.67 1.5-1.5v-5c0-.83-.67-1.5-1.5-1.5M19 9h-4V5h4zM9.5 13h-5c-.83 0-1.5.67-1.5 1.5v5c0 .83.67 1.5 1.5 1.5h5c.83 0 1.5-.67 1.5-1.5v-5c0-.83-.67-1.5-1.5-1.5M9 19H5v-4h4zM20 16c0-1.93-1.57-3.5-3.5-3.5S13 14.07 13 16s1.57 3.5 3.5 3.5c.47 0 .91-.1 1.32-.26l1.72 1.72 1.41-1.41-1.57-1.57c.39-.56.61-1.24.61-1.97Zm-5 0c0-.83.67-1.5 1.5-1.5s1.5.67 1.5 1.5-.67 1.5-1.5 1.5S15 16.83 15 16" class="b"/></svg>