<svg xmlns="http://www.w3.org/2000/svg" width="24" height="24"><!--Boxicons v3.0 https://boxicons.com | License  https://docs.boxicons.com/free--><path d="M4.5 11h5c.83 0 1.5-.67 1.5-1.5v-5c0-.83-.67-1.5-1.5-1.5h-5C3.67 3 3 3.67 3 4.5v5c0 .83.67 1.5 1.5 1.5M5 5h4v4H5zm14.5-2h-5c-.83 0-1.5.67-1.5 1.5v5c0 .83.67 1.5 1.5 1.5h5c.83 0 1.5-.67 1.5-1.5v-5c0-.83-.67-1.5-1.5-1.5M19 9h-4V5h4zM4.5 21h5c.83 0 1.5-.67 1.5-1.5v-5c0-.83-.67-1.5-1.5-1.5h-5c-.83 0-1.5.67-1.5 1.5v5c0 .83.67 1.5 1.5 1.5m.5-6h4v4H5zm13-2h-2v3h-3v2h3v3h2v-3h3v-2h-3z"/></svg>