<svg xmlns="http://www.w3.org/2000/svg" width="24" height="24"><!--Boxicons v3.0 https://boxicons.com | License  https://docs.boxicons.com/free--><path d="M12 2C6.49 2 2 6.49 2 12s4.49 10 10 10 10-4.49 10-10S17.51 2 12 2m7.93 9h-2.86c-.11-2.18-.72-4.33-1.77-6.28A8.01 8.01 0 0 1 19.93 11m-7.44-6.98c1.5 2.04 2.42 4.52 2.58 6.98H9.13c.14-2.6.97-5.03 2.39-6.98.16 0 .32-.02.48-.02s.33.01.49.02m-3.72.66c-.97 1.9-1.53 4.06-1.64 6.31H4.07c.35-2.83 2.19-5.2 4.7-6.31m-4.7 8.31h3.07c.13 2.4.66 4.51 1.54 6.27a8 8 0 0 1-4.61-6.27m7.42 6.97c-1.36-1.7-2.17-4.08-2.35-6.97h5.91c-.2 2.77-1.09 5.2-2.53 6.97-.17.01-.35.03-.52.03s-.34-.02-.51-.03m3.89-.73c.95-1.8 1.52-3.92 1.67-6.24h2.88a8 8 0 0 1-4.55 6.24"/></svg>