<svg xmlns="http://www.w3.org/2000/svg" width="24" height="24"><!--Boxicons v3.0 https://boxicons.com | License  https://docs.boxicons.com/free--><path d="M19.5 5h-.55a2.5 2.5 0 0 0-2.45-2h-1c-.46-.61-1.18-1-2-1s-1.54.39-2 1h-1A2.5 2.5 0 0 0 8 5.5v8.66l-1.61-1.05a2.39 2.39 0 0 0-3.69 1.88c-.04.68.22 1.34.7 1.82l3.73 3.73c.94.94 2.2 1.46 3.54 1.46h6.34c2.76 0 5-2.24 5-5V7.5a2.5 2.5 0 0 0-2.5-2.5Zm.5 12c0 1.65-1.35 3-3 3h-6.34c-.79 0-1.56-.32-2.12-.88l-3.73-3.73a.35.35 0 0 1-.11-.3c0-.07.03-.19.15-.29a.394.394 0 0 1 .46-.03l3.16 2.05c.31.2.7.21 1.02.04s.52-.51.52-.88V5.5c0-.28.22-.5.5-.5h.5v8h2V4.5c0-.28.22-.5.5-.5s.5.22.5.5V13h2V5h.5c.28 0 .5.22.5.5V13h2V7h.5c.28 0 .5.22.5.5V17Z"/></svg>