<svg xmlns="http://www.w3.org/2000/svg" width="24" height="24"><!--Boxicons v3.0 https://boxicons.com | License  https://docs.boxicons.com/free--><path d="M20.24 4.76c-2.3-2.29-5.87-2.35-8.24-.19-2.37-2.16-5.93-2.09-8.24.2-2.36 2.37-2.36 6.07 0 8.43l7.53 7.52c.2.19.45.29.71.29s.51-.1.71-.29l7.53-7.52c2.36-2.36 2.36-6.06 0-8.43Zm-1.41 7.02-6.82 6.81-6.82-6.81a3.92 3.92 0 0 1 0-5.6C5.98 5.39 6.99 5 8 5s2.02.39 2.8 1.18l.5.5c.39.39 1.02.39 1.41 0l.5-.5c1.57-1.57 4.04-1.57 5.62 0 1.57 1.58 1.57 4.04 0 5.6"/><path d="M13 8.5h-2V11H8.5v2H11v2.5h2V13h2.5v-2H13z"/></svg>