<svg xmlns="http://www.w3.org/2000/svg" width="24" height="24"><!--Boxicons v3.0 https://boxicons.com | License  https://docs.boxicons.com/free--><path d="M3 13h1v7c0 1.1.9 2 2 2h12c1.1 0 2-.9 2-2v-7h1c.4 0 .77-.24.92-.62.15-.37.07-.8-.22-1.09l-8.99-9a.996.996 0 0 0-1.41 0l-9.01 9c-.29.29-.37.72-.22 1.09s.52.62.92.62Zm9-8.59 6 6V20H6v-9.59z"/><path d="m8.59 14.65.06.06L12 18l3.35-3.29c.85-.82.87-2.16.06-3.01l-.06-.06c-.87-.86-2.26-.86-3.12 0l-.22.22-.22-.22c-.87-.86-2.26-.86-3.12 0-.85.82-.87 2.16-.06 3.01Z"/></svg>