<svg xmlns="http://www.w3.org/2000/svg" width="24" height="24"><!--Boxicons v3.0 https://boxicons.com | License  https://docs.boxicons.com/free--><path d="M3 13h1v7c0 1.1.9 2 2 2h12c1.1 0 2-.9 2-2v-7h1c.4 0 .77-.24.92-.62.15-.37.07-.8-.22-1.09l-8.99-9a.996.996 0 0 0-1.41 0l-9.01 9c-.29.29-.37.72-.22 1.09s.52.62.92.62Zm9-8.59 6 6V20H6v-9.59z"/><path d="M12 16c1.93 0 3.5-1.57 3.5-3.5S13.93 9 12 9s-3.5 1.57-3.5 3.5S10.07 16 12 16m0-5c.83 0 1.5.67 1.5 1.5S12.83 14 12 14s-1.5-.67-1.5-1.5.67-1.5 1.5-1.5"/></svg>