<svg xmlns="http://www.w3.org/2000/svg" width="24" height="24"><!--Boxicons v3.0 https://boxicons.com | License  https://docs.boxicons.com/free--><path d="M18.67 5H5.33C2.94 5 1 6.92 1 9.27v5.45c0 2.36 1.94 4.27 4.33 4.27h13.33c2.39 0 4.33-1.92 4.33-4.27V9.27c0-2.36-1.94-4.27-4.33-4.27ZM5.34 17c-1.29 0-2.33-1.02-2.33-2.27V9.28c0-1.25 1.05-2.27 2.33-2.27h1.67v10H5.34Zm3.67 0V7h6v10zm12-2.27c0 1.25-1.05 2.27-2.33 2.27h-1.67V7h1.67c1.29 0 2.33 1.02 2.33 2.27v5.45Z"/><path d="M19 14a1 1 0 1 0 0 2 1 1 0 1 0 0-2M5 8a1 1 0 1 0 0 2 1 1 0 1 0 0-2"/></svg>