<svg xmlns="http://www.w3.org/2000/svg" width="24" height="24"><!--Boxicons v3.0 https://boxicons.com | License  https://docs.boxicons.com/free--><path d="M12 18c4 0 5-4 5-4H7s1 4 5 4m-1.43-7.52c.58-.58.58-1.48-.02-2.06-.29-.27-.66-.42-1.06-.42-.37 0-.72.14-1 .39-.28-.24-.63-.38-1.01-.37-.39 0-.77.16-1.05.44-.58.58-.58 1.49.02 2.06l2.07 1.99 2.04-2.02ZM16.49 8c-.37 0-.72.14-1 .39-.28-.24-.63-.38-1.01-.37-.39 0-.77.16-1.05.44-.58.58-.58 1.49.02 2.06l2.07 1.99 2.04-2.02c.58-.58.58-1.48-.02-2.06-.29-.27-.66-.42-1.06-.42Z"/><path d="M12 2C6.49 2 2 6.49 2 12s4.49 10 10 10 10-4.49 10-10S17.51 2 12 2m0 18c-4.41 0-8-3.59-8-8s3.59-8 8-8 8 3.59 8 8-3.59 8-8 8"/></svg>