<svg xmlns="http://www.w3.org/2000/svg" width="24" height="24"><!--Boxicons v3.0 https://boxicons.com | License  https://docs.boxicons.com/free--><path d="M21 15c0-.61-.06-1.22-.18-1.81-.12-.58-.29-1.15-.52-1.69a10 10 0 0 0-.83-1.53c-.32-.48-.69-.93-1.1-1.33-.41-.41-.86-.78-1.33-1.1-.48-.32-1-.6-1.53-.83-.16-.07-.34-.12-.5-.18V5.01c0-.55-.45-1-1-1h-4c-.55 0-1 .45-1 1v1.52c-.17.06-.34.11-.5.18-.53.23-1.05.51-1.53.83s-.92.69-1.33 1.1-.78.86-1.1 1.33c-.32.48-.6 1-.83 1.53-.23.54-.41 1.11-.53 1.69-.12.59-.18 1.2-.18 1.81v3h-1v2h20v-2h-1v-3ZM5 15c0-.47.05-.95.14-1.41.09-.45.23-.89.41-1.31s.39-.81.64-1.19a7.1 7.1 0 0 1 1.9-1.9c.29-.2.6-.36.91-.51V15h2V6h2v9h2V8.68c.32.15.62.32.91.51.37.25.72.54 1.04.86s.6.66.85 1.04c.25.37.47.77.65 1.19s.32.86.41 1.31c.09.46.14.94.14 1.41v3H5z"/></svg>