<svg xmlns="http://www.w3.org/2000/svg" width="24" height="24"><!--Boxicons v3.0 https://boxicons.com | License  https://docs.boxicons.com/free--><path d="M20.21 4.76c-2.3-2.28-5.85-2.35-8.21-.2-2.36-2.16-5.91-2.09-8.21.2-2.35 2.36-2.35 6.06 0 8.41l7.5 7.5c.2.2.45.29.71.29s.51-.1.71-.29l7.5-7.5c2.35-2.35 2.35-6.05 0-8.41m-15 1.42C6 5.4 7 5.01 8.01 5.01s2.01.39 2.79 1.17l.21.21v11.17l-5.79-5.79a3.91 3.91 0 0 1 0-5.58Zm13.59 5.58-5.79 5.79V6.38l.21-.21c1.56-1.56 4.01-1.56 5.59 0a3.923 3.923 0 0 1 0 5.59Z"/></svg>