<svg xmlns="http://www.w3.org/2000/svg" width="24" height="24"><!--Boxicons v3.0 https://boxicons.com | License  https://docs.boxicons.com/free--><path d="M12.13 2h-.12c-2.58 0-5.02 1.02-6.9 2.87C3.21 6.75 2.1 9.33 2.02 12H2v5.5C2 20.11 4.17 22 7.17 22h4.52c2.78 0 5.5-1.13 7.45-3.11 1.88-1.91 2.9-4.4 2.87-7.02-.07-5.47-4.4-9.8-9.87-9.87Zm-7.8 8H13v4H4v-1.68c0-.79.12-1.57.33-2.32m13.38 7.49A8.5 8.5 0 0 1 11.69 20H7.17C5.27 20 4 19 4 17.5V16h9c1.1 0 2-.9 2-2v-4c0-1.1-.9-2-2-2H5.2c.37-.62.8-1.2 1.32-1.71C8.02 4.81 9.96 4 12.01 4h.1c3.28.04 6.11 2.11 7.3 5h-2.4v2h2.93c.04.3.06.59.07.9 0 .37-.03.74-.07 1.1h-2.92v2h2.38c-.39.91-.95 1.75-1.67 2.49Z"/></svg>