<svg xmlns="http://www.w3.org/2000/svg" width="24" height="24"><!--Boxicons v3.0 https://boxicons.com | License  https://docs.boxicons.com/free--><path d="M16.89 6.45C17.41 5.41 18 4.24 18 2h-2c0 1.76-.41 2.59-.89 3.55C14.59 6.59 14 7.76 14 10h2c0-1.76.41-2.59.89-3.55M11.11 5.55C10.59 6.59 10 7.76 10 10h2c0-1.76.41-2.59.89-3.55C13.41 5.41 14 4.24 14 2h-2c0 1.76-.41 2.59-.89 3.55M19.11 5.55C18.59 6.59 18 7.76 18 10h2c0-1.76.41-2.59.89-3.55C21.41 5.41 22 4.24 22 2h-2c0 1.76-.41 2.59-.89 3.55M20 15c-.51 0-.72-.13-1.07-.35-.44-.27-1.04-.65-2.13-.65s-1.69.38-2.13.65c-.35.22-.56.35-1.07.35s-.72-.13-1.07-.35c-.44-.28-1.04-.65-2.13-.65s-1.69.38-2.13.65c-.35.22-.56.35-1.07.35s-.72-.13-1.07-.35C5.69 14.37 5.09 14 4 14v-2H2v7c0 1.65 1.35 3 3 3h14c1.65 0 3-1.35 3-3v-7h-2zm0 4c0 .55-.45 1-1 1H5c-.55 0-1-.45-1-1v-3c.51 0 .72.13 1.07.35.44.28 1.04.65 2.13.65s1.69-.38 2.13-.65c.35-.22.56-.35 1.07-.35s.72.13 1.07.35c.44.28 1.04.65 2.13.65s1.69-.38 2.13-.65c.35-.22.56-.35 1.07-.35s.72.13 1.07.35c.44.28 1.04.65 2.13.65z"/></svg>