<svg xmlns="http://www.w3.org/2000/svg" width="24" height="24"><!--Boxicons v3.0 https://boxicons.com | License  https://docs.boxicons.com/free--><path d="M9 2H7c0 1.39-.38 2.02-.86 2.82C5.6 5.71 5 6.72 5 8.67s.61 2.96 1.14 3.85c.48.8.86 1.43.86 2.82s-.38 2.02-.86 2.82C5.6 19.05 5 20.06 5 22.01h2c0-1.39.38-2.02.86-2.82C8.4 18.3 9 17.29 9 15.34s-.61-2.96-1.14-3.85c-.48-.8-.86-1.43-.86-2.82s.38-2.02.86-2.82C8.4 4.96 9 3.95 9 2m5 0h-2c0 1.39-.38 2.02-.86 2.82-.54.89-1.14 1.9-1.14 3.85s.61 2.96 1.14 3.85c.48.8.86 1.43.86 2.82s-.38 2.02-.86 2.82c-.54.89-1.14 1.9-1.14 3.85h2c0-1.39.38-2.02.86-2.82.54-.89 1.14-1.9 1.14-3.85s-.61-2.96-1.14-3.85c-.48-.8-.86-1.43-.86-2.82s.38-2.02.86-2.82C13.4 4.96 14 3.95 14 2m5 0h-2c0 1.39-.38 2.02-.86 2.82-.54.89-1.14 1.9-1.14 3.85s.61 2.96 1.14 3.85c.48.8.86 1.43.86 2.82s-.38 2.02-.86 2.82c-.54.89-1.14 1.9-1.14 3.85h2c0-1.39.38-2.02.86-2.82.54-.89 1.14-1.9 1.14-3.85s-.61-2.96-1.14-3.85c-.48-.8-.86-1.43-.86-2.82s.38-2.02.86-2.82C18.4 4.96 19 3.95 19 2"/></svg>