<svg xmlns="http://www.w3.org/2000/svg" width="24" height="24"><!--Boxicons v3.0 https://boxicons.com | License  https://docs.boxicons.com/free--><path d="M20.24 4.76c-2.3-2.29-5.87-2.35-8.24-.19-2.37-2.16-5.93-2.1-8.24.2-2.36 2.37-2.36 6.07 0 8.43l7.53 7.52c.2.19.45.29.71.29s.51-.1.71-.29l7.53-7.52c2.36-2.36 2.36-6.06 0-8.43ZM5.18 6.18C5.97 5.39 6.98 5 7.99 5s2.02.39 2.8 1.18-2.19 4.38-2.19 4.38c-.15.31-.14.68.04.97s.5.47.85.47h3.64l-1.84 5.89-6.12-6.11a3.92 3.92 0 0 1 0-5.6Zm13.65 5.6-5.11 5.11 1.74-5.58c.09-.3.04-.63-.15-.89a1 1 0 0 0-.81-.41h-3.38l1.74-3.47.35-.35c1.57-1.57 4.04-1.57 5.62 0 1.57 1.58 1.57 4.04 0 5.6Z"/></svg>