<svg xmlns="http://www.w3.org/2000/svg" width="24" height="24"><!--Boxicons v3.0 https://boxicons.com | License  https://docs.boxicons.com/free--><path d="m20.89 7.55-2-4A1 1 0 0 0 18 3h-5c-.38 0-.73.21-.89.55L10.39 7H6.01c-.38 0-.73.21-.89.55l-2 4c-.14.28-.14.61 0 .89l2 4a1 1 0 0 0 .89.55h4.38l1.72 3.45a1 1 0 0 0 .89.55h5c.38 0 .73-.21.89-.55l2-4c.14-.28.14-.61 0-.89L19.11 12l1.78-3.55c.14-.28.14-.61 0-.89ZM13.61 5h3.76l1.5 3-1.5 3h-3.76l-1.5-3zm-8.5 7 1.5-3h3.76l1.5 3-1.5 3H6.61zm12.26 7h-3.76l-1.5-3 1.5-3h3.76l1.5 3z"/></svg>