<svg xmlns="http://www.w3.org/2000/svg" width="24" height="24"><!--Boxicons v3.0 https://boxicons.com | License  https://docs.boxicons.com/free--><path d="M12 2C6.49 2 2 6.49 2 12s4.49 10 10 10 10-4.49 10-10S17.51 2 12 2m0 18c-4.41 0-8-3.59-8-8s3.59-8 8-8 8 3.59 8 8-3.59 8-8 8"/><path d="M11 16h2v2h-2zm2.27-9.75c-2.08-.75-4.47.35-5.21 2.41l1.88.68c.18-.5.56-.9 1.07-1.13s1.08-.26 1.58-.08a2.01 2.01 0 0 1 1.32 1.86c0 1.04-1.66 1.86-2.24 2.07-.4.14-.67.52-.67.94v1h2v-.34c1.04-.51 2.91-1.69 2.91-3.68a4.015 4.015 0 0 0-2.64-3.73"/></svg>