<svg xmlns="http://www.w3.org/2000/svg" width="24" height="24"><!--Boxicons v3.0 https://boxicons.com | License  https://docs.boxicons.com/free--><path d="M17.55 7.17c-.29-.19-.65-.22-.97-.08-.31.14-.53.44-.58.78 0 .01-.08.57-.38 1.28-.06-.81-.27-1.69-.73-2.6-1.07-2.14-4.2-4.29-4.33-4.38a1 1 0 0 0-1.04-.04c-.33.18-.53.54-.52.92 0 .02.02 1.83-2.48 4.33C4.22 9.68 3 12.19 3 14.64 3 18.12 5.46 22 9 22c.38 0 .73-.21.89-.55s.13-.74-.09-1.05c-1.2-1.6-1.04-3.09-.55-4.21C9.95 19.75 12.09 22 15 22s6-1.96 6-7.5c0-4.98-3.31-7.24-3.45-7.33M15 20c-2.39 0-4-2.61-4-6.5 0-.39-.23-.75-.59-.91a1 1 0 0 0-.41-.09c-.24 0-.47.08-.66.25-1.28 1.12-2.99 3.64-2.3 6.49-1.23-1.02-2.05-2.9-2.05-4.59 0-1.9 1.02-3.93 2.94-5.85 1.59-1.59 2.36-2.99 2.73-4.03.91.76 1.99 1.78 2.44 2.69.72 1.43.71 2.87-.03 4.66-.16.39-.06.85.26 1.13s.78.33 1.15.12c1.65-.93 2.53-2.36 3-3.49.71.9 1.51 2.42 1.51 4.62 0 5.1-3.06 5.5-4 5.5Z"/></svg>