<svg xmlns="http://www.w3.org/2000/svg" width="24" height="24"><!--Boxicons v3.0 https://boxicons.com | License  https://docs.boxicons.com/free--><path d="M18.45 13.11c-.25-.12-.54-.14-.8-.04s-.47.3-.57.56l-2 5c-.19.48.02 1.03.48 1.27l2 1a1 1 0 0 0 .79.05c.26-.09.47-.29.58-.55l1.68-3.92a9.86 9.86 0 0 0-.63-8.96c-1.57-2.61-4.18-4.24-7.15-4.48-.54-.05-1.1-.05-1.64 0-2.97.24-5.58 1.88-7.15 4.48a9.86 9.86 0 0 0-.63 8.96l1.68 3.92c.11.25.32.45.58.55.26.09.54.08.79-.04l2-1a1 1 0 0 0 .48-1.27l-2-5a.98.98 0 0 0-.57-.56c-.26-.1-.55-.08-.8.04l-.88.44c-.2-1.72.16-3.48 1.08-5 1.24-2.05 3.28-3.33 5.6-3.52.43-.04.87-.04 1.31 0 2.32.19 4.36 1.47 5.6 3.52a7.95 7.95 0 0 1 1.08 5l-.88-.44Z"/></svg>