<svg xmlns="http://www.w3.org/2000/svg" width="24" height="24"><!--Boxicons v3.0 https://boxicons.com | License  https://docs.boxicons.com/free--><path d="M20 9.8C19.9 5.27 16.36 2 11.5 2s-9.49 3.24-9.49 8.67c0 2.71 1.03 5.05 2.99 6.79V22h2v-5.48l-.37-.3c-1.74-1.4-2.62-3.26-2.62-5.55C4.01 6.34 7.87 4 11.5 4c3.83 0 6.5 2.47 6.5 6v.19L19.52 14H17v4h-4v4h2v-2h2c1.1 0 2-.9 2-2v-2h1.26a1.5 1.5 0 0 0 1.39-2.06L19.99 9.8Z"/><path d="M8 13c.16 0 .31-.02.46-.06a2.496 2.496 0 0 0 4.08 0c.15.04.3.06.46.06.81 0 1.51-.49 1.82-1.18.69-.31 1.18-1.01 1.18-1.82 0-.75-.42-1.39-1.02-1.74A2.49 2.49 0 0 0 12.5 6c-.49 0-.94.15-1.33.39A1.98 1.98 0 0 0 10 6c-.75 0-1.39.42-1.74 1.03C8.17 7.02 8.09 7 8 7c-1.1 0-2 .9-2 2 0 .37.11.7.28 1-.17.3-.28.63-.28 1 0 1.1.9 2 2 2"/></svg>