<svg xmlns="http://www.w3.org/2000/svg" width="24" height="24"><!--Boxicons v3.0 https://boxicons.com | License  https://docs.boxicons.com/free--><path d="m5 17.41 3-3 1.29 1.29c.39.39 1.02.39 1.41 0l5.29-5.29 3 3V14h2V5c0-1.1-.9-2-2-2H5c-1.1 0-2 .9-2 2v14c0 1.1.9 2 2 2h8v-2H5zM19 5v5.59L16.71 8.3a.996.996 0 0 0-1.41 0l-5.29 5.29-1.29-1.29a.996.996 0 0 0-1.41 0l-2.29 2.29V5h14Z"/><path d="M8.5 7a1.5 1.5 0 1 0 0 3 1.5 1.5 0 1 0 0-3M21.72 18.07l-1.94-.86-.86-1.94a.46.46 0 0 0-.42-.28c-.19-.02-.35.1-.43.27l-.86 1.87-1.95.94c-.16.08-.27.25-.26.43 0 .18.11.35.28.42l1.94.86.86 1.94a.471.471 0 0 0 .86 0l.86-1.94 1.94-.86a.471.471 0 0 0 0-.86Z"/></svg>