<svg xmlns="http://www.w3.org/2000/svg" width="24" height="24"><!--Boxicons v3.0 https://boxicons.com | License  https://docs.boxicons.com/free--><path d="M19.12 15.12c-.68-1.27-2.57-3.62-7.12-3.62-.89 0-1.68.12-2.39.31.27-2.13 1.03-3.6 1.64-4.5.08.6.08 1.26-.05 2.01l1.97.35c.2-1.1.17-2.09 0-2.98q.63.24 1.29.66l1.08-1.68c-1.11-.71-2.2-1.11-3.22-1.29-.89-1.54-2.18-2.54-3.1-2.98l-.86 1.8c.06.03.76.38 1.47 1.13-1.6.23-2.89.91-3.6 1.49L7.5 7.36s.75-.59 1.93-.91c-.84 1.31-1.75 3.38-1.89 6.27a7.13 7.13 0 0 0-2.65 3.07c-.14-.06-.28-.12-.43-.19-.54-.27-1.21-.61-2.45-.61v2c.76 0 1.09.17 1.55.39.54.27 1.21.61 2.45.61s1.91-.34 2.45-.61c.46-.23.79-.39 1.55-.39s1.09.17 1.55.39c.54.27 1.21.61 2.45.61s1.91-.34 2.45-.61c.46-.23.79-.39 1.56-.39s1.1.17 1.56.39c.54.27 1.21.61 2.45.61v-2c-.77 0-1.1-.17-1.56-.39a5.4 5.4 0 0 0-1.32-.48Zm-3.57.48c-.46.23-.79.39-1.56.39s-1.09-.17-1.55-.39c-.54-.27-1.21-.61-2.45-.61s-1.91.34-2.45.61c-.12.06-.24.12-.35.17.74-1.05 2.16-2.27 4.81-2.27 2.5 0 3.92.87 4.69 1.66-.47.12-.84.29-1.14.44M18 19c-1.24 0-1.91.34-2.45.61-.46.23-.79.39-1.56.39s-1.09-.17-1.55-.39c-.54-.27-1.21-.61-2.45-.61s-1.91.34-2.45.61c-.46.23-.79.39-1.55.39s-1.09-.17-1.55-.39C3.9 19.34 3.23 19 1.99 19v2c.76 0 1.09.17 1.55.39.54.27 1.21.61 2.45.61s1.91-.34 2.45-.61c.46-.23.79-.39 1.55-.39s1.09.17 1.55.39c.54.27 1.21.61 2.45.61s1.91-.34 2.45-.61c.46-.23.79-.39 1.56-.39s1.1.17 1.56.39c.54.27 1.21.61 2.45.61v-2c-.77 0-1.1-.17-1.56-.39-.54-.27-1.21-.61-2.45-.61"/></svg>