<svg xmlns="http://www.w3.org/2000/svg" width="24" height="24"><!--Boxicons v3.0 https://boxicons.com | License  https://docs.boxicons.com/free--><path d="m7.61 10.26-2.3 1.53c-.15.1-.15.32 0 .42l2.3 1.53c.17.11.39 0 .39-.21v-3.07c0-.2-.22-.32-.39-.21Zm8.78 3.48 2.3-1.53c.15-.1.15-.32 0-.42l-2.3-1.53c-.17-.11-.39 0-.39.21v3.07c0 .2.22.32.39.21Zm-4.18-8.43a.252.252 0 0 0-.42 0l-1.53 2.3c-.11.17 0 .39.21.39h3.07c.2 0 .32-.22.21-.39l-1.53-2.3ZM13.53 16h-3.07c-.2 0-.32.22-.21.39l1.53 2.3c.1.15.32.15.42 0l1.53-2.3c.11-.17 0-.39-.21-.39ZM12 10.5a1.5 1.5 0 1 0 0 3 1.5 1.5 0 1 0 0-3"/><path d="M20 7h-3V4c0-1.1-.9-2-2-2H9c-1.1 0-2 .9-2 2v3H4c-1.1 0-2 .9-2 2v6c0 1.1.9 2 2 2h3v3c0 1.1.9 2 2 2h6c1.1 0 2-.9 2-2v-3h3c1.1 0 2-.9 2-2V9c0-1.1-.9-2-2-2m0 8h-5v5H9v-5H4V9h5V4h6v5h5z"/></svg>