<svg xmlns="http://www.w3.org/2000/svg" width="24" height="24"><!--Boxicons v3.0 https://boxicons.com | License  https://docs.boxicons.com/free--><path d="M3.13 17.26c.18.31.51.5.87.5h4.96l2.17 3.74a.987.987 0 0 0 1.72 0l2.17-3.74h4.96c.36 0 .69-.19.87-.5s.18-.69 0-1L18.37 12l2.48-4.26c.18-.31.18-.69 0-1s-.51-.5-.87-.5h-4.96L12.85 2.5c-.36-.62-1.37-.62-1.73 0L8.95 6.24H3.99c-.36 0-.69.19-.87.5s-.18.69 0 1L5.6 12l-2.48 4.26c-.18.31-.18.69 0 1ZM12 19.01l-.72-1.25h1.45l-.72 1.25Zm-1.89-3.25L7.92 12l2.19-3.76h3.77L16.07 12l-2.19 3.76zm8.15 0H16.2l1.03-1.77zm0-7.53L17.23 10 16.2 8.23zM12 4.98l.72 1.25h-1.45l.72-1.25ZM5.74 8.23H7.8L6.77 10zm2.06 7.53H5.74l1.03-1.77z"/></svg>