<svg xmlns="http://www.w3.org/2000/svg" width="24" height="24"><!--Boxicons v3.0 https://boxicons.com | License  https://docs.boxicons.com/free--><path d="M12 18c4 0 5-4 5-4H7s1 4 5 4"/><path d="M12 2C6.49 2 2 6.49 2 12s4.49 10 10 10 10-4.49 10-10S17.51 2 12 2m0 18c-4.41 0-8-3.59-8-8s3.59-8 8-8 8 3.59 8 8-3.59 8-8 8"/><path d="m16.95 7.17-3 2c-.28.19-.45.5-.45.83s.17.65.45.83l3 2 1.11-1.66L16.31 10l1.75-1.17zm-6.9 3.66c.28-.19.45-.5.45-.83s-.17-.65-.45-.83l-3-2-1.11 1.66L7.69 10l-1.75 1.17 1.11 1.66z"/></svg>