<svg xmlns="http://www.w3.org/2000/svg" width="24" height="24"><!--Boxicons v3.0 https://boxicons.com | License  https://docs.boxicons.com/free--><path d="M14.5 11h5c.83 0 1.5-.67 1.5-1.5v-5c0-.83-.67-1.5-1.5-1.5h-5c-.83 0-1.5.67-1.5 1.5v5c0 .83.67 1.5 1.5 1.5m.5-6h4v4h-4zM16.5 19.5c.47 0 .91-.1 1.32-.26l1.72 1.72 1.41-1.41-1.57-1.57c.39-.56.61-1.24.61-1.97 0-1.93-1.57-3.5-3.5-3.5s-3.5 1.57-3.5 3.5 1.57 3.5 3.5 3.5Zm0-5c.83 0 1.5.67 1.5 1.5s-.67 1.5-1.5 1.5S15 16.83 15 16s.67-1.5 1.5-1.5M9.5 3h-5C3.67 3 3 3.67 3 4.5v15c0 .83.67 1.5 1.5 1.5h5c.83 0 1.5-.67 1.5-1.5v-15c0-.83-.67-1.5-1.5-1.5M9 19H5V5h4z" class="b"/></svg>