<svg xmlns="http://www.w3.org/2000/svg" width="24" height="24"><!--Boxicons v3.0 https://boxicons.com | License  https://docs.boxicons.com/free--><path d="M21.33 2.53c-.37-.14-.79-.05-1.07.22-.08.07-1.86 1.77-4.85.27-2.05-1.03-5.6-1.64-8.88 0C2.24 5.18.73 10.61 3.1 15.37c.38.76.83 1.42 1.34 2.01-.29 1.4-.45 2.94-.45 4.62h2c0-1.15.07-2.18.21-3.12.67.41 1.39.72 2.17.9.66.16 1.32.22 1.97.22 2.43 0 4.64-.96 5.72-1.77 1.82-1.37 3.32-2.67 4.8-5.89 1.4-3.07 1.12-8.7 1.1-8.94a.99.99 0 0 0-.64-.87Zm-2.28 8.98c-1.29 2.81-2.49 3.85-4.18 5.13-1.1.83-3.7 1.75-6.03 1.2-.82-.19-1.55-.56-2.19-1.08 1.85-6.59 7.09-6.73 7.35-6.73v-2c-.17 0-3.49.04-6.29 2.83-1.11 1.1-1.95 2.48-2.57 4.1-.09-.15-.17-.3-.25-.46-1.65-3.3-1.14-7.82 2.54-9.68 1.16-.58 2.37-.81 3.49-.81 1.4 0 2.68.35 3.59.81 2.36 1.18 4.24.92 5.48.42-.02 1.8-.18 4.6-.95 6.29Z"/></svg>