<svg xmlns="http://www.w3.org/2000/svg" width="24" height="24"><!--Boxicons v3.0 https://boxicons.com | License  https://docs.boxicons.com/free--><path d="m8 18.15-4 .67V10c0-1.65 1.35-3 3-3h1v2h2V7c0-1.1-.9-2-2-2H7c-2.76 0-5 2.24-5 5v8.82c0 .59.26 1.15.71 1.53.36.31.82.47 1.29.47.11 0 .22 0 .33-.03l4-.67c.97-.16 1.67-.99 1.67-1.97V17H8zM17 5h-1c-1.1 0-2 .9-2 2v2h2V7h1c1.65 0 3 1.35 3 3v8.82l-4-.67V17h-2v1.15c0 .98.7 1.81 1.67 1.97l4 .67q.165.03.33.03c.47 0 .93-.17 1.29-.47.45-.38.71-.94.71-1.53V10c0-2.76-2.24-5-5-5"/><path d="M17.71 14.29 15.41 12H18v-2h-5V2h-2v8H6v2h2.59l-2.3 2.29 1.42 1.42 3.7-3.71h1.18l3.7 3.71z"/></svg>