<svg xmlns="http://www.w3.org/2000/svg" width="24" height="24"><!--Boxicons v3.0 https://boxicons.com | License  https://docs.boxicons.com/free--><path d="M22 12.5c0-.38-.21-.72-.55-.89L12.9 7.33c-.56-.28-1.23-.28-1.79 0l-8.56 4.28c-.34.17-.55.52-.55.89s.21.72.55.89l2.21 1.11-2.21 1.11c-.34.17-.55.52-.55.89s.21.72.55.89l8.55 4.28c.28.14.59.21.89.21s.61-.07.89-.21l8.55-4.28c.34-.17.55-.52.55-.89s-.21-.72-.55-.89l-2.21-1.11 2.21-1.11a1 1 0 0 0 .55-.89ZM12 9.12l6.76 3.38-2.21 1.11L12 15.89l-4.55-2.28-2.21-1.11zm6.76 7.38L12 19.88 5.24 16.5 7 15.62l4.11 2.05c.28.14.59.21.89.21s.61-.07.89-.21L17 15.62zM16 4h6v2h-6z"/></svg>