<svg xmlns="http://www.w3.org/2000/svg" width="24" height="24"><!--Boxicons v3.0 https://boxicons.com | License  https://docs.boxicons.com/free--><path d="M12 2C6.49 2 2 5.36 2 9.5S6.49 17 12 17c.15 0 .3-.01.45-.02-.1.75-.43 1.45-.98 1.99-.66.66-1.54 1.03-2.48 1.03v2c1.47 0 2.85-.57 3.89-1.61.98-.98 1.52-2.26 1.59-3.63C18.79 15.93 22 13 22 9.5 22 5.36 17.51 2 12 2M6.89 13.73c1.35-1 3.37-.91 4.58.3.29.29.5.62.67.97h-.15c-1.94 0-3.72-.48-5.11-1.27Zm7.31 1.05c-.27-.81-.69-1.55-1.31-2.17C11.85 11.57 10.47 11 9 11s-2.7.53-3.72 1.47C4.47 11.61 4 10.59 4 9.5 4 6.47 7.59 4 12 4s8 2.47 8 5.5c0 2.51-2.46 4.62-5.8 5.28"/></svg>