<svg xmlns="http://www.w3.org/2000/svg" width="24" height="24"><!--Boxicons v3.0 https://boxicons.com | License  https://docs.boxicons.com/free--><path d="M20.89 2.3C20.47 2.22 10.42.55 5.07 5.9c-.71.71-1.33 1.54-1.85 2.47-2.06 3.7-1.48 7.99 1.47 10.94C6.47 21.09 8.73 22 11.05 22c1.54 0 3.11-.4 4.58-1.22.93-.52 1.76-1.14 2.47-1.85 5.35-5.35 3.67-15.39 3.6-15.82a.99.99 0 0 0-.81-.81m-4.2 15.22c-.58.58-1.26 1.09-2.03 1.51-2.65 1.47-5.17 1.07-7 .04C8.3 15.1 10.73 11.35 14 9c-3.7 1.65-6.72 4.58-8.47 8.23-1.43-1.85-2.29-4.78-.56-7.89.43-.77.94-1.45 1.51-2.03 3.86-3.86 11.05-3.4 13.34-3.14.26 2.29.72 9.48-3.14 13.34Z"/></svg>