<svg xmlns="http://www.w3.org/2000/svg" width="24" height="24"><!--Boxicons v3.0 https://boxicons.com | License  https://docs.boxicons.com/free--><path d="M12 5c-1.84 0-3.35.39-4.62.97L3.7 2.29 2.29 3.7l3.32 3.32C3 8.97 2.07 11.64 2.05 11.68c-.07.21-.07.43 0 .63.02.07 2.32 6.68 9.95 6.68 1.84 0 3.35-.39 4.62-.97l3.68 3.68 1.41-1.41-3.32-3.32c2.61-1.95 3.54-4.62 3.56-4.66.07-.21.07-.43 0-.63C21.93 11.61 19.63 5 12 5m-7.93 7c.1-.24.27-.59.52-.99l5.87 5.87c-4.21-.65-5.94-3.84-6.39-4.88m9.25 4.91L5.84 9.43c.34-.34.74-.67 1.19-.98l8.05 8.05c-.53.19-1.12.33-1.76.41m3.65-1.35-1.53-1.53c.61-1.03.71-2.28.31-3.38-.18.21-.45.36-.75.36-.55 0-1-.45-1-1 0-.44.29-.81.69-.94a3.98 3.98 0 0 0-4.71-.5L8.92 7.51c.88-.31 1.9-.5 3.08-.5 5.35 0 7.42 3.85 7.93 5-.3.69-1.17 2.34-2.96 3.56Z"/></svg>