<svg xmlns="http://www.w3.org/2000/svg" width="24" height="24"><!--Boxicons v3.0 https://boxicons.com | License  https://docs.boxicons.com/free--><path d="M22 10a1 1 0 0 0-.51-.87L12.98 4.4c-.61-.34-1.33-.34-1.94 0L2.51 9.13c-.32.18-.51.51-.51.87s.2.7.51.87l2.93 1.63-2.93 1.63c-.32.18-.51.51-.51.87s.2.7.51.87l8.51 4.73c.3.17.64.25.97.25s.67-.08.97-.25l8.51-4.73c.32-.18.51-.51.51-.87s-.2-.7-.51-.87l-2.93-1.63 2.93-1.63c.32-.18.51-.51.51-.87Zm-3.06 5L12 18.86 5.06 15l2.44-1.36 3.53 1.96c.3.17.64.25.97.25s.67-.08.97-.25l3.53-1.96zm-2.93-3.37L12 13.86l-4.01-2.23L5.06 10 12 6.14 18.94 10z"/></svg>