<svg xmlns="http://www.w3.org/2000/svg" width="24" height="24"><!--Boxicons v3.0 https://boxicons.com | License  https://docs.boxicons.com/free--><path d="M9 20h6v2H9zm-.83-4.95c.41.62.62 1.36.72 1.95H8v2h8v-2h-.89c.11-.59.31-1.33.72-1.95.36-.54.76-1.01 1.14-1.46 1-1.18 2.03-2.39 2.03-4.6 0-3.86-3.14-7-7-7s-7 3.14-7 7c0 2.21 1.03 3.42 2.02 4.58.39.45.78.92 1.15 1.47ZM12 4c2.76 0 5 2.24 5 5 0 1.47-.62 2.2-1.55 3.3-.4.47-.85 1-1.28 1.64-.68 1.03-.97 2.23-1.09 3.06h-2.17c-.12-.83-.4-2.03-1.08-3.05-.43-.65-.89-1.19-1.29-1.66C7.61 11.2 7 10.48 7 9c0-2.76 2.24-5 5-5"/></svg>