<svg xmlns="http://www.w3.org/2000/svg" width="24" height="24"><!--Boxicons v3.0 https://boxicons.com | License  https://docs.boxicons.com/free--><path d="M6 8.44c-.02 5.1 5.17 9.18 5.39 9.35.18.14.4.21.61.21s.43-.07.61-.21c.22-.17 5.41-4.25 5.39-9.35C18 4.89 15.31 2 12 2S6 4.89 6 8.44m10 0c.01 3.19-2.74 6.08-4 7.24-1.26-1.15-4.01-4.04-4-7.24C8 5.99 9.79 4 12 4s4 1.99 4 4.44"/><path d="M12 6a2 2 0 1 0 0 4 2 2 0 1 0 0-4M18.02 14.73c-.4.64-.84 1.23-1.27 1.76C18.88 16.97 20 17.68 20 18c0 .51-2.75 2-8 2s-8-1.49-8-2c0-.32 1.12-1.03 3.25-1.51-.43-.53-.86-1.12-1.27-1.76C3.66 15.37 2 16.44 2 18c0 2.75 5.18 4 10 4s10-1.25 10-4c0-1.56-1.67-2.63-3.98-3.27"/></svg>