<svg xmlns="http://www.w3.org/2000/svg" width="24" height="24"><!--Boxicons v3.0 https://boxicons.com | License  https://docs.boxicons.com/free--><path d="M13.08 13.63 12 11.44l-1.08 2.19-2.42.35 1.75 1.71-.41 2.41L12 16.96l2.16 1.14-.41-2.41 1.75-1.71z"/><path d="M17 2H7c-.55 0-1 .45-1 1v8.41c-.63 1.05-1 2.28-1 3.59 0 3.86 3.14 7 7 7s7-3.14 7-7c0-1.31-.37-2.54-1-3.59V3c0-.55-.45-1-1-1m-1 7.26c-.88-.61-1.9-1.02-3-1.18V4h3zM11 4v4.08c-1.1.16-2.12.57-3 1.18V4zm1 16c-2.76 0-5-2.24-5-5s2.24-5 5-5 5 2.24 5 5-2.24 5-5 5"/></svg>