<svg xmlns="http://www.w3.org/2000/svg" width="24" height="24"><!--Boxicons v3.0 https://boxicons.com | License  https://docs.boxicons.com/free--><path d="M18 18h-1.64c-1.17 0-2.28-.56-2.98-1.49-.66-.88-2.1-.88-2.76 0A3.76 3.76 0 0 1 7.64 18H6c-2.21 0-4-1.79-4-4V9c0-1.65 1.35-3 3-3h14c1.65 0 3 1.35 3 3v5c0 2.21-1.79 4-4 4m-6-4.18c1.18 0 2.27.54 2.98 1.49.32.43.84.69 1.38.69H18c1.1 0 2-.9 2-2V9c0-.55-.45-1-1-1H5c-.55 0-1 .45-1 1v5c0 1.1.9 2 2 2h1.64c.54 0 1.06-.26 1.38-.69A3.69 3.69 0 0 1 12 13.82"/><path d="M7.5 10a2.5 1.5 0 1 0 0 3 2.5 1.5 0 1 0 0-3M16.5 10a2.5 1.5 0 1 0 0 3 2.5 1.5 0 1 0 0-3"/></svg>