<svg xmlns="http://www.w3.org/2000/svg" width="24" height="24"><!--Boxicons v3.0 https://boxicons.com | License  https://docs.boxicons.com/free--><path d="M21 15c0-2.55-1.38-4.83-3.53-6.06l1.23-1.23a.996.996 0 0 0 0-1.41l-.5-.5 1-1-3-3-1 1-.5-.5a.996.996 0 0 0-1.41 0l-8 7.99a.996.996 0 0 0 0 1.41l4 4c.2.2.45.29.71.29s.51-.1.71-.29l5.28-5.28c1.82.79 3.01 2.56 3.01 4.57 0 2.76-2.24 5-5 5H3v2h18v-2h-2.11a6.97 6.97 0 0 0 2.11-5Zm-11-1.41L7.41 11 14 4.41 16.59 7z"/><path d="M6.29 17.71 7 17l.71-.71-1.5-1.5-1.5-1.5L4 14l-.71.71 1.5 1.5z"/></svg>