<svg xmlns="http://www.w3.org/2000/svg" width="24" height="24"><!--Boxicons v3.0 https://boxicons.com | License  https://docs.boxicons.com/free--><path d="M11 15h2v2h-2zM9.53 8.03c-.66.66-1.03 1.54-1.03 2.47h2c0-.4.16-.78.44-1.06.57-.57 1.55-.57 2.12 0A1.499 1.499 0 0 1 12 12c-.55 0-1 .45-1 1v1h2v-.14c.55-.16 1.06-.46 1.47-.88.66-.66 1.03-1.54 1.03-2.47s-.36-1.81-1.03-2.47c-1.32-1.32-3.63-1.32-4.95 0Z"/><path d="M12 2C6.49 2 2 6.49 2 12c0 2.12.68 4.19 1.93 5.9l-1.75 2.53c-.21.31-.24.7-.06 1.03.17.33.51.54.89.54h9c5.51 0 10-4.49 10-10S17.51 2 12 2m0 18H4.91L6 18.43c.26-.37.23-.88-.06-1.22A7.98 7.98 0 0 1 4.01 12c0-4.41 3.59-8 8-8s8 3.59 8 8-3.59 8-8 8Z"/></svg>