<svg xmlns="http://www.w3.org/2000/svg" width="24" height="24"><!--Boxicons v3.0 https://boxicons.com | License  https://docs.boxicons.com/free--><path d="M12 2c-.66 0-1.32.07-1.95.19h-.07c-4.42.91-7.69 4.69-7.96 9.14-.02.22-.03.43-.03.66s0 .44.02.61c.27 4.5 3.55 8.28 7.97 9.19h.07c.63.13 1.28.19 1.95.19 5.51 0 10-4.49 10-10S17.51 2 12 2m6.23 5h-3.16c-.44-1.11-1.03-2.1-1.73-2.89A7.95 7.95 0 0 1 18.23 7m-2.27 6h3.97c-.09.7-.26 1.37-.52 2h-3.73c.14-.64.24-1.31.28-2m0-2c-.05-.69-.15-1.36-.28-2h3.73c.26.63.43 1.3.52 2zm-5.8 8.77a8.015 8.015 0 0 1-6.14-7.33c-.02-.14-.01-.29-.01-.44s0-.3.02-.49c.21-3.52 2.73-6.47 6.14-7.28 2.21.87 3.84 4.14 3.84 7.77s-1.64 6.9-3.84 7.77Zm3.18.12c.71-.79 1.29-1.78 1.73-2.89h3.16a8.04 8.04 0 0 1-4.89 2.89"/></svg>