<svg xmlns="http://www.w3.org/2000/svg" width="24" height="24"><!--Boxicons v3.0 https://boxicons.com | License  https://docs.boxicons.com/free--><path d="M14.01 2.2h-.06c-.63-.13-1.29-.2-1.96-.2C6.49 2 2 6.49 2 12s4.49 10 10 10c.66 0 1.32-.07 1.95-.19h.07c4.42-.91 7.69-4.69 7.96-9.14.02-.22.03-.43.03-.66s0-.44-.02-.61c-.27-4.5-3.55-8.28-7.97-9.19Zm-3.35 1.91C9.95 4.9 9.37 5.89 8.93 7H5.77a8.04 8.04 0 0 1 4.89-2.89M8.32 15H4.59c-.26-.63-.43-1.3-.52-2h3.97c.05.69.15 1.36.28 2m-.28-4H4.07c.09-.7.26-1.37.52-2h3.73c-.14.64-.24 1.31-.28 2m-2.27 6h3.16c.44 1.11 1.03 2.1 1.73 2.89A7.95 7.95 0 0 1 5.77 17m14.21-4.51c-.21 3.52-2.73 6.47-6.14 7.28C11.63 18.9 10 15.63 10 12s1.64-6.9 3.84-7.77c3.41.81 5.93 3.77 6.14 7.33.02.14.01.29.01.44s0 .3-.02.49Z"/></svg>