<svg xmlns="http://www.w3.org/2000/svg" width="24" height="24"><!--Boxicons v3.0 https://boxicons.com | License  https://docs.boxicons.com/free--><path d="M19 2c-1.65 0-3 1.35-3 3v3.59c0-1.67-.84-3.26-2.32-4.28l-3.12-2.14c-.34-.23-.79-.23-1.13 0L6.31 4.31c-1.6 1.1-2.43 2.88-2.29 4.68H2.99c-.55 0-1 .45-1 1v11c0 .55.45 1 1 1h18c.55 0 1-.45 1-1V5c0-1.65-1.35-3-3-3Zm-3 7h-.03c0-.1.03-.21.03-.31zM7.45 5.96 10 4.21l2.55 1.75c1.04.72 1.56 1.88 1.42 3.04H6.03c-.14-1.16.38-2.32 1.42-3.04M16 11v1H4v-1zm-3.5 4S11 16 11 18v2H9v-2c0-2-1.5-3-1.5-3S6 16 6 18v2H4v-6h12v6h-2v-2c0-2-1.5-3-1.5-3m7.5 5h-2V8h2zM18 6V5c0-.55.45-1 1-1s1 .45 1 1v1z"/></svg>