<svg xmlns="http://www.w3.org/2000/svg" width="24" height="24"><!--Boxicons v3.0 https://boxicons.com | License  https://docs.boxicons.com/free--><path d="M12 2c-.67 0-1.33.07-1.97.2h-.04c-4.42.91-7.69 4.69-7.96 9.14-.02.22-.03.43-.03.66s0 .44.02.61c.27 4.5 3.55 8.28 7.97 9.19h.06c.63.13 1.29.2 1.96.2 5.51 0 10-4.49 10-10S17.51 2 12 2m-1.86 2.21c1.09.42 2.04 1.43 2.72 2.79H5.77a8.06 8.06 0 0 1 4.37-2.79M13.61 15H4.6c-.26-.63-.41-1.3-.5-2h9.86c-.06.69-.17 1.36-.34 2Zm.34-4H4.09c.09-.69.24-1.37.5-2h9.03c.17.64.28 1.31.34 2Zm-8.17 6h7.09c-.69 1.35-1.64 2.36-2.72 2.79-1.76-.42-3.27-1.43-4.36-2.79Zm7.56 2.88C14.98 18.04 16 15.19 16 12s-1.02-6.04-2.66-7.88C17.11 4.76 20 8.04 20 12s-2.89 7.24-6.66 7.88"/></svg>