<svg xmlns="http://www.w3.org/2000/svg" width="24" height="24"><!--Boxicons v3.0 https://boxicons.com | License  https://docs.boxicons.com/free--><path d="M17 7c-1.18 0-2.29.41-3.19 1.15-.69-.42-1.48-.65-2.31-.65-1.19 0-2.31.48-3.13 1.28A3.999 3.999 0 0 0 2 12a3.999 3.999 0 0 0 6.37 3.22c.83.81 1.95 1.28 3.13 1.28.83 0 1.63-.23 2.31-.65A5.002 5.002 0 0 0 22 12c0-2.76-2.24-5-5-5M6 14c-1.1 0-2-.9-2-2s.9-2 2-2c.47 0 .92.17 1.27.46l-.03.12c-.06.17-.1.34-.14.51-.01.07-.03.13-.04.2-.04.23-.06.47-.06.71s.03.48.06.71c.01.06.02.13.04.19.04.18.08.36.14.53.01.04.02.08.03.11-.35.29-.8.46-1.27.46m5.5.5c-.89 0-1.73-.49-2.18-1.29C9.11 12.85 9 12.43 9 12s.11-.85.33-1.23c.44-.78 1.28-1.27 2.17-1.27.37 0 .73.08 1.05.23-.09.19-.18.38-.25.57l-.03.1c-.07.21-.13.42-.17.64-.01.07-.03.13-.04.2-.04.25-.07.5-.07.76a4.8 4.8 0 0 0 .11.96c.04.22.1.44.17.65l.03.09c.07.2.15.39.25.58-.32.15-.68.23-1.05.23Zm5.5.5c-.9 0-1.75-.4-2.32-1.1a3.01 3.01 0 0 1-.01-3.8A3.005 3.005 0 0 1 20 12c0 1.65-1.35 3-3 3"/></svg>