<svg xmlns="http://www.w3.org/2000/svg" width="24" height="24"><!--Boxicons v3.0 https://boxicons.com | License  https://docs.boxicons.com/free--><path d="M9.5 22c-2 0-3.89-.78-5.3-2.2-2.92-2.92-2.92-7.68 0-10.61l8.15-6.95c.33-.28.79-.32 1.16-.1s.56.64.47 1.06l-.58 2.88 7.11-3.95c.39-.22.88-.15 1.19.17s.38.8.17 1.19L17.7 11H21a1.004 1.004 0 0 1 .72 1.7l-6.9 7.1a7.45 7.45 0 0 1-5.31 2.21Zm1.95-16.37-5.9 5.03c-2.09 2.09-2.09 5.58.06 7.72 1.04 1.04 2.42 1.61 3.89 1.61s2.85-.57 3.89-1.61l5.24-5.39H16c-.35 0-.68-.19-.86-.49a1 1 0 0 1-.01-.99l3.3-5.94-5.94 3.3c-.34.19-.76.16-1.08-.07s-.47-.62-.39-1z"/><path d="M10.98 11.34c0 .05.02.1.02.16 0 .83-.67 1.5-1.5 1.5S8 12.33 8 11.5c0-.05.01-.11.02-.16A3.5 3.5 0 0 0 6 14.5C6 16.43 7.57 18 9.5 18s3.5-1.57 3.5-3.5c0-1.4-.83-2.6-2.02-3.16"/></svg>