<svg xmlns="http://www.w3.org/2000/svg" width="24" height="24"><!--Boxicons v3.0 https://boxicons.com | License  https://docs.boxicons.com/free--><path d="M8.03 12.27a3.98 3.98 0 0 0 3.7 3.7zM20 12h-2c0 1.29-.42 2.49-1.12 3.47l-1.44-1.44c.36-.59.56-1.28.56-2.02v-6c0-2.21-1.79-4-4-4s-4 1.79-4 4v.59L2.71 1.29 1.3 2.7l20 20 1.41-1.41-4.4-4.4A7.9 7.9 0 0 0 20 12M10 6c0-1.1.9-2 2-2s2 .9 2 2v6c0 .18-.03.35-.07.51L10 8.58V5.99Z"/><path d="M12 18c-3.31 0-6-2.69-6-6H4c0 4.07 3.06 7.44 7 7.93V22h2v-2.07c.74-.09 1.45-.29 2.12-.57l-1.57-1.57c-.49.13-1.01.21-1.55.21"/></svg>