<svg xmlns="http://www.w3.org/2000/svg" width="24" height="24"><!--Boxicons v3.0 https://boxicons.com | License  https://docs.boxicons.com/free--><path d="M20 4c0 4.07-3.06 7.44-7 7.93v-1.01c3.39-.49 6-3.4 6-6.92V3h-2v1c0 2.41-1.72 4.43-4 4.9V7.86c1.72-.45 3-2 3-3.86V3h-2v1a2 2 0 0 1-1 1.72V3h-2v2.72c-.59-.35-1-.99-1-1.72V3H8v1c0 1.86 1.28 3.41 3 3.86V8.9A5 5 0 0 1 7 4V3H5v1c0 3.52 2.61 6.43 6 6.92v1.01C7.06 11.44 4 8.07 4 4V3H2v1c0 5.18 3.95 9.45 9 9.95V19H7v2h10v-2h-4v-5.05c5.05-.5 9-4.77 9-9.95V3h-2z"/></svg>