<svg xmlns="http://www.w3.org/2000/svg" width="24" height="24"><!--Boxicons v3.0 https://boxicons.com | License  https://docs.boxicons.com/free--><path d="M12 2C6.49 2 2 6.49 2 12c0 2.12.68 4.19 1.93 5.9l-1.75 2.53c-.21.31-.24.7-.06 1.03.17.33.51.54.89.54h9c5.51 0 10-4.49 10-10S17.51 2 12 2m0 18H4.91L6 18.43c.26-.37.23-.88-.06-1.22A7.98 7.98 0 0 1 4.01 12c0-4.41 3.59-8 8-8s8 3.59 8 8-3.59 8-8 8Z"/><path d="M13.2 10.67 12 8l-1.2 2.67-2.8.22 2.22 2L9.33 16 12 14.22 14.67 16l-.89-3.11 2.22-2z"/></svg>