<svg xmlns="http://www.w3.org/2000/svg" width="24" height="24"><!--Boxicons v3.0 https://boxicons.com | License  https://docs.boxicons.com/free--><path d="m10.5 5 1-.67 1 .67-.33-1.17.83-.71L12 3l-.5-1-.5 1-1 .12.83.71zM20.33 13.67 19.5 12l-.83 1.67-1.67.21 1.39 1.18-.56 1.94 1.67-1.11L21.17 17l-.56-1.94L22 13.88zM4.83 9 6.5 7.89 8.17 9l-.56-1.95L9 5.88l-1.67-.21L6.5 4l-.83 1.67L4 5.88l1.39 1.17zM18.71 2.29a.996.996 0 0 0-1.41 0l-15.01 15a.996.996 0 0 0 0 1.41l3 3c.2.2.45.29.71.29s.51-.1.71-.29l15-15a.996.996 0 0 0 0-1.41zM6 19.59 4.41 18l9.09-9.09 1.59 1.59zm10.5-10.5L14.91 7.5 18 4.41 19.59 6z"/></svg>