<svg xmlns="http://www.w3.org/2000/svg" width="24" height="24"><!--Boxicons v3.0 https://boxicons.com | License  https://docs.boxicons.com/free--><path d="M19 3H5c-1.1 0-2 .9-2 2v14c0 1.1.9 2 2 2h14c1.1 0 2-.9 2-2V5c0-1.1-.9-2-2-2m-5.99 10.74-.74-.21c-.64-.18-1.29-.37-2.02-.53l.21-.74c.18-.64.37-1.29.53-2.02l.74.21c.64.18 1.29.37 2.02.53l-.21.74c-.18.64-.37 1.29-.53 2.02M14.5 5c0 1.72-.12 2.98-.31 4.04-.68-.15-1.29-.32-1.92-.5-.31-.09-.63-.18-.95-.26.11-.92.18-1.98.18-3.27h3ZM5 5h4.5c0 1.12-.06 2.03-.14 2.83C8.21 7.63 6.84 7.5 5 7.5zm0 4.5c1.72 0 2.98.12 4.04.31-.15.68-.32 1.29-.5 1.92-.09.31-.18.63-.26.95a27 27 0 0 0-3.27-.18v-3ZM5 19v-4.5c1.12 0 2.03.05 2.83.14-.2 1.15-.33 2.52-.33 4.36zm4.5 0c0-1.72.12-2.98.31-4.04.68.15 1.29.32 1.92.5.31.09.63.18.95.26a27 27 0 0 0-.18 3.27h-3Zm5 0c0-1.12.06-2.03.14-2.83 1.15.2 2.52.33 4.36.33v-2c-1.72 0-2.98-.12-4.04-.31.15-.68.32-1.29.5-1.92.09-.31.18-.63.26-.95.92.11 1.98.18 3.27.18v-2c-1.12 0-2.03-.05-2.83-.14.2-1.15.33-2.52.33-4.36h2.5v14h-4.5Z" class="b"/></svg>