<svg xmlns="http://www.w3.org/2000/svg" width="24" height="24"><!--Boxicons v3.0 https://boxicons.com | License  https://docs.boxicons.com/free--><path d="M20 3H4c-1.1 0-2 .9-2 2v12c0 1.1.9 2 2 2h3v2c0 .36.19.69.51.87a1 1 0 0 0 1-.01L13.27 19h6.72c1.1 0 2-.9 2-2V5c0-1.1-.9-2-2-2Zm0 14h-7c-.18 0-.36.05-.51.14L9 19.23V18c0-.55-.45-1-1-1H4V5h16z"/><path d="M8.65 11.21 12 14.5l3.35-3.29c.85-.82.87-2.16.06-3.01l-.06-.06c-.87-.86-2.26-.86-3.12 0l-.22.22-.22-.22c-.87-.86-2.26-.86-3.12 0-.85.82-.87 2.16-.06 3.01l.06.06Z"/></svg>