<svg xmlns="http://www.w3.org/2000/svg" width="24" height="24"><!--Boxicons v3.0 https://boxicons.com | License  https://docs.boxicons.com/free--><path d="M18 3a3 3 0 1 0 0 6 3 3 0 1 0 0-6"/><path d="M19.97 10.59c.01.14.03.27.03.41 0 3.31-3.59 6-8 6-.22 0-.43.07-.6.2L9 19v-1.73c0-.41-.25-.78-.64-.93C5.67 15.3 4 13.26 4 11c0-3.31 3.59-6 8-6 .37 0 .74.03 1.09.06.13-.7.41-1.35.81-1.91-.62-.1-1.25-.15-1.9-.15C6.49 3 2 6.59 2 11c0 2.91 1.9 5.51 5 6.93V21c0 .38.21.72.55.89.14.07.29.11.45.11.21 0 .42-.07.6-.2l3.74-2.8c5.36-.14 9.66-3.67 9.66-8 0-.6-.09-1.18-.24-1.74a5.1 5.1 0 0 1-1.78 1.33Z"/></svg>