<svg xmlns="http://www.w3.org/2000/svg" width="24" height="24"><!--Boxicons v3.0 https://boxicons.com | License  https://docs.boxicons.com/free--><path d="M15.5 2c-3.37 0-6.15 2.58-6.47 5.87A5.45 5.45 0 0 0 5.5 13v.12c-2 .45-3.51 2.24-3.51 4.38 0 2.48 2.02 4.5 4.5 4.5 2.14 0 3.93-1.5 4.38-3.51h.12c2.32 0 4.33-1.42 5.13-3.53 3.29-.32 5.87-3.1 5.87-6.47 0-3.58-2.92-6.5-6.5-6.5Zm-9 18A2.5 2.5 0 0 1 4 17.5c0-1.17.81-2.15 1.9-2.43.01.04.04.07.05.1q.165.39.39.75c.05.08.09.15.15.22.18.26.37.5.59.72l.05.05c.22.21.46.4.71.58.08.06.17.11.25.16.22.13.44.25.68.36.05.02.1.06.15.08a2.51 2.51 0 0 1-2.43 1.9Zm3.72-3.58a4 4 0 0 1-.48-.15 3.48 3.48 0 0 1-2.24-3.26c0-1.26.65-2.38 1.68-2.99 0 .02.01.04.02.06.06.24.13.48.22.71.02.06.05.12.07.18.1.25.21.49.34.72 0 0 .01.02.02.03.13.22.27.44.42.64.04.05.07.1.11.15.33.42.7.79 1.12 1.12.05.04.1.07.15.11a5.5 5.5 0 0 0 .67.43c.23.13.48.24.73.34.06.02.12.05.18.07.23.08.46.16.7.22.02 0 .04.02.07.02-.75 1.24-2.25 1.92-3.78 1.59ZM15.53 13h-.12a4.46 4.46 0 0 1-4.4-4.4v-.12c.02-2.47 2.03-4.47 4.5-4.47s4.5 2.02 4.5 4.5-2 4.48-4.47 4.5Z"/></svg>