<svg xmlns="http://www.w3.org/2000/svg" width="24" height="24"><!--Boxicons v3.0 https://boxicons.com | License  https://docs.boxicons.com/free--><path d="M18 3a3 3 0 1 0 0 6 3 3 0 1 0 0-6"/><path d="M19.87 10.63c.08.45.13.9.13 1.37 0 4.41-3.59 8-8 8H4.91L6 18.43c.26-.37.23-.88-.06-1.22A7.98 7.98 0 0 1 4.01 12c0-4.41 3.59-8 8-8 .47 0 .92.05 1.37.13.28-.68.7-1.28 1.23-1.77-.83-.22-1.7-.36-2.6-.36C6.49 2 2 6.49 2 12c0 2.12.68 4.19 1.93 5.9l-1.75 2.53c-.21.31-.24.7-.06 1.03.17.33.51.54.89.54h9c5.51 0 10-4.49 10-10 0-.9-.13-1.77-.36-2.6-.49.53-1.09.95-1.77 1.23Z"/></svg>