<svg xmlns="http://www.w3.org/2000/svg" width="24" height="24"><!--Boxicons v3.0 https://boxicons.com | License  https://docs.boxicons.com/free--><path d="M16 2a5.995 5.995 0 0 0-5.97 6.59l-7.21 8.56c-.67.8-.62 1.96.12 2.7l1.2 1.2c.39.39.9.59 1.41.59.46 0 .91-.16 1.29-.47l8.56-7.21a5.986 5.986 0 0 0 4.84-1.73c1.13-1.14 1.75-2.65 1.75-4.24s-.62-3.1-1.76-4.25a6 6 0 0 0-4.24-1.75ZM5.56 19.64l-1.2-1.2 6.71-7.96 2.46 2.46-7.96 6.71Zm9.81-7.69-3.32-3.32c-.03-.2-.05-.41-.05-.63 0-.9.31-1.74.85-2.44l5.59 5.59c-.7.54-1.55.85-2.44.85-.22 0-.44-.02-.63-.05m3.78-1.51-5.59-5.59C14.26 4.31 15.11 4 16 4c1.07 0 2.07.42 2.83 1.16C19.58 5.92 20 6.93 20 8c0 .9-.31 1.74-.85 2.44"/></svg>