<svg xmlns="http://www.w3.org/2000/svg" width="24" height="24"><!--Boxicons v3.0 https://boxicons.com | License  https://docs.boxicons.com/free--><path d="M13.08 8.63 12 6.44l-1.08 2.19-2.42.35 1.75 1.71-.41 2.41L12 11.96l2.16 1.14-.41-2.41 1.75-1.71z"/><path d="M12 2c-4.41 0-8 3.59-8 8 0 2.52 1.17 4.77 3 6.24v4.77c0 .35.18.67.47.85s.66.2.97.04l3.55-1.78 3.55 1.78a.997.997 0 0 0 1.45-.89v-4.76c1.83-1.47 3-3.72 3-6.24 0-4.41-3.59-8-8-8Zm0 14c-3.31 0-6-2.69-6-6s2.69-6 6-6 6 2.69 6 6-2.69 6-6 6"/></svg>