<svg xmlns="http://www.w3.org/2000/svg" width="24" height="24"><!--Boxicons v3.0 https://boxicons.com | License  https://docs.boxicons.com/free--><path d="M18.21 7.79 16.8 9.2l1.79 1.79H13V5.4l1.79 1.79 1.41-1.41-3.5-3.5a.996.996 0 0 0-1.41 0l-3.5 3.5L9.2 7.19l1.79-1.79v5.59H5.4L7.19 9.2 5.78 7.79l-3.5 3.5a.996.996 0 0 0 0 1.41l3.5 3.5 1.41-1.41L5.4 13h5.59v5.59L9.2 16.8l-1.41 1.41 3.5 3.5c.2.2.45.29.71.29s.51-.1.71-.29l3.5-3.5-1.41-1.41-1.79 1.79V13h5.59l-1.79 1.79 1.41 1.41 3.5-3.5a.996.996 0 0 0 0-1.41l-3.5-3.5Z"/></svg>