<svg xmlns="http://www.w3.org/2000/svg" width="24" height="24"><!--Boxicons v3.0 https://boxicons.com | License  https://docs.boxicons.com/free--><path d="M21.97 12.01c.02-.27.02-.55 0-.82C21.55 6.04 17.18 2 12 2s-9.45 3.88-9.95 9.02c-.04.44-.04.87 0 1.3v2.7c-.33 3.41 1.89 6.45 5.05 6.91a5.998 5.998 0 0 0 4.71-1.28c.8-.66 1.89-.75 2.84-.24.73.39 1.56.55 2.38.59 1.27 0 2.48-.56 3.41-1.56 1.1-1.2 1.68-2.88 1.55-4.43l.03-3h-.03ZM12 4c4.14 0 7.64 3.23 7.97 7.35.08 1-.26 2.02-.91 2.72-.39.42-1.06.93-2.06.93-.53.04-.98-.12-1.42-.36-1.67-.9-3.61-.72-5.05.45-.88.72-2 1.03-3.14.86-1.82-.27-3.16-1.86-3.34-3.8v-.98a7.97 7.97 0 0 1 7.96-7.18Zm5.01 15c-.5 0-.98-.12-1.42-.36-1.67-.9-3.61-.73-5.05.45-.88.72-2 1.02-3.14.86-1.68-.25-2.95-1.64-3.27-3.43.82.74 1.84 1.24 2.98 1.41a5.998 5.998 0 0 0 4.71-1.28c.8-.66 1.89-.75 2.84-.24.73.39 1.56.57 2.38.59 1.07 0 2.08-.38 2.92-1.04-.12.79-.46 1.55-.99 2.12-.38.42-1.03.92-1.94.92Z"/><path d="M8.82 14c1.18 0 1.73-.48 2.43-.97.76-.53 1.89-.91 2.75-.51.38.17 1.54.51 2 .51 1 0 2.12-.89 1.99-2.29C17.74 8.09 15.15 6 12 6s-5.68 2.04-5.98 4.66c-.18 1.59.95 3.34 2.8 3.34m.68-5c.83 0 1.5.67 1.5 1.5S10.33 12 9.5 12 8 11.33 8 10.5 8.67 9 9.5 9"/></svg>