<svg xmlns="http://www.w3.org/2000/svg" width="24" height="24"><!--Boxicons v3.0 https://boxicons.com | License  https://docs.boxicons.com/free--><path d="M19 6H5c-1.1 0-2 .9-2 2v12c0 1.1.9 2 2 2h14c1.1 0 2-.9 2-2V8c0-1.1-.9-2-2-2m0 14H5V8h14zM6 2h12v2H6z"/><path d="M9.5 17c.83 0 1.5-.67 1.5-1.5v-4.39l4 .8v3.18c-.16-.06-.32-.09-.5-.09-.83 0-1.5.67-1.5 1.5s.67 1.5 1.5 1.5 1.5-.67 1.5-1.5v-5c0-.24-.17-.44-.4-.49l-5-1a.49.49 0 0 0-.6.49v3.59c-.16-.06-.32-.09-.5-.09-.83 0-1.5.67-1.5 1.5S8.67 17 9.5 17"/></svg>