<svg xmlns="http://www.w3.org/2000/svg" width="24" height="24"><!--Boxicons v3.0 https://boxicons.com | License  https://docs.boxicons.com/free--><path d="M16 14.97c.62-.83 1-1.85 1-2.97 0-2.76-2.24-5-5-5s-5 2.24-5 5 2.24 5 5 5c1.63 0 3.06-.79 3.98-2H16zM15 12c0 .27-.05.53-.12.78-.02 0-.03 0-.05-.02-.36-.15-.68-.37-.95-.64-.28-.28-.49-.6-.64-.96Q13 10.605 13 9.99c0-.27.05-.53.12-.78 1.1.44 1.88 1.52 1.88 2.78Zm-6 0c0-1.33.88-2.45 2.08-2.84-.05.28-.08.56-.08.84 0 .67.13 1.33.39 1.95.25.59.61 1.13 1.07 1.59.37.37.81.66 1.27.9-.49.35-1.09.56-1.74.56-1.65 0-3-1.35-3-3ZM11 19h2v3h-2zM11 2h2v3h-2zM2 11h3v2H2zM19 11h3v2h-3zM6.34 16.24 5.28 17.3l-1.06 1.06.71.71.71.71 1.06-1.06 1.06-1.06-.71-.71zM17.66 7.76l1.06-1.06 1.06-1.06-.71-.71-.71-.71-1.06 1.06-1.06 1.06.71.71zM6.34 7.76l.71-.71.71-.71L6.7 5.28 5.64 4.22l-.71.71-.71.71L5.28 6.7zM17.66 16.24l-.71.71-.71.71 1.06 1.06 1.06 1.06.71-.71.71-.71-1.06-1.06z"/></svg>