<svg xmlns="http://www.w3.org/2000/svg" width="24" height="24"><!--Boxicons v3.0 https://boxicons.com | License  https://docs.boxicons.com/free--><path d="M19 3H5c-1.1 0-2 .9-2 2v14c0 1.1.9 2 2 2h14c1.1 0 2-.9 2-2V5c0-1.1-.9-2-2-2m-3 16v-1h-1v1h-3v-1h-1v1H8v-1H7v1H5v-2h1v-1H5v-3h1v-1H5V9h1V8H5V5h14v14z" class="b"/><path d="M17 8h1v1h-1zM17 12h1v1h-1zM17 16h1v1h-1zM15 10h1v1h-1zM15 6h1v1h-1zM15 14h1v1h-1zM13 8h1v1h-1zM13 12h1v1h-1zM13 16h1v1h-1zM11 10h1v1h-1zM11 6h1v1h-1zM11 14h1v1h-1zM9 8h1v1H9zM9 12h1v1H9zM9 16h1v1H9zM7 10h1v1H7zM7 6h1v1H7zM7 14h1v1H7z" class="b"/></svg>