<svg xmlns="http://www.w3.org/2000/svg" width="24" height="24"><!--Boxicons v3.0 https://boxicons.com | License  https://docs.boxicons.com/free--><path d="M19 3c-1.65 0-3 1.35-3 3 0 .5.14.97.35 1.38l-1.12 1.3c-.64-.43-1.41-.69-2.24-.69s-1.53.24-2.15.64l-2.2-1.65c.22-.45.35-.96.35-1.49 0-1.93-1.57-3.5-3.5-3.5s-3.5 1.57-3.5 3.5 1.57 3.5 3.5 3.5c.66 0 1.28-.2 1.81-.52l2.18 1.64c-.3.56-.49 1.2-.49 1.88 0 1 .38 1.9.99 2.6l-1.69 1.69.03.03c-.4-.2-.84-.32-1.32-.32-1.65 0-3 1.35-3 3s1.35 3 3 3 3-1.35 3-3c0-.48-.12-.92-.32-1.32l.03.03 1.95-1.95c.42.15.87.25 1.34.25 2.21 0 4-1.79 4-4 0-.64-.17-1.24-.44-1.78l1.25-1.46c.36.16.76.25 1.19.25 1.65 0 3-1.35 3-3s-1.35-3-3-3ZM7 20c-.55 0-1-.45-1-1s.45-1 1-1 1 .45 1 1-.45 1-1 1M4 5.5C4 4.67 4.67 4 5.5 4S7 4.67 7 5.5 6.33 7 5.5 7 4 6.33 4 5.5m9 8.5c-1.1 0-2-.9-2-2s.9-2 2-2 2 .9 2 2-.9 2-2 2m6-7c-.55 0-1-.45-1-1s.45-1 1-1 1 .45 1 1-.45 1-1 1"/></svg>