<svg xmlns="http://www.w3.org/2000/svg" width="24" height="24"><!--Boxicons v3.0 https://boxicons.com | License  https://docs.boxicons.com/free--><path d="m10.95 4.07-6.88 6.88c-2.48 2.47-2.48 6.5 0 8.98 1.24 1.24 2.86 1.86 4.49 1.86s3.25-.62 4.49-1.86l6.88-6.88c2.48-2.47 2.48-6.5 0-8.98-2.47-2.47-6.5-2.47-8.98 0m.69 14.44c-1.7 1.7-4.45 1.7-6.15 0a4.364 4.364 0 0 1 0-6.15l2.73-2.73 6.15 6.15zm6.88-6.88-2.73 2.73-6.15-6.15 2.73-2.73c.85-.85 1.96-1.27 3.07-1.27s2.23.42 3.07 1.27a4.364 4.364 0 0 1 0 6.15Z"/></svg>