<svg xmlns="http://www.w3.org/2000/svg" width="24" height="24"><!--Boxicons v3.0 https://boxicons.com | License  https://docs.boxicons.com/free--><path d="M17.84 4.9a5 5 0 0 0-2.85-.9c-.92 0-2.1.35-3.52 1.06-1.12.56-2.36.9-3.53 1.21a8 8 0 0 0-4.17 2.69c-2.37 2.89-2.39 7.1-.06 10.01a8.07 8.07 0 0 0 5.83 3.02c.15 0 .3.01.44.01 2.12 0 4.16-.84 5.66-2.34a7.95 7.95 0 0 0 2.17-3.97c.22-1.05.6-2.11 1.11-3.15.71-1.42 1.06-2.61 1.06-3.53 0-.97-.29-1.87-.77-2.63.4-.55 1.24-1.37 2.77-1.37v-2c-2.12 0-3.42 1.02-4.16 1.9Zm-.7 6.74c-.59 1.2-1.02 2.42-1.28 3.62-.24 1.12-.8 2.15-1.62 2.98a6.03 6.03 0 0 1-4.58 1.75c-1.73-.1-3.28-.9-4.38-2.27-1.72-2.15-1.7-5.37.04-7.5.82-1 1.91-1.71 3.13-2.03 1.27-.33 2.61-.71 3.91-1.35 1.11-.55 2.04-.85 2.63-.85 1.66 0 3 1.35 3 3 0 .59-.3 1.53-.85 2.64Z"/></svg>