<svg xmlns="http://www.w3.org/2000/svg" width="24" height="24"><!--Boxicons v3.0 https://boxicons.com | License  https://docs.boxicons.com/free--><path d="M19.17 5.11A2 2 0 0 0 17.38 4H13c-.55 0-1 .45-1 1v5H3c-.55 0-1 .45-1 1v4c0 1.1.9 2 2 2 0 1.65 1.35 3 3 3s3-1.35 3-3h4c0 1.65 1.35 3 3 3s3-1.35 3-3c1.1 0 2-.9 2-2v-3.76c0-.31-.07-.62-.21-.89zM14 6h3.38l2 4H14zM7 18a1.003 1.003 0 0 1-.87-1.5c.37-.63 1.36-.63 1.73 0 .09.15.13.32.13.49 0 .55-.45 1-1 1Zm10 0a1.003 1.003 0 0 1-.87-1.5c.37-.63 1.36-.63 1.73 0 .09.15.13.32.13.49 0 .55-.45 1-1 1Zm3-3h-.77s-.05-.05-.08-.07c-.06-.06-.12-.11-.17-.16-.12-.11-.25-.21-.38-.29a2.882 2.882 0 0 0-.67-.32c-.07-.02-.14-.05-.21-.07Q17.375 14 17 14c-.375 0-.49.04-.72.09-.07.02-.14.05-.21.07-.16.05-.31.11-.45.19-.07.04-.15.08-.22.13-.13.09-.26.18-.38.29-.06.05-.12.1-.18.16-.02.03-.05.04-.08.07H9.23s-.05-.05-.08-.07c-.06-.06-.12-.11-.17-.16-.12-.11-.25-.21-.38-.29a2.882 2.882 0 0 0-.67-.32c-.07-.02-.14-.05-.21-.07Q7.375 14 7 14c-.375 0-.49.04-.72.09-.07.02-.14.05-.21.07-.16.05-.31.11-.45.19-.07.04-.15.08-.22.13-.13.09-.26.18-.38.29-.06.05-.12.1-.18.16-.02.03-.05.04-.08.07h-.77v-3h16v3Z"/></svg>