<svg xmlns="http://www.w3.org/2000/svg" width="24" height="24"><!--Boxicons v3.0 https://boxicons.com | License  https://docs.boxicons.com/free--><path d="M19.41 3c-.78-.78-2.05-.78-2.83 0l-2.09 2.09L12.7 3.3a.996.996 0 0 0-1.41 0l-6 6 1.41 1.41 5.29-5.29 1.09 1.09-8.79 8.78c-.13.13-.22.29-.26.46l-1 4c-.08.34.01.7.26.95.19.19.45.29.71.29.08 0 .16 0 .24-.03l4-1c.18-.04.34-.13.46-.26L20.99 7.41c.78-.78.78-2.05 0-2.83L19.4 2.99ZM7.48 18.1l-2.11.53.53-2.11 8.6-8.61 1.59 1.59-8.6 8.6ZM17.49 8.09 15.9 6.5l2.09-2.09 1.59 1.58-2.09 2.09Z"/></svg>