<svg xmlns="http://www.w3.org/2000/svg" width="24" height="24"><!--Boxicons v3.0 https://boxicons.com | License  https://docs.boxicons.com/free--><path d="M20 9.8C19.9 5.27 16.36 2 11.5 2s-9.49 3.24-9.49 8.67c0 2.71 1.03 5.05 2.99 6.79V22h2v-5.48l-.37-.3c-1.74-1.4-2.62-3.26-2.62-5.55C4.01 6.34 7.87 4 11.5 4c3.83 0 6.5 2.47 6.5 6v.19L19.52 14H17v4h-4v4h2v-2h2c1.1 0 2-.9 2-2v-2h1.26a1.5 1.5 0 0 0 1.39-2.06L19.99 9.8Z"/><path d="m7.33 12.64.42.73c.18.3.57.41.88.23l.34-.2c.29.25.62.44.97.57v.39c0 .35.29.64.64.64h.84c.35 0 .64-.29.64-.64v-.39c.35-.13.68-.32.97-.57l.34.2c.31.18.7.07.88-.23l.42-.73c.18-.31.07-.7-.23-.88l-.33-.19c.04-.19.05-.38.05-.57s-.02-.38-.05-.57l.33-.19c.31-.18.41-.57.23-.88l-.42-.73a.64.64 0 0 0-.88-.23l-.34.2c-.29-.25-.62-.44-.97-.57v-.39c0-.35-.29-.64-.64-.64h-.84c-.35 0-.64.29-.64.64v.39c-.35.13-.68.32-.97.57l-.34-.2a.65.65 0 0 0-.88.23l-.42.73c-.18.31-.07.7.23.88l.33.19c-.04.19-.05.38-.05.57s.02.38.05.57l-.33.19c-.31.18-.41.57-.23.88M11 9.46c.84 0 1.55.71 1.55 1.55s-.71 1.55-1.55 1.55-1.55-.71-1.55-1.55.71-1.55 1.55-1.55"/></svg>