<svg xmlns="http://www.w3.org/2000/svg" width="24" height="24"><!--Boxicons v3.0 https://boxicons.com | License  https://docs.boxicons.com/free--><path d="M6.23 6.31a1 1 0 0 0-.69-.49l-1.97-.35c-.31-.06-.63.04-.86.25s-.35.52-.31.83l.75 7.24c.05.44.38.8.82.88l13.79 2.43c.18.03.35.05.53.05.61 0 1.2-.19 1.71-.54.66-.46 1.09-1.15 1.23-1.94.29-1.63-.8-3.19-2.43-3.48l-1.96-.34-3.49-7.3a.98.98 0 0 0-.73-.55l-2.46-.43a.97.97 0 0 0-.88.28c-.23.23-.34.56-.28.88l1.01 5.93-2.08-.37-1.71-2.98Zm4.84 5.56c.32.06.65-.05.88-.28s.34-.56.28-.88l-1.01-5.93.56.1 3.49 7.3c.14.29.41.5.73.55l2.46.43a1.005 1.005 0 0 1 .4 1.81c-.22.15-.49.21-.75.17l-13.04-2.3-.54-5.17.2.04 1.71 2.98c.15.26.4.44.69.49l3.94.7ZM2 19h20v2H2z"/></svg>