<svg xmlns="http://www.w3.org/2000/svg" width="24" height="24"><!--Boxicons v3.0 https://boxicons.com | License  https://docs.boxicons.com/free--><path d="m18.98 8.78-1.96.34-5.77-5.67a.98.98 0 0 0-.87-.27l-2.46.43a.997.997 0 0 0-.69 1.48l2.98 5.23-2.08.37-2.62-2.22c-.23-.19-.53-.27-.82-.22l-1.97.35c-.31.05-.57.25-.72.53-.14.28-.15.61 0 .89l3.19 6.55c.17.35.52.56.9.56.06 0 .12 0 .17-.02l13.79-2.43a3.004 3.004 0 0 0 2.43-3.48A3 3 0 0 0 19 8.77Zm.69 3.94-13.04 2.3-2.28-4.68.2-.04 2.62 2.22c.23.19.53.28.82.22l3.94-.69a.997.997 0 0 0 .69-1.48L9.64 5.34l.56-.1 5.77 5.67c.23.23.56.33.87.27l2.46-.43c.55-.09 1.06.27 1.16.81s-.27 1.06-.81 1.16ZM2 19h20v2H2z"/></svg>