<svg xmlns="http://www.w3.org/2000/svg" width="24" height="24"><!--Boxicons v3.0 https://boxicons.com | License  https://docs.boxicons.com/free--><path d="m19.85 8.14-.46-2.32c-.33-1.63-1.77-2.81-3.43-2.81s-3 1.09-3.39 2.65L9.52 17.87c-.17.67-.76 1.14-1.45 1.14S6.74 18.5 6.6 17.8l-.41-2.03a3.01 3.01 0 0 0 1.83-2.76c0-1.65-1.35-3-3-3s-3 1.35-3 3c0 1.36.91 2.5 2.15 2.86l.46 2.32C4.96 19.82 6.4 21 8.06 21s3-1.09 3.39-2.65L14.5 6.14c.17-.67.76-1.14 1.45-1.14s1.33.51 1.47 1.21l.41 2.03A3.01 3.01 0 0 0 16 11c0 1.65 1.35 3 3 3s3-1.35 3-3c0-1.36-.91-2.5-2.15-2.86M5 12c.55 0 1 .45 1 1s-.45 1-1 1-1-.45-1-1 .45-1 1-1m14 0c-.55 0-1-.45-1-1s.45-1 1-1 1 .45 1 1-.45 1-1 1"/></svg>