<svg xmlns="http://www.w3.org/2000/svg" width="24" height="24"><!--Boxicons v3.0 https://boxicons.com | License  https://docs.boxicons.com/free--><path d="M8 2c-.45 0-.84.3-.96.73l-5 18c-.1.35 0 .72.26.97a1.01 1.01 0 0 0 .98.25l18-5c.43-.12.73-.51.73-.96 0-7.72-6.28-14-14-14ZM5.71 14.97c1.05.15 2.04-.53 2.25-1.58.19-.95-.33-1.87-1.19-2.23l.87-3.12c4.45.32 8.01 3.88 8.33 8.33l-5.11 1.42a1.987 1.987 0 0 0-2.37-1.22 2 2 0 0 0-1.45 2.28l-2.6.72 1.28-4.59Zm12.22.84c-.55-5.12-4.63-9.2-9.75-9.75l.57-2.04c6.02.38 10.85 5.21 11.22 11.22z"/><path d="M12 12a2 2 0 1 0 0 4 2 2 0 1 0 0-4"/></svg>