<svg xmlns="http://www.w3.org/2000/svg" width="24" height="24"><!--Boxicons v3.0 https://boxicons.com | License  https://docs.boxicons.com/free--><path d="M12 4a2 2 0 1 0 0 4 2 2 0 1 0 0-4M5 7a2 2 0 1 0 0 4 2 2 0 1 0 0-4M19 7a2 2 0 1 0 0 4 2 2 0 1 0 0-4M19.5 12h-.7c-.84 0-1.61.42-2.08 1.11L13.46 18h-2.93l-3.26-4.89C6.81 12.41 6.03 12 5.19 12h-.7a2.5 2.5 0 0 0-2.5 2.5V20h5v-3.7l1.87 2.81c.37.56.99.89 1.66.89h2.93c.67 0 1.29-.33 1.66-.89l1.87-2.81V20h5v-5.5a2.5 2.5 0 0 0-2.5-2.5Z"/><path d="M12.39 16 15 12.09V10.5c0-.83-.67-1.5-1.5-1.5h-3C9.67 9 9 9.67 9 10.5v1.59L11.61 16h.79Z"/></svg>