<svg xmlns="http://www.w3.org/2000/svg" width="24" height="24"><!--Boxicons v3.0 https://boxicons.com | License  https://docs.boxicons.com/free--><path d="M18.71 5.29a.996.996 0 0 0-1.41 0l-11 11a1 1 0 0 0-.29.71v3c0 .55.45 1 1 1h3c.27 0 .52-.11.71-.29l11-11a.996.996 0 0 0 0-1.41l-3-3ZM9.59 19H8v-1.59l7.5-7.5 1.59 1.59zm8.91-8.91L16.91 8.5 18 7.41 19.59 9zM7.77 10.15C9.5 8.72 11 7.49 11 6c0-3.81-7.5-4-9-4v2c3.31 0 7 .83 7 2 0 .54-1.51 1.78-2.5 2.6-2.06 1.7-4.4 3.63-4.24 6.07.09 1.4 1 2.67 2.74 3.86V17c0-.3.07-.59.2-.85-.59-.56-.91-1.1-.94-1.61-.09-1.41 1.83-3 3.52-4.39Z"/></svg>