<svg xmlns="http://www.w3.org/2000/svg" width="24" height="24"><!--Boxicons v3.0 https://boxicons.com | License  https://docs.boxicons.com/free--><path d="M19.41 5.5c-.78-.78-2.05-.78-2.83 0l-1.29 1.29-1.31 1.31-5.24 1.43c-.36.1-.63.39-.71.75l-2 9c-.07.33.03.68.27.92l1 1c.19.19.44.29.71.29.07 0 .15 0 .22-.02l9-2c.36-.08.65-.35.75-.71l1.43-5.24 1.31-1.31 1.29-1.29c.78-.78.78-2.05 0-2.83L19.42 5.5Zm-1.88 7.24-1.34 4.92-6.34 1.41L12.92 16H13c.83 0 1.5-.67 1.5-1.5S13.83 13 13 13s-1.5.67-1.5 1.5v.08l-3.07 3.07 1.41-6.34 4.92-1.34c.07-.02.14-.05.2-.08l2.65 2.65c-.03.06-.07.13-.08.2m1.76-1.94-.29.29-2.59-2.59.29-.29 1.29-1.29 2.59 2.59zM2 5h8v2H2z"/></svg>