<svg xmlns="http://www.w3.org/2000/svg" width="24" height="24"><!--Boxicons v3.0 https://boxicons.com | License  https://docs.boxicons.com/free--><path d="M17 17.76v-5.35l2.91-2.91L21 8.41c.38-.38.58-.88.58-1.42s-.21-1.04-.59-1.41L18.4 3c-.38-.38-.88-.58-1.41-.58s-1.04.21-1.41.59L13.8 4.8l-2.21 2.21H6.24l-3.35 12.3 1.82 1.82 12.3-3.35Zm0-13.35 2.59 2.58-1.09 1.09-2.59-2.59 1.08-1.08ZM7.77 9h4.65l2.09-2.09L17.1 9.5l-2.09 2.09v4.65L7 18.42l3.43-3.43h.08c.83 0 1.5-.67 1.5-1.5s-.67-1.5-1.5-1.5-1.5.67-1.5 1.5v.08L5.58 17l2.18-8.01Z"/></svg>