<svg xmlns="http://www.w3.org/2000/svg" width="24" height="24"><!--Boxicons v3.0 https://boxicons.com | License  https://docs.boxicons.com/free--><path d="M19.1 2.8c-.38-.5-.97-.8-1.6-.8h-11c-.63 0-1.23.3-1.6.8L2.2 6.4c-.13.17-.2.38-.2.6v1c0 1.04.41 1.98 1.06 2.69-.03.1-.06.2-.06.31v9c0 1.1.9 2 2 2h14c1.1 0 2-.9 2-2v-9c0-.11-.03-.21-.06-.31C21.59 9.98 22 9.04 22 8V7c0-.22-.07-.43-.2-.6zM17.5 4 20 7.33V8c0 1.1-.9 2-2 2s-2-.9-2-2V7q0-.12-.03-.24L15.28 4zm-6.72 0h2.44L14 7.12V8c0 1.1-.9 2-2 2s-2-.9-2-2v-.88zM4 7.33 6.5 4h2.22l-.69 2.76Q8 6.88 8 7v1c0 1.1-.9 2-2 2s-2-.9-2-2zM5 20v-8.14c.32.08.65.14 1 .14 1.2 0 2.27-.54 3-1.38.73.84 1.8 1.38 3 1.38s2.27-.54 3-1.38c.73.84 1.8 1.38 3 1.38.35 0 .68-.06 1-.14V20z"/><path d="M13 13h-2v2H9v2h2v2h2v-2h2v-2h-2z"/></svg>