<svg xmlns="http://www.w3.org/2000/svg" width="24" height="24"><!--Boxicons v3.0 https://boxicons.com | License  https://docs.boxicons.com/free--><path d="M12 22c3.8 0 7.23-2.12 8.94-5.53.24-.48.06-1.05-.4-1.32L15.02 12l5.52-3.15c.46-.26.64-.84.4-1.32C19.23 4.12 15.81 2 12 2 6.49 2 2 6.49 2 12s4.49 10 10 10m0-18a7.95 7.95 0 0 1 6.68 3.61l-6.17 3.52c-.31.18-.5.51-.5.87s.19.69.5.87l6.17 3.52A7.94 7.94 0 0 1 12 20c-4.41 0-8-3.59-8-8s3.59-8 8-8"/><path d="M11.5 6a1.5 1.5 0 1 0 0 3 1.5 1.5 0 1 0 0-3"/></svg>