<svg xmlns="http://www.w3.org/2000/svg" width="24" height="24"><!--Boxicons v3.0 https://boxicons.com | License  https://docs.boxicons.com/free--><path d="M18.71 5.29a.996.996 0 0 0-1.41 0l-11 11a1 1 0 0 0-.29.71v3c0 .55.45 1 1 1h3c.27 0 .52-.11.71-.29l11-11a.996.996 0 0 0 0-1.41l-3-3ZM9.59 19H8v-1.59l7.5-7.5 1.59 1.59zm8.91-8.91L16.91 8.5 18 7.41 19.59 9zM7 12c.26 0 .5-.15.61-.4l1.23-2.77 2.77-1.23c.24-.11.4-.35.4-.61s-.16-.5-.4-.61L8.84 5.15 7.61 2.38a.68.68 0 0 0-.6-.4c-.27-.02-.5.15-.61.39L5.17 5.04 2.39 6.38c-.23.11-.38.35-.38.61s.16.49.4.6l2.77 1.23 1.23 2.77c.11.24.35.4.61.4ZM21.76 18.63l-1.66-.74-.74-1.66a.41.41 0 0 0-.36-.24c-.16-.01-.3.09-.37.23l-.74 1.6-1.67.8c-.14.07-.23.21-.23.37s.1.3.24.36l1.66.74.74 1.66a.404.404 0 0 0 .74 0l.74-1.66 1.66-.74a.404.404 0 0 0 0-.74Z" class="b"/></svg>