<svg xmlns="http://www.w3.org/2000/svg" width="24" height="24"><!--Boxicons v3.0 https://boxicons.com | License  https://docs.boxicons.com/free--><path d="M21.21 3.88a2.93 2.93 0 0 0-2.57-.98c-.8.09-1.63.48-2.47 1.13-1.24-.65-2.62-1-4.06-1.02-2.44 0-4.69.88-6.4 2.55A8.95 8.95 0 0 0 3 11.9a9 9 0 0 0 .58 3.31c-1.07 1.2-2.07 3.68-.83 5.08.52.58 1.26.84 2.15.84.99 0 2.17-.33 3.44-.89 1.1.49 2.31.76 3.55.77h.12c2.37 0 4.59-.9 6.28-2.55 1.72-1.67 2.68-3.92 2.71-6.34.01-.98-.14-1.92-.42-2.83 1.28-2.21 1.7-4.2.63-5.41M7.11 6.99A6.94 6.94 0 0 1 12 5.01h.09c1.88.02 3.63.77 4.93 2.1.57.59 1.02 1.26 1.35 1.99-.97 1.46-2.45 3.2-4.54 5.06-2.04 1.81-3.9 3.05-5.43 3.85-.51-.31-.98-.67-1.41-1.11a6.92 6.92 0 0 1-1.98-4.98c.02-1.88.77-3.63 2.11-4.93ZM4.25 18.95c-.22-.25 0-1.08.39-1.78.28.39.58.77.92 1.12.21.22.44.43.67.62-1.05.31-1.75.3-1.98.03Zm14.76-6.86a6.92 6.92 0 0 1-2.11 4.93c-1.33 1.3-3.08 1.98-4.98 1.98-.37 0-.73-.05-1.09-.11a32 32 0 0 0 4.33-3.24 32 32 0 0 0 3.83-4.03c0 .16.02.31.02.47m-.55-6.38c-.17-.17-.34-.33-.52-.48.39-.22.7-.32.92-.35.36-.04.63.06.86.32.22.25.17.9-.21 1.82-.31-.46-.66-.91-1.06-1.31Z"/></svg>