<svg xmlns="http://www.w3.org/2000/svg" width="24" height="24"><!--Boxicons v3.0 https://boxicons.com | License  https://docs.boxicons.com/free--><path d="M5 2H2v2h2v16c0 1.1.9 2 2 2h12c1.1 0 2-.9 2-2V4h2V2zm13 18H6V4h12z" class="b"/><path d="M12 15c-1.84 0-1.99-.86-2-1H8c0 .92.66 2.55 3 2.92V18h2v-1.09c1.97-.33 3-1.63 3-2.91 0-1.12-.52-3-4-3-2 0-2-.63-2-1 0-.48.7-1 2-1 1.18 0 1.39.64 1.4 1.02l1-.02h1c0-1.03-.67-2.47-2.4-2.88V6h-2v1.09C9.03 7.42 8 8.72 8 10c0 1.12.52 3 4 3 2 0 2 .68 2 1 0 .42-.62 1-2 1" class="b"/></svg>