<svg xmlns="http://www.w3.org/2000/svg" width="24" height="24"><!--Boxicons v3.0 https://boxicons.com | License  https://docs.boxicons.com/free--><path d="M13.4 2.1c-3.16-.43-6.24.6-8.47 2.83S1.67 10.25 2.1 13.4c.53 3.89 3.46 7.21 7.29 8.25.86.23 1.74.35 2.62.35h.14c1.03-.02 1.97-.55 2.52-1.43.54-.88.6-1.95.15-2.88l-.2-.42c-.45-.94-.1-1.8.39-2.28s1.34-.84 2.28-.39l.41.2c.93.45 2 .39 2.88-.15a3 3 0 0 0 1.43-2.52c.01-.92-.1-1.85-.35-2.76-1.04-3.83-4.35-6.75-8.25-7.29Zm6.12 10.86c-.3.18-.65.2-.96.05l-.41-.2a3.96 3.96 0 0 0-4.56.78 3.96 3.96 0 0 0-.78 4.56l.2.42c.15.31.13.66-.05.96-.19.3-.49.47-.84.48-.74.02-1.48-.08-2.21-.28-3.06-.83-5.4-3.48-5.83-6.59-.34-2.53.48-5 2.27-6.79a7.96 7.96 0 0 1 5.66-2.34c.37 0 .75.03 1.13.08 3.11.42 5.75 2.76 6.59 5.83.2.73.29 1.47.28 2.21 0 .35-.18.66-.48.84Z"/><path d="M7.33 12.76a1 1 0 1 0 0 2 1 1 0 1 0 0-2m.07-3.83a1.12 1.12 0 1 0 0 2.24 1.12 1.12 0 1 0 0-2.24m2.81-2.87a1.25 1.25 0 1 0 0 2.5 1.25 1.25 0 1 0 0-2.5m4.06.11a1.38 1.38 0 1 0 0 2.76 1.38 1.38 0 1 0 0-2.76"/></svg>