<svg xmlns="http://www.w3.org/2000/svg" width="24" height="24"><!--Boxicons v3.0 https://boxicons.com | License  https://docs.boxicons.com/free--><path d="M18.01 14.06c.26 0 .51-.1.71-.29l2.48-2.47c.47-.47.73-1.1.73-1.77s-.26-1.3-.73-1.77l-1.77-1.77 2.12-2.12-1.41-1.41-2.12 2.12-1.77-1.77c-.98-.97-2.56-.97-3.54 0l-2.47 2.47a.996.996 0 0 0 0 1.41l7.07 7.07c.2.2.45.29.71.29Zm-3.89-9.84c.13-.13.28-.15.35-.15s.23.02.35.15l4.95 4.95c.13.13.15.28.15.35s-.02.23-.15.35L18 11.64l-5.66-5.66 1.77-1.77Zm-1.06 8.13-2.12 2.12-1.41-1.41 2.12-2.12-1.41-1.41-2.12 2.12-1.41-1.41a.996.996 0 0 0-1.41 0l-2.48 2.47c-.47.47-.73 1.1-.73 1.77s.26 1.3.73 1.77l1.77 1.77-2.12 2.12 1.41 1.41L6 19.43l1.77 1.77c.49.49 1.13.73 1.77.73s1.28-.24 1.77-.73l2.47-2.47a.996.996 0 0 0 0-1.41l-1.41-1.41 2.12-2.12-1.41-1.41Zm-3.18 7.42c-.13.13-.28.15-.35.15s-.23-.02-.35-.15l-4.95-4.95c-.13-.13-.15-.28-.15-.35s.02-.23.15-.35L6 12.35l3.54 3.54 1.41 1.41.71.71-1.77 1.77Z"/></svg>