<svg xmlns="http://www.w3.org/2000/svg" width="24" height="24"><!--Boxicons v3.0 https://boxicons.com | License  https://docs.boxicons.com/free--><path d="M11 7a1 1 0 1 0 0 2 1 1 0 1 0 0-2"/><path d="M13.71 4H5c-.55 0-1-.45-1-1V2H2v1c0 1.65 1.35 3 3 3 0 3.86 3.14 7 7 7h1c.55 0 1 .45 1 1s-.45 1-1 1H9.83c-.41-1.16-1.52-2-2.83-2H4c-.55 0-1 .45-1 1 0 1.5.85 2.74 1.54 3.5C3.85 18.26 3 19.49 3 21c0 .55.45 1 1 1h3c1.3 0 2.42-.84 2.83-2H14c2.18 0 4.22-.86 5.74-2.43a7.93 7.93 0 0 0 2.25-5.82C21.86 7.47 18.14 4 13.7 4ZM7 6h6.71c1.17 0 2.26.32 3.21.86-.41 2.35-2.45 4.14-4.91 4.14-2.76 0-5-2.24-5-5Zm11.31 10.18A5.97 5.97 0 0 1 14 18H9c-.55 0-1 .45-1 1s-.45 1-1 1H5.23c.44-.98 1.36-1.69 1.37-1.7a1 1 0 0 0 0-1.6c-.01 0-.93-.72-1.37-1.7H7c.55 0 1 .45 1 1s.45 1 1 1h4c1.65 0 3-1.35 3-3 0-.7-.25-1.34-.66-1.85 1.52-.83 2.7-2.21 3.27-3.88.83.98 1.34 2.21 1.38 3.54.05 1.64-.55 3.19-1.69 4.36Z"/></svg>