<svg xmlns="http://www.w3.org/2000/svg" width="24" height="24"><!--Boxicons v3.0 https://boxicons.com | License  https://docs.boxicons.com/free--><path d="m16.3 3.45-1.4 1.4-7.98-1.33c-.32-.05-.64.05-.87.28L4.28 5.57c-.23.23-.33.56-.28.88s.26.59.56.73L10 9.76l-1.49 1.49-3.42-.31c-.29-.03-.59.08-.8.29l-1.41 1.41a.99.99 0 0 0-.27.9c.06.33.28.6.59.73l4.58 1.96 1.96 4.58c.13.31.4.53.73.59a1.007 1.007 0 0 0 .9-.27l1.41-1.41c.21-.21.32-.5.29-.8l-.31-3.42 1.49-1.49 2.57 5.44a.993.993 0 0 0 1.61.28l1.77-1.77c.23-.23.33-.55.28-.87l-1.33-7.98 1.4-1.4c.57-.57.88-1.32.88-2.12s-.31-1.55-.88-2.12a3 3 0 0 0-4.24 0Zm2.83 2.83-1.77 1.77c-.23.23-.33.55-.28.87l1.33 7.98-.4.4-2.57-5.43a.993.993 0 0 0-1.61-.28L11 14.42a.99.99 0 0 0-.29.8l.31 3.42-.04.04-1.54-3.59c-.1-.24-.29-.42-.52-.53l-3.59-1.54.04-.04 3.42.31c.3.03.59-.08.8-.29l2.83-2.83c.23-.23.33-.56.28-.88s-.26-.59-.56-.73L6.7 5.98l.4-.4 7.98 1.33c.32.05.64-.05.87-.28l1.77-1.77a.996.996 0 0 1 1.7.71c0 .27-.1.52-.29.71"/></svg>