<svg xmlns="http://www.w3.org/2000/svg" width="24" height="24"><!--Boxicons v3.0 https://boxicons.com | License  https://docs.boxicons.com/free--><path d="m14.91 13.5 1.59-1.59.79.79c.39.39 1.02.39 1.41 0l3-3a.996.996 0 0 0 0-1.41l-6-6a.996.996 0 0 0-1.41 0l-3 3a.996.996 0 0 0 0 1.41l.79.79-1.59 1.59-.79-.79-6.99-7L1.3 2.7l6.29 6.29L9 10.4l.79.79 3 3 .79.79 1.41 1.41 6.29 6.29 1.41-1.41-7-7-.79-.79Zm-.71-5.29a.996.996 0 0 0 0-1.41l-.79-.79L15 4.42l4.59 4.59L18 10.6l-.79-.79a.996.996 0 0 0-1.41 0l-2.29 2.29-1.59-1.59 2.29-2.29ZM12 16.59 7.41 12l.17-.17-1.41-1.41-.88.88a.996.996 0 0 0 0 1.41L7.58 15l-5.29 5.29L3.7 21.7l5.29-5.29 2.29 2.29c.2.2.45.29.71.29s.51-.1.71-.29l.88-.88-1.41-1.41-.17.17Z"/></svg>