<svg xmlns="http://www.w3.org/2000/svg" width="24" height="24"><!--Boxicons v3.0 https://boxicons.com | License  https://docs.boxicons.com/free--><path d="M21 7h-1.4L18 5.4V3c0-.55-.45-1-1-1h-1c-1.44 0-2.75.78-3.45 2H9c-3.86 0-7 3.14-7 7 0 .25.02 6.28 2.11 10.45A1 1 0 0 0 5 22h4c.55 0 1-.45 1-1v-3h2v3c0 .55.45 1 1 1h4c.33 0 .65-.17.83-.45 1.54-2.31 2.08-5.11 2.27-6.55h.9c.55 0 1-.45 1-1V8c0-.55-.45-1-1-1m-1 6h-.81c-.53 0-.97.42-1 .95 0 .04-.19 3.38-1.75 6.05h-2.45v-3c0-.55-.45-1-1-1h-4c-.55 0-1 .45-1 1v3H5.63c-1.61-3.73-1.64-8.95-1.64-9 0-2.76 2.24-5 5-5h4.18c.42 0 .8-.27.94-.67A1.99 1.99 0 0 1 15.98 4v1.81c0 .27.11.52.29.71l2.19 2.19c.19.19.44.29.71.29h.81v4Z"/><path d="M16 9a1 1 0 1 0 0 2 1 1 0 1 0 0-2M7 8h6v2H7z"/></svg>