<svg xmlns="http://www.w3.org/2000/svg" width="24" height="24"><!--Boxicons v3.0 https://boxicons.com | License  https://docs.boxicons.com/free--><path d="M3.71 21.71 9 16.42l2.29 2.29c.2.2.45.29.71.29s.51-.1.71-.29l3-3a.996.996 0 0 0 0-1.41l-.79-.79 1.59-1.59.79.79c.39.39 1.02.39 1.41 0l3-3a.996.996 0 0 0 0-1.41l-6-6a.996.996 0 0 0-1.41 0l-3 3a.996.996 0 0 0 0 1.41l.79.79-1.59 1.59-.79-.79a.996.996 0 0 0-1.41 0l-3 3a.996.996 0 0 0 0 1.41L7.59 15 2.3 20.29l1.41 1.41ZM9 10.42l.79.79c.39.39 1.02.39 1.41 0l3-3a.996.996 0 0 0 0-1.41l-.79-.79L15 4.42l4.59 4.59L18 10.6l-.79-.79a.996.996 0 0 0-1.41 0l-3 3a.996.996 0 0 0 0 1.41l.79.79L12 16.6l-4.59-4.59z"/></svg>