<svg xmlns="http://www.w3.org/2000/svg" width="24" height="24"><!--Boxicons v3.0 https://boxicons.com | License  https://docs.boxicons.com/free--><path d="M12 2v2c4.41 0 8 3.59 8 8s-3.59 8-8 8v2c5.51 0 10-4.49 10-10S17.51 2 12 2"/><path d="M16 12 9 8v8zM10.22 4.21l-.44-1.95a9.97 9.97 0 0 0-4.44 2.3l1.33 1.49c1.01-.9 2.24-1.54 3.55-1.84M4.05 12.87l-1.99.21c.18 1.68.79 3.3 1.77 4.68l1.63-1.16a8.04 8.04 0 0 1-1.42-3.74ZM5.3 19.42c1.26 1.13 2.79 1.93 4.43 2.31l.45-1.95c-1.31-.3-2.54-.94-3.55-1.85l-1.34 1.49ZM5.48 7.36 3.85 6.2c-.98 1.38-1.6 2.99-1.79 4.67l1.99.22c.15-1.34.65-2.63 1.43-3.73"/></svg>