<svg xmlns="http://www.w3.org/2000/svg" width="24" height="24"><!--Boxicons v3.0 https://boxicons.com | License  https://docs.boxicons.com/free--><path d="M12 2C6.49 2 2 6.49 2 12c0 3.26 1.58 6.15 4 7.98V20h.03c1.67 1.25 3.73 2 5.97 2s4.31-.75 5.97-2H18v-.02c2.42-1.83 4-4.72 4-7.98 0-5.51-4.49-10-10-10m-.91 9h1.83l2.72 3.81-1.53.77-1.51-1.13a.99.99 0 0 0-1.2 0l-1.51 1.13-1.53-.77L11.08 11ZM8 18.92v-2.05l1.55.78c.34.17.74.13 1.05-.09l1.4-1.05 1.4 1.05c.18.13.39.2.6.2.15 0 .31-.04.45-.11l1.55-.78v2.05c-1.18.68-2.54 1.08-4 1.08s-2.82-.4-4-1.08m10-1.64v-2.27c0-.21-.06-.41-.19-.58l-5-7c-.38-.53-1.25-.53-1.63 0l-5 7c-.12.17-.19.37-.19.58v2.27c-1.24-1.41-2-3.25-2-5.27 0-4.41 3.59-8 8-8s8 3.59 8 8c0 2.02-.76 3.86-2 5.27Z"/></svg>