<svg xmlns="http://www.w3.org/2000/svg" width="24" height="24"><!--Boxicons v3.0 https://boxicons.com | License  https://docs.boxicons.com/free--><path d="M12 9a3 3 0 1 0 0 6 3 3 0 1 0 0-6"/><path d="M21.21 8.11a9.96 9.96 0 0 0-3.62-4.4 9.6 9.6 0 0 0-1.7-.92c-.6-.25-1.24-.45-1.88-.58-1.32-.27-2.71-.27-4.03 0-.64.13-1.27.33-1.88.58a10 10 0 0 0-3.18 2.14c-.17.17-.32.35-.48.52L1.99 3v6h6L5.86 6.87c.15-.18.31-.36.48-.52.36-.36.76-.69 1.18-.98.43-.29.88-.54 1.36-.74s.99-.36 1.5-.47a8 8 0 0 1 4.73.47c.48.2.93.45 1.36.74.42.29.82.62 1.18.98s.69.76.98 1.18c.29.43.54.88.74 1.36s.36.99.47 1.5c.11.53.16 1.07.16 1.61a7.85 7.85 0 0 1-.63 3.11c-.2.48-.45.93-.74 1.36-.28.42-.61.82-.98 1.19-.36.36-.76.69-1.18.98-.43.29-.88.54-1.36.74s-.99.36-1.5.47a8 8 0 0 1-4.73-.47c-.48-.2-.93-.45-1.36-.74-.42-.29-.82-.62-1.18-.98s-.69-.76-.98-1.19a8 8 0 0 1-.74-1.36c-.2-.48-.36-.99-.47-1.5A8 8 0 0 1 3.99 12h-2c0 .68.07 1.35.2 2.01.13.64.33 1.27.58 1.88a9.96 9.96 0 0 0 3.62 4.4c.53.36 1.1.67 1.7.92s1.24.45 1.88.58c.66.13 1.34.2 2.01.2s1.35-.07 2.01-.2c.64-.13 1.27-.33 1.88-.58a9.96 9.96 0 0 0 4.4-3.62c.36-.53.67-1.1.92-1.7s.45-1.24.58-1.88c.13-.66.2-1.34.2-2.01s-.07-1.35-.2-2.01c-.13-.64-.33-1.27-.58-1.88Z"/></svg>