<svg xmlns="http://www.w3.org/2000/svg" width="24" height="24"><!--Boxicons v3.0 https://boxicons.com | License  https://docs.boxicons.com/free--><path d="m20.39 14.04-1.75.97.84 1.51c.09.16.13.33.13.51 0 .17-.05.33-.14.48s-.21.27-.35.36c-.15.09-.32.14-.51.14h-6.6v-2l-4 3 4 3v-2h6.6c.54 0 1.07-.14 1.53-.42.43-.26.8-.62 1.05-1.06.26-.44.4-.93.42-1.44.02-.53-.12-1.07-.38-1.54zM4.89 17.86c-.14-.08-.26-.21-.35-.36a.9.9 0 0 1-.14-.48c0-.18.04-.35.13-.51l3.35-6.03 1.72 1L9 6.52 4.4 8.48l1.74 1-3.36 6.06c-.26.48-.4 1.01-.38 1.54.02.5.16 1 .42 1.44s.62.81 1.05 1.06c.46.27.99.42 1.53.42h1.65v-2H5.4c-.19 0-.36-.05-.51-.14M11.12 4.63c.09-.17.22-.3.38-.39.3-.17.7-.17.99 0 .16.09.29.22.38.39l3.27 5.88-1.74 1 4.6 1.96.6-4.96-1.72 1-3.25-5.85c-.27-.49-.67-.89-1.14-1.16-.9-.51-2.06-.51-2.96 0-.48.27-.87.67-1.14 1.16l-.81 1.46 1.75.97.81-1.46Z"/></svg>