<svg xmlns="http://www.w3.org/2000/svg" width="24" height="24"><!--Boxicons v3.0 https://boxicons.com | License  https://docs.boxicons.com/free--><path d="M14 8h-1V4c0-.39-.23-.75-.59-.91a.98.98 0 0 0-1.07.17l-9 7.99c-.21.19-.34.46-.34.75s.12.56.34.75l9 8c.29.26.72.33 1.07.17.36-.16.59-.52.59-.91v-4h.64c1.83 0 3.54.82 4.69 2.25l1.9 2.37a1 1 0 0 0 .78.38q.165 0 .33-.06c.4-.14.67-.52.67-.94v-4c0-4.41-3.59-8-8-8Zm6 9.15-.12-.15c-1.53-1.91-3.8-3-6.25-3h-2.64v3.77L4.5 12l6.49-5.77V10h3c3.31 0 6 2.69 6 6v1.15Z"/></svg>