<svg xmlns="http://www.w3.org/2000/svg" width="24" height="24"><!--Boxicons v3.0 https://boxicons.com | License  https://docs.boxicons.com/free--><path d="M19 2c-1.65 0-3 1.35-3 3 0 1 .49 1.87 1.24 2.42l-1.92 4.61c-.11-.01-.21-.03-.32-.03-.46 0-.89.11-1.29.3l-2.02-2.02c.19-.39.3-.82.3-1.29 0-1.65-1.35-3-3-3s-3 1.35-3 3c0 .82.33 1.57.87 2.11l-2.04 4.91c-1.57.09-2.83 1.39-2.83 2.98s1.35 3 3 3 3-1.35 3-3c0-1-.49-1.87-1.24-2.42l1.92-4.61c.11.01.21.03.32.03.46 0 .89-.11 1.29-.3l2.02 2.02c-.19.39-.3.82-.3 1.29 0 1.65 1.35 3 3 3s3-1.35 3-3c0-.82-.33-1.57-.87-2.11l2.04-4.91C20.74 7.89 22 6.59 22 5s-1.35-3-3-3M5 20c-.55 0-1-.45-1-1s.45-1 1-1 1 .45 1 1-.45 1-1 1M8 9c0-.55.45-1 1-1s1 .45 1 1-.45 1-1 1-1-.45-1-1m7 7c-.55 0-1-.45-1-1s.45-1 1-1 1 .45 1 1-.45 1-1 1m4-10c-.55 0-1-.45-1-1s.45-1 1-1 1 .45 1 1-.45 1-1 1"/></svg>