<svg xmlns="http://www.w3.org/2000/svg" width="24" height="24"><!--Boxicons v3.0 https://boxicons.com | License  https://docs.boxicons.com/free--><path d="M18.13 17.13c-.15.18-.31.36-.48.52-.73.74-1.59 1.31-2.54 1.71-1.97.83-4.26.83-6.23 0-.95-.4-1.81-.98-2.54-1.72a7.8 7.8 0 0 1-1.71-2.54c-.42-.99-.63-2.03-.63-3.11H2c0 1.35.26 2.66.79 3.89.5 1.19 1.23 2.26 2.14 3.18s1.99 1.64 3.18 2.14c1.23.52 2.54.79 3.89.79s2.66-.26 3.89-.79c1.19-.5 2.26-1.23 3.18-2.14.17-.17.32-.35.48-.52L22 20.99v-6h-6l2.13 2.13Zm.94-12.2a9.9 9.9 0 0 0-3.18-2.14 10.12 10.12 0 0 0-7.79 0c-1.19.5-2.26 1.23-3.18 2.14-.17.17-.32.35-.48.52L1.99 3v6h6L5.86 6.87c.15-.18.31-.36.48-.52.73-.74 1.59-1.31 2.54-1.71 1.97-.83 4.26-.83 6.23 0 .95.4 1.81.98 2.54 1.72.74.73 1.31 1.59 1.71 2.54.42.99.63 2.03.63 3.11h2c0-1.35-.26-2.66-.79-3.89-.5-1.19-1.23-2.26-2.14-3.18Z"/></svg>