<svg xmlns="http://www.w3.org/2000/svg" width="24" height="24"><!--Boxicons v3.0 https://boxicons.com | License  https://docs.boxicons.com/free--><path d="M14.59 6.59c-.78.78-.78 2.05 0 2.83s2.05.78 2.83 0 .78-2.05 0-2.83-2.05-.78-2.83 0M5 16c-2 1-2 5-2 5s3 0 5-2z"/><path d="M21 2h-3.69c-2.4 0-4.66.94-6.36 2.64L8.69 6.9a8.4 8.4 0 0 0-6.24 1.27c-.25.17-.41.44-.44.73s.08.59.29.81l12 12c.2.2.45.29.71.29s.51-.1.71-.29c1.9-1.9 1.6-5.08 1.38-6.38l2.28-2.28c1.7-1.7 2.64-3.96 2.64-6.36V3c0-.55-.45-1-1-1Zm-1 4.69c0 1.87-.73 3.63-2.05 4.95l-2.66 2.66c-.25.25-.35.61-.26.95.19.79.45 2.78-.17 4.2L4.65 9.24c2.11-.89 3.94-.32 4.03-.29.36.12.76.03 1.02-.24l2.66-2.66A6.96 6.96 0 0 1 17.31 4H20z"/></svg>