<svg xmlns="http://www.w3.org/2000/svg" width="24" height="24"><!--Boxicons v3.0 https://boxicons.com | License  https://docs.boxicons.com/free--><path d="M17.5 11h-11a2.5 2.5 0 0 1 0-5H10v2l4-3-4-3v2H6.5C4.02 4 2 6.02 2 8.5S4.02 13 6.5 13h11a2.5 2.5 0 0 1 0 5H7.82A2.99 2.99 0 0 0 5 16c-1.65 0-3 1.35-3 3s1.35 3 3 3c1.3 0 2.4-.84 2.82-2h9.68c2.48 0 4.5-2.02 4.5-4.5S19.98 11 17.5 11M5 20c-.55 0-1-.45-1-1s.45-1 1-1 1 .45 1 1-.45 1-1 1M19 2c-1.65 0-3 1.35-3 3s1.35 3 3 3 3-1.35 3-3-1.35-3-3-3m0 4c-.55 0-1-.45-1-1s.45-1 1-1 1 .45 1 1-.45 1-1 1"/></svg>