<svg xmlns="http://www.w3.org/2000/svg" width="24" height="24"><!--Boxicons v3.0 https://boxicons.com | License  https://docs.boxicons.com/free--><path d="M12 11c.83 0 1.5-.67 1.5-1.5S12.83 8 12 8s-1.5.67-1.5 1.5.67 1.5 1.5 1.5"/><path d="M17 12.37V8.24c0-1.05-.43-2.08-1.17-2.83l-2.77-2.77a1.49 1.49 0 0 0-2.12 0L8.17 5.41C7.43 6.15 7 7.18 7 8.24v4.13c-1.47.77-5 3.1-5 7.63 0 .55.45 1 1 1h18c.55 0 1-.45 1-1 0-4.54-3.53-6.86-5-7.63M9 8.24c0-.53.21-1.04.59-1.41L12 4.42l2.41 2.41c.37.37.59.89.59 1.41V19H9zM7 14.7V19H4.08c.35-2.14 1.8-3.52 2.92-4.3M17 19v-4.3c1.12.77 2.56 2.16 2.92 4.3z"/></svg>