<svg xmlns="http://www.w3.org/2000/svg" width="24" height="24"><!--Boxicons v3.0 https://boxicons.com | License  https://docs.boxicons.com/free--><path d="M12 2C6.58 2 2 6.58 2 12s4.58 10 10 10 10-4.58 10-10S17.42 2 12 2m0 18c-4.34 0-8-3.66-8-8s3.66-8 8-8c1.82 0 3.51.65 4.87 1.71l-1.41 1.41A5.9 5.9 0 0 0 12 6c-1.58 0-3.09.63-4.23 1.77S6 10.41 6 12s.63 3.09 1.77 4.23S10.41 18 12 18s3.09-.63 4.23-1.77l-1.41-1.41c-1.53 1.53-4.1 1.53-5.63 0-.76-.76-1.18-1.76-1.18-2.82s.42-2.05 1.18-2.82c1.28-1.28 3.3-1.47 4.82-.6l-1.49 1.49c-.16-.05-.33-.08-.51-.08-1.08 0-2 .92-2 2s.92 2 2 2 2-.92 2-2c0-.18-.03-.34-.08-.51l4.36-4.36C19.36 8.48 20 10.17 20 11.99c0 4.34-3.66 8-8 8Z"/></svg>