<svg xmlns="http://www.w3.org/2000/svg" width="24" height="24"><!--Boxicons v3.0 https://boxicons.com | License  https://docs.boxicons.com/free--><path d="M16.99 3.34a.996.996 0 0 0-1.36.37l-2.57 4.45C12.72 8.07 12.37 8 12 8s-.72.07-1.06.16L8.37 3.71a.996.996 0 0 0-1.36-.37A10 10 0 0 0 3.34 7C2.46 8.53 2 10.26 2 12.01c0 .55.45 1 1 1h5.14c.18.71.55 1.35 1.06 1.85L6.63 19.3a.993.993 0 0 0 .36 1.36c1.51.88 3.24 1.35 5 1.35s3.49-.47 5-1.35a.99.99 0 0 0 .36-1.36l-2.57-4.44c.51-.5.87-1.14 1.06-1.85h5.14c.55 0 1-.45 1-1 0-1.75-.45-3.48-1.34-5.01a9.9 9.9 0 0 0-3.67-3.66ZM14 12c0 1.1-.9 2-2 2s-2-.9-2-2 .9-2 2-2 2 .9 2 2m-5.86-1H4.06c.13-1.05.47-2.07 1.01-3s1.25-1.74 2.1-2.37L9.2 9.15c-.51.5-.87 1.14-1.06 1.85m6.96 8.37c-1.95.82-4.26.82-6.21 0l2.04-3.53c.34.09.69.16 1.06.16s.72-.07 1.06-.16l2.04 3.53Zm.75-8.37c-.18-.71-.55-1.35-1.06-1.85l2.03-3.52c.84.64 1.56 1.44 2.09 2.37.54.93.88 1.95 1.01 3h-4.08Z"/></svg>