<svg xmlns="http://www.w3.org/2000/svg" width="24" height="24"><!--Boxicons v3.0 https://boxicons.com | License  https://docs.boxicons.com/free--><path d="M18.98 8.68C18.81 4.97 15.75 2 12 2S5.19 4.97 5.02 8.68C2.65 9.8 1 12.21 1 15c0 3.86 3.14 7 7 7 1.49 0 2.86-.47 4-1.26 1.14.79 2.51 1.26 4 1.26 3.86 0 7-3.14 7-7 0-2.79-1.65-5.2-4.02-6.32m-4.23 4.49c-.25-.91-.67-1.75-1.24-2.48.74-.43 1.58-.69 2.49-.69.3 0 .59.04.87.09a5.02 5.02 0 0 1-2.12 3.08M12 17.97a5.1 5.1 0 0 1-.91-2.03c.3.04.6.07.91.07s.61-.03.91-.07c-.14.75-.46 1.44-.91 2.03m-4.87-7.88c.28-.05.57-.09.87-.09.91 0 1.76.26 2.49.69-.57.73-.99 1.56-1.24 2.48a4.98 4.98 0 0 1-2.12-3.08M12 14c-.3 0-.59-.04-.87-.09.16-.69.46-1.33.87-1.88.41.55.72 1.19.87 1.88-.28.05-.57.09-.87.09m0-10c2.44 0 4.47 1.75 4.91 4.07-.3-.04-.6-.07-.91-.07-1.49 0-2.86.47-4 1.26A7 7 0 0 0 8 8c-.31 0-.61.03-.91.07C7.53 5.76 9.56 4 12 4M3 15c0-1.74.9-3.27 2.25-4.17a7 7 0 0 0 3.77 4.49c.07 1.5.61 2.88 1.48 3.98-.74.43-1.58.69-2.49.69-2.76 0-5-2.24-5-5Zm13 5c-.91 0-1.76-.26-2.49-.69a7 7 0 0 0 1.48-3.98c1.83-.87 3.22-2.5 3.77-4.49 1.35.9 2.25 2.43 2.25 4.17 0 2.76-2.24 5-5 5Z"/></svg>