<svg xmlns="http://www.w3.org/2000/svg" width="24" height="24"><!--Boxicons v3.0 https://boxicons.com | License  https://docs.boxicons.com/free--><path d="M19.07 4.93a9.9 9.9 0 0 0-3.18-2.14A9.95 9.95 0 0 0 12 2v2c1.08 0 2.13.21 3.11.63.95.4 1.81.98 2.54 1.71s1.31 1.59 1.72 2.54c.42.99.63 2.03.63 3.11s-.21 2.13-.63 3.11c-.4.95-.98 1.81-1.72 2.54-.17.17-.34.32-.52.48L15 15.99v6h6l-2.45-2.45c.18-.15.36-.31.52-.48.92-.92 1.64-1.99 2.14-3.18.52-1.23.79-2.54.79-3.89s-.26-2.66-.79-3.89a9.9 9.9 0 0 0-2.14-3.18ZM4.93 19.07c.92.92 1.99 1.64 3.18 2.14 1.23.52 2.54.79 3.89.79v-2a7.9 7.9 0 0 1-3.11-.63c-.95-.4-1.81-.98-2.54-1.71s-1.31-1.59-1.72-2.54c-.42-.99-.63-2.03-.63-3.11s.21-2.13.63-3.11c.4-.95.98-1.81 1.72-2.54.17-.17.34-.32.52-.48L9 8.01V2H3l2.45 2.45c-.18.15-.36.31-.52.48-.92.92-1.64 1.99-2.14 3.18C2.27 9.34 2 10.65 2 12s.26 2.66.79 3.89c.5 1.19 1.22 2.26 2.14 3.18"/></svg>