<svg xmlns="http://www.w3.org/2000/svg" width="24" height="24"><!--Boxicons v3.0 https://boxicons.com | License  https://docs.boxicons.com/free--><path d="M20.71 6.04a.99.99 0 0 0-.9.27l-3.18 3.18-2.12-2.12 3.18-3.18a.98.98 0 0 0 .27-.9c-.07-.33-.29-.6-.6-.73A7.47 7.47 0 0 0 9.2 4.19a7.49 7.49 0 0 0-1.86 7.52L2.3 16.75c-.19.19-.29.44-.29.71s.11.52.29.71l3.54 3.54c.19.19.44.29.71.29s.52-.11.71-.29l5.04-5.04c2.64.82 5.53.12 7.52-1.86a7.47 7.47 0 0 0 1.63-8.16c-.13-.31-.4-.53-.73-.6Zm-2.32 7.34a5.51 5.51 0 0 1-5.98 1.2c-.37-.15-.8-.07-1.09.22l-4.78 4.78-2.12-2.12 4.78-4.78c.29-.29.37-.71.22-1.09a5.47 5.47 0 0 1 1.2-5.98 5.5 5.5 0 0 1 4.41-1.59l-2.65 2.65a.996.996 0 0 0 0 1.41l3.54 3.54c.19.19.44.29.71.29s.52-.11.71-.29l2.65-2.65c.16 1.61-.4 3.23-1.59 4.42Z"/></svg>