<svg xmlns="http://www.w3.org/2000/svg" width="24" height="24"><!--Boxicons v3.0 https://boxicons.com | License  https://docs.boxicons.com/free--><path d="M20.25 3.75A5.94 5.94 0 0 0 16.02 2c-1.12 0-2.2.31-3.13.89l-.24-.24a.996.996 0 0 0-1.41 0L9.65 4.24a.996.996 0 0 0 0 1.41l.13.13-4 4-.13-.13a.996.996 0 0 0-1.41 0l-1.59 1.59a.996.996 0 0 0 0 1.41l.24.24c-.58.93-.89 2.01-.89 3.13 0 1.6.62 3.1 1.75 4.23S6.38 22 7.98 22c1.12 0 2.2-.31 3.13-.89l.24.24c.39.39 1.02.39 1.41 0l1.59-1.59a.996.996 0 0 0 0-1.41l-.13-.13 4-4 .13.13c.39.39 1.02.39 1.41 0l1.59-1.59a.996.996 0 0 0 0-1.41l-.24-.24c.58-.93.89-2.01.89-3.13 0-1.6-.62-3.1-1.75-4.23M5.17 18.83C4.42 18.08 4 17.08 4 16.02s.41-2.06 1.17-2.81l8.04-8.04C13.96 4.42 14.96 4 16.02 4s2.06.41 2.81 1.17c.75.75 1.17 1.75 1.17 2.81s-.41 2.06-1.17 2.81l-8.04 8.04c-.75.75-1.75 1.17-2.81 1.17s-2.06-.41-2.81-1.17"/><path d="M14 7.5a.5.5 0 1 0 0 1 .5.5 0 1 0 0-1M16 9.5a.5.5 0 1 0 0 1 .5.5 0 1 0 0-1M15.5 6a.5.5 0 1 0 0 1 .5.5 0 1 0 0-1M17.5 8a.5.5 0 1 0 0 1 .5.5 0 1 0 0-1M9 12.5a.5.5 0 1 0 0 1 .5.5 0 1 0 0-1M11 14.5a.5.5 0 1 0 0 1 .5.5 0 1 0 0-1M7.5 14a.5.5 0 1 0 0 1 .5.5 0 1 0 0-1M9.5 16a.5.5 0 1 0 0 1 .5.5 0 1 0 0-1"/></svg>