<svg xmlns="http://www.w3.org/2000/svg" width="24" height="24"><!--Boxicons v3.0 https://boxicons.com | License  https://docs.boxicons.com/free--><path d="M12 2C6.49 2 2 6.49 2 12s4.49 10 10 10 10-4.49 10-10S17.51 2 12 2m0 18c-4.41 0-8-3.59-8-8s3.59-8 8-8 8 3.59 8 8-3.59 8-8 8" class="b"/><path d="M12 6c-1.6 0-3.11.62-4.24 1.76S6 10.4 6 12s.62 3.11 1.76 4.24C8.89 17.37 10.4 18 12 18s3.11-.62 4.24-1.76C17.37 15.11 18 13.6 18 12s-.62-3.11-1.76-4.24S13.6 6 12 6M9.17 9.17C9.95 8.39 10.97 8 12 8h.1l-4.09 4.09v-.1c0-1.07.42-2.07 1.17-2.83Zm-.48 5.07 5.55-5.55c.21.14.4.3.58.48s.34.38.48.58L9.75 15.3c-.21-.14-.41-.29-.59-.47s-.34-.38-.48-.58Zm6.14.58c-.77.77-1.84 1.14-2.9 1.13l4.06-4.06v.1c0 1.07-.42 2.07-1.17 2.83Z" class="b"/></svg>