<svg xmlns="http://www.w3.org/2000/svg" width="24" height="24"><!--Boxicons v3.0 https://boxicons.com | License  https://docs.boxicons.com/free--><path d="M11 2h2v3h-2zM19 11h3v2h-3zM17 12.76V12c0-2.76-2.24-5-5-5s-5 2.24-5 5H3c-.35 0-.67.18-.85.47s-.2.66-.04.97l4 8a1 1 0 0 0 .89.55h13c.35 0 .67-.18.85-.47s.2-.66.04-.97zM12 9c1.65 0 3 1.35 3 3H9c0-1.65 1.35-3 3-3m-6.38 7-1-2h4.51l1 2zm2 4-1-2h4.51l1 2zm3.75-6h4.01l1 2h-4.01zm3 6-1-2h4.01l1 2zM17.66 7.76l1.06-1.06 1.06-1.06-.71-.71-.71-.71-1.06 1.06-1.06 1.06.71.71zM6.34 7.76l.71-.71.71-.71L6.7 5.28 5.64 4.22l-.71.71-.71.71L5.28 6.7z"/></svg>