<svg xmlns="http://www.w3.org/2000/svg" width="24" height="24"><!--Boxicons v3.0 https://boxicons.com | License  https://docs.boxicons.com/free--><path d="M20.48 10.92c.16-.32.28-.67.32-1.04a3.2 3.2 0 0 0-.92-2.64c-.59-.59-1.39-.89-2.2-.9-.01-.84-.34-1.63-.94-2.23a3.2 3.2 0 0 0-2.64-.92c-.37.04-.71.16-1.03.32-.15-.31-.35-.6-.61-.85a3.2 3.2 0 0 0-3.07-.84A3.18 3.18 0 0 0 7.1 4.03l-2.41 8.2-1.23 1.23C2.52 14.4 2 15.66 2 17s.52 2.59 1.46 3.54S5.72 22 7 22s2.56-.49 3.54-1.46l1.23-1.23 8.2-2.41c1.1-.32 1.93-1.18 2.21-2.29s-.03-2.26-.84-3.07a3.2 3.2 0 0 0-.85-.61Zm-1.67-1.26c-.04.37-.25.7-.56.89l-.55.35c-.12.06-.24.11-.35.18l-7.37 4.64-.14-.14 6.92-6.92c.46-.46 1.26-.46 1.72 0 .26.26.39.63.35 1Zm-4.48-4.48c.37-.04.73.08 1 .35.23.23.36.54.36.86s-.13.63-.36.86l-6.92 6.92-.14-.14 4.64-7.37c.07-.11.12-.23.18-.35l.35-.56c.2-.32.52-.52.89-.56Zm-5.31-.59c.12-.42.44-.73.87-.83.43-.11.85 0 1.16.32.36.36.44.88.24 1.33l-4.48 7.16-.11-.11 2.31-7.87ZM4.87 19.11c-.57-.57-.88-1.32-.88-2.12s.31-1.55.88-2.12 4.24 4.24 4.24 4.24a3 3 0 0 1-4.24 0m15.36-5.01c-.05.2-.24.69-.83.87l-7.87 2.31-.11-.11 7.17-4.48c.45-.19.97-.11 1.33.24.44.44.37.96.32 1.16Z"/></svg>