<svg xmlns="http://www.w3.org/2000/svg" width="24" height="24"><!--Boxicons v3.0 https://boxicons.com | License  https://docs.boxicons.com/free--><path d="M18 15c-1.24 0-1.91.34-2.45.61-.46.23-.79.39-1.56.39s-1.09-.17-1.55-.39c-.54-.27-1.21-.61-2.45-.61s-1.91.34-2.45.61c-.46.23-.79.39-1.55.39s-1.09-.17-1.55-.39C3.9 15.34 3.23 15 1.99 15v2c.76 0 1.09.17 1.55.39.54.27 1.21.61 2.45.61s1.91-.34 2.45-.61c.46-.23.79-.39 1.55-.39s1.09.17 1.55.39c.54.27 1.21.61 2.45.61s1.91-.34 2.45-.61c.46-.23.79-.39 1.56-.39s1.1.17 1.56.39c.54.27 1.21.61 2.45.61v-2c-.77 0-1.1-.17-1.56-.39-.54-.27-1.21-.61-2.45-.61m0 4c-1.24 0-1.91.34-2.45.61-.46.23-.79.39-1.56.39s-1.09-.17-1.55-.39c-.54-.27-1.21-.61-2.45-.61s-1.91.34-2.45.61c-.46.23-.79.39-1.55.39s-1.09-.17-1.55-.39C3.9 19.34 3.23 19 1.99 19v2c.76 0 1.09.17 1.55.39.54.27 1.21.61 2.45.61s1.91-.34 2.45-.61c.46-.23.79-.39 1.55-.39s1.09.17 1.55.39c.54.27 1.21.61 2.45.61s1.91-.34 2.45-.61c.46-.23.79-.39 1.56-.39s1.1.17 1.56.39c.54.27 1.21.61 2.45.61v-2c-.77 0-1.1-.17-1.56-.39-.54-.27-1.21-.61-2.45-.61M17 5c0-1.65-1.35-3-3-3s-3 1.35-3 3v1h2V5c0-.55.45-1 1-1s1 .45 1 1v2h-5V5c0-1.65-1.35-3-3-3S4 3.35 4 5v1h2V5c0-.55.45-1 1-1s1 .45 1 1v2H2v2h6v5h2V9h5v5h2V9h5V7h-5z"/></svg>