<svg xmlns="http://www.w3.org/2000/svg" width="24" height="24"><!--Boxicons v3.0 https://boxicons.com | License  https://docs.boxicons.com/free--><path d="M19 2H5c-1.1 0-2 .9-2 2v16c0 1.1.9 2 2 2h14c1.1 0 2-.9 2-2V4c0-1.1-.9-2-2-2M5 20v-2.5c.38 0 .52.1.82.31.41.29.96.69 1.98.69s1.58-.4 1.98-.69c.3-.21.44-.31.82-.31s.52.1.82.31c.41.29.96.69 1.98.69s1.58-.4 1.98-.69c.3-.22.44-.31.82-.31s.52.1.82.31c.41.29.96.69 1.98.69v-2c-.38 0-.52-.1-.82-.31-.41-.29-.96-.69-1.98-.69s-1.58.4-1.98.69c-.3.22-.44.31-.82.31s-.52-.1-.82-.31c-.41-.29-.96-.69-1.98-.69s-1.58.4-1.98.69c-.3.21-.44.31-.82.31s-.52-.1-.82-.31c-.41-.29-.96-.69-1.98-.69v-2c.38 0 .52.1.82.31.41.29.96.69 1.98.69s1.58-.4 1.98-.69c.3-.21.44-.31.82-.31s.52.1.82.31c.41.29.96.69 1.98.69s1.58-.4 1.98-.69c.3-.22.44-.31.82-.31s.52.1.82.31c.41.29.96.69 1.98.69v-2c-.38 0-.52-.1-.82-.31-.41-.29-.96-.69-1.98-.69s-1.58.4-1.98.69c-.3.22-.44.31-.82.31s-.52-.1-.82-.31c-.41-.29-.96-.69-1.98-.69s-1.58.4-1.98.69c-.3.22-.44.31-.82.31s-.52-.1-.82-.31c-.41-.29-.96-.69-1.98-.69V4h14v16z"/><path d="M8.5 6a1.5 1.5 0 1 0 0 3 1.5 1.5 0 1 0 0-3"/></svg>