<svg xmlns="http://www.w3.org/2000/svg" width="24" height="24"><!--Boxicons v3.0 https://boxicons.com | License  https://docs.boxicons.com/free--><path d="M6.5 14a1.5 1.5 0 1 0 0 3 1.5 1.5 0 1 0 0-3M17.5 14a1.5 1.5 0 1 0 0 3 1.5 1.5 0 1 0 0-3"/><path d="M21 5c0-1.65-1.35-3-3-3H6C4.35 2 3 3.35 3 5v2H2v4h1v.7l-.16.24A4.96 4.96 0 0 0 2 14.71V18c0 .74.41 1.38 1 1.72V21c0 .55.45 1 1 1h1c.55 0 1-.45 1-1v-1h12v1c0 .55.45 1 1 1h1c.55 0 1-.45 1-1v-1.28A2 2 0 0 0 22 18v-3.29c0-.99-.29-1.95-.84-2.77L21 11.7V11h1V7h-1zM5 8h6v3H5zm8 0h6v3h-6zM6 4h12c.55 0 1 .45 1 1v1H5V5c0-.55.45-1 1-1M4 18v-3.29c0-.59.17-1.17.5-1.66l.03-.05h14.93l.03.05c.33.49.5 1.07.5 1.66V18h-16Z"/></svg>