<svg xmlns="http://www.w3.org/2000/svg" width="24" height="24"><!--Boxicons v3.0 https://boxicons.com | License  https://docs.boxicons.com/free--><path d="M18 6.79V3c0-.55-.45-1-1-1H7c-.55 0-1 .45-1 1v3.79l-3.91 8.73c-.13.28-.12.61.03.88 1.82 3.41 5.7 5.61 9.88 5.61s8.06-2.2 9.88-5.61c.15-.27.16-.6.03-.88zM8 4h8v2H8zm8.34 14.99-1.36-8.15-1.97.33 1.42 8.53c-.78.2-1.6.3-2.44.3s-1.65-.11-2.44-.3l1.42-8.53L9 10.84l-1.36 8.15c-1.46-.72-2.71-1.79-3.53-3.12l3.53-7.86h8.71l3.53 7.86c-.83 1.33-2.07 2.4-3.53 3.12Z"/></svg>