<svg xmlns="http://www.w3.org/2000/svg" width="24" height="24"><!--Boxicons v3.0 https://boxicons.com | License  https://docs.boxicons.com/free--><path d="M7 16h1v1h2v-1h5c.55 0 1-.45 1-1v-5h1V8h-1V7h-2v1H9c-.55 0-1 .45-1 1v5H7zm3-3v-3h4v4h-4zm-7 3h2v-2H4v-1H2v2c0 .55.45 1 1 1M2 7h2v4H2zm2-3h1V2H3c-.55 0-1 .45-1 1v2h2zm3-2h4v2H7zm9 3V3c0-.55-.45-1-1-1h-2v2h1v1zm4 15h-1v2h2c.55 0 1-.45 1-1v-2h-2zm-7 0h4v2h-4zm-5-1v2c0 .55.45 1 1 1h2v-2h-1v-1zM21 8h-2v2h1v1h2V9c0-.55-.45-1-1-1m-1 5h2v4h-2z"/></svg>