<svg xmlns="http://www.w3.org/2000/svg" width="24" height="24"><!--Boxicons v3.0 https://boxicons.com | License  https://docs.boxicons.com/free--><path d="M12 2C6.49 2 2 6.49 2 12s4.49 10 10 10 10-4.49 10-10S17.51 2 12 2m0 18c-4.41 0-8-3.59-8-8s3.59-8 8-8 8 3.59 8 8-3.59 8-8 8" class="b"/><path d="m16.6 11.39-2.77-1.23-1.23-2.77a.68.68 0 0 0-.6-.4c-.27-.02-.5.15-.61.39l-1.23 2.67-2.78 1.34c-.23.11-.38.35-.38.61s.16.49.4.6l2.77 1.23 1.23 2.77a.663.663 0 0 0 1.22 0l1.23-2.77 2.77-1.23c.24-.11.4-.35.4-.61s-.16-.5-.4-.61Z" class="b"/></svg>