<svg xmlns="http://www.w3.org/2000/svg" width="24" height="24"><!--Boxicons v3.0 https://boxicons.com | License  https://docs.boxicons.com/free--><path d="M3 11h2v2H3zM3 15h2v2H3zM3 19h2v2H3zM7 3h2v2H7zM7 19h2v2H7zM11 3h2v2h-2zM11 19h2v2h-2zM15 3h2v2h-2zM19 3h2v2h-2zM19 7h2v2h-2zM19 11h2v2h-2zM19 15h2v2h-2zM3 9h1.76L3 7.24zM7 11.24V17h5.76l-2-2H9v-1.76zM15 21h1.76L15 19.24z"/><path d="M21 19h-.59L17 15.59V7H8.41L5 3.59V3h-.59L2.7 1.29 1.29 2.7 3 4.41l.59.59L7 8.41l2 2L13.59 15l2 2L19 20.41l.59.59 1.71 1.71 1.41-1.41L21 19.59zM15 9v4.59L10.41 9z"/></svg>