<svg xmlns="http://www.w3.org/2000/svg" width="24" height="24"><!--Boxicons v3.0 https://boxicons.com | License  https://docs.boxicons.com/free--><path d="m22 5-5-2v4.42c-1.34-.24-2.75-.36-4-.4V5.2L16 4l-5-2v5.02c-1.25.04-2.66.16-4 .4V6.2L10 5 5 3v4.89c-1.73.54-3 1.37-3 2.61v8C2 21.26 8.29 22 12 22s10-.74 10-3.5v-8c0-1.24-1.27-2.07-3-2.61V6.2zM10 19.93V18h4v1.93c-.62.04-1.28.07-2 .07s-1.38-.03-2-.07m6-.21V17c0-.55-.45-1-1-1H9c-.55 0-1 .45-1 1v2.72c-2.4-.35-3.76-.96-4-1.29v-5.69c2.16.95 5.61 1.26 8 1.26s5.84-.31 8-1.26v5.69c-.24.33-1.6.94-4 1.29M12 12c-4.75 0-7.4-.99-7.94-1.5C4.6 9.99 7.25 9 12 9s7.4.99 7.94 1.5c-.54.51-3.19 1.5-7.94 1.5"/></svg>