<svg xmlns="http://www.w3.org/2000/svg" width="24" height="24"><!--Boxicons v3.0 https://boxicons.com | License  https://docs.boxicons.com/free--><path d="M17 13c-1.1 0-2-.9-2-2v-.36c0-.47.15-.91.43-1.23a4.49 4.49 0 0 0 .96-3.88c-.35-1.66-1.7-3.03-3.35-3.4-1.37-.31-2.77 0-3.85.86s-1.7 2.14-1.7 3.52c0 1.08.39 2.12 1.1 2.94.26.3.4.73.4 1.2v.36c0 1.1-.9 2-2 2-2.21 0-4 1.79-4 4v1c0 .55.45 1 1 1h16c.55 0 1-.45 1-1v-1c0-2.21-1.79-4-4-4ZM5 17c0-1.1.9-2 2-2 2.21 0 4-1.79 4-4v-.36c0-.96-.32-1.85-.89-2.51a2.503 2.503 0 0 1 .33-3.59c.61-.49 1.38-.65 2.16-.48.9.21 1.64.96 1.84 1.87.17.8-.02 1.57-.53 2.17-.59.69-.91 1.59-.91 2.53v.36c0 2.21 1.79 4 4 4 1.1 0 2 .9 2 2H5ZM3 20h18v2H3z"/></svg>