<svg xmlns="http://www.w3.org/2000/svg" width="24" height="24"><!--Boxicons v3.0 https://boxicons.com | License  https://docs.boxicons.com/free--><path d="M17.93 16.91c.08-.62.82-2.06 1.37-3.14.54-1.06 1.15-2.26 1.63-3.46.25-.64.85-2.14-.11-2.94-1.15-.95-2.97.2-6.27 2.29-1.38.87-2.92 1.85-4.29 2.54 1.24-1.67 2.55-3.52 2.28-5.09a2.26 2.26 0 0 0-.98-1.5c-.65-.44-1.43-.58-2.26-.4-3.35.69-7.21 6.58-7.64 7.25l1.68 1.08c1.45-2.25 4.45-5.97 6.36-6.37.39-.08.6.01.74.11.1.07.12.12.13.17.14.83-1.33 2.8-2.13 3.85-1.13 1.51-1.82 2.43-1.14 3.27.7.87 2.04.27 3.11-.22 1.66-.75 3.54-1.95 5.21-3 1.17-.74 2.66-1.69 3.57-2.1-.03.09-.07.2-.12.32-.44 1.11-1.01 2.22-1.55 3.29-1.27 2.49-2.19 4.28-1.16 5.43.37.41.88.62 1.6.62.91 0 2.15-.32 3.89-.98l-.71-1.87c-2.05.77-2.9.87-3.22.85Z"/></svg>