<svg xmlns="http://www.w3.org/2000/svg" width="24" height="24"><!--Boxicons v3.0 https://boxicons.com | License  https://docs.boxicons.com/free--><path d="M15 6H9C7.35 6 6 7.35 6 9v8c0 1.1.9 2 2 2l-2 3h2.25L9 21h6l.75 1H18l-2-3c1.1 0 2-.9 2-2V9c0-1.65-1.35-3-3-3M9 8h6c.55 0 1 .45 1 1v3H8V9c0-.55.45-1 1-1m-1 7c0-.55.45-1 1-1s1 .45 1 1-.45 1-1 1-1-.45-1-1m7 1c-.55 0-1-.45-1-1s.45-1 1-1 1 .45 1 1-.45 1-1 1"/><path d="M15 2H9C5.14 2 2 5.14 2 9v13h2V9c0-2.76 2.24-5 5-5h6c2.76 0 5 2.24 5 5v13h2V9c0-3.86-3.14-7-7-7"/></svg>