<svg xmlns="http://www.w3.org/2000/svg" width="24" height="24"><!--Boxicons v3.0 https://boxicons.com | License  https://docs.boxicons.com/free--><path d="M19 10.5C19 5.81 15.19 2 10.5 2S2 5.81 2 10.5 5.81 19 10.5 19c1.98 0 3.81-.69 5.25-1.83L20 21.42l1.41-1.41-4.25-4.25a8.47 8.47 0 0 0 1.83-5.25Zm-15 0C4 6.92 6.92 4 10.5 4S17 6.92 17 10.5 14.08 17 10.5 17 4 14.08 4 10.5"/><path d="m12.79 6.79-2.29 2.3-2.29-2.3-1.42 1.42 2.3 2.29-2.3 2.29 1.42 1.42 2.29-2.3 2.29 2.3 1.42-1.42-2.3-2.29 2.3-2.29z"/></svg>