<svg xmlns="http://www.w3.org/2000/svg" width="24" height="24"><!--Boxicons v3.0 https://boxicons.com | License  https://docs.boxicons.com/free--><path d="M12 2C6.49 2 2 6.49 2 12s4.49 10 10 10 10-4.49 10-10S17.51 2 12 2m7.99 9.84c-.57.47-3.35 1.28-7.99 1.28-.38 0-.74 0-1.1-.02-.01-.36-.02-.72-.02-1.1 0-4.64.81-7.43 1.28-7.99 4.28.09 7.74 3.55 7.83 7.83M9.85 4.31c-.9 2.59-.97 6.6-.97 7.7 0 .22 0 .56.01.98-2.78-.25-4.46-.79-4.89-1.15.07-3.59 2.53-6.61 5.85-7.53M4.3 14.16c1.39.48 3.17.73 4.7.85.12 1.54.37 3.32.85 4.7a8.02 8.02 0 0 1-5.55-5.55m7.86 5.85c-.35-.43-.9-2.11-1.15-4.89.42.01.76.01.98.01 1.1 0 5.1-.07 7.7-.97-.93 3.32-3.94 5.77-7.53 5.85"/></svg>