<svg xmlns="http://www.w3.org/2000/svg" width="24" height="24"><!--Boxicons v3.0 https://boxicons.com | License  https://docs.boxicons.com/free--><path d="M21.56 5.17a1 1 0 0 0-.93-.1c-4.18 1.69-7.7-2.53-7.85-2.7-.38-.47-1.17-.47-1.55 0-.04.04-3.64 4.4-7.85 2.7a.99.99 0 0 0-.93.1c-.28.19-.44.49-.44.83 0 .52.05 12.76 9.69 15.95.1.03.21.05.31.05s.21-.02.31-.05c9.58-3.17 9.69-15.42 9.69-15.94 0-.34-.17-.65-.44-.84ZM12 19.94c-6.25-2.29-7.62-9.55-7.92-12.58 3.61.68 6.57-1.6 7.92-2.9 1.35 1.3 4.31 3.59 7.93 2.9-.28 3.04-1.6 10.27-7.93 12.59Z"/></svg>