<svg xmlns="http://www.w3.org/2000/svg" width="24" height="24"><!--Boxicons v3.0 https://boxicons.com | License  https://docs.boxicons.com/free--><path d="M19 3H5c-1.1 0-2 .9-2 2v14c0 1.1.9 2 2 2h14c1.1 0 2-.9 2-2V5c0-1.1-.9-2-2-2M5 19V5h14v14z" class="b"/><path d="m16.6 11.39-2.77-1.23-1.23-2.77a.68.68 0 0 0-.6-.4c-.27-.02-.5.15-.61.39l-1.23 2.67-2.78 1.34c-.23.11-.38.35-.38.61s.16.49.4.6l2.77 1.23 1.23 2.77a.663.663 0 0 0 1.22 0l1.23-2.77 2.77-1.23c.24-.11.4-.35.4-.61s-.16-.5-.4-.61Z" class="b"/></svg>