<svg xmlns="http://www.w3.org/2000/svg" width="24" height="24"><!--Boxicons v3.0 https://boxicons.com | License  https://docs.boxicons.com/free--><path d="M16.68 7.32C15.73 4.2 12.81 2 9.5 2 5.36 2 2 5.36 2 9.5c0 3.3 2.2 6.23 5.32 7.18C8.27 19.8 11.19 22 14.5 22c4.14 0 7.5-3.36 7.5-7.5 0-3.3-2.2-6.22-5.32-7.18M4 9.5C4 6.47 6.47 4 9.5 4c2.09 0 3.97 1.2 4.9 3-.11 0-.22.01-.34.02-.13 0-.25.01-.37.02-.13.01-.25.04-.38.06-.12.02-.24.03-.35.06-.13.03-.25.06-.38.1-.11.03-.22.05-.33.09-.13.04-.25.09-.37.14-.1.04-.21.07-.31.12-.13.05-.25.12-.37.18-.09.05-.19.09-.28.14-.13.07-.25.15-.37.23l-.24.15c-.13.09-.26.19-.39.29-.06.05-.13.09-.19.14-.37.3-.71.64-1.01 1.01-.04.05-.08.11-.12.17-.1.13-.21.27-.31.41-.05.07-.09.15-.14.22l-.24.39c-.05.09-.09.18-.13.26-.06.13-.13.25-.19.39-.04.1-.07.19-.11.29-.05.13-.1.26-.14.39-.03.1-.05.21-.08.31-.04.13-.08.27-.1.4-.02.11-.03.21-.05.32-.02.14-.05.27-.06.42-.01.11-.01.22-.02.34 0 .12-.02.25-.02.37-1.8-.93-3-2.81-3-4.9ZM14.5 20c-2.58 0-4.84-1.83-5.38-4.34a5.7 5.7 0 0 1-.09-1.76c0-.05.02-.1.02-.15.02-.15.05-.3.08-.45 0-.04.02-.09.03-.13.04-.16.08-.31.14-.46 0-.02.02-.05.03-.07a5.56 5.56 0 0 1 5.66-3.61h.02c.21.02.42.05.64.09A5.53 5.53 0 0 1 20 14.5c0 3.03-2.47 5.5-5.5 5.5"/></svg>