<svg xmlns="http://www.w3.org/2000/svg" width="24" height="24"><!--Boxicons v3.0 https://boxicons.com | License  https://docs.boxicons.com/free--><path d="M3.58 4.89a7.44 7.44 0 0 0-1.57 4.26l2 .09a5.45 5.45 0 0 1 1.15-3.12zM5.64 15.93l1.03-1.71a5.46 5.46 0 0 1-2.2-2.5l-1.83.81a7.6 7.6 0 0 0 3 3.41ZM12.31 14.23c-.78.46-1.67.73-2.58.76H9.5c-.14 0-.29 0-.43-.01l-.16 1.99c.19.02.39.02.59.02h.32a7.5 7.5 0 0 0 3.52-1.04l-1.02-1.72ZM9.27 4h.23c.31 0 .61.02.91.07l.33-1.97c-.51-.09-1.04-.12-1.56-.1-1.03.04-2.02.29-2.94.73l.87 1.8c.68-.33 1.4-.5 2.16-.54ZM17 9.5v-.32l-2 .08v.23c0 1.06-.3 2.09-.87 2.98l1.68 1.09a7.5 7.5 0 0 0 1.2-4.06ZM18.83 20.63 17.67 19c-.74.52-1.61.86-2.51.97-.22.03-.44.04-.66.04v2c.3 0 .6-.02.91-.06 1.23-.15 2.42-.61 3.42-1.32M19.96 13.84a5.517 5.517 0 0 1-.62 3.27l1.76.95c.59-1.09.9-2.32.9-3.55 0-.3-.02-.61-.06-.91l-1.99.24ZM21.39 11.54a7.4 7.4 0 0 0-2.97-3.43l-1.05 1.71c.98.6 1.73 1.47 2.18 2.52l1.84-.79ZM9 14.68v-.19c0-1.07.31-2.12.9-3.02l-1.67-1.1a7.46 7.46 0 0 0-1.24 4.12v.25l2-.07ZM7.9 18.06a7.54 7.54 0 0 0 3.26 3.16l.89-1.79a5.54 5.54 0 0 1-2.4-2.32l-1.76.95ZM14.98 9.02l.13-1.42 1.49-.51a7.5 7.5 0 0 0-2.69-3.66l-1.18 1.62c.71.52 1.27 1.18 1.66 1.95-.26 0-.53.02-.8.06-1.02.12-1.99.45-2.87.96l1.01 1.73c.65-.38 1.35-.61 2.1-.7.39-.05.77-.05 1.15-.02Z"/></svg>