<svg xmlns="http://www.w3.org/2000/svg" width="24" height="24"><!--Boxicons v3.0 https://boxicons.com | License  https://docs.boxicons.com/free--><path d="M12 2C6.49 2 2 6.49 2 12s4.49 10 10 10 10-4.49 10-10S17.51 2 12 2m3.58 2.85c-.1.02-.19.02-.29.04-.46.09-.92.24-1.36.42-.43.18-.84.41-1.23.67s-.75.56-1.07.89c-.33.33-.63.69-.88 1.07-.26.39-.49.8-.67 1.23-.19.44-.33.9-.42 1.36-.1.48-.15.97-.15 1.46 0 .11.02.21.03.32-.05-.04-.11-.07-.16-.11a6.35 6.35 0 0 1-1.91-3.01A6 6 0 0 1 7.25 8c-.04-.41-.03-.82.02-1.23.05-.42.14-.83.27-1.24.03-.08.06-.16.09-.23a7.96 7.96 0 0 1 7.97-.47ZM6.31 6.38c-.02.1-.04.19-.05.29-.05.47-.06.95-.02 1.43.04.47.13.93.26 1.38a7.2 7.2 0 0 0 1.26 2.46q.435.555.96 1.02c.36.31.75.59 1.16.82.36.2.74.37 1.13.51.01 0 .03.01.04.02.06.02.11.05.17.07.1.02.2.06.3.07-.05.03-.09.08-.14.11-.34.21-.71.38-1.09.52a6 6 0 0 1-1.16.3c-.4.06-.8.09-1.2.07a6.2 6.2 0 0 1-3.45-1.2c-.07-.05-.13-.12-.2-.18a8 8 0 0 1-.29-2.09c0-2.19.88-4.17 2.31-5.61ZM4.9 15.67c.09.04.17.09.26.13.43.2.89.35 1.35.46s.92.17 1.39.18h.25a7.2 7.2 0 0 0 2.49-.44c.44-.16.87-.36 1.26-.6.41-.24.79-.53 1.14-.85.36-.33.69-.7.98-1.09.07-.09.12-.19.17-.29.02.06.04.13.06.19.09.39.14.79.16 1.2.01.4-.01.8-.07 1.2s-.16.79-.3 1.16c-.14.38-.31.75-.52 1.09-.21.35-.46.68-.73.98-.28.31-.6.6-.94.84-.07.05-.14.09-.2.13a7.99 7.99 0 0 1-6.72-4.3Zm8.4 4.21c.07-.07.14-.13.21-.2.32-.35.61-.74.85-1.14s.44-.82.6-1.27c.16-.43.27-.89.35-1.35.07-.46.1-.93.09-1.39a8 8 0 0 0-.18-1.39c-.11-.46-.26-.92-.46-1.35-.18-.41-.41-.8-.67-1.16-.01-.02-.02-.04-.03-.05-.01-.02-.02-.03-.03-.05-.06-.08-.13-.17-.21-.25h.19a6.36 6.36 0 0 1 3.32 1.3c.32.25.61.53.88.83.27.31.51.65.71 1 .21.37.38.75.51 1.16.03.08.04.16.06.24-1 2.63-3.33 4.59-6.17 5.06Zm6.59-6.69a3 3 0 0 0-.13-.26c-.23-.41-.51-.8-.82-1.17-.31-.35-.65-.68-1.02-.96q-.555-.435-1.17-.75c-.41-.21-.85-.38-1.29-.51-.45-.13-.91-.21-1.38-.25s-.95-.03-1.43.02-.97.16-1.43.31c-.11.05-.21.08-.31.13.02-.06.04-.12.07-.19.16-.37.35-.73.58-1.06.22-.33.48-.64.76-.93.28-.28.59-.54.93-.76a6.1 6.1 0 0 1 2.23-.94c.49-.1 1-.13 1.51-.11 1.83 1.47 3 3.72 3 6.24 0 .41-.04.8-.1 1.19"/></svg>