<svg xmlns="http://www.w3.org/2000/svg" width="24" height="24"><!--Boxicons v3.0 https://boxicons.com | License  https://docs.boxicons.com/free--><path d="M7.32 16.68C8.27 19.8 11.19 22 14.5 22c4.14 0 7.5-3.36 7.5-7.5 0-3.31-2.2-6.23-5.32-7.18C15.73 4.2 12.81 2 9.5 2 5.36 2 2 5.36 2 9.5c0 3.31 2.2 6.23 5.32 7.18M9.5 4a5.53 5.53 0 0 1 5.38 4.35l.13.64.64.13A5.53 5.53 0 0 1 20 14.5c0 3.03-2.47 5.5-5.5 5.5a5.53 5.53 0 0 1-5.38-4.35l-.13-.64-.64-.13A5.53 5.53 0 0 1 4 9.5C4 6.47 6.47 4 9.5 4"/></svg>