<svg xmlns="http://www.w3.org/2000/svg" width="24" height="24"><!--Boxicons v3.0 https://boxicons.com | License  https://docs.boxicons.com/free--><path d="M8.5 8a1.5 1.5 0 1 0 0 3 1.5 1.5 0 1 0 0-3M15.5 11c.83 0 1.5-.67 1.5-1.5S16.33 8 15.5 8 14 8.67 14 9.5s.67 1.5 1.5 1.5M8.64 15.97c.32.21.66.4 1.02.55s.74.27 1.13.35a6.1 6.1 0 0 0 2.42 0c.38-.08.76-.2 1.13-.35.36-.15.7-.34 1.02-.55s.62-.46.89-.73.52-.57.73-.89l-1.66-1.12c-.14.21-.31.41-.49.59a3.94 3.94 0 0 1-2.02 1.09 4.053 4.053 0 0 1-2.37-.23 3.935 3.935 0 0 1-1.27-.86c-.18-.18-.34-.38-.49-.59l-1.66 1.12c.22.32.46.62.73.88.27.27.57.52.89.73ZM5 5h4V3H5c-1.1 0-2 .9-2 2v4h2zM5 21h4v-2H5v-4H3v4c0 1.1.9 2 2 2M21 15h-2v4h-4v2h4c1.1 0 2-.9 2-2zM21 5c0-1.1-.9-2-2-2h-4v2h4v4h2z"/></svg>