<svg xmlns="http://www.w3.org/2000/svg" width="24" height="24"><!--Boxicons v3.0 https://boxicons.com | License  https://docs.boxicons.com/free--><path d="M7 11h10c.37 0 .72-.21.89-.54s.14-.73-.08-1.04l-5-7c-.38-.53-1.25-.53-1.63 0l-5 7A.997.997 0 0 0 6.99 11Zm5-6.28L15.06 9H8.95l3.06-4.28ZM17.5 13c-2.48 0-4.5 2.02-4.5 4.5s2.02 4.5 4.5 4.5 4.5-2.02 4.5-4.5-2.02-4.5-4.5-4.5m0 7a2.5 2.5 0 0 1 0-5 2.5 2.5 0 0 1 0 5M3 22h7c.55 0 1-.45 1-1v-7c0-.55-.45-1-1-1H3c-.55 0-1 .45-1 1v7c0 .55.45 1 1 1m1-7h5v5H4z"/></svg>