<svg xmlns="http://www.w3.org/2000/svg" width="24" height="24"><!--Boxicons v3.0 https://boxicons.com | License  https://docs.boxicons.com/free--><path d="M19.1 2.8c-.38-.5-.97-.8-1.6-.8h-11c-.63 0-1.22.3-1.6.8L2.2 6.4c-.13.17-.2.38-.2.6v1c0 1.04.41 1.98 1.06 2.69-.03.1-.06.2-.06.31v9c0 1.1.9 2 2 2h14c1.1 0 2-.9 2-2v-9c0-.11-.03-.21-.06-.31C21.59 9.98 22 9.04 22 8V7c0-.22-.07-.43-.2-.6zm.9 4.53V8c0 1.1-.9 2-2 2s-2-.9-2-2V7q0-.12-.03-.24L15.28 4h2.22zM10.78 4h2.44L14 7.12V8c0 1.1-.9 2-2 2s-2-.9-2-2v-.88zM4 7.33 6.5 4h2.22l-.69 2.76Q8 6.88 8 7v1c0 1.1-.9 2-2 2s-2-.9-2-2zM10 20v-4h4v4zm6 0v-4c0-1.1-.9-2-2-2h-4c-1.1 0-2 .9-2 2v4H5v-8.14c.32.08.65.14 1 .14 1.2 0 2.27-.54 3-1.38.73.84 1.8 1.38 3 1.38s2.27-.54 3-1.38c.73.84 1.8 1.38 3 1.38.35 0 .68-.06 1-.14V20z"/></svg>