<svg xmlns="http://www.w3.org/2000/svg" width="24" height="24"><!--Boxicons v3.0 https://boxicons.com | License  https://docs.boxicons.com/free--><path d="M21.02 3.17c-.24-.04-5.8-.97-8.81 2.04-.67.67-1.14 1.47-1.47 2.3-.17-.24-.35-.47-.56-.69C7.7 4.34 3.15 5.1 2.95 5.13c-.42.07-.74.4-.81.81-.03.19-.79 4.75 1.69 7.23 1.52 1.52 3.82 1.82 5.41 1.82.28 0 .53 0 .76-.02v6.02h2v-6.05c.34.03.75.05 1.21.05 1.95 0 4.74-.37 6.58-2.21 3.01-3.01 2.08-8.58 2.04-8.81a.99.99 0 0 0-.81-.81ZM9.97 12.98c-1.17.08-3.47.05-4.73-1.21-1.27-1.27-1.29-3.56-1.21-4.74 1.17-.08 3.47-.05 4.73 1.21 1.27 1.27 1.29 3.56 1.21 4.74m8.41-1.59c-1.73 1.73-4.9 1.69-6.33 1.57-.12-1.43-.16-4.59 1.57-6.33 1.73-1.73 4.9-1.69 6.33-1.57.12 1.43.16 4.59-1.57 6.33"/></svg>