<svg xmlns="http://www.w3.org/2000/svg" width="24" height="24"><!--Boxicons v3.0 https://boxicons.com | License  https://docs.boxicons.com/free--><path d="M19 9.09V6c0-.55-.45-1-1-1h-3.09L12.7 2.79a.996.996 0 0 0-1.41 0L9.08 5H5.99c-.55 0-1 .45-1 1v3.09L2.78 11.3a.996.996 0 0 0 0 1.41l2.21 2.21v3.09c0 .55.45 1 1 1h3.09l2.21 2.21c.2.2.45.29.71.29s.51-.1.71-.29l2.21-2.21h3.09c.55 0 1-.45 1-1v-3.09l2.21-2.21a.996.996 0 0 0 0-1.41l-2.21-2.21Zm-1.71 4.71a1 1 0 0 0-.29.71v2.5h-2.5c-.27 0-.52.11-.71.29L12 19.09l-1.79-1.79a1 1 0 0 0-.71-.29H7v-2.5c0-.27-.11-.52-.29-.71l-1.79-1.79 1.79-1.79A1 1 0 0 0 7 9.51v-2.5h2.5c.27 0 .52-.11.71-.29L12 4.93l1.79 1.79c.19.19.44.29.71.29H17v2.5c0 .27.11.52.29.71l1.79 1.79z"/></svg>