<svg xmlns="http://www.w3.org/2000/svg" width="24" height="24"><!--Boxicons v3.0 https://boxicons.com | License  https://docs.boxicons.com/free--><path d="M21.88 10.48c.18-.32.16-.71-.04-1.02l-4.5-7c-.37-.57-1.31-.57-1.68 0l-4.5 7c-.2.31-.21.7-.04 1.02.18.32.51.52.88.52h9c.37 0 .7-.2.88-.52M13.83 9l2.67-4.15L19.17 9zM17.5 13c-2.48 0-4.5 2.02-4.5 4.5s2.02 4.5 4.5 4.5 4.5-2.02 4.5-4.5-2.02-4.5-4.5-4.5m0 7a2.5 2.5 0 0 1 0-5 2.5 2.5 0 0 1 0 5M10 13H3c-.55 0-1 .45-1 1v7c0 .55.45 1 1 1h7c.55 0 1-.45 1-1v-7c0-.55-.45-1-1-1m-1 7H4v-5h5z"/></svg>