<svg xmlns="http://www.w3.org/2000/svg" width="24" height="24"><!--Boxicons v3.0 https://boxicons.com | License  https://docs.boxicons.com/free--><path d="m4.83 12.49 2.04 1.83-.83 2.9-1 3.5c-.12.4.03.84.37 1.08.34.25.8.26 1.14.02l3-2L12 18.19l2.45 1.63 3 2a.99.99 0 0 0 1.14-.02c.34-.25.49-.68.37-1.08l-1-3.5-.83-2.9 2.04-1.83 2.5-2.25c.3-.27.41-.69.28-1.06-.13-.38-.47-.64-.87-.68l-3.15-.25-2.56-.2-2.47-5.46a.998.998 0 0 0-1.82 0L8.61 8.05l-2.56.2-3.15.25c-.4.03-.74.3-.87.68s-.02.8.28 1.06l2.5 2.25Zm1.39-2.25 2.52-.2.62-.05.59-.05.84-1.86 1.2-2.66 1.2 2.66.84 1.86.59.05.62.05 2.52.2.83.07-.77.69-2.5 2.25-.46.42.17.6 1.25 4.38-3.74-2.49-.55-.37-.55.37-3.74 2.49 1.25-4.38.17-.6-.46-.42L6.16 11l-.77-.69z"/></svg>