<svg xmlns="http://www.w3.org/2000/svg" width="24" height="24"><!--Boxicons v3.0 https://boxicons.com | License  https://docs.boxicons.com/free--><path d="m21.45 11.11-3-1.5-2.7-1.35-1.35-2.7-1.5-3c-.34-.68-1.45-.68-1.79 0l-1.5 3-1.35 2.7-2.7 1.35-3 1.5c-.34.17-.55.52-.55.89s.21.72.55.89l3 1.5 2.7 1.35 1.35 2.7 1.5 3c.17.34.52.55.89.55s.73-.21.89-.55l1.5-3 1.35-2.7 2.7-1.35 3-1.5c.34-.17.55-.52.55-.89s-.21-.72-.55-.89Zm-3.89 1.5-.84.42-2.16 1.08-.3.15-.15.3L12 18.77l-2.11-4.21-.15-.3-.3-.15-2.16-1.08-.84-.42L5.23 12l1.21-.61.84-.42 2.16-1.08.3-.15.15-.3L12 5.23l2.11 4.21.15.3.3.15 2.16 1.08.84.42 1.21.61zM19.5 1.5l-.94 2.06-2.06.94 2.06.94.94 2.06.94-2.06 2.06-.94-2.06-.94z"/></svg>