<svg xmlns="http://www.w3.org/2000/svg" width="24" height="24"><!--Boxicons v3.0 https://boxicons.com | License  https://docs.boxicons.com/free--><path d="m20.42 6.11-7.97-4c-.28-.14-.62-.14-.9 0l-7.97 4c-.31.15-.51.45-.55.79-.01.11-.96 10.77 8.55 15.01a.98.98 0 0 0 .82 0c9.51-4.25 8.57-14.9 8.55-15.01a.98.98 0 0 0-.55-.79ZM18.67 11H13V4.62l6 3.01c.01.67-.03 1.9-.33 3.37M5 7.63l6-3.01V11H5.3c-.29-1.46-.32-2.69-.3-3.37M5.85 13H11v6.35c-2.84-1.7-4.35-4.11-5.15-6.35M13 19.34V13h5.11c-.8 2.24-2.3 4.65-5.11 6.34"/></svg>