<svg xmlns="http://www.w3.org/2000/svg" width="24" height="24"><!--Boxicons v3.0 https://boxicons.com | License  https://docs.boxicons.com/free--><path d="M17.91 12c-.48-2.83-2.94-5-5.91-5s-5.43 2.17-5.91 5H2v2h20v-2zM12 9c1.86 0 3.41 1.28 3.86 3H8.14c.45-1.72 2-3 3.86-3M11 2h2v3h-2zM17.71 7.71l1-1 1-1L19 5l-.71-.71-1 1-1 1L17 7zM6.29 7.71 7 7l.71-.71-1-1-1-1L5 5l-.71.71 1 1zM16 16a1 1 0 1 0 0 2 1 1 0 1 0 0-2M20 16a1 1 0 1 0 0 2 1 1 0 1 0 0-2M16 19a1 1 0 1 0 0 2 1 1 0 1 0 0-2M12 17a1 1 0 1 0 0 2 1 1 0 1 0 0-2M12 20a1 1 0 1 0 0 2 1 1 0 1 0 0-2M8 19a1 1 0 1 0 0 2 1 1 0 1 0 0-2M8 16a1 1 0 1 0 0 2 1 1 0 1 0 0-2M4 16a1 1 0 1 0 0 2 1 1 0 1 0 0-2"/></svg>