<svg xmlns="http://www.w3.org/2000/svg" width="24" height="24"><!--Boxicons v3.0 https://boxicons.com | License  https://docs.boxicons.com/free--><path d="M19 3H5c-1.1 0-2 .9-2 2v14c0 1.1.9 2 2 2h14c1.1 0 2-.9 2-2V5c0-1.1-.9-2-2-2M5 19V5h14v14z"/><path d="m15.79 6.79-1.77 1.77c-.59-.35-1.28-.57-2.02-.57s-1.42.22-2.02.57L8.21 6.79 6.8 8.2l1.77 1.77c-.35.59-.57 1.28-.57 2.02s.22 1.42.57 2.02L6.8 15.78l1.41 1.41 1.77-1.77c.59.35 1.28.57 2.02.57s1.42-.22 2.02-.57l1.77 1.77 1.41-1.41-1.77-1.77c.35-.59.57-1.28.57-2.02s-.22-1.42-.57-2.02L17.2 8.2zM12 14c-1.1 0-2-.9-2-2s.9-2 2-2 2 .9 2 2-.9 2-2 2"/></svg>