<svg xmlns="http://www.w3.org/2000/svg" width="24" height="24"><!--Boxicons v3.0 https://boxicons.com | License  https://docs.boxicons.com/free--><path d="M12 17.01c2.76 0 5.01-2.25 5.01-5.01S14.76 6.99 12 6.99 6.99 9.24 6.99 12s2.25 5.01 5.01 5.01M12 9c1.66 0 3.01 1.35 3.01 3.01s-1.35 3.01-3.01 3.01-3.01-1.35-3.01-3.01S10.34 9 12 9m-1 13h2v-4h-2zm0-16h2V2h-2zm-9 5h4v2H2zm16 0h4v2h-4zM4.22 18.36l.71.71.71.71 1.41-1.42 1.41-1.41-.7-.71-.71-.7-1.41 1.41zM18.36 4.22l-1.41 1.42-1.41 1.41.7.71.71.7 1.41-1.41 1.42-1.41-.71-.71zm-9.9 2.83L7.05 5.64 5.64 4.22l-.71.71-.71.71 1.42 1.41 1.41 1.41.71-.7zm7.08 9.9 1.41 1.41 1.41 1.42.71-.71.71-.71-1.42-1.41-1.41-1.41-.71.7z"/></svg>