<svg xmlns="http://www.w3.org/2000/svg" width="24" height="24"><!--Boxicons v3.0 https://boxicons.com | License  https://docs.boxicons.com/free--><path d="m12.71 10.79-4.5-4.5a.996.996 0 0 0-1.41 0l-4.5 4.5a.996.996 0 0 0 0 1.41l4.5 4.5c.2.2.45.29.71.29s.51-.1.71-.29l4.5-4.5a.996.996 0 0 0 0-1.41ZM7.5 14.58l-3.09-3.09L7.5 8.4l3.09 3.09zM17.25 12.5c-2.62 0-4.75 2.13-4.75 4.75S14.63 22 17.25 22 22 19.87 22 17.25s-2.13-4.75-4.75-4.75m0 7.5c-1.52 0-2.75-1.23-2.75-2.75s1.23-2.75 2.75-2.75S20 15.73 20 17.25 18.77 20 17.25 20M18.75 2c-.63 0-1.23.18-1.75.52-.52-.34-1.12-.52-1.75-.52C13.46 2 12 3.46 12 5.25c0 .78.29 1.53.87 2.19l3.44 3.28c.19.18.44.28.69.28s.5-.09.69-.28l3.5-3.35c.52-.6.81-1.35.81-2.13 0-1.79-1.46-3.25-3.25-3.25Zm1 4L17 8.62l-2.69-2.55c-.14-.17-.31-.44-.31-.81 0-.69.56-1.25 1.25-1.25.37 0 .73.17.97.48.38.47 1.18.47 1.56 0 .24-.3.6-.48.97-.48a1.25 1.25 0 0 1 1 2Z"/></svg>