<svg xmlns="http://www.w3.org/2000/svg" width="24" height="24"><!--Boxicons v3.0 https://boxicons.com | License  https://docs.boxicons.com/free--><path d="M7.71 7.71c-2.79 2.79-4.78 5.94-5.45 8.63-.16.66.04 1.37.54 1.87l3.01 3.01c.38.38.9.59 1.42.59.15 0 .31-.02.46-.06 2.69-.67 5.83-2.66 8.63-5.45 5.11-5.11 7.11-10.81 4.66-13.25C18.53.6 12.83 2.61 7.73 7.71Zm1.41 1.41C12.46 5.78 16.07 4 18.15 4c.14 0 .28 0 .41.03L4.99 17.6l-.79-.78c.58-2.31 2.42-5.19 4.93-7.7Zm5.76 5.76c-2.51 2.51-5.38 4.35-7.67 4.92l-.8-.79L19.97 5.45c.26 2-1.51 5.86-5.09 9.44Z"/></svg>