<svg xmlns="http://www.w3.org/2000/svg" width="24" height="24"><!--Boxicons v3.0 https://boxicons.com | License  https://docs.boxicons.com/free--><path d="M14 12c0-1.1-.9-2-2-2s-2 .9-2 2a2 2 0 1 0 4 0m-6 0c0-1.07.42-2.07 1.17-2.82L7.76 7.76A5.97 5.97 0 0 0 6 12c0 1.6.62 3.11 1.76 4.25l1.41-1.42A3.96 3.96 0 0 1 8 12m8.24-4.24-1.41 1.41C15.59 9.93 16 10.93 16 12s-.42 2.07-1.17 2.83l1.41 1.41C17.37 15.11 18 13.6 18 12s-.62-3.11-1.76-4.24"/><path d="M6.34 17.66C4.83 16.15 3.99 14.14 3.99 12s.83-4.14 2.34-5.65L4.92 4.93C3.03 6.82 1.99 9.33 1.99 12s1.04 5.18 2.93 7.07l1.41-1.41ZM19.07 4.93l-1.41 1.41C19.17 7.85 20 9.86 20 12s-.83 4.15-2.34 5.66l1.41 1.41C20.96 17.18 22 14.67 22 12s-1.04-5.18-2.93-7.07"/></svg>