<svg xmlns="http://www.w3.org/2000/svg" width="24" height="24"><!--Boxicons v3.0 https://boxicons.com | License  https://docs.boxicons.com/free--><path d="M20 14h-4.34L21 8.66c.78-.78.78-2.05 0-2.83l-2.84-2.84c-.78-.78-2.05-.78-2.83 0L9.99 8.33V3.99c0-1.1-.9-2-2-2h-4c-1.1 0-2 .9-2 2v14c0 2.21 1.79 4 4 4h14c1.1 0 2-.9 2-2v-4c0-1.1-.9-2-2-2Zm-3.25-9.59 2.84 2.83-6.75 6.75H7.17l9.59-9.59ZM8 4v6.34L4.04 14.3s-.03.04-.04.06V4zm12 16H6c-1.1 0-2-.9-2-2s.9-2 2-2h14z"/><path d="M6 17a1 1 0 1 0 0 2 1 1 0 1 0 0-2"/></svg>