<svg xmlns="http://www.w3.org/2000/svg" width="24" height="24"><!--Boxicons v3.0 https://boxicons.com | License  https://docs.boxicons.com/free--><path d="M16.68 7.32C15.73 4.2 12.81 2 9.5 2 5.36 2 2 5.36 2 9.5c0 3.31 2.2 6.23 5.32 7.18C8.27 19.8 11.19 22 14.5 22c4.14 0 7.5-3.36 7.5-7.5 0-3.31-2.2-6.23-5.32-7.18M14.5 20c-2.09 0-3.95-1.21-4.88-3.01.4 0 .79-.04 1.18-.11l-.35-1.97c-.47.08-.95.11-1.44.06-.01-.16-.02-.32-.02-.48 0-.32.03-.64.08-.96l-1.97-.34c-.07.39-.1.78-.11 1.18-1.8-.92-3.01-2.79-3.01-4.88 0-3.03 2.47-5.5 5.5-5.5 2.09 0 3.95 1.21 4.88 3.01-.4 0-.79.04-1.18.1l.35 1.97c.47-.08.96-.1 1.44-.06.01.16.02.32.02.48 0 .32-.03.64-.08.96l1.97.34c.07-.39.1-.78.11-1.18 1.8.92 3.01 2.79 3.01 4.88 0 3.03-2.47 5.5-5.5 5.5Z"/><path d="m7.94 10.85 1.75.97a5.5 5.5 0 0 1 2.13-2.13l-.98-1.75a7.55 7.55 0 0 0-2.9 2.9ZM12.18 14.31l.98 1.75a7.55 7.55 0 0 0 2.9-2.9l-1.75-.97a5.5 5.5 0 0 1-2.13 2.13Z"/></svg>