<svg xmlns="http://www.w3.org/2000/svg" width="24" height="24"><!--Boxicons v3.0 https://boxicons.com | License  https://docs.boxicons.com/free--><path d="M5 5h4V3H5c-1.1 0-2 .9-2 2v4h2zM5 21h4v-2H5v-4H3v4c0 1.1.9 2 2 2M21 15h-2v4h-4v2h4c1.1 0 2-.9 2-2zM21 5c0-1.1-.9-2-2-2h-4v2h4v4h2zM7 9.5v5c0 .38.21.72.55.89l4 2c.14.07.29.11.45.11s.31-.04.45-.11l4-2a1 1 0 0 0 .55-.89v-5c0-.38-.21-.72-.55-.89l-4-2a1 1 0 0 0-.89 0l-4 2a1 1 0 0 0-.55.89Zm2 1.62 2 1v2.76l-2-1zm4 3.76v-2.76l2-1v2.76zm.76-5.38-1.76.88-1.76-.88L12 8.62z"/></svg>