<svg xmlns="http://www.w3.org/2000/svg" width="24" height="24"><!--Boxicons v3.0 https://boxicons.com | License  https://docs.boxicons.com/free--><path d="M6.33 20.42c1.86.53 3.76.79 5.67.79s3.82-.27 5.67-.79a3.97 3.97 0 0 0 2.75-2.75c1.06-3.71 1.06-7.63 0-11.34a3.99 3.99 0 0 0-2.75-2.75 20.6 20.6 0 0 0-11.34 0 3.97 3.97 0 0 0-2.75 2.75 20.6 20.6 0 0 0 0 11.34 3.99 3.99 0 0 0 2.75 2.75M5.51 6.88c.19-.67.7-1.18 1.37-1.37a18.57 18.57 0 0 1 10.24 0c.67.19 1.18.71 1.37 1.37a18.6 18.6 0 0 1 0 10.25c-.19.67-.7 1.18-1.37 1.37a18.6 18.6 0 0 1-10.25 0c-.67-.19-1.18-.71-1.37-1.37a18.6 18.6 0 0 1 0-10.25Z"/></svg>