<svg xmlns="http://www.w3.org/2000/svg" width="24" height="24"><!--Boxicons v3.0 https://boxicons.com | License  https://docs.boxicons.com/free--><path d="M20.26 15.47s-.06-.04-.1-.05c-.4-.22-.84-.32-1.29-.37L17.79 8h1.22c.55 0 1-.45 1-1V5c0-.55-.45-1-1-1h-1.89c-.41-1.19-1.53-2-2.83-2h-2.28v2h2.28a1 1 0 0 1 .99.85l1.62 10.54c-.46.24-.87.57-1.19 1-.14.19-.25.39-.36.6H13v-8c0-.55-.45-1-1-1H7c-2.76 0-5 2.24-5 5v5c0 .55.45 1 1 1h1.05c.25 1.69 1.69 3 3.45 3s3.2-1.31 3.45-3h4.1c.25 1.69 1.69 3 3.45 3 1.93 0 3.5-1.57 3.5-3.5 0-1.24-.67-2.4-1.74-3.03ZM7.5 20a1.498 1.498 0 0 1-1.47-1.79c.05-.23.14-.45.27-.61.11-.15.25-.26.4-.36h.01c.3-.18.65-.25.99-.21h.07c.16.03.32.08.47.16l.06.03c.35.23.59.57.67.96.02.1.03.21.03.31 0 .83-.67 1.5-1.5 1.5Zm3.5-3h-.34a3 3 0 0 0-.3-.5c-.03-.04-.06-.07-.08-.11-.11-.14-.23-.28-.36-.4-.04-.04-.09-.08-.13-.12-.17-.15-.34-.28-.54-.4a.5.5 0 0 0-.1-.05c-.5-.27-1.07-.42-1.66-.42-1.11 0-2.13.51-2.79 1.38-.15.19-.27.39-.38.62h-.34v-4c0-1.65 1.35-3 3-3h4v7Zm7.5 3a1.498 1.498 0 0 1-1.2-2.4 1.506 1.506 0 0 1 1.94-.41 1.529 1.529 0 0 1 .77 1.31c0 .83-.67 1.5-1.5 1.5Z"/></svg>