<svg xmlns="http://www.w3.org/2000/svg" width="24" height="24"><!--Boxicons v3.0 https://boxicons.com | License  https://docs.boxicons.com/free--><path d="M16.95 4.05C18.27 5.37 19 7.13 19 9s-.73 3.63-2.05 4.95A6.93 6.93 0 0 1 13 15.92V13.9a5 5 0 0 0 0-9.8V2h-2v2.1a5 5 0 0 0 0 9.8v2.02a6.93 6.93 0 0 1-3.95-1.97C5.73 12.63 5 10.87 5 9s.73-3.63 2.05-4.95L5.64 2.64C3.94 4.34 3 6.6 3 9s.94 4.66 2.64 6.36a8.84 8.84 0 0 0 3.53 2.17l-2.68 1.61 1.03 1.71 3.49-2.09v3.23h2v-3.23l3.49 2.09 1.03-1.71-2.68-1.61a9.14 9.14 0 0 0 3.53-2.17c1.7-1.7 2.64-3.96 2.64-6.36s-.94-4.66-2.64-6.36l-1.41 1.41ZM15 9c0 1.3-.84 2.4-2 2.82V6.19c1.16.41 2 1.51 2 2.82ZM9 9c0-1.3.84-2.4 2-2.82v5.63a2.99 2.99 0 0 1-2-2.82Z"/></svg>