<svg xmlns="http://www.w3.org/2000/svg" width="24" height="24"><!--Boxicons v3.0 https://boxicons.com | License  https://docs.boxicons.com/free--><path d="M15.5 2C11.79 2 9 3.72 9 6v2.02c-.17 0-.33-.02-.5-.02C4.79 8 2 9.72 2 12v6c0 2.28 2.79 4 6.5 4s6.5-1.72 6.5-4v-2.02c.17 0 .33.02.5.02 3.71 0 6.5-1.72 6.5-4V6c0-2.28-2.79-4-6.5-4m-7 8c.46 0 .91.04 1.35.11 1.97.3 3.15 1.2 3.15 1.89 0 .47-.55 1.02-1.41 1.4-.86.39-1.95.6-3.09.6C5.75 14 4 12.82 4 12s1.75-2 4.5-2m0 10C5.75 20 4 18.82 4 18v-3.07C5.15 15.6 6.72 16 8.5 16c1.43 0 2.79-.27 3.9-.78q.315-.135.6-.3V18c0 .82-1.75 2-4.5 2m7-6c-.17 0-.33-.03-.5-.04V12c0-.77-.35-1.48-.94-2.09q.69.09 1.44.09c1.78 0 3.35-.4 4.5-1.07V12c0 .82-1.75 2-4.5 2m0-6C12.75 8 11 6.82 11 6s1.75-2 4.5-2S20 5.18 20 6s-1.75 2-4.5 2"/><path d="M15.5 5a2.5 1 0 1 0 0 2 2.5 1 0 1 0 0-2M8.5 11a2.5 1 0 1 0 0 2 2.5 1 0 1 0 0-2"/></svg>