<svg xmlns="http://www.w3.org/2000/svg" width="24" height="24"><!--Boxicons v3.0 https://boxicons.com | License  https://docs.boxicons.com/free--><path d="M12 2C6.49 2 2 6.49 2 12s4.49 10 10 10 10-4.49 10-10S17.51 2 12 2m0 2c3.71 0 6.82 2.54 7.73 5.97l-4.01-.5c-2.47-.31-4.97-.31-7.44 0l-4.01.5C5.17 6.54 8.29 4 12 4m1.5 8c0 .83-.67 1.5-1.5 1.5s-1.5-.67-1.5-1.5.67-1.5 1.5-1.5 1.5.67 1.5 1.5M4 12l1.67.28c2.58.43 4.58 2.48 4.95 5.07l.37 2.58C7.06 19.43 4 16.07 4 12m9.01 7.93.37-2.58a5.995 5.995 0 0 1 4.95-5.07L20 12c0 4.07-3.05 7.43-6.99 7.93" class="b"/></svg>