<svg xmlns="http://www.w3.org/2000/svg" width="24" height="24"><!--Boxicons v3.0 https://boxicons.com | License  https://docs.boxicons.com/free--><path d="M21 16h-9v-2h8c.4 0 .75-.23.91-.59s.09-.78-.17-1.08l-9-10A1 1 0 0 0 11 2C6.59 2 3 6.93 3 13c0 .55.45 1 1 1h6v2H3c-.35 0-.67.18-.85.47s-.2.66-.04.97l1.72 3.45A2 2 0 0 0 5.62 22h12.76c.76 0 1.45-.42 1.79-1.11l1.72-3.45c.15-.31.14-.68-.04-.97A1 1 0 0 0 21 16m-9-4V5.61L17.75 12zm-6.96 0c.3-4 2.34-7.21 4.96-7.87V12zm13.35 8H5.62l-1-2h14.76l-1 2Z"/></svg>