<svg xmlns="http://www.w3.org/2000/svg" width="24" height="24"><!--Boxicons v3.0 https://boxicons.com | License  https://docs.boxicons.com/free--><path d="M12 2C6.49 2 2 6.49 2 12h2c0-4.41 3.59-8 8-8 2.41 0 4.62 1.08 6.12 2.88L16 9h6V3l-2.46 2.46A9.9 9.9 0 0 0 12 2" class="b"/><path d="M12 21.36c.27 0 .52-.11.71-.29l6.36-6.36a.996.996 0 0 0 0-1.41l-6.36-6.36c-.38-.38-1.04-.38-1.41 0L4.94 13.3a.996.996 0 0 0 0 1.41l6.36 6.36c.19.19.44.29.71.29Zm0-12.31L16.95 14 12 18.95 7.05 14z" class="b"/></svg>