<svg xmlns="http://www.w3.org/2000/svg" width="24" height="24"><!--Boxicons v3.0 https://boxicons.com | License  https://docs.boxicons.com/free--><path d="M12 2C6.49 2 2 5.81 2 10.5c0 2.28 1.09 4.47 3 6.06V20c0 .55.45 1 1 1h12c.55 0 1-.45 1-1v-3.44c1.91-1.6 3-3.78 3-6.06C22 5.81 17.51 2 12 2m5.4 13.28c-.25.19-.4.49-.4.8V19h-2v-3h-2v3h-2v-3H9v3H7v-2.92a1 1 0 0 0-.4-.8C4.95 14.05 4 12.3 4 10.5 4 6.92 7.59 4 12 4s8 2.92 8 6.5c0 1.8-.95 3.54-2.6 4.78"/><path d="M8 8a2 2.5 0 1 0 0 5 2 2.5 0 1 0 0-5M16 8a2 2.5 0 1 0 0 5 2 2.5 0 1 0 0-5"/></svg>