<svg xmlns="http://www.w3.org/2000/svg" width="24" height="24"><!--Boxicons v3.0 https://boxicons.com | License  https://docs.boxicons.com/free--><path d="M21 2H3c-.55 0-1 .45-1 1v4c0 .55.45 1 1 1h2.22l.62 2.48A2 2 0 0 0 7.78 12h8.44c.92 0 1.72-.62 1.94-1.52L18.78 8H21c.55 0 1-.45 1-1V3c0-.55-.45-1-1-1m-4.78 9v-1zm0-1H7.78l-.5-2h9.44zM20 6H4V4h16zM12 14c0 1.76-.41 2.59-.89 3.55C10.59 18.59 10 19.76 10 22h2c0-1.76.41-2.59.89-3.55C13.41 17.41 14 16.24 14 14zM8 14c0 1.76-.41 2.59-.89 3.55C6.59 18.59 6 19.76 6 22h2c0-1.76.41-2.59.89-3.55C9.41 17.41 10 16.24 10 14zM15.11 17.55C14.59 18.59 14 19.76 14 22h2c0-1.76.41-2.59.89-3.55C17.41 17.41 18 16.24 18 14h-2c0 1.76-.41 2.59-.89 3.55"/></svg>