<svg xmlns="http://www.w3.org/2000/svg" width="24" height="24"><!--Boxicons v3.0 https://boxicons.com | License  https://docs.boxicons.com/free--><path d="M20.93 3.07c-1.27-1.27-3.42-1.42-6.06-.4-.94.36-1.9.86-2.87 1.46-.97-.61-1.94-1.1-2.87-1.46-2.63-1.01-4.79-.87-6.06.4s-1.42 3.42-.4 6.06c.36.94.86 1.9 1.46 2.87-.61.97-1.1 1.94-1.46 2.87-1.01 2.63-.87 4.79.4 6.06.71.71 1.7 1.07 2.89 1.07.94 0 2.01-.22 3.17-.67.94-.36 1.9-.86 2.87-1.46.97.61 1.94 1.1 2.87 1.46 1.16.45 2.23.67 3.17.67 1.19 0 2.18-.36 2.89-1.07 1.27-1.27 1.42-3.42.4-6.06-.36-.94-.86-1.9-1.46-2.87.61-.97 1.1-1.94 1.46-2.87 1.01-2.63.87-4.79-.4-6.06M4.54 8.41c-.69-1.8-.71-3.27-.05-3.93.32-.32.83-.48 1.48-.48.68 0 1.52.18 2.44.53.58.22 1.18.51 1.79.85a26.6 26.6 0 0 0-4.81 4.81c-.34-.61-.63-1.2-.85-1.79ZM12 6.54A24.1 24.1 0 0 1 17.46 12 24.1 24.1 0 0 1 12 17.46 24.1 24.1 0 0 1 6.54 12 24.1 24.1 0 0 1 12 6.54M8.41 19.46c-1.8.69-3.27.71-3.93.05s-.64-2.13.05-3.93c.22-.58.51-1.18.85-1.79a26.6 26.6 0 0 0 4.81 4.81c-.61.34-1.2.63-1.79.85Zm11.05-3.88c.69 1.8.71 3.27.05 3.93s-2.13.64-3.93-.05c-.58-.22-1.18-.51-1.79-.85a26.6 26.6 0 0 0 4.81-4.81c.34.61.63 1.2.85 1.79Zm0-7.18c-.22.58-.51 1.18-.85 1.79a26.6 26.6 0 0 0-4.81-4.81c.61-.34 1.2-.63 1.79-.85.92-.35 1.76-.53 2.44-.53s1.16.16 1.49.48c.66.66.64 2.13-.05 3.93Z"/><path d="M13.77 13.77c.98-.98.98-2.56 0-3.54s-2.56-.98-3.54 0-.98 2.56 0 3.54 2.56.98 3.54 0"/></svg>