<svg xmlns="http://www.w3.org/2000/svg" width="24" height="24"><!--Boxicons v3.0 https://boxicons.com | License  https://docs.boxicons.com/free--><path d="M8.5 9a1.5 1.5 0 1 0 0 3 1.5 1.5 0 1 0 0-3m7 0c-.83 0-1.5.67-1.5 1.5s.67 1.5 1.5 1.5 1.5-.67 1.5-1.5S16.33 9 15.5 9"/><path d="M12 2C6.49 2 2 6.49 2 12s4.49 10 10 10 10-4.49 10-10S17.51 2 12 2m0 18c-4.41 0-8-3.59-8-8s3.59-8 8-8 8 3.59 8 8-3.59 8-8 8"/><path d="M14.83 14.83a3.94 3.94 0 0 1-2.02 1.09 4.05 4.05 0 0 1-2.37-.23 3.9 3.9 0 0 1-1.27-.86c-.18-.18-.34-.38-.49-.59l-1.66 1.12c.22.32.46.62.73.88.27.27.57.52.89.73s.66.4 1.02.55.74.27 1.13.35a6.1 6.1 0 0 0 2.42 0c.38-.08.76-.2 1.13-.35.36-.15.7-.34 1.02-.55s.62-.46.89-.73.52-.57.73-.89l-1.66-1.12c-.14.21-.31.41-.49.59Z"/></svg>