<svg xmlns="http://www.w3.org/2000/svg" width="24" height="24"><!--Boxicons v3.0 https://boxicons.com | License  https://docs.boxicons.com/free--><path d="M19.17 9h-4.02c-.32 0-.61-.14-.8-.4a.99.99 0 0 1-.16-.88l.54-1.9c.26-.91.08-1.87-.49-2.63S12.8 2 11.84 2h-1.35c-.45 0-.84.3-.96.73L8.38 6.74a3.99 3.99 0 0 1-3.13 2.84l-2.44.44c-.48.09-.82.5-.82.98v9c0 .55.45 1 1 1h2.42c.94 0 1.87.15 2.77.45 1.1.37 2.24.55 3.4.55h5.59c1.56 0 2.83-1.27 2.83-2.83 0-.46-.11-.9-.31-1.28a2.83 2.83 0 0 0 1-3.67c.79-.5 1.31-1.39 1.31-2.39C22 10.27 20.73 9 19.17 9m0 3.67H18c-.55 0-1 .45-1 1s.45 1 1 1h.17c.46 0 .83.37.83.83s-.37.83-.83.83H17c-.55 0-1 .45-1 1s.45 1 1 1h.17c.46 0 .83.37.83.83s-.37.83-.83.83h-5.59c-.94 0-1.87-.15-2.77-.45-1.1-.37-2.24-.55-3.4-.55H3.99v-7.17l1.62-.29a5.98 5.98 0 0 0 4.7-4.25l.94-3.29h.59c.32 0 .61.14.8.4.19.25.25.57.16.88l-.54 1.9c-.26.91-.08 1.87.49 2.63s1.44 1.19 2.4 1.19h4.02c.46 0 .83.37.83.83s-.37.83-.83.83Z"/></svg>