<svg xmlns="http://www.w3.org/2000/svg" width="24" height="24"><!--Boxicons v3.0 https://boxicons.com | License  https://docs.boxicons.com/free--><path d="M20.26 14h.24c.38 0 .73-.21.89-.55s.13-.74-.09-1.05L19.5 10c.38 0 .73-.21.89-.55s.13-.74-.09-1.05l-4.5-6c-.38-.5-1.22-.5-1.6 0L12 5.33 9.8 2.4c-.38-.5-1.22-.5-1.6 0l-4.5 6c-.23.3-.26.71-.09 1.05s.52.55.89.55l-1.8 2.4c-.23.3-.26.71-.09 1.05s.52.55.89.55h.2l-1.54 2.47c-.19.31-.2.7-.03 1.01.18.32.51.52.87.52h5v4h2v-4h4v4h2v-4h5c.37 0 .7-.2.88-.52s.16-.71-.04-1.02zM4.8 16l1.54-2.47c.19-.31.2-.7.03-1.01-.18-.32-.51-.52-.87-.52l1.8-2.4c.23-.3.26-.71.09-1.05S6.87 8 6.5 8L9 4.67 11.5 8c-.38 0-.73.21-.89.55s-.13.74.09 1.05l1.8 2.4h-.07c-.37 0-.7.2-.88.52s-.16.71.04 1.02L13.17 16zm10.74 0-1.29-2h.24c.38 0 .73-.21.89-.55s.13-.74-.09-1.05l-1.8-2.4c.38 0 .73-.21.89-.55s.13-.74-.09-1.05L13.24 7l1.75-2.33L17.49 8c-.38 0-.73.21-.89.55s-.13.74.09 1.05l1.8 2.4h-.07c-.37 0-.7.2-.88.52s-.16.71.04 1.02L19.16 16z"/></svg>