<svg xmlns="http://www.w3.org/2000/svg" width="24" height="24"><!--Boxicons v3.0 https://boxicons.com | License  https://docs.boxicons.com/free--><path d="M20.77 10.16 19.4 6.05A2.99 2.99 0 0 0 16.55 4h-2.56V3c0-.55-.45-1-1-1h-2c-.55 0-1 .45-1 1v1H7.43a3 3 0 0 0-2.85 2.05l-1.37 4.11c-.72.3-1.23 1.02-1.23 1.84v5c0 .75.42 1.4 1.04 1.74-.01.07-.04.13-.04.2V21c0 .55.45 1 1 1h1c.55 0 1-.45 1-1v-2h12v2c0 .55.45 1 1 1h1c.55 0 1-.45 1-1v-2.06c0-.07-.03-.13-.04-.2.62-.34 1.04-.99 1.04-1.74v-5c0-.83-.51-1.54-1.23-1.84ZM4 17v-5h16v5zM7.44 6h9.12a1 1 0 0 1 .95.68L18.62 10H5.39L6.5 6.68A1 1 0 0 1 7.45 6Z"/><path d="M6.5 13a1.5 1.5 0 1 0 0 3 1.5 1.5 0 1 0 0-3m11 0a1.5 1.5 0 1 0 0 3 1.5 1.5 0 1 0 0-3"/></svg>