<svg xmlns="http://www.w3.org/2000/svg" width="24" height="24"><!--Boxicons v3.0 https://boxicons.com | License  https://docs.boxicons.com/free--><path d="M3.5 8c.35 0 .66-.12.92-.32l.62.93a5.5 5.5 0 0 0-2.99 4.89c0 3 2.44 5.46 5.45 5.5h7.76c2.73 0 5.14-1.55 6.13-3.95.48-1.15.67-2.38.58-3.64-.27-3.71-3.24-6.86-6.92-7.34a8 8 0 0 0-7.99 3.95h-.02L6.22 6.8c.45-.26.76-.74.76-1.3 0-.83-.67-1.5-1.5-1.5-.69 0-1.27.47-1.44 1.11A1.498 1.498 0 0 0 1.98 6.5c0 .83.67 1.5 1.5 1.5Zm4 2c1.93 0 3.5 1.57 3.5 3.5h2c0-2.4-1.55-4.44-3.7-5.19a6.02 6.02 0 0 1 5.5-2.26c2.75.36 4.98 2.72 5.18 5.5.07.95-.08 1.87-.43 2.73-.67 1.63-2.4 2.72-4.29 2.72H7.51c-1.91-.02-3.46-1.59-3.46-3.5S5.62 10 7.48 10z"/></svg>