<svg xmlns="http://www.w3.org/2000/svg" width="24" height="24"><!--Boxicons v3.0 https://boxicons.com | License  https://docs.boxicons.com/free--><path d="M16.37 17.63c2.79-.86 4.95-3.2 5.49-6.11.5-2.67-.31-5.29-2.2-7.18-1.9-1.9-4.51-2.7-7.18-2.2-2.91.54-5.25 2.7-6.11 5.49l-.07.07.04.04c-.08.26-.16.53-.21.8-.19 1.08-.17 2.16.06 3.2.23 1.01-.07 2.05-.8 2.78l-2.93 2.93c-.19.19-.29.44-.29.71s.11.52.29.71l2.67 2.67c.19.19.44.29.71.29s.52-.11.71-.29l2.93-2.93c.73-.73 1.77-1.02 2.78-.8 1.04.23 2.12.26 3.2.06.27-.05.54-.13.8-.21l.04.04zM12.84 4.11c2.01-.37 3.98.23 5.4 1.65s2.02 3.39 1.65 5.4c-.33 1.79-1.54 3.34-3.14 4.17L8.67 7.25c.83-1.6 2.38-2.81 4.17-3.14m-.15 11.75c-1.68-.38-3.41.12-4.63 1.34l-2.23 2.23-1.25-1.25 2.23-2.23a4.96 4.96 0 0 0 1.34-4.63c-.14-.61-.17-1.24-.12-1.87l6.53 6.53c-.63.06-1.26.02-1.87-.12M20 18a2 2 0 1 0 0 4 2 2 0 1 0 0-4"/></svg>