<svg xmlns="http://www.w3.org/2000/svg" width="24" height="24"><!--Boxicons v3.0 https://boxicons.com | License  https://docs.boxicons.com/free--><path d="M5 10s3-1.81 3-5c0-1.65-1.35-3-3-3S2 3.35 2 5c0 3.19 3 5 3 5m0-6.5c.83 0 1.5.67 1.5 1.5S5.83 6.5 5 6.5 3.5 5.83 3.5 5 4.17 3.5 5 3.5M19 14c-1.65 0-3 1.35-3 3 0 3.19 3 5 3 5s3-1.81 3-5c0-1.65-1.35-3-3-3m0 4.5c-.83 0-1.5-.67-1.5-1.5s.67-1.5 1.5-1.5 1.5.67 1.5 1.5-.67 1.5-1.5 1.5"/><path d="M4 17.5A2.5 2.5 0 0 1 6.5 15h7c1.93 0 3.5-1.57 3.5-3.5S15.43 8 13.5 8H8v2h5.5c.83 0 1.5.67 1.5 1.5s-.67 1.5-1.5 1.5h-7C4.02 13 2 15.02 2 17.5S4.02 22 6.5 22H16v-2H6.5A2.5 2.5 0 0 1 4 17.5"/></svg>