<svg xmlns="http://www.w3.org/2000/svg" width="24" height="24"><!--Boxicons v3.0 https://boxicons.com | License  https://docs.boxicons.com/free--><path d="M18 14c.38 0 .73-.21.89-.55s.13-.74-.09-1.05L17 10a1 1 0 0 0 .77-1.64l-5-6c-.38-.46-1.16-.46-1.54 0l-5 6A1 1 0 0 0 7 10l-1.8 2.4c-.23.3-.26.71-.09 1.05s.52.55.89.55l-1.8 2.4c-.23.3-.26.71-.09 1.05s.52.55.89.55h6v4h2v-4h6c.38 0 .73-.21.89-.55s.13-.74-.09-1.05zM7 16l1.8-2.4c.23-.3.26-.71.09-1.05S8.37 12 8 12l1.8-2.4c.23-.3.26-.71.09-1.05-.15-.3-.44-.5-.77-.54l2.87-3.45 2.87 3.45c-.33.04-.62.25-.77.54-.17.34-.13.74.09 1.05l1.8 2.4c-.38 0-.73.21-.89.55s-.13.74.09 1.05l1.8 2.4z"/></svg>