<svg xmlns="http://www.w3.org/2000/svg" width="24" height="24"><!--Boxicons v3.0 https://boxicons.com | License  https://docs.boxicons.com/free--><path d="M21 5H3c-.55 0-1 .45-1 1v3.55c0 .48.33.89.8.98a1.499 1.499 0 0 1 0 2.94c-.47.09-.8.5-.8.98V18c0 .55.45 1 1 1h18c.55 0 1-.45 1-1v-3.55c0-.48-.33-.89-.8-.98a1.499 1.499 0 0 1 0-2.94c.47-.09.8-.5.8-.98V6c0-.55-.45-1-1-1m-1 3.84c-1.2.57-2 1.79-2 3.16s.8 2.59 2 3.16V17h-4v-2h-1v2H4v-1.84c1.2-.57 2-1.79 2-3.16s-.8-2.59-2-3.16V7h11v1h1V7h4z"/><path d="M15 9h1v2h-1zM15 12h1v2h-1z"/></svg>