<svg xmlns="http://www.w3.org/2000/svg" width="24" height="24"><!--Boxicons v3.0 https://boxicons.com | License  https://docs.boxicons.com/free--><path d="M4.93 4.93C3.04 6.82 2 9.33 2 12s1.04 5.18 2.93 7.07A9.96 9.96 0 0 0 12 21.99c2.56 0 5.12-.97 7.07-2.92C20.96 17.18 22 14.67 22 12s-1.04-5.18-2.93-7.07c-3.9-3.9-10.24-3.9-14.14 0m14.44 3.95c-.89.89-1.64 1.99-2.35 3.46-.26.52-.62.98-1.09 1.36-1.4 1.14-3.53 1.17-4.96.06a3.95 3.95 0 0 1-1.55-2.92A4 4 0 0 1 11.64 7c.94-.46 2.32-1.22 3.47-2.36.92.39 1.79.95 2.54 1.7.74.74 1.31 1.6 1.71 2.53Zm-1.71 8.78c-3.12 3.12-8.19 3.12-11.31 0-1.51-1.51-2.34-3.52-2.34-5.66s.83-4.15 2.34-5.66A7.98 7.98 0 0 1 12.01 4c.24 0 .48.01.73.03-.54.39-1.18.77-1.96 1.16q-.885.435-1.59 1.14a6.04 6.04 0 0 0-1.75 4.61c.11 1.72.95 3.31 2.31 4.38 1.07.84 2.37 1.25 3.67 1.25s2.69-.45 3.78-1.34a6 6 0 0 0 1.62-2.04c.37-.77.75-1.4 1.15-1.95.02.24.04.49.04.73 0 2.14-.83 4.15-2.34 5.66Z"/></svg>