<svg xmlns="http://www.w3.org/2000/svg" width="24" height="24"><!--Boxicons v3.0 https://boxicons.com | License  https://docs.boxicons.com/free--><path d="M16 4a2 2 0 1 0 0 4 2 2 0 1 0 0-4"/><path d="M8 11h8c2.76 0 5-2.24 5-5s-2.24-5-5-5H8C5.24 1 3 3.24 3 6s2.24 5 5 5m0-8h8c1.65 0 3 1.35 3 3s-1.35 3-3 3H8C6.35 9 5 7.65 5 6s1.35-3 3-3m0 13a2 2 0 1 0 0 4 2 2 0 1 0 0-4"/><path d="M8 23h8c2.76 0 5-2.24 5-5s-2.24-5-5-5H8c-2.76 0-5 2.24-5 5s2.24 5 5 5m0-8h8c1.65 0 3 1.35 3 3s-1.35 3-3 3H8c-1.65 0-3-1.35-3-3s1.35-3 3-3"/></svg>