<svg xmlns="http://www.w3.org/2000/svg" width="24" height="24"><!--Boxicons v3.0 https://boxicons.com | License  https://docs.boxicons.com/free--><path d="M21 9.5c0-2.46-1.98-4.46-4.43-4.5-.78-1.8-2.56-3-4.57-3S8.21 3.2 7.43 5A4.505 4.505 0 0 0 3 9.5c0 .25.02.5.07.76C2.37 11.2 2 12.34 2 13.5 2 16.53 4.47 19 7.5 19H11v3h2v-3h3.5c3.03 0 5.5-2.47 5.5-5.5 0-1.16-.38-2.29-1.07-3.24.05-.26.07-.51.07-.76M16.5 17h-9C5.57 17 4 15.43 4 13.5c0-.85.32-1.67.91-2.33l.38-.42-.16-.54c-.08-.27-.12-.5-.12-.72a2.5 2.5 0 0 1 2.5-2.5c.15 0 .3.02.45.05l.93.17.22-.92c.33-1.35 1.52-2.3 2.91-2.3s2.58.94 2.91 2.3l.22.92.93-.17c.15-.03.29-.05.45-.05a2.5 2.5 0 0 1 2.5 2.5c0 .21-.04.44-.12.72l-.16.54.38.42c.59.65.91 1.48.91 2.33 0 1.93-1.57 3.5-3.5 3.5Z"/></svg>