<svg xmlns="http://www.w3.org/2000/svg" width="24" height="24"><!--Boxicons v3.0 https://boxicons.com | License  https://docs.boxicons.com/free--><path d="M4.5 18a1.5 1.5 0 1 0 0 3 1.5 1.5 0 1 0 0-3M18.55 6.14A6.51 6.51 0 0 0 12.5 2c-1.79 0-3.47.73-4.7 2.02C5.71 3.81 4 5.48 4 7.5c0 .08 0 .17.01.25C2.77 8.57 2 9.97 2 11.5s.83 3.01 2.15 3.82c.39 1.13 1.61 1.87 2.81 1.63 1.56 1.22 3.82 1.37 5.54.36.76.45 1.61.69 2.5.69 2.26 0 4.2-1.5 4.8-3.64 1.35-.81 2.2-2.27 2.2-3.86a4.45 4.45 0 0 0-3.45-4.36m-.03 6.64-.48.22-.09.52A2.985 2.985 0 0 1 15 16c-.68 0-1.32-.23-1.87-.68l-.63-.51-.63.51c-1.19.96-2.92.85-3.97-.2l-.52-.52-.65.34c-.35.18-.68-.06-.71-.39l-.06-.56-.51-.24c-.89-.42-1.44-1.28-1.44-2.25s.6-1.91 1.53-2.3l.85-.36-.29-.87c-.06-.18-.09-.33-.09-.47 0-.83.67-1.5 1.5-1.5.12 0 .24.02.41.07l.64.18.41-.53C9.83 4.62 11.12 4 12.51 4c2.01 0 3.79 1.36 4.33 3.3l.19.67.69.06c1.3.11 2.29 1.17 2.29 2.47 0 .98-.58 1.87-1.48 2.28Z"/></svg>