<svg xmlns="http://www.w3.org/2000/svg" width="24" height="24"><!--Boxicons v3.0 https://boxicons.com | License  https://docs.boxicons.com/free--><path d="M19.07 4.93a9.9 9.9 0 0 0-3.18-2.14A9.95 9.95 0 0 0 12 2c-.55 0-1 .45-1 1v5h2V4.06c.73.09 1.44.28 2.11.57.95.4 1.81.98 2.54 1.72.74.73 1.31 1.59 1.71 2.54.42.99.63 2.03.63 3.11s-.21 2.13-.63 3.11c-.4.95-.98 1.81-1.72 2.54-.73.74-1.59 1.31-2.54 1.71-1.97.83-4.26.83-6.23 0-.95-.4-1.81-.98-2.54-1.72a7.8 7.8 0 0 1-1.71-2.54c-.42-.99-.63-2.03-.63-3.11s.21-2.13.63-3.11c.4-.95.98-1.81 1.72-2.54L4.93 4.92c-.92.92-1.64 1.99-2.14 3.18C2.27 9.33 2 10.64 2 11.99s.26 2.66.79 3.89c.5 1.19 1.23 2.26 2.14 3.18s1.99 1.64 3.18 2.14c1.23.52 2.54.79 3.89.79s2.66-.26 3.89-.79c1.19-.5 2.26-1.23 3.18-2.14s1.64-1.99 2.14-3.18c.52-1.23.79-2.54.79-3.89s-.26-2.66-.79-3.89c-.5-1.19-1.23-2.26-2.14-3.18Z"/><path d="M12.88 11.12 8 8l3.12 4.88c1.22 1.68 3.45-.55 1.77-1.77Z"/></svg>