<svg xmlns="http://www.w3.org/2000/svg" width="24" height="24"><!--Boxicons v3.0 https://boxicons.com | License  https://docs.boxicons.com/free--><path d="M18.5 11H17v-1c0-3.31-2.69-6-6-6s-6 2.69-6 6v1.05c-.75.11-1.44.43-1.98.97A3.52 3.52 0 0 0 2 14.5c0 1.42.83 2.63 2.04 3.18-.01.11-.04.21-.04.32 0 1.65 1.35 3 3 3s3-1.35 3-3h4c0 1.65 1.35 3 3 3s3-1.35 3-3c0-.11-.03-.21-.04-.32.38-.17.72-.41 1.02-.71A3.52 3.52 0 0 0 22 14.49c0-1.93-1.57-3.5-3.5-3.5ZM12 6.14c1.72.45 3 2 3 3.86v1h-3zM7 10c0-1.86 1.28-3.41 3-3.86V11H7zm0 9c-.55 0-1-.45-1-1 0-.15.04-.31.11-.45.01-.02.02-.03.03-.05.28-.47.91-.59 1.35-.35.15.08.28.2.37.36.09.15.13.32.13.49 0 .55-.45 1-1 1Zm10 0a1.003 1.003 0 0 1-.87-1.5c.36-.63 1.35-.64 1.73 0 .01.02.02.04.03.05.07.14.11.29.11.45 0 .55-.45 1-1 1m2.56-3.44c-.13.13-.29.24-.45.31l-.03-.03c-.04-.04-.08-.06-.12-.1-.14-.12-.28-.23-.43-.32-.06-.04-.13-.07-.19-.1q-.225-.105-.45-.18l-.2-.06c-.22-.05-.45-.09-.69-.09s-.49.04-.72.09c-.07.02-.14.05-.21.07-.16.05-.31.11-.45.19-.07.04-.15.08-.22.13-.14.09-.26.18-.38.29-.06.05-.12.1-.18.16-.02.03-.05.04-.08.07H9.23s-.05-.05-.08-.07c-.05-.06-.11-.1-.17-.16q-.18-.165-.39-.3c-.07-.04-.14-.09-.21-.12-.15-.08-.3-.14-.46-.19-.07-.02-.14-.05-.21-.07q-.345-.09-.72-.09c-.375 0-.47.04-.69.09l-.2.06q-.24.075-.45.18c-.07.03-.13.07-.19.1-.15.09-.3.2-.43.32-.04.03-.08.06-.11.09l-.03.03c-.53-.23-.89-.76-.89-1.37 0-.4.16-.79.44-1.06.28-.28.67-.44 1.06-.44h13c.83 0 1.5.67 1.5 1.5 0 .4-.16.79-.44 1.06Z"/></svg>