<svg xmlns="http://www.w3.org/2000/svg" width="24" height="24"><!--Boxicons v3.0 https://boxicons.com | License  https://docs.boxicons.com/free--><path d="M14 6h-4c-4.11 0-7.53 4.22-7.96 9.83-.04.56.15 1.12.53 1.53s.91.64 1.46.64h14.96v-.02c.82-.04 1.6-.41 2.13-1.04.57-.67.81-1.54.67-2.4-.83-5.03-4.03-8.55-7.8-8.55Zm-9.96 9.98C4.38 11.51 7 8 10 8c.19 0 .37.01.55.04.07.01.15.03.22.04.11.02.21.04.31.07.09.02.18.06.26.09.09.03.17.06.26.09.09.04.18.09.28.13.08.04.15.07.23.12.09.05.18.11.27.17.07.05.14.09.21.14.09.06.17.13.26.2.07.06.14.11.21.17.08.07.16.15.24.23.07.07.14.14.2.21.07.08.15.16.22.25.07.08.13.16.2.24.07.09.13.18.2.27.06.09.13.18.19.27s.12.19.18.29.12.2.17.3c.06.1.11.2.16.31.05.1.1.21.15.32s.1.22.15.34c.04.1.08.21.12.32.05.13.09.25.14.38.03.1.06.21.1.31.04.14.08.28.12.43.03.1.05.2.07.3.04.15.07.31.1.46.02.1.04.21.05.31a16.299 16.299 0 0 1 .15 1.2l-11.92-.02Zm15.57-.33a1 1 0 0 1-.75.35c-.5 0-.91-.39-.98-.92 0-.07-.02-.13-.03-.19-.02-.12-.04-.23-.06-.34a18 18 0 0 0-.17-.91c-.53-2.29-1.57-4.23-2.94-5.57 2.45.43 4.55 3.16 5.15 6.81.06.38-.11.65-.22.78Z"/><path d="M13.5 13a.5.5 0 1 0 0 1 .5.5 0 1 0 0-1M11.5 11a.5.5 0 1 0 0 1 .5.5 0 1 0 0-1M10.5 13a.5.5 0 1 0 0 1 .5.5 0 1 0 0-1"/></svg>