<svg xmlns="http://www.w3.org/2000/svg" width="24" height="24"><!--Boxicons v3.0 https://boxicons.com | License  https://docs.boxicons.com/free--><path d="M12 19c4.97 0 10-1.55 10-4.5v-5C22 6.55 16.97 5 12 5S2 6.55 2 9.5v5C2 17.45 7.03 19 12 19m8-9.5c0 .85-2.82 2.5-8 2.5-.2 0-.38 0-.57-.01l4.6-4.6C18.62 7.93 20 8.91 20 9.5M12 7c.54 0 1.04.02 1.53.05l-4.71 4.71C5.68 11.28 4 10.15 4 9.49c0-.85 2.82-2.5 8-2.5Zm-8 5.3c1.92 1.12 4.97 1.7 8 1.7s6.08-.58 8-1.7v2.2c0 .85-2.82 2.5-8 2.5s-8-1.65-8-2.5z"/></svg>