<svg xmlns="http://www.w3.org/2000/svg" width="24" height="24"><!--Boxicons v3.0 https://boxicons.com | License  https://docs.boxicons.com/free--><path d="M21 8h-2V3a1 1 0 0 0-1.37-.93l-15 6c-.09.04-.16.1-.24.16-.03.02-.06.03-.09.06-.04.04-.05.08-.08.12-.05.06-.1.12-.13.19-.01.02 0 .05-.02.08-.03.1-.06.2-.06.31v3.55c0 .48.33.89.8.98a1.499 1.499 0 0 1 0 2.94c-.47.09-.8.5-.8.98v3.55c0 .55.45 1 1 1h18c.55 0 1-.45 1-1v-3.55c0-.48-.33-.89-.8-.98a1.499 1.499 0 0 1 0-2.94c.47-.09.8-.5.8-.98V8.99c0-.55-.45-1-1-1Zm-4 0H8.19L17 4.48zm3 3.84c-1.2.57-2 1.79-2 3.16s.8 2.59 2 3.16V20h-4v-2h-1v2H4v-1.84c1.2-.57 2-1.79 2-3.16s-.8-2.59-2-3.16V10h11v1h1v-1h4z"/><path d="M15 12h1v2h-1zM15 15h1v2h-1z"/></svg>