<svg xmlns="http://www.w3.org/2000/svg" width="24" height="24"><!--Boxicons v3.0 https://boxicons.com | License  https://docs.boxicons.com/free--><path d="M15 11.81V4c0-1.65-1.35-3-3-3S9 2.35 9 4v7.81a6.03 6.03 0 0 0-2.91 6.25c.41 2.38 2.27 4.32 4.63 4.81.42.09.85.13 1.27.13 1.38 0 2.71-.46 3.79-1.34A5.98 5.98 0 0 0 18 17a5.99 5.99 0 0 0-3-5.19m-.48 8.3c-.95.77-2.16 1.06-3.39.8-1.54-.32-2.8-1.63-3.06-3.19-.32-1.84.65-3.64 2.34-4.38.36-.16.6-.52.6-.92V4c0-.55.45-1 1-1s1 .45 1 1v8.42c0 .4.24.76.6.92 1.46.64 2.4 2.08 2.4 3.66 0 1.21-.54 2.34-1.48 3.11Z"/></svg>