<svg xmlns="http://www.w3.org/2000/svg" width="24" height="24"><!--Boxicons v3.0 https://boxicons.com | License  https://docs.boxicons.com/free--><path d="M8.5 10.5c0 2 1.5 3.5 3.5 3.5s3.5-1.5 3.5-3.5S14 7 12 7s-3.5 1.5-3.5 3.5m5 0c0 .88-.62 1.5-1.5 1.5s-1.5-.62-1.5-1.5S11.12 9 12 9s1.5.62 1.5 1.5"/><path d="m20.53 7.15-8-5c-.32-.2-.74-.2-1.06 0l-8 5c-.29.18-.47.5-.47.85v8c0 .34.18.67.47.85l8 5a1.01 1.01 0 0 0 1.06 0l8-5c.29-.18.47-.5.47-.85V8c0-.34-.18-.67-.47-.85M12 19.82l-3.1-1.94c.55-.56 1.29-.88 2.1-.88h2c.8 0 1.55.32 2.1.88zm7-4.38-2.19 1.37A4.97 4.97 0 0 0 13 15h-2c-1.48 0-2.87.68-3.81 1.81L5 15.44V8.55l7-4.38 7 4.38z"/></svg>