<svg xmlns="http://www.w3.org/2000/svg" width="24" height="24"><!--Boxicons v3.0 https://boxicons.com | License  https://docs.boxicons.com/free--><path d="M4 8c0 2.28 1.72 4 4 4s4-1.72 4-4-1.72-4-4-4-4 1.72-4 4m6 0c0 1.18-.82 2-2 2s-2-.82-2-2 .82-2 2-2 2 .82 2 2m5.54 3.54c2.02-2.02 2.02-5.06 0-7.07l-1.41 1.41c1.23 1.23 1.23 3.01 0 4.24l1.41 1.41Z"/><path d="M21.1 8c0-2.34-.97-4.6-2.74-6.36l-1.41 1.41C18.34 4.44 19.1 6.19 19.1 8s-.76 3.56-2.15 4.95l1.41 1.41C20.12 12.6 21.1 10.34 21.1 8M3 20h10c.55 0 1-.45 1-1v-1c0-2.76-2.24-5-5-5H7c-2.76 0-5 2.24-5 5v1c0 .55.45 1 1 1m4-5h2c1.65 0 3 1.35 3 3H4c0-1.65 1.35-3 3-3"/></svg>