<svg xmlns="http://www.w3.org/2000/svg" width="24" height="24"><!--Boxicons v3.0 https://boxicons.com | License  https://docs.boxicons.com/free--><path d="M4 8c0 2.28 1.72 4 4 4s4-1.72 4-4-1.72-4-4-4-4 1.72-4 4m6 0c0 1.18-.82 2-2 2s-2-.82-2-2 .82-2 2-2 2 .82 2 2M3 20h10c.55 0 1-.45 1-1v-1c0-2.76-2.24-5-5-5H7c-2.76 0-5 2.24-5 5v1c0 .55.45 1 1 1m4-5h2c1.65 0 3 1.35 3 3H4c0-1.65 1.35-3 3-3m14-3.5c0-2-1.5-3.5-3.5-3.5S14 9.5 14 11.5s1.5 3.5 3.5 3.5c.62 0 1.18-.16 1.67-.42l2.12 2.12 1.41-1.41-2.12-2.12c.26-.49.42-1.05.42-1.67M17.5 13c-.88 0-1.5-.62-1.5-1.5s.62-1.5 1.5-1.5 1.5.62 1.5 1.5-.62 1.5-1.5 1.5"/></svg>