<svg xmlns="http://www.w3.org/2000/svg" width="24" height="24"><!--Boxicons v3.0 https://boxicons.com | License  https://docs.boxicons.com/free--><path d="M15.5 12a1.5 1.5 0 1 0 0 3 1.5 1.5 0 1 0 0-3m-6.99.01c-.82 0-1.49.67-1.49 1.49s.67 1.49 1.49 1.49S10 14.32 10 13.5s-.67-1.49-1.49-1.49"/><path d="M12 2C6.49 2 2 6.49 2 12s4.49 10 10 10 10-4.49 10-10S17.51 2 12 2m0 18c-4.41 0-8-3.59-8-8s3.59-8 8-8 8 3.59 8 8-3.59 8-8 8"/><path d="M16.24 7.76a6.01 6.01 0 0 0-8.49 0l1.41 1.41a4.01 4.01 0 0 1 5.66 0l1.41-1.41Z"/></svg>