<svg xmlns="http://www.w3.org/2000/svg" width="24" height="24"><!--Boxicons v3.0 https://boxicons.com | License  https://docs.boxicons.com/free--><path d="M12 7c-2 0-3.5 1.5-3.5 3.5S10 14 12 14s3.5-1.5 3.5-3.5S14 7 12 7m0 5c-.88 0-1.5-.62-1.5-1.5S11.12 9 12 9s1.5.62 1.5 1.5S12.88 12 12 12"/><path d="M19 3H5c-1.1 0-2 .9-2 2v14c0 1.1.9 2 2 2h14c1.1 0 2-.9 2-2V5c0-1.1-.9-2-2-2M8.18 19c.41-1.16 1.51-2 2.82-2h2c1.3 0 2.4.84 2.82 2H8.19Zm9.71 0a5 5 0 0 0-4.9-4h-2c-2.41 0-4.43 1.72-4.9 4h-1.1V5h14v14z"/></svg>