<svg xmlns="http://www.w3.org/2000/svg" width="24" height="24"><!--Boxicons v3.0 https://boxicons.com | License  https://docs.boxicons.com/free--><path d="M17.99 9.18C17.84 6.3 15.22 4 12 4S6.17 6.3 6.01 9.18C3.49 10.3 2 12.06 2 14c0 3.36 4.39 6 10 6s10-2.64 10-6c0-1.94-1.49-3.71-4.01-4.82M12 6c2.21 0 4 1.54 4 3.44 0 .08 0 .16-.03.29C15.77 11.77 13.13 12 12 12h-.23c-1.22-.03-3.56-.35-3.75-2.32C8.01 9.6 8 9.52 8 9.45c0-1.9 1.79-3.44 4-3.44Zm0 12c-4.71 0-8-2.11-8-4 0-1.01.88-2.03 2.37-2.79.04.09.1.17.14.25s.09.17.14.24c.11.17.24.33.37.48.04.05.08.11.13.15.19.2.41.38.64.54.05.04.12.07.17.1q.285.18.6.33l.3.12c.19.08.4.15.61.21.11.03.23.07.35.09.23.05.46.1.71.13.11.02.22.04.34.05.36.04.74.07 1.14.07s.77-.03 1.13-.07c.12-.01.23-.03.35-.05.24-.04.47-.08.69-.13.13-.03.25-.07.38-.1.19-.06.37-.12.55-.19.12-.05.25-.1.36-.15.16-.07.3-.16.44-.24.11-.07.23-.13.34-.2.12-.09.23-.19.34-.28.21-.18.39-.37.56-.58.06-.08.12-.15.18-.23.09-.13.16-.27.23-.41.03-.06.07-.1.09-.16 1.48.76 2.37 1.78 2.37 2.79 0 1.89-3.29 4-8 4Z"/><path d="M12 15a1 1 0 1 0 0 2 1 1 0 1 0 0-2m4-1a1 1 0 1 0 0 2 1 1 0 1 0 0-2m-8 0a1 1 0 1 0 0 2 1 1 0 1 0 0-2"/></svg>