<svg xmlns="http://www.w3.org/2000/svg" width="24" height="24"><!--Boxicons v3.0 https://boxicons.com | License  https://docs.boxicons.com/free--><path d="M20.12 8.46 18 10.59l-2.12-2.13-1.42 1.42L16.59 12l-2.13 2.12 1.42 1.42L18 13.41l2.12 2.13 1.42-1.42L19.41 12l2.13-2.12zM8 12c2.28 0 4-1.72 4-4s-1.72-4-4-4-4 1.72-4 4 1.72 4 4 4m0-6c1.18 0 2 .82 2 2s-.82 2-2 2-2-.82-2-2 .82-2 2-2m1 7H7c-2.76 0-5 2.24-5 5v1c0 .55.45 1 1 1h10c.55 0 1-.45 1-1v-1c0-2.76-2.24-5-5-5m-5 5c0-1.65 1.35-3 3-3h2c1.65 0 3 1.35 3 3z"/></svg>