<svg xmlns="http://www.w3.org/2000/svg" width="24" height="24"><!--Boxicons v3.0 https://boxicons.com | License  https://docs.boxicons.com/free--><path d="M13.47 3.12c-.32-.17-.72-.16-1.03.05L6.69 7h-2.7c-1.1 0-2 .9-2 2v6c0 1.1.9 2 2 2h2.7l5.75 3.83c.17.11.36.17.55.17.16 0 .32-.04.47-.12.33-.17.53-.51.53-.88V4c0-.37-.2-.71-.53-.88ZM12 18.13l-4.45-2.96s-.06-.02-.08-.03c-.06-.03-.12-.06-.19-.08s-.13-.03-.2-.04c-.03 0-.06-.02-.09-.02h-3V9h3s.06-.02.09-.02c.07 0 .13-.02.19-.04a.6.6 0 0 0 .19-.08c.03-.01.06-.02.08-.03l4.45-2.96v12.26Zm4-10.59v8.92c1.22-1.1 2-2.69 2-4.46s-.78-3.36-2-4.46"/></svg>