<svg xmlns="http://www.w3.org/2000/svg" width="24" height="24"><!--Boxicons v3.0 https://boxicons.com | License  https://docs.boxicons.com/free--><path d="M17 6H7c-2.76 0-5 2.24-5 5v2.09C2 15.8 4.2 18 6.91 18c1.65 0 3.17-.82 4.08-2.19l.29-.43c.32-.48 1.12-.48 1.45 0l.29.43A4.9 4.9 0 0 0 17.1 18c2.71 0 4.91-2.2 4.91-4.91V11c0-2.76-2.24-5-5-5Zm3 7.09a2.913 2.913 0 0 1-5.33 1.62l-.29-.43c-.53-.8-1.43-1.28-2.39-1.28s-1.85.48-2.39 1.28l-.29.43a2.913 2.913 0 0 1-5.33-1.62V11c0-1.65 1.35-3 3-3h10c1.65 0 3 1.35 3 3v2.09Z"/></svg>