<svg xmlns="http://www.w3.org/2000/svg" width="24" height="24"><!--Boxicons v3.0 https://boxicons.com | License  https://docs.boxicons.com/free--><path d="M7 3.34C2.23 6.1.58 12.22 3.34 17c1.85 3.2 5.22 5 8.68 5 1.69 0 3.41-.43 4.98-1.34 4.77-2.76 6.42-8.89 3.66-13.66C17.9 2.22 11.78.58 7 3.34m9 15.59c-3.82 2.21-8.72.89-10.93-2.93S4.18 7.28 8 5.07c1.23-.71 2.6-1.08 3.99-1.08.69 0 1.39.09 2.08.28 2.06.55 3.79 1.88 4.86 3.73 2.21 3.82.89 8.72-2.93 10.93"/><path d="M12 6a1 1 0 1 0 0 2 1 1 0 1 0 0-2m3.5 1.5a1 1 0 1 0 0 2 1 1 0 1 0 0-2M17 11a1 1 0 1 0 0 2 1 1 0 1 0 0-2m-5 5a1 1 0 1 0 0 2 1 1 0 1 0 0-2m-3.5-1.5a1 1 0 1 0 0 2 1 1 0 1 0 0-2m7 0a1 1 0 1 0 0 2 1 1 0 1 0 0-2m-7-7a1 1 0 1 0 0 2 1 1 0 1 0 0-2M7 11a1 1 0 1 0 0 2 1 1 0 1 0 0-2"/></svg>