<svg xmlns="http://www.w3.org/2000/svg" width="24" height="24"><!--Boxicons v3.0 https://boxicons.com | License  https://docs.boxicons.com/free--><path d="M15.5 9c-2 0-2.5 2-2.5 2h5s-.5-2-2.5-2m-7-1a1.5 1.5 0 1 0 0 3 1.5 1.5 0 1 0 0-3"/><path d="M12 2C6.49 2 2 6.49 2 12s4.49 10 10 10 10-4.49 10-10S17.51 2 12 2m-2 16v-3h4v3c0 1.1-.9 2-2 2s-2-.9-2-2m5.86 1c.08-.32.14-.66.14-1v-1.5c1.59-1.47 2-3.5 2-3.5H6s.41 2.02 2 3.5V18c0 .35.06.68.14 1A7.99 7.99 0 0 1 4 12c0-4.41 3.59-8 8-8s8 3.59 8 8c0 3.01-1.68 5.64-4.14 7"/></svg>