<svg xmlns="http://www.w3.org/2000/svg" width="24" height="24"><!--Boxicons v3.0 https://boxicons.com | License  https://docs.boxicons.com/free--><path d="M11 17.92V20H8v2h8v-2h-3v-2.08c3.18-.4 5.89-2.66 6.76-5.79.26-.95.31-2.03.14-3.21l-.87-6.06c-.07-.49-.49-.86-.99-.86H5.96c-.5 0-.92.37-.99.86L4.1 8.92c-.17 1.18-.12 2.26.14 3.21.87 3.13 3.57 5.39 6.76 5.79m6.83-6.33C17.11 14.19 14.71 16 12 16c-2.56 0-4.83-1.63-5.68-4 .72.32 1.47.49 2.22.49 1.46 0 2.92-.6 4.15-1.77 1.5-1.44 3.35-1.61 4.95-.47l.35.25a5 5 0 0 1-.16 1.08ZM6.83 4h10.34l.58 4.03c-2.15-.98-4.57-.55-6.44 1.25-1.5 1.44-3.35 1.61-4.95.47l-.31-.22.03-.32.75-5.2Z"/></svg>