<svg xmlns="http://www.w3.org/2000/svg" width="24" height="24"><!--Boxicons v3.0 https://boxicons.com | License  https://docs.boxicons.com/free--><path d="M18 18.5c.83 0 1.5-.67 1.5-1.5s-.67-1.5-1.5-1.5c-.44 0-.84.2-1.11.5H10c-.55 0-1 .45-1 1 0 .8-.31 1.55-.88 2.12-1.13 1.13-3.11 1.13-4.24 0C3.31 18.55 3 17.8 3 17s.31-1.55.88-2.12c.32-.32.73-.56 1.2-.72l-.61-1.9c-.78.25-1.46.66-2.01 1.21-.94.94-1.46 2.2-1.46 3.54s.52 2.59 1.46 3.54 2.2 1.46 3.54 1.46 2.59-.52 3.54-1.46c.7-.7 1.17-1.58 1.36-2.54h5.99c.27.3.67.5 1.11.5Z"/><path d="M18 12c-.56 0-1.12.1-1.66.29l-2.91-4.86c.04-.14.07-.28.07-.44 0-.83-.67-1.5-1.5-1.5a1.498 1.498 0 0 0-.28 2.97l3.38 5.63a1.01 1.01 0 0 0 1.38.35c.48-.29 1-.44 1.54-.44 1.65 0 3 1.35 3 3s-1.35 3-3 3c-.91 0-1.57-.41-1.96-.75l-1.32 1.51c.92.8 2.08 1.25 3.28 1.25 2.76 0 5-2.24 5-5s-2.24-5-5-5Z"/><path d="M5.72 15.53A1.498 1.498 0 0 0 6 18.5c.83 0 1.5-.67 1.5-1.5 0-.15-.03-.3-.07-.44l3.38-5.63c.28-.47.13-1.09-.34-1.37A2.96 2.96 0 0 1 9.01 7c0-1.65 1.35-3 3-3s3 1.35 3 3q0 .27-.06.54l1.97.36c.06-.33.09-.62.09-.89 0-2.76-2.24-5-5-5s-5 2.24-5 5c0 1.42.59 2.74 1.63 3.68l-2.91 4.85Z"/></svg>