<svg xmlns="http://www.w3.org/2000/svg" width="24" height="24"><!--Boxicons v3.0 https://boxicons.com | License  https://docs.boxicons.com/free--><path d="M8 2c-.45 0-.84.3-.96.73l-5 18c-.1.35 0 .72.26.97a1.01 1.01 0 0 0 .98.25l18-5c.43-.12.73-.51.73-.96 0-7.72-6.28-14-14-14Zm-.36 6.03c4.45.32 8.01 3.88 8.33 8.33l-11.53 3.2zm10.29 7.78c-.55-5.12-4.63-9.2-9.75-9.75l.57-2.04c6.02.38 10.85 5.21 11.22 11.22z"/><path d="M9 10a1 1 0 1 0 0 2 1 1 0 1 0 0-2M12 12a1 1 0 1 0 0 2 1 1 0 1 0 0-2M11 15a1 1 0 1 0 0 2 1 1 0 1 0 0-2M8 13a1 1 0 1 0 0 2 1 1 0 1 0 0-2M7 16a1 1 0 1 0 0 2 1 1 0 1 0 0-2"/></svg>