<svg xmlns="http://www.w3.org/2000/svg" width="24" height="24"><!--Boxicons v3.0 https://boxicons.com | License  https://docs.boxicons.com/free--><path d="M12 2C6.49 2 2 6.49 2 12s4.49 10 10 10 10-4.49 10-10S17.51 2 12 2m0 18c-4.41 0-8-3.59-8-8s3.59-8 8-8 8 3.59 8 8-3.59 8-8 8"/><path d="M16.97 8.97 15 10.94 13.06 9l1.97-1.97-1.06-1.06L12 7.94l-1.97-1.97-1.06 1.06L10.94 9 9 10.94 7.03 8.97l-1.06 1.06L7.94 12l-1.97 1.97 1.06 1.06L9 13.06 10.94 15l-1.97 1.97 1.06 1.06L12 16.06l1.97 1.97 1.06-1.06L13.06 15 15 13.06l1.97 1.97 1.06-1.06L16.06 12l1.97-1.97zM12 13.94 10.06 12 12 10.06 13.94 12z"/></svg>