<svg xmlns="http://www.w3.org/2000/svg" width="24" height="24"><!--Boxicons v3.0 https://boxicons.com | License  https://docs.boxicons.com/free--><path d="M13 5.5C13 3.57 11.43 2 9.5 2 7.47 2 6.25 3.53 6.25 5h2c0-.42.39-1 1.25-1s1.5.67 1.5 1.5S10.33 7 9.5 7H2v2h7.5C11.43 9 13 7.43 13 5.5M15.5 20c-.86 0-1.25-.58-1.25-1h-2c0 1.47 1.22 3 3.25 3 1.93 0 3.5-1.57 3.5-3.5S17.43 15 15.5 15H8v2h7.5c.83 0 1.5.67 1.5 1.5s-.67 1.5-1.5 1.5"/><path d="M18 5c-2.21 0-4 1.79-4 4h2c0-1.1.9-2 2-2s2 .9 2 2-.9 2-2 2H2v2h16c2.21 0 4-1.79 4-4s-1.79-4-4-4M2 15h4v2H2z"/></svg>