<svg xmlns="http://www.w3.org/2000/svg" width="24" height="24"><!--Boxicons v3.0 https://boxicons.com | License  https://docs.boxicons.com/free--><path d="m21.96 5.27-1.92-.55-.94 3.27h-5.44l-.71-2.29c-.13-.42-.52-.71-.96-.71s-.83.29-.96.71l-.71 2.29H4.88l-.94-3.27-1.92.55L2.8 8h-.82v2h1.39l.57 2H1.98v2h2.53l1.51 5.27c.12.43.52.73.96.73h1c.44 0 .83-.29.96-.71L10.57 14h2.83l1.63 5.29c.13.42.52.71.96.71h1c.45 0 .84-.3.96-.73L19.46 14h2.53v-2h-1.96l.57-2h1.39V8h-.82l.78-2.73ZM5.47 10h4.25l-.62 2H6.03l-.57-2Zm2.05 7.17L6.61 14h1.88l-.98 3.17ZM11.2 12l.62-2h.37l.62 2h-1.6Zm5.28 5.17L15.5 14h1.88l-.91 3.17ZM17.96 12h-3.07l-.62-2h4.25l-.57 2Z"/></svg>