<svg xmlns="http://www.w3.org/2000/svg" width="24" height="24"><!--Boxicons v3.0 https://boxicons.com | License  https://docs.boxicons.com/free--><path d="M19 22H5c-1.1 0-2-.9-2-2V4c0-1.1.9-2 2-2h14c1.1 0 2 .9 2 2v16c0 1.1-.9 2-2 2M5 4v16h14V4z"/><path d="M12 8c-2.76 0-5 2.24-5 5s2.24 5 5 5 5-2.24 5-5-2.24-5-5-5m2.84 6.16c-.34 1.01-1.22 1.8-2.27 2-.22.04-.45.06-.68.05a3.006 3.006 0 0 1-2.9-3.11c.4.15.88.26 1.49.26 1.37 0 2.1-.54 2.69-.97.36-.26.67-.49 1.12-.6.17-.04.34.05.41.2.32.68.36 1.46.11 2.17ZM14 5a1 1 0 1 0 0 2 1 1 0 1 0 0-2M17 5a1 1 0 1 0 0 2 1 1 0 1 0 0-2"/></svg>