<svg xmlns="http://www.w3.org/2000/svg" width="24" height="24"><!--Boxicons v3.0 https://boxicons.com | License  https://docs.boxicons.com/free--><path d="m20.42 6.11-7.97-4c-.28-.14-.62-.14-.9 0l-7.97 4c-.31.15-.51.45-.55.79-.01.11-.96 10.77 8.55 15.01a.98.98 0 0 0 .82 0c9.51-4.25 8.57-14.9 8.55-15.01a.98.98 0 0 0-.55-.79ZM12 19.9C5.26 16.63 4.94 9.64 5 7.64l7-3.51 7 3.51c.04 1.99-.33 9.02-7 12.27Z"/><path d="M14.29 8.29 12 10.59l-2.29-2.3-1.42 1.42 2.3 2.29-2.3 2.29 1.42 1.42 2.29-2.3 2.29 2.3 1.42-1.42-2.3-2.29 2.3-2.29z"/></svg>