<svg xmlns="http://www.w3.org/2000/svg" width="24" height="24"><!--Boxicons v3.0 https://boxicons.com | License  https://docs.boxicons.com/free--><path d="M11.5 6a1.5 1.5 0 1 0 0 3 1.5 1.5 0 1 0 0-3M12.5 15a1.5 1.5 0 1 0 0 3 1.5 1.5 0 1 0 0-3"/><path d="M12.42 2.02C12.27 2.01 12.13 2 12 2 6.49 2 2 6.49 2 12s4.26 9.76 9.58 9.98c.15.01.29.02.42.02 5.51 0 10-4.49 10-10s-4.26-9.76-9.58-9.98M4 12c0-4.41 3.59-8 8-8h.01c.07 0 .13 0 .2.01.77.06 2.79.45 2.79 2.99 0 1.81-1.33 2.78-3.53 4.15C9.37 12.46 7 13.94 7 17c0 .49.05.94.14 1.34A7.97 7.97 0 0 1 4 12m8 8h-.01c-.07 0-.13 0-.2-.01C11.02 19.93 9 19.54 9 17c0-1.81 1.33-2.78 3.53-4.15C14.63 11.54 17 10.06 17 7c0-.49-.05-.94-.14-1.34A7.97 7.97 0 0 1 20 12c0 4.41-3.59 8-8 8"/></svg>