<svg xmlns="http://www.w3.org/2000/svg" width="24" height="24"><!--Boxicons v3.0 https://boxicons.com | License  https://docs.boxicons.com/free--><path d="M22 12c0-5.51-4.49-10-10-10S2 6.49 2 12s4.49 10 10 10h10v-2h-4.03c2.44-1.83 4.03-4.73 4.03-8m-4.5-3.5c0 4.96-4.04 9-9 9-.91 0-1.8-.14-2.67-.41l-.09-.12c6.03-.37 10.86-5.2 11.23-11.23l.12.09c.27.86.41 1.76.41 2.67M4.19 10.28c2.14.53 3.99 1.83 5.24 3.68-1.34.66-2.84 1.05-4.43 1.05-.14 0-.28-.02-.42-.03-.37-.92-.58-1.92-.58-2.97 0-.59.07-1.17.19-1.72Zm10.79-5.69c0 .14.02.28.02.42 0 1.2-.22 2.35-.62 3.42a11.9 11.9 0 0 0-6.52-3.26 7.97 7.97 0 0 1 4.13-1.16c1.05 0 2.06.21 2.98.58ZM5.76 7.02c.08 0 .16-.01.24-.01 2.86 0 5.54 1.22 7.44 3.35-.62.98-1.41 1.84-2.32 2.54-1.49-2.23-3.69-3.82-6.24-4.51.25-.49.54-.95.88-1.37m3.4 12.46c5.54-.33 9.99-4.77 10.31-10.31.34.89.53 1.84.53 2.85 0 4.41-3.59 8-8 8-1 0-1.96-.19-2.85-.53Z"/></svg>