<svg xmlns="http://www.w3.org/2000/svg" width="24" height="24"><!--Boxicons v3.0 https://boxicons.com | License  https://docs.boxicons.com/free--><path d="M11.41 11.77c0-3.43 2.59-6.25 6.03-6.56l2.9-.26c-.19-.24-.39-.47-.61-.69C16.24.77 9.93 1.4 5.67 5.67c-2.04 2.04-3.32 4.6-3.61 7.21-.17 1.53.02 2.96.52 4.24l4.97-.82c2.24-.37 3.87-2.27 3.87-4.52Z"/><path d="M17.62 7.21c-2.4.22-4.21 2.18-4.21 4.57 0 3.23-2.33 5.97-5.54 6.5l-4.26.7c.2.26.42.52.66.76 1.48 1.48 3.49 2.27 5.74 2.27q.555 0 1.11-.06c2.61-.29 5.18-1.57 7.21-3.61s3.32-4.6 3.61-7.21c.17-1.53-.02-2.97-.52-4.25l-3.79.34Z"/></svg>