<svg xmlns="http://www.w3.org/2000/svg" width="24" height="24"><!--Boxicons v3.0 https://boxicons.com | License  https://docs.boxicons.com/free--><path d="m12 10.59 6.32-6.32A9.96 9.96 0 0 0 12 2.01c-.14 0-.29.02-.43.02.27.78.43 1.61.43 2.48 0 1.71-.58 3.28-1.54 4.54zM13.41 12l1.54 1.54A7.47 7.47 0 0 1 19.49 12c.87 0 1.7.16 2.48.43 0-.14.02-.28.02-.43 0-2.4-.85-4.6-2.26-6.32zm.59 7.5c0 .78.16 1.51.45 2.18a9.9 9.9 0 0 0 3.87-1.94l-3.35-3.35c-.61.89-.97 1.96-.97 3.11m7.68-5.05a5.49 5.49 0 0 0-5.29.52l3.35 3.35a9.9 9.9 0 0 0 1.94-3.87M10 4.5c0-.78-.16-1.51-.45-2.18a9.9 9.9 0 0 0-3.87 1.94l3.35 3.35c.61-.89.97-1.96.97-3.11m2 8.91-6.32 6.32A9.96 9.96 0 0 0 12 21.99c.14 0 .29-.02.43-.02-.27-.78-.43-1.61-.43-2.48 0-1.71.58-3.28 1.54-4.54zM2 12c0 2.4.85 4.6 2.26 6.32L10.58 12l-1.54-1.54A7.47 7.47 0 0 1 4.5 12c-.87 0-1.7-.16-2.48-.43 0 .14-.02.28-.02.43m.32-2.45a5.49 5.49 0 0 0 5.29-.52L4.26 5.68a9.9 9.9 0 0 0-1.94 3.87"/></svg>