<svg xmlns="http://www.w3.org/2000/svg" width="24" height="24"><!--Boxicons v3.0 https://boxicons.com | License  https://docs.boxicons.com/free--><path d="M21.24 5.69c-.25-1.01-.56-1.82-.9-2.41C19.72 2.22 19 2 18.51 2s-1.21.22-1.83 1.28c-.34.58-.64 1.37-.89 2.36-2.39-.83-5.16-.83-7.55 0-.25-.99-.55-1.78-.89-2.36C6.73 2.22 6.01 2 5.52 2s-1.21.22-1.83 1.28c-.35.59-.65 1.4-.9 2.41-.25.98-.43 2.1-.56 3.32-.19 1.85-.2 4.07-.2 4.5 0 1.44.43 2.79 1.17 3.98l1.65-1.65c.1-.1.26-.1.35 0s.1.26 0 .35l-1.72 1.72c.31.44.67.85 1.06 1.23l1.8-1.8c.1-.1.26-.1.35 0s.1.26 0 .35L4.9 19.48c1.81 1.56 4.33 2.53 7.11 2.53s5.3-.97 7.11-2.53l-1.79-1.79c-.1-.1-.1-.26 0-.35s.26-.1.35 0l1.8 1.8c.4-.38.75-.79 1.06-1.23l-1.72-1.72c-.1-.1-.1-.26 0-.35s.26-.1.35 0l1.65 1.65c.74-1.19 1.17-2.54 1.17-3.98 0-.43 0-2.65-.2-4.5-.13-1.22-.32-2.34-.56-3.32ZM7.5 14c-.83 0-1.5-.67-1.5-1.5S6.67 11 7.5 11s1.5.67 1.5 1.5S8.33 14 7.5 14m6 5c-.53 0-1.04-.21-1.41-.59-.03-.03-.06-.07-.09-.1-.03.03-.05.07-.09.1a1.983 1.983 0 0 1-2.82 0l.71-.71c.38.38 1.04.38 1.41 0a1 1 0 0 0 .29-.71c0-.03-.01-.05-.02-.08-.85-.25-1.48-1.08-1.48-1.92 0-.55.9-1 2-1s2 .45 2 1c0 .84-.63 1.67-1.48 1.92 0 .03-.02.05-.02.08 0 .27.1.52.29.71.38.38 1.04.38 1.41 0l.71.71c-.38.38-.88.59-1.41.59m3-5c-.83 0-1.5-.67-1.5-1.5s.67-1.5 1.5-1.5 1.5.67 1.5 1.5-.67 1.5-1.5 1.5"/></svg>