<svg xmlns="http://www.w3.org/2000/svg" width="24" height="24"><!--Boxicons v3.0 https://boxicons.com | License  https://docs.boxicons.com/free--><path d="M18.5 11H17v-1c0-3.31-2.69-6-6-6s-6 2.69-6 6v1.05c-.75.11-1.44.43-1.98.97A3.52 3.52 0 0 0 2 14.5c0 1.42.83 2.63 2.04 3.18-.01.11-.04.21-.04.32 0 1.65 1.35 3 3 3s3-1.35 3-3h4c0 1.65 1.35 3 3 3s3-1.35 3-3c0-.11-.03-.21-.04-.32.38-.17.72-.41 1.02-.71A3.52 3.52 0 0 0 22 14.49c0-1.93-1.57-3.5-3.5-3.5ZM7 19c-.55 0-1-.45-1-1 0-.15.04-.31.11-.45.01-.02.02-.03.03-.05.28-.47.91-.59 1.35-.35.15.08.28.2.37.36.09.15.13.32.13.49 0 .55-.45 1-1 1Zm3-8H7v-1c0-1.86 1.28-3.41 3-3.86zm5 0h-3V6.14c1.72.45 3 2 3 3.86zm2 8a1.003 1.003 0 0 1-.87-1.5c.37-.63 1.35-.64 1.73 0 .01.02.02.04.03.05.07.14.11.29.11.45 0 .55-.45 1-1 1"/></svg>