<svg xmlns="http://www.w3.org/2000/svg" width="24" height="24"><!--Boxicons v3.0 https://boxicons.com | License  https://docs.boxicons.com/free--><path d="M18.94 7.72c0-1.15-.18-2.29-.53-3.38-.18-.15-.36-.28-.55-.42-.25 7.59-6.36 13.7-13.95 13.95.14.19.27.37.42.55 1.09.35 2.23.53 3.39.53 6.19 0 11.22-5.03 11.22-11.22Z"/><path d="M10.87 13.41c1.26-.94 2.33-2.11 3.16-3.46-2.37-2.72-5.76-4.29-9.36-4.29-.14 0-.27.01-.41.02-.51.62-.94 1.31-1.29 2.05 3.26.81 6.06 2.82 7.9 5.67ZM22 12c0-1.6-.39-3.12-1.06-4.46v.18c0 7.29-5.93 13.22-13.22 13.22h-.18C8.89 21.61 10.4 22 12 22h10v-2h-4.03c2.44-1.83 4.03-4.73 4.03-8M15.89 3.44c0-.23-.02-.45-.03-.67A9.9 9.9 0 0 0 12.01 2c-2.1 0-4.05.65-5.66 1.77 3.29.38 6.33 1.89 8.66 4.28.57-1.43.89-2.98.89-4.6ZM2.29 9.63C2.1 10.39 2 11.18 2 12c0 1.36.28 2.66.77 3.85.22.02.44.04.67.04 2.07 0 4.02-.52 5.74-1.41-1.6-2.47-4.05-4.19-6.89-4.84Z"/></svg>