<svg xmlns="http://www.w3.org/2000/svg" width="24" height="24"><!--Boxicons v3.0 https://boxicons.com | License  https://docs.boxicons.com/free--><path d="M20 18a2 2 0 1 0 0 4 2 2 0 1 0 0-4M19.47 4.02c-1.9-1.74-4.45-2.41-7.01-1.85-2.18.48-4.01 1.9-5.06 3.81l10.59 10.59c2.11-1.17 3.63-3.31 3.95-5.78.33-2.57-.57-5.04-2.46-6.77ZM6.63 8.04c-.26 1.21-.25 2.42.03 3.58.35 1.42-.02 2.85-.99 3.82l-3.45 3.45c-.1.1-.16.25-.16.39s.06.29.16.39l2.44 2.44c.11.11.25.16.39.16s.28-.05.39-.16l3.64-3.64c.95-.95 2.28-1.38 3.46-1.12.99.22 2.02.24 3.05.06.11-.02.21-.06.32-.08z"/></svg>