<svg xmlns="http://www.w3.org/2000/svg" width="24" height="24"><!--Boxicons v3.0 https://boxicons.com | License  https://docs.boxicons.com/free--><path d="M19 2H5c-1.1 0-2 .9-2 2v16c0 1.1.9 2 2 2h14c1.1 0 2-.9 2-2V4c0-1.1-.9-2-2-2M8.5 6c.83 0 1.5.67 1.5 1.5S9.33 9 8.5 9 7 8.33 7 7.5 7.67 6 8.5 6M5 13.5c.38 0 .52.1.82.31.41.29.96.69 1.98.69s1.58-.4 1.98-.69c.3-.21.44-.31.82-.31s.52.1.82.31c.41.29.96.69 1.98.69s1.58-.4 1.98-.69c.3-.22.44-.31.82-.31s.52.1.82.31c.41.29.96.69 1.98.69v2c-.38 0-.52-.1-.82-.31-.41-.29-.96-.69-1.98-.69s-1.58.4-1.98.69c-.3.22-.44.31-.82.31s-.52-.1-.82-.31c-.41-.29-.96-.69-1.98-.69s-1.58.4-1.98.69c-.3.21-.44.31-.82.31s-.52-.1-.82-.31c-.4-.29-.96-.69-1.98-.69zM5 20v-2.5c.38 0 .52.1.82.31.41.29.96.69 1.98.69s1.58-.4 1.98-.69c.3-.21.44-.31.82-.31s.52.1.82.31c.41.29.96.69 1.98.69s1.58-.4 1.98-.69c.3-.22.44-.31.82-.31s.52.1.82.31c.41.29.96.69 1.98.69s0 1.5 0 1.5z"/></svg>