<svg xmlns="http://www.w3.org/2000/svg" width="24" height="24"><!--Boxicons v3.0 https://boxicons.com | License  https://docs.boxicons.com/free--><path d="M21 6V5c0-1.65-1.35-3-3-3H6C4.35 2 3 3.35 3 5v2H2v4h1v.7l-.16.24A4.96 4.96 0 0 0 2 14.71V18a2 2 0 0 0 1 1.72V21c0 .55.45 1 1 1h1c.55 0 1-.45 1-1v-1h12v1c0 .55.45 1 1 1h1c.55 0 1-.45 1-1v-1.28A2 2 0 0 0 22 18v-3.29c0-.99-.29-1.95-.84-2.77L21 11.7V11h1V7h-1zM5 7h6v4H5zm14 0v4h-6V7zm1 8.5c0 .83-.67 1.5-1.5 1.5s-1.5-.67-1.5-1.5.67-1.5 1.5-1.5 1.5.67 1.5 1.5M5.5 14c.83 0 1.5.67 1.5 1.5S6.33 17 5.5 17 4 16.33 4 15.5 4.67 14 5.5 14"/></svg>