<svg xmlns="http://www.w3.org/2000/svg" width="24" height="24"><!--Boxicons v3.0 https://boxicons.com | License  https://docs.boxicons.com/free--><path d="M3 13h18c.55 0 1-.45 1-1v-2c0-.55-.45-1-1-1h-8V6.61c.78-.1 1.77-.36 2.53-1.02C16.99 4.31 17 2.02 17 2.02s-2.35-.21-3.81 1.07c-.79.69-1.15 1.67-1.32 2.43-.12-.57-.36-1.24-.87-1.74-1.1-1.06-3-.94-3-.94s-.12 1.85.97 2.91c.58.57 1.39.79 2.02.89v2.38H3c-.55 0-1 .45-1 1v2c0 .55.45 1 1 1ZM4.04 14.27l2 7c.12.43.52.73.96.73h10c.45 0 .84-.3.96-.73l2-7c.03-.09.01-.18.01-.27H4.03c0 .09-.01.18.01.27"/></svg>