<svg xmlns="http://www.w3.org/2000/svg" width="24" height="24"><!--Boxicons v3.0 https://boxicons.com | License  https://docs.boxicons.com/free--><path d="M20 2a2 2 0 1 0 0 4 2 2 0 1 0 0-4M17 12l.5-5.5L12 7l1.75 1.75c-.47.4-1.01.5-1.69.63-1.05.19-2.35.44-3.4 1.93s-.83 2.8-.65 3.85c.15.9.26 1.55-.32 2.38-.58.82-1.23.94-2.12 1.11-1.05.19-2.35.43-3.4 1.93l1.64 1.15c.58-.82 1.22-.94 2.12-1.11 1.05-.19 2.35-.43 3.4-1.93 1.05-1.49.83-2.8.65-3.85-.15-.9-.26-1.55.32-2.38.58-.82 1.23-.94 2.12-1.11.84-.15 1.84-.35 2.74-1.18L16.99 12ZM3.71 8.71l1.79-1.8 1.79 1.8 1.42-1.42-1.8-1.79 1.8-1.79-1.42-1.42-1.79 1.8-1.79-1.8-1.42 1.42 1.8 1.79-1.8 1.79zM20.29 14.29 18 16.59l-2.29-2.3-1.42 1.42 2.3 2.29-2.3 2.29 1.42 1.42 2.29-2.3 2.29 2.3 1.42-1.42-2.3-2.29 2.3-2.29z"/></svg>