<svg xmlns="http://www.w3.org/2000/svg" width="24" height="24"><!--Boxicons v3.0 https://boxicons.com | License  https://docs.boxicons.com/free--><path d="M16 16a1 1 0 1 0 0 2 1 1 0 1 0 0-2m4 0a1 1 0 1 0 0 2 1 1 0 1 0 0-2m-4 3a1 1 0 1 0 0 2 1 1 0 1 0 0-2m-4-2a1 1 0 1 0 0 2 1 1 0 1 0 0-2m0 3a1 1 0 1 0 0 2 1 1 0 1 0 0-2m-4-1a1 1 0 1 0 0 2 1 1 0 1 0 0-2m0-3a1 1 0 1 0 0 2 1 1 0 1 0 0-2m-4 0a1 1 0 1 0 0 2 1 1 0 1 0 0-2m15.38-8.75C18.79 4.25 16.12 2 13 2c-2.04 0-3.92.94-5.15 2.54-.21-.03-.4-.04-.6-.04C4.36 4.5 2 6.85 2 9.75S4.36 15 7.25 15H18c2.21 0 4-1.79 4-4 0-1.71-1.07-3.19-2.62-3.75"/></svg>