<svg xmlns="http://www.w3.org/2000/svg" width="24" height="24"><!--Boxicons v3.0 https://boxicons.com | License  https://docs.boxicons.com/free--><path d="M21.65 12.94 19.99 9.8c-.1-4.53-3.64-7.8-8.5-7.8s-9.48 3.24-9.48 8.67c0 2.72 1.03 5.05 2.99 6.79V22h10v-2h2c1.1 0 2-.9 2-2v-3h1.26a1.5 1.5 0 0 0 1.39-2.06M11 16c-1.34 0-2.59-.52-3.54-1.46C6.52 13.6 6 12.34 6 11s.52-2.59 1.46-3.54C8.4 6.52 9.66 6 11 6c1.65 0 3 1.35 3 3s-1.35 3-3 3h-1v-2h1c.55 0 1-.45 1-1s-.45-1-1-1c-.8 0-1.55.31-2.12.88S8 10.2 8 11s.31 1.56.88 2.12c1.13 1.13 3.11 1.13 4.24 0l1.41 1.41c-.94.94-2.2 1.46-3.54 1.46Z"/></svg>