<svg xmlns="http://www.w3.org/2000/svg" width="24" height="24"><!--Boxicons v3.0 https://boxicons.com | License  https://docs.boxicons.com/free--><path d="M16.64 5.16C15.9 3.27 14.07 2 12 2S8.11 3.27 7.36 5.16C5.4 5.67 4 7.43 4 9.5s1.4 3.78 3.29 4.31l3.82 7.63c.17.34.52.55.89.55s.72-.21.89-.55l3.82-7.63C18.6 13.28 20 11.56 20 9.5s-1.41-3.83-3.36-4.34M15.5 12h-7A2.5 2.5 0 0 1 6 9.5c0-1.27.96-2.33 2.24-2.47.42-.04.76-.35.86-.75C9.43 4.94 10.63 4 12 4s2.57.94 2.9 2.28c.1.41.45.71.86.75A2.49 2.49 0 0 1 18 9.5a2.5 2.5 0 0 1-2.5 2.5"/></svg>