<svg xmlns="http://www.w3.org/2000/svg" width="24" height="24"><!--Boxicons v3.0 https://boxicons.com | License  https://docs.boxicons.com/free--><path d="M12 9a3 3 0 1 0 0 6 3 3 0 1 0 0-6"/><path d="M19.07 4.93c-.45-.45-.95-.86-1.48-1.22a9.6 9.6 0 0 0-1.7-.92c-.6-.25-1.24-.45-1.88-.58-1.32-.27-2.71-.27-4.03 0-.64.13-1.27.33-1.88.58a9.96 9.96 0 0 0-4.4 3.62 9.6 9.6 0 0 0-.92 1.7c-.25.6-.45 1.24-.58 1.88-.13.66-.2 1.34-.2 2.01s.07 1.35.2 2.01c.13.64.33 1.27.58 1.88a9.96 9.96 0 0 0 3.62 4.4 9.96 9.96 0 0 0 5.59 1.7c.67 0 1.36-.07 2.01-.2.64-.13 1.27-.33 1.88-.58a9.96 9.96 0 0 0 4.4-3.62c.36-.53.67-1.1.92-1.7s.45-1.24.58-1.88c.13-.66.2-1.34.2-2.01h-2a7.85 7.85 0 0 1-.63 3.11c-.2.48-.45.93-.74 1.36-.28.42-.61.82-.98 1.19-.36.36-.76.69-1.18.98-.43.29-.88.54-1.36.74s-.99.36-1.5.47c-1.05.22-2.17.22-3.23 0a7.3 7.3 0 0 1-1.5-.47c-.47-.2-.93-.45-1.36-.74-.42-.29-.82-.62-1.18-.98s-.69-.76-.98-1.19a8 8 0 0 1-.74-1.36c-.2-.48-.36-.99-.47-1.5A8 8 0 0 1 3.97 12a7.85 7.85 0 0 1 .63-3.11c.2-.48.45-.93.74-1.36.29-.42.62-.82.98-1.18s.76-.69 1.18-.98c.43-.29.88-.54 1.36-.74s.99-.36 1.5-.47a8 8 0 0 1 4.73.47c.48.2.93.45 1.36.74.42.29.82.62 1.18.98.17.17.32.34.48.52L15.98 9h6V3l-2.45 2.45c-.15-.18-.31-.36-.48-.52Z"/></svg>