<svg xmlns="http://www.w3.org/2000/svg" width="24" height="24"><!--Boxicons v3.0 https://boxicons.com | License  https://docs.boxicons.com/free--><path d="m21.8 6.4-2.7-3.6c-.38-.5-.97-.8-1.6-.8h-11c-.63 0-1.22.3-1.6.8L2.2 6.4c-.13.17-.2.38-.2.6v1c0 1.01.39 1.91 1 2.62V20c0 1.1.9 2 2 2h14c1.1 0 2-.9 2-2v-9.38c.61-.7 1-1.61 1-2.62V7c0-.22-.07-.43-.2-.6M17.5 4 20 7.33V8c0 1.1-.9 2-2 2s-2-.9-2-2V7c0-.08 0-.16-.03-.24L15.28 4zm-6.72 0h2.44L14 7.12V8c0 1.1-.9 2-2 2s-2-.9-2-2v-.88zM4 7.33 6.5 4h2.22l-.69 2.76Q8 6.88 8 7v1c0 1.1-.9 2-2 2s-2-.9-2-2zM15 20H9v-5c0-.55.45-1 1-1h4c.55 0 1 .45 1 1z"/></svg>