<svg xmlns="http://www.w3.org/2000/svg" width="24" height="24"><!--Boxicons v3.0 https://boxicons.com | License  https://docs.boxicons.com/free--><path d="M21 6c0-2.21-1.79-4-4-4H7C4.79 2 3 3.79 3 6v2H2v4h1v6a2 2 0 0 0 1 1.72V21c0 .55.45 1 1 1h1c.55 0 1-.45 1-1v-1h10v1c0 .55.45 1 1 1h1c.55 0 1-.45 1-1v-1.28A2 2 0 0 0 21 18v-6h1V8h-1zm-2 0v5h-6V6zm0 9.5c0 .83-.67 1.5-1.5 1.5s-1.5-.67-1.5-1.5.67-1.5 1.5-1.5 1.5.67 1.5 1.5m-14 0c0-.83.67-1.5 1.5-1.5s1.5.67 1.5 1.5S7.33 17 6.5 17 5 16.33 5 15.5M5 6h6v5H5z"/></svg>