<svg xmlns="http://www.w3.org/2000/svg" width="24" height="24"><!--Boxicons v3.0 https://boxicons.com | License  https://docs.boxicons.com/free--><path d="M12 2C6.49 2 2 6.49 2 12s4.49 10 10 10 10-4.49 10-10S17.51 2 12 2m6 13.43c-.24.55-.6.99-.81.97s-.33-.36-.26-.76.36-.93.66-1.17c.29-.25.61-.36.69-.24.09.11-.04.66-.28 1.21Zm.38-6.89c-.31.12-1.12-.26-1.8-.86-.67-.6-1.27-1.06-1.33-1.02s.29.67.78 1.42c.49.74 1.25 1.34 1.69 1.32.45-.02.72.3.6.71-.11.41-.54 1.05-.95 1.42s-.74 1.12-.74 1.67-.46 1.74-1.02 2.64-1.45 1.73-1.99 1.85c-.53.11-1.27-.48-1.64-1.31-.37-.84-.6-1.74-.52-2 .09-.27-.02-.91-.24-1.42-.22-.52-.53-1.22-.69-1.55-.16-.34-.85-.59-1.54-.56s-1.55-.29-1.92-.71-.63-1.12-.59-1.55c.05-.44.54-1.16 1.09-1.61s1.28-1 1.62-1.23c.33-.23.91-.49 1.29-.59.37-.09.77 0 .87.21s.41.36.67.33c.27-.03.91.03 1.44.13s1.09.05 1.26-.12.22-.33.11-.37c-.1-.04-.6-.18-1.1-.31s-1.17-.38-1.48-.55-1.07-.17-1.69 0c-.46.13-1.01.15-1.41.08a8 8 0 0 1 2.83-.53 7.99 7.99 0 0 1 7.01 4.16c-.2.16-.44.3-.63.38Z"/></svg>