<svg xmlns="http://www.w3.org/2000/svg" width="24" height="24"><!--Boxicons v3.0 https://boxicons.com | License  https://docs.boxicons.com/free--><path d="M20.75 8.28c-1.95.5-3.75 1.42-5.27 2.67 0-.15.02-.3.02-.45 0-2.82-.93-5.61-2.69-8.08A1.01 1.01 0 0 0 12 2c-.32 0-.63.16-.81.42C9.31 5.05 8.41 8 8.53 10.96a13.5 13.5 0 0 0-5.28-2.67c-.34-.08-.7.01-.95.26s-.35.61-.26.95a13.4 13.4 0 0 0 3.51 6.21c.19.19.4.38.6.56-.97.28-1.91.76-2.77 1.45-.24.19-.37.48-.37.78s.14.59.37.78c1.4 1.13 3 1.72 4.63 1.72 1.03 0 2.04-.26 3-.72V22h2v-1.72c.96.46 1.97.72 3 .72 1.63 0 3.23-.6 4.63-1.72.24-.19.37-.48.37-.78s-.14-.59-.37-.78c-.86-.69-1.8-1.18-2.77-1.45.21-.18.41-.37.6-.56 1.71-1.71 2.92-3.85 3.51-6.21.09-.34-.01-.7-.26-.95s-.61-.35-.95-.26Z"/></svg>