<svg xmlns="http://www.w3.org/2000/svg" width="24" height="24"><!--Boxicons v3.0 https://boxicons.com | License  https://docs.boxicons.com/free--><path d="M12 2C6.49 2 2 6.49 2 12s4.49 10 10 10 10-4.49 10-10S17.51 2 12 2M8.5 9c.83 0 1.5.67 1.5 1.5S9.33 12 8.5 12 7 11.33 7 10.5 7.67 9 8.5 9m7.74 7.24c-.27.27-.57.52-.88.73-.32.22-.66.4-1.02.55-.37.16-.75.27-1.13.35a6.1 6.1 0 0 1-2.42 0c-.38-.08-.76-.2-1.13-.35-.36-.15-.7-.34-1.02-.55a6.3 6.3 0 0 1-.89-.73 6 6 0 0 1-.73-.88l1.66-1.12c.14.21.31.41.49.59a3.94 3.94 0 0 0 2.02 1.09 4.05 4.05 0 0 0 2.37-.23c.24-.1.47-.22.68-.37.21-.14.41-.31.59-.49s.35-.38.49-.59l1.66 1.12c-.21.32-.46.62-.73.89ZM13 12s.5-2 2.5-2 2.5 2 2.5 2z"/></svg>