<svg xmlns="http://www.w3.org/2000/svg" width="24" height="24"><!--Boxicons v3.0 https://boxicons.com | License  https://docs.boxicons.com/free--><path d="M20 5h-2.59L14.7 2.29a1 1 0 0 0-.71-.29h-4c-.27 0-.52.11-.71.29L6.57 5H3.98c-1.1 0-2 .9-2 2v11c0 1.1.9 2 2 2h16c1.1 0 2-.9 2-2V7c0-1.1-.9-2-2-2Zm-5.18 9.82a3.9 3.9 0 0 1-1.27.86q-.36.15-.75.24c-.27.06-.54.08-.8.08s-.54-.03-.8-.08a3.3 3.3 0 0 1-.75-.24c-.24-.1-.46-.23-.68-.37a3.9 3.9 0 0 1-1.04-1.04L8 15v-3h3l-.81.81c.05.1.1.2.16.29.08.11.16.21.25.3s.19.18.3.25.22.14.34.19.24.09.37.12c.25.05.52.05.78 0 .13-.03.25-.07.37-.12s.23-.11.34-.19c.11-.07.21-.16.3-.25s.17-.19.25-.3l1.66 1.12c-.14.21-.31.41-.49.59ZM16 12h-3l.81-.81c-.05-.1-.1-.2-.16-.29-.08-.11-.16-.21-.25-.3s-.19-.18-.3-.25-.22-.14-.34-.19-.24-.09-.37-.12c-.25-.05-.52-.05-.78 0-.13.03-.25.07-.37.12s-.23.11-.34.19c-.11.07-.21.16-.3.25s-.17.19-.25.3L8.69 9.78c.14-.21.31-.41.49-.59a3.9 3.9 0 0 1 1.27-.86q.36-.15.75-.24a3.9 3.9 0 0 1 1.6 0q.39.075.75.24c.24.1.46.23.68.37a3.9 3.9 0 0 1 1.04 1.04l.73-.73v3Z"/></svg>