<svg xmlns="http://www.w3.org/2000/svg" width="24" height="24"><!--Boxicons v3.0 https://boxicons.com | License  https://docs.boxicons.com/free--><path d="M21 10H7.65L3.91 1.59l-1.83.81 3.38 7.59H3c-.55 0-1 .45-1 1 0 3.61 1.9 6.87 5 8.66v1.34c0 .55.45 1 1 1h8c.55 0 1-.45 1-1v-1.34c3.1-1.78 5-5.05 5-8.66 0-.55-.45-1-1-1ZM20 6a1 1 0 1 0 0 2 1 1 0 1 0 0-2" class="b"/><path d="M9 2a1 1 0 1 0 0 2 1 1 0 1 0 0-2M17.5 2a1.5 1.5 0 1 0 0 3 1.5 1.5 0 1 0 0-3M13 4a2 2 0 1 0 0 4 2 2 0 1 0 0-4" class="b"/></svg>