<svg xmlns="http://www.w3.org/2000/svg" width="24" height="24"><!--Boxicons v3.0 https://boxicons.com | License  https://docs.boxicons.com/free--><path d="M17.41 12.9c.44 0 .84-.29.96-.74.55-2.06.27-4.22-.8-6.07a7.97 7.97 0 0 0-4.86-3.73 7.96 7.96 0 0 0-6.07.8 7.97 7.97 0 0 0-3.73 4.86c-.14.53.17 1.08.71 1.22l5.8 1.55-2.85 10.63 1.93.52 2.85-10.63 5.8 1.55c.09.02.17.03.26.03Zm-4.23-2.65L8.37 8.96c1.03-3.41 2.85-5.44 3.96-5.15 1.09.29 1.67 2.97.85 6.44"/><path d="M17.5 15a3.5 3.5 0 1 0 0 7 3.5 3.5 0 1 0 0-7"/></svg>