<svg xmlns="http://www.w3.org/2000/svg" width="24" height="24"><!--Boxicons v3.0 https://boxicons.com | License  https://docs.boxicons.com/free--><path d="M12 22c1.31 0 2.41-.83 2.82-2H9.18c.41 1.17 1.51 2 2.82 2m8-4c.55 0 1-.45 1-1v-2c0-.27-.11-.52-.29-.71L19 12.58V9.99c0-3.22-2.18-5.93-5.14-6.74-.29-.74-1.01-1.26-1.86-1.26s-1.56.52-1.86 1.26a6.93 6.93 0 0 0-3.36 2.12L2.71 1.29 1.3 2.7l20 20 1.41-1.41L19.42 18h.59ZM5.06 9.3c-.02.23-.06.46-.06.7v2.59L3.29 14.3a1 1 0 0 0-.29.71v2c0 .55.45 1 1 1h9.76z"/></svg>