<svg xmlns="http://www.w3.org/2000/svg" width="24" height="24"><!--Boxicons v3.0 https://boxicons.com | License  https://docs.boxicons.com/free--><path d="M8.5 12a1.5 1.5 0 1 0 0 3 1.5 1.5 0 1 0 0-3M15.5 12a1.5 1.5 0 1 0 0 3 1.5 1.5 0 1 0 0-3"/><path d="M12 22c5.51 0 10-4.49 10-10S17.51 2 12 2 2 6.49 2 12s4.49 10 10 10M4.14 10.52c.92.31 1.87.48 2.86.48.31 0 .62-.02.93-.05.11-.01.23-.04.34-.05.18-.03.37-.05.55-.08h.03c.12-.03.25-.06.37-.1.17-.04.33-.08.5-.13s.33-.12.49-.18c.1-.04.21-.07.31-.11.01 0 .02-.01.04-.02.16-.07.32-.15.48-.23.11-.05.21-.1.32-.16.15-.08.29-.17.44-.26.08-.05.17-.1.26-.16.03-.02.05-.04.07-.05.12-.08.24-.18.36-.27s.25-.19.37-.29l.28-.25c.09-.08.18-.15.26-.24.05-.05.1-.11.14-.16.03-.03.06-.06.09-.08a9.07 9.07 0 0 0 6.4 3.82v.06c0 4.41-3.59 8-8 8s-8-3.59-8-8c0-.5.05-1 .14-1.48Z"/></svg>