<svg xmlns="http://www.w3.org/2000/svg" width="24" height="24"><!--Boxicons v3.0 https://boxicons.com | License  https://docs.boxicons.com/free--><path d="M8.5 11a1.5 1.5 0 1 0 0 3 1.5 1.5 0 1 0 0-3M15.5 11a1.5 1.5 0 1 0 0 3 1.5 1.5 0 1 0 0-3"/><path d="M12 2C6.49 2 2 6.49 2 12s4.49 10 10 10 10-4.49 10-10S17.51 2 12 2m8 10c0 1.11-.23 2.17-.64 3.13-.98.24-3.83.87-7.36.87s-6.38-.62-7.36-.87a7.992 7.992 0 0 1-.27-5.54C5.22 9.85 6.1 10 7 10c.31 0 .62-.02.93-.05.11-.01.22-.03.33-.05.19-.03.37-.05.56-.08h.03c.13-.03.25-.06.37-.1.16-.04.33-.08.49-.13.17-.05.33-.12.5-.18.1-.04.2-.07.3-.11.01 0 .02-.01.04-.02.16-.07.32-.15.48-.23.11-.05.21-.1.32-.16.15-.08.3-.18.44-.27.08-.05.17-.1.25-.15.02-.02.05-.04.07-.05l.36-.27c.12-.09.24-.19.36-.28.1-.08.19-.17.28-.25s.18-.15.26-.23c.05-.05.09-.11.14-.16.03-.03.06-.06.09-.08 1.46 2.1 3.77 3.5 6.32 3.81.05.35.08.71.08 1.07Z"/></svg>