<svg xmlns="http://www.w3.org/2000/svg" width="24" height="24"><!--Boxicons v3.0 https://boxicons.com | License  https://docs.boxicons.com/free--><path d="M21.86 13.78q-.09-.345-.24-.69c0-.01 0-.02-.01-.03v-.02l-2.88-8.3-.06-.15a3 3 0 0 0-2.64-1.58c-1.63 0-2.97 1.31-3 2.94v.06h-2.01v-.06a3.01 3.01 0 0 0-3.01-2.94c-1.1 0-2.11.61-2.64 1.58l-2.91 8.34a4.4 4.4 0 0 0-.28.82v.03c-.11.38-.16.79-.16 1.22 0 2.76 2.24 5 5 5s4.91-2.17 4.99-4.86h.03c.08 2.69 2.28 4.86 4.99 4.86s5-2.24 5-5c0-.42-.07-.82-.17-1.22h.02ZM7 18c-1.65 0-3-1.35-3-3 0-.25.03-.48.09-.71l.19-.54c.1-.23.24-.44.39-.63.02-.03.05-.06.07-.09.07-.08.14-.14.21-.21a3.257 3.257 0 0 1 .33-.27c.05-.03.1-.07.15-.1.07-.05.15-.09.23-.13.06-.03.13-.06.19-.08.07-.03.15-.06.22-.08.08-.03.17-.05.26-.07.06-.01.12-.03.19-.04.15-.02.31-.04.47-.04 1.39 0 2.61.98 2.92 2.33l.08.73a3.005 3.005 0 0 1-3 2.95Zm10 0c-1.65 0-3-1.35-3-3 0-.14.02-.28.04-.41l.05-.24c.18-.84.72-1.54 1.43-1.95.02-.01.04-.02.07-.04.12-.07.25-.12.38-.17.05-.02.11-.03.16-.05.11-.03.22-.07.34-.09.14-.03.29-.04.44-.04h.1c.19 0 .38.02.56.06.03 0 .06.01.1.02.17.04.33.09.49.15h.03c.71.3 1.28.87 1.58 1.58l.03.07c.14.34.22.71.22 1.1 0 1.65-1.35 3-3 3Z"/></svg>