<svg xmlns="http://www.w3.org/2000/svg" width="24" height="24"><!--Boxicons v3.0 https://boxicons.com | License  https://docs.boxicons.com/free--><path d="M16.41 11H20V9h-3.59l-3-3c-.78-.78-2.05-.78-2.83 0L7.99 8.59c-.78.78-.78 2.05 0 2.83l3 3v4.59h2v-4.59c0-.53-.21-1.04-.59-1.41l-2-2 2.59-2.59 2 2c.37.37.89.59 1.41.59ZM15.99 2a2 2 0 1 0 0 4 2 2 0 1 0 0-4"/><path d="M18 13c-2.21 0-4 1.79-4 4s1.79 4 4 4 4-1.79 4-4-1.79-4-4-4m0 6c-1.1 0-2-.9-2-2s.9-2 2-2 2 .9 2 2-.9 2-2 2M10 17c0-2.21-1.79-4-4-4s-4 1.79-4 4 1.79 4 4 4 4-1.79 4-4m-6 0c0-1.1.9-2 2-2s2 .9 2 2-.9 2-2 2-2-.9-2-2"/></svg>