<svg xmlns="http://www.w3.org/2000/svg" width="24" height="24"><!--Boxicons v3.0 https://boxicons.com | License  https://docs.boxicons.com/free--><path d="M20 2h-2s0 .41-.08 1H6.08C6.01 2.44 6 2.06 6 2H4c0 .08.08 6.94 5.46 10C4.09 15.06 4 21.92 4 22h2s0-.41.08-1h11.84c.07.56.08.94.08 1h2c0-.08-.08-6.94-5.46-10C19.91 8.94 20 2.08 20 2m-2.51 3c-.19.64-.46 1.32-.83 2H7.31c-.36-.68-.63-1.36-.82-2zM15.2 9c-.81.82-1.86 1.51-3.2 1.94C10.64 10.5 9.59 9.82 8.77 9zM12 13.06c1.36.44 2.41 1.12 3.23 1.94H8.8c.81-.82 1.86-1.51 3.2-1.94M6.51 19c.19-.64.46-1.32.83-2h9.35c.36.68.63 1.36.82 2z"/></svg>