<svg xmlns="http://www.w3.org/2000/svg" width="24" height="24"><!--Boxicons v3.0 https://boxicons.com | License  https://docs.boxicons.com/free--><path d="M21.65 12.94 19.99 9.8c-.1-4.53-3.64-7.8-8.5-7.8s-9.48 3.24-9.48 8.67c0 2.72 1.03 5.05 2.99 6.79V22h10v-2h2c1.1 0 2-.9 2-2v-3h1.26a1.5 1.5 0 0 0 1.39-2.06m-6.83-1.12C14.51 12.51 13.81 13 13 13c-.16 0-.31-.02-.46-.06a2.496 2.496 0 0 1-4.08 0c-.15.04-.3.06-.46.06-1.1 0-2-.9-2-2 0-.37.11-.7.28-1C6.11 9.7 6 9.37 6 9c0-1.1.9-2 2-2 .09 0 .18.02.26.03C8.6 6.42 9.25 6 10 6c.44 0 .84.15 1.17.39.39-.24.84-.39 1.33-.39 1.3 0 2.36 1 2.48 2.26.61.34 1.02.99 1.02 1.74 0 .81-.49 1.51-1.18 1.82"/></svg>