<svg xmlns="http://www.w3.org/2000/svg" width="24" height="24"><!--Boxicons v3.0 https://boxicons.com | License  https://docs.boxicons.com/free--><path d="M17 16c-3.31 0-6-2.69-6-6V5.5C11 3.57 9.43 2 7.5 2S4 3.57 4 5.5v.68C2.84 6.59 2 7.69 2 9h2v2c0 3.52 2.04 6.57 5 8.05V22h2v-2.23c.64.15 1.31.23 2 .23v2h2v-2.23a9.05 9.05 0 0 0 6.49-5.8A5.99 5.99 0 0 1 17 16M7 7c-.55 0-1-.45-1-1s.45-1 1-1 1 .45 1 1-.45 1-1 1"/><path d="M21.47 10H12c0 2.76 2.24 5 5 5 2.56 0 4.68-1.94 4.97-4.42a.51.51 0 0 0-.5-.58"/></svg>