<svg xmlns="http://www.w3.org/2000/svg" width="24" height="24"><!--Boxicons v3.0 https://boxicons.com | License  https://docs.boxicons.com/free--><path d="M3.5 8c.35 0 .66-.12.92-.32l.64.96c-1.78.91-3.01 2.73-3.01 4.86 0 3 2.44 5.46 5.45 5.5h7.76c2.73 0 5.14-1.55 6.13-3.95.48-1.15.67-2.38.58-3.64-.27-3.71-3.24-6.86-6.92-7.34-2.59-.33-5.1.61-6.82 2.42C11.3 7.61 13.5 10.55 13.5 14h-2c0-2.71-1.81-4.98-4.28-5.72L6.23 6.8c.45-.26.76-.74.76-1.3 0-.83-.67-1.5-1.5-1.5-.69 0-1.27.47-1.44 1.11A1.498 1.498 0 0 0 1.99 6.5c0 .83.67 1.5 1.5 1.5Z"/></svg>