<svg xmlns="http://www.w3.org/2000/svg" width="24" height="24"><!--Boxicons v3.0 https://boxicons.com | License  https://docs.boxicons.com/free--><path d="M22 11h-.17c-1.05 0-1.96-.67-2.36-1.64l-.02-.05c-.41-.98-.25-2.1.5-2.85l.12-.12a.996.996 0 1 0-1.41-1.41l-.12.12c-.75.75-1.87.91-2.85.5l-.05-.02C14.67 5.13 14 4.22 14 3.17v-.08c0-.64-.45-1.08-1-1.08s-1 .45-1 1v.04c0 1.1-.66 2.08-1.67 2.5s-2.18.19-2.95-.59l-.02-.03a.996.996 0 1 0-1.41 1.41l.04.04c.77.77 1 1.92.58 2.93l-.03.06C6.13 10.36 5.17 11 4.1 11c-.64 0-1.08.45-1.08 1s.45 1 1 1h.07c1.08 0 2.05.65 2.46 1.64l.02.05c.42 1 .19 2.16-.58 2.93l-.04.04a.996.996 0 1 0 1.41 1.41l.04-.04c.77-.77 1.92-1 2.93-.58l.14.06c.94.39 1.55 1.3 1.55 2.32v.09c0 .64.45 1.09 1 1.09s1-.45 1-1v-.17c0-1.01.61-1.93 1.55-2.32l.25-.1c.94-.39 2.02-.17 2.74.55l.12.12a.996.996 0 1 0 1.41-1.41l-.12-.12c-.75-.75-.91-1.87-.5-2.85l.02-.05c.4-.97 1.31-1.64 2.36-1.64h.08c.64 0 1.09-.45 1.09-1s-.45-1-1-1ZM9 13c-.55 0-1-.45-1-1s.45-1 1-1 1 .45 1 1-.45 1-1 1m5 3.5c-.55 0-1-.45-1-1s.45-1 1-1 1 .45 1 1-.45 1-1 1m1-4.5c-1.1 0-2-.9-2-2s.9-2 2-2 2 .9 2 2-.9 2-2 2"/></svg>