<svg xmlns="http://www.w3.org/2000/svg" width="24" height="24"><!--Boxicons v3.0 https://boxicons.com | License  https://docs.boxicons.com/free--><path d="M12 21c1.1 0 2-.9 2-2s-.9-2-2-2-2 .9-2 2a2 2 0 0 0 2 2M.69 9.69 2.1 11.1c.81-.81 1.72-1.5 2.68-2.08L3.32 7.56C2.38 8.17 1.5 8.87.69 9.68ZM21.9 11.1l1.41-1.41A15.9 15.9 0 0 0 12 5c-1.66 0-3.28.28-4.82.77L2.71 1.29 1.3 2.7l20 20 1.41-1.41-5.47-5.47.42-.42a7.9 7.9 0 0 0-2.58-1.73l-2.59-2.59c2.49.12 4.81 1.13 6.58 2.91l1.42-1.41A11.92 11.92 0 0 0 12 9.06c-.49 0-.96.04-1.44.1L8.79 7.39a13.92 13.92 0 0 1 13.1 3.72ZM3.51 12.57l1.42 1.41c.83-.83 1.79-1.49 2.83-1.98l-1.49-1.49c-1 .54-1.92 1.23-2.75 2.06Zm2.83 2.82 1.41 1.41c.87-.87 1.97-1.44 3.15-1.66l-1.62-1.62c-1.09.39-2.1 1.02-2.94 1.86Z"/></svg>