<svg xmlns="http://www.w3.org/2000/svg" width="24" height="24"><!--Boxicons v3.0 https://boxicons.com | License  https://docs.boxicons.com/free--><path d="M11 19h2v3h-2zM11 2h2v3h-2zM2 11h3v2H2zM19 11h3v2h-3zM6.34 16.24 5.28 17.3l-1.06 1.06.71.71.71.71 1.06-1.06 1.06-1.06-.71-.71zM17.66 7.76l1.06-1.06 1.06-1.06-.71-.71-.71-.71-1.06 1.06-1.06 1.06.71.71zM6.34 7.76l.71-.71.71-.71L6.7 5.28 5.64 4.22l-.71.71-.71.71L5.28 6.7zM17.66 16.24l-.71.71-.71.71 1.06 1.06 1.06 1.06.71-.71.71-.71-1.06-1.06zM12 7c-.2 0-.4.04-.59.06h-.01c-2.47.3-4.39 2.39-4.39 4.94 0 2.76 2.24 5 5 5s5-2.24 5-5-2.24-5-5-5Zm0 8c-1.65 0-3-1.35-3-3 0-1.31.85-2.41 2.02-2.82a4.93 4.93 0 0 0 1.45 3.36c.46.46.99.82 1.59 1.07.13.05.26.08.39.12A2.97 2.97 0 0 1 12.01 15Z"/></svg>