<svg xmlns="http://www.w3.org/2000/svg" width="24" height="24"><!--Boxicons v3.0 https://boxicons.com | License  https://docs.boxicons.com/free--><path d="m19.91 11.5 1.79-1.79a.996.996 0 0 0 0-1.41l-3-3a.996.996 0 0 0-1.41 0L15.5 7.09zM14.09 8.5 6.3 16.29a1 1 0 0 0-.29.71v3c0 .55.45 1 1 1h3c.27 0 .52-.11.71-.29l7.79-7.79-4.41-4.41ZM11.6 6.39 8.83 5.16 7.6 2.39a.68.68 0 0 0-.6-.4c-.27-.02-.5.15-.61.39L5.16 5.05 2.38 6.39C2.15 6.5 2 6.74 2 7s.16.49.4.6l2.77 1.23L6.4 11.6a.663.663 0 0 0 1.22 0l1.23-2.77 2.77-1.23c.24-.11.4-.35.4-.61s-.16-.5-.4-.61ZM21.76 18.63l-1.66-.74-.74-1.66a.41.41 0 0 0-.36-.24c-.16-.01-.3.09-.37.23l-.74 1.6-1.67.8c-.14.07-.23.21-.23.37s.1.3.24.36l1.66.74.74 1.66a.404.404 0 0 0 .74 0l.74-1.66 1.66-.74a.404.404 0 0 0 0-.74Z"/></svg>