<svg xmlns="http://www.w3.org/2000/svg" width="24" height="24"><!--Boxicons v3.0 https://boxicons.com | License  https://docs.boxicons.com/free--><path d="M12.22 7.81c.86.19 1.71.38 2.67.54.19-1.4.32-3.06.32-5.35h-4.43c0 1.79-.08 3.23-.2 4.46.57.11 1.1.23 1.64.35M7.81 11.78c.19-.86.38-1.71.54-2.67-1.4-.19-3.06-.32-5.35-.32v4.43c1.79 0 3.23.08 4.46.2.11-.57.23-1.1.35-1.64M8.79 3H5c-1.1 0-2 .9-2 2v1.79c2.37 0 4.14.14 5.61.34.11-1.14.18-2.47.18-4.13M11.78 9.76c-.49-.11-.97-.21-1.46-.31-.17 1.02-.36 1.9-.56 2.77-.11.49-.21.97-.31 1.46 1.02.17 1.9.36 2.77.56.49.11.97.21 1.46.31.17-1.02.36-1.9.56-2.77.11-.49.21-.97.31-1.46-1.02-.17-1.9-.36-2.77-.56M16.19 12.22c-.19.86-.38 1.71-.54 2.67 1.4.19 3.06.32 5.35.32v-4.43c-1.79 0-3.23-.08-4.46-.2-.11.57-.23 1.1-.35 1.64M15.21 21H19c1.1 0 2-.9 2-2v-1.79c-2.37 0-4.14-.14-5.61-.34a43 43 0 0 0-.18 4.13M19 3h-1.79c0 2.37-.14 4.14-.34 5.61 1.14.11 2.47.18 4.13.18V5c0-1.1-.9-2-2-2M3 15.21V19c0 1.1.9 2 2 2h1.79c0-2.37.14-4.14.34-5.61A43 43 0 0 0 3 15.21M11.78 16.19c-.86-.19-1.71-.38-2.67-.54-.19 1.4-.32 3.06-.32 5.35h4.43c0-1.79.08-3.23.2-4.46-.57-.11-1.1-.23-1.64-.35"/></svg>