<svg xmlns="http://www.w3.org/2000/svg" width="24" height="24"><!--Boxicons v3.0 https://boxicons.com | License  https://docs.boxicons.com/free--><path d="M4.93 4.93C3.04 6.82 2 9.33 2 12s1.04 5.18 2.93 7.07A9.96 9.96 0 0 0 12 21.99c2.56 0 5.12-.97 7.07-2.92C20.96 17.18 22 14.67 22 12s-1.04-5.18-2.93-7.07c-3.9-3.9-10.24-3.9-14.14 0m11.61 9.61c-1.95 1.95-5.12 1.95-7.07 0s-1.95-5.12 0-7.07a5.003 5.003 0 0 1 7.07 0 5.003 5.003 0 0 1 0 7.07"/><path d="M14.44 10.15c.19-.25.31-.56.31-.9 0-.83-.67-1.5-1.5-1.5s-1.5.67-1.5 1.5c0 .34.12.65.31.9-.49.37-.81.94-.81 1.6 0 1.1.9 2 2 2s2-.9 2-2c0-.66-.32-1.23-.81-1.6m-1.19-1.4c.28 0 .5.22.5.5s-.22.5-.5.5-.5-.22-.5-.5.22-.5.5-.5m0 4c-.55 0-1-.45-1-1s.45-1 1-1 1 .45 1 1-.45 1-1 1"/></svg>