<svg xmlns="http://www.w3.org/2000/svg" width="24" height="24"><!--Boxicons v3.0 https://boxicons.com | License  https://docs.boxicons.com/free--><path d="M19.77 10.1c.15.62.23 1.26.23 1.9s-.08 1.28-.23 1.9l1.94.47c.19-.77.28-1.57.28-2.37s-.1-1.6-.28-2.37zM16.29 18.75l1.07 1.69c1.35-.86 2.48-2.04 3.29-3.42l-1.73-1.01a8.1 8.1 0 0 1-2.63 2.74M18.92 7.98l1.73-1.01a10.06 10.06 0 0 0-3.29-3.42l-1.07 1.69c1.08.69 1.99 1.63 2.63 2.74M12 4c.75 0 1.49.1 2.2.31l.55-1.92c-.89-.25-1.81-.38-2.75-.38C6.49 2 2 6.49 2 12s4.49 10 10 10c.93 0 1.86-.13 2.75-.38l-.55-1.92c-.71.2-1.45.31-2.2.31-4.41 0-8-3.59-8-8S7.59 4 12 4" class="b"/></svg>