<svg xmlns="http://www.w3.org/2000/svg" width="24" height="24"><!--Boxicons v3.0 https://boxicons.com | License  https://docs.boxicons.com/free--><path d="M4.5 22h15a2.5 2.5 0 0 0 2.5-2.5v-1c0-.81-.4-1.53-1-1.99V13c0-.3-.02-.59-.04-.89l-4.46 1.98-4.5-2-4.5 2-4.45-1.98c-.03.29-.04.59-.04.89v3.51c-.6.46-1 1.17-1 1.99v1a2.5 2.5 0 0 0 2.5 2.5ZM20 19.5c0 .28-.22.5-.5.5h-15c-.28 0-.5-.22-.5-.5v-1c0-.28.22-.5.5-.5h15c.28 0 .5.22.5.5zM14.49 4.36C14.41 3.05 13.33 2 12 2S9.59 3.05 9.51 4.36a9.05 9.05 0 0 0-6.03 5.76l4.01 1.79 4.5-2 4.5 2 4.02-1.79a9 9 0 0 0-6.03-5.76Z"/></svg>