<svg xmlns="http://www.w3.org/2000/svg" width="24" height="24"><!--Boxicons v3.0 https://boxicons.com | License  https://docs.boxicons.com/free--><path d="M9.78 21.74c.54.12 1.09.2 1.66.23 7.19-2.71 6.34-9.72 5.98-11.58-2.02.25-3.62 1.38-4.32 1.97.15.84.32 2.44-.04 4.21-.34 1.66-1.2 3.67-3.28 5.17M3.85 6.23c-1.54 7.7 4.76 10.6 6.8 11.33.83-1.9.65-3.88.49-4.79-.8-.29-2.27-.94-3.62-2.14-1.27-1.12-2.57-2.87-2.84-5.41-.3.32-.57.66-.83 1.01"/><path d="M19.44 10.48c.3 2.05.55 6.73-2.56 10.24C19.93 19.01 22 15.74 22 12c0-.13-.01-.26-.02-.4-.87-.6-1.72-.96-2.54-1.13ZM6.68 3.55c-.09 1.1.03 2.06.32 2.88 1.74-1.36 5.85-3.94 10.59-2.71A9.96 9.96 0 0 0 12 2c-1.96 0-3.78.57-5.32 1.55"/><path d="M21.56 9.07a10 10 0 0 0-.47-1.22C15.2 2.81 9.58 6.83 7.98 8.19c1.22 1.56 2.93 2.36 3.78 2.67 2.03-1.76 5.84-3.58 9.81-1.79ZM2 12c0 3.83 2.16 7.16 5.33 8.84.93-.44 1.67-.97 2.22-1.58-2.06-.85-6.21-3.09-7.53-7.68 0 .14-.02.28-.02.42"/></svg>