<svg xmlns="http://www.w3.org/2000/svg" width="24" height="24"><!--Boxicons v3.0 https://boxicons.com | License  https://docs.boxicons.com/free--><path d="M15.8 4.4a.995.995 0 0 0-1.19-.32l-1.69.71a3.504 3.504 0 0 0-6.93.72c0 .7.21 1.36.59 1.93L2.61 9.09c-.37.16-.62.52-.62.92v8a1 1 0 0 0 .84.99l18 3c.05 0 .11.01.16.01.24 0 .46-.08.65-.24.22-.19.35-.47.35-.76v-8c0-.22-.07-.43-.2-.6l-6-8ZM9.5 4c.83 0 1.5.67 1.5 1.5 0 .16-.03.34-.07.48-.29.82-1.3 1.25-2.08.87-.51-.25-.84-.78-.84-1.35 0-.83.67-1.5 1.5-1.5ZM4 17.15v-5.47l16 2.67v1.97L6.16 14.01l-.33 1.97 14.16 2.36v1.47l-16-2.67Z"/></svg>