<svg xmlns="http://www.w3.org/2000/svg" width="24" height="24"><!--Boxicons v3.0 https://boxicons.com | License  https://docs.boxicons.com/free--><path d="M12 8c-3.31 0-6 2.69-6 6 0 1.91.88 2.93 1.72 3.93.32.37.65.76.95 1.21.18.27.31.57.4.86H8v2h8v-2h-1.07c.1-.29.22-.59.4-.86.3-.44.62-.83.94-1.2.85-1 1.73-2.04 1.73-3.94 0-3.31-2.69-6-6-6m-1-3.75V6h2V2.5h-2zM2.55 7.17 2 8l-.55.83 1.5 1 1.5 1L5 10l.55-.83-1.5-1zm4.28-3.72L6 4l-.83.55 1 1.5 1 1.5L8 7l.83-.55-1-1.5zm14.62 3.72-1.5 1-1.5 1L19 10l.55.83 1.5-1 1.5-1L22 8zm-5.28-2.22-1 1.5L16 7l.83.55 1-1.5 1-1.5L18 4l-.83-.55z"/></svg>