<svg xmlns="http://www.w3.org/2000/svg" width="24" height="24"><!--Boxicons v3.0 https://boxicons.com | License  https://docs.boxicons.com/free--><path d="M17.99 9.18C17.84 6.3 15.22 4 12 4S6.17 6.3 6.01 9.18C3.49 10.3 2 12.06 2 14c0 3.36 4.39 6 10 6s10-2.64 10-6c0-1.94-1.49-3.71-4.01-4.82M7 16c-.55 0-1-.45-1-1s.45-1 1-1 1 .45 1 1-.45 1-1 1m5 1c-.55 0-1-.45-1-1s.45-1 1-1 1 .45 1 1-.45 1-1 1m0-5h-.23c-1.22-.03-3.56-.35-3.75-2.32C8.01 9.6 8 9.52 8 9.45c0-1.9 1.79-3.44 4-3.44s4 1.54 4 3.44c0 .08 0 .16-.03.29-.2 2.04-2.84 2.27-3.97 2.27Zm5 4c-.55 0-1-.45-1-1s.45-1 1-1 1 .45 1 1-.45 1-1 1"/></svg>