<svg xmlns="http://www.w3.org/2000/svg" width="24" height="24"><!--Boxicons v3.0 https://boxicons.com | License  https://docs.boxicons.com/free--><path d="M20.87 6.74c-.18-.31-.51-.5-.87-.5h-4.96L12.87 2.5c-.36-.62-1.37-.62-1.73 0L8.97 6.24H4.01c-.36 0-.69.19-.87.5s-.18.69 0 1L5.62 12l-2.48 4.26c-.18.31-.18.69 0 1s.51.5.87.5h4.96l2.17 3.74a.987.987 0 0 0 1.72 0l2.17-3.74h4.96c.36 0 .69-.19.87-.5s.18-.69 0-1L18.38 12l2.48-4.26c.18-.31.18-.69 0-1ZM12 4.99l.72 1.25h-1.45l.72-1.25Zm1.89 3.25L16.08 12l-2.19 3.76h-3.77L7.93 12l2.19-3.76zm-8.15 0H7.8l-1.03 1.77zm0 7.53L6.77 14l1.03 1.77zM12 19.02l-.72-1.25h1.45l-.72 1.25Zm6.26-3.25H16.2L17.23 14zM16.2 8.24h2.06l-1.03 1.77z"/></svg>