<svg xmlns="http://www.w3.org/2000/svg" width="24" height="24"><!--Boxicons v3.0 https://boxicons.com | License  https://docs.boxicons.com/free--><path d="M14.5 18.56c0-2.05-1.68-3.38-2.5-3.91-.82.53-2.5 1.86-2.5 3.91 0 1.62 1.12 2.94 2.5 2.94s2.5-1.32 2.5-2.94"/><path d="M18.78 7.39a.99.99 0 0 0-.83.32c-.77.84-1.82 1.31-2.94 1.31-2.21 0-4.01-1.8-4.01-4.01 0-.27.03-.56.1-.87.08-.39-.07-.79-.38-1.02a.98.98 0 0 0-1.09-.06C7.16 4.48 3 7.67 3 13.01c0 3.59 2.12 6.7 5.18 8.14-.42-.75-.68-1.63-.68-2.57 0-3.96 3.9-5.88 4.07-5.96.28-.13.59-.13.87 0 .17.08 4.07 2.01 4.07 5.96 0 .95-.26 1.82-.68 2.57 3.05-1.44 5.18-4.54 5.18-8.14 0-1.82-.49-3.55-1.47-5.14a.98.98 0 0 0-.76-.47Z"/></svg>