<svg xmlns="http://www.w3.org/2000/svg" width="24" height="24"><!--Boxicons v3.0 https://boxicons.com | License  https://docs.boxicons.com/free--><path d="M21.38 10.08a.99.99 0 0 0-1.09.22l-.22.22c-.41.41-.83.72-1.24.93-1.7.85-3.69.7-5.2-.33a5.48 5.48 0 0 0 1.27-4.6c-.39-2.18-2.09-3.94-4.24-4.39-1.66-.34-3.35.06-4.64 1.11a5.5 5.5 0 0 0-2.01 3.81l-.03-.04h-2s0 2.72 2.6 2.97q.21.405.48.78A6.01 6.01 0 0 0 2 16.58c.28 3.04 3 5.43 6.18 5.43h6.1c4.38 0 7.69-3.01 7.69-7v-4c0-.4-.24-.77-.62-.92ZM9 8c-.55 0-1-.45-1-1s.45-1 1-1 1 .45 1 1-.45 1-1 1"/></svg>