<svg xmlns="http://www.w3.org/2000/svg" width="24" height="24"><!--Boxicons v3.0 https://boxicons.com | License  https://docs.boxicons.com/free--><path d="M2 13h20v2H2zM5 22h14c1.65 0 3-1.35 3-3v-2c0-.55-.45-1-1-1h-9c-.27 0-.52.11-.71.29L9 18.58l-2.29-2.29A1 1 0 0 0 6 16H3c-.55 0-1 .45-1 1v2c0 1.65 1.35 3 3 3M3 12h18c.55 0 1-.45 1-1V9c0-3.93-4.39-7-10-7S2 5.07 2 9v2c0 .55.45 1 1 1m14.5-4c.28 0 .5.22.5.5s-.22.5-.5.5-.5-.22-.5-.5.22-.5.5-.5M15 5c.55 0 1 .45 1 1s-.45 1-1 1-1-.45-1-1 .45-1 1-1m-2.5 2c.28 0 .5.22.5.5s-.22.5-.5.5-.5-.22-.5-.5.22-.5.5-.5"/></svg>