<svg xmlns="http://www.w3.org/2000/svg" width="24" height="24"><!--Boxicons v3.0 https://boxicons.com | License  https://docs.boxicons.com/free--><path d="M8.14 13H2.05c.2 2.01 1 3.84 2.21 5.32l4.3-4.3q-.285-.48-.42-1.02m1.84-4.43q.48-.285 1.02-.42v-6.1c-2.01.2-3.84 1-5.32 2.21l4.3 4.3Zm8.34-4.31A10 10 0 0 0 13 2.05v6.09c.36.09.7.24 1.02.42zM8.57 9.98l-4.3-4.3A10 10 0 0 0 2.06 11h6.09c.09-.36.24-.7.42-1.02m6.86 4.04 4.3 4.3A10 10 0 0 0 21.94 13h-6.09c-.09.36-.24.7-.42 1.02m0-4.04q.285.48.42 1.02h6.09c-.2-2.01-1-3.84-2.21-5.32zm-9.75 9.76A10 10 0 0 0 11 21.95v-6.09c-.36-.09-.7-.24-1.02-.42zM13 15.86v6.09c2.01-.2 3.84-1 5.32-2.21l-4.3-4.3q-.48.285-1.02.42"/></svg>