<svg xmlns="http://www.w3.org/2000/svg" width="24" height="24"><!--Boxicons v3.0 https://boxicons.com | License  https://docs.boxicons.com/free--><path d="M21.11 11.11c.58-.93.89-2.01.89-3.13 0-1.6-.62-3.1-1.75-4.23S17.62 2 16.02 2c-1.12 0-2.2.31-3.13.89l-.24-.24a.996.996 0 0 0-1.41 0L9.65 4.24a.996.996 0 0 0 0 1.41l.13.13-4 4-.13-.13a.996.996 0 0 0-1.41 0l-1.59 1.59a.996.996 0 0 0 0 1.41l.24.24c-.58.93-.89 2.01-.89 3.13 0 1.6.62 3.1 1.75 4.23S6.38 22 7.98 22c1.12 0 2.2-.31 3.13-.89l.24.24c.39.39 1.02.39 1.41 0l1.59-1.59a.996.996 0 0 0 0-1.41l-.13-.13 4-4 .13.13c.39.39 1.02.39 1.41 0l1.59-1.59a.996.996 0 0 0 0-1.41zM7.5 15c-.28 0-.5-.22-.5-.5s.22-.5.5-.5.5.22.5.5-.22.5-.5.5m1-2c0-.28.22-.5.5-.5s.5.22.5.5-.22.5-.5.5-.5-.22-.5-.5m1 4c-.28 0-.5-.22-.5-.5s.22-.5.5-.5.5.22.5.5-.22.5-.5.5m1.5-1.5c-.28 0-.5-.22-.5-.5s.22-.5.5-.5.5.22.5.5-.22.5-.5.5m3-7c-.28 0-.5-.22-.5-.5s.22-.5.5-.5.5.22.5.5-.22.5-.5.5m1-2c0-.28.22-.5.5-.5s.5.22.5.5-.22.5-.5.5-.5-.22-.5-.5m1 4c-.28 0-.5-.22-.5-.5s.22-.5.5-.5.5.22.5.5-.22.5-.5.5M17.5 9c-.28 0-.5-.22-.5-.5s.22-.5.5-.5.5.22.5.5-.22.5-.5.5"/></svg>