<svg xmlns="http://www.w3.org/2000/svg" width="24" height="24"><!--Boxicons v3.0 https://boxicons.com | License  https://docs.boxicons.com/free--><path d="m20.24 6.71.7-.71.71-.71-1.51-1.5-1.5-1.5-.71.71-.7.71 1.5 1.5zM21 13c0-4.88-4.12-9-9-9-1.84 0-3.56.59-5 1.59L5.88 4.47l.76-.76L5.93 3l-.71-.71-.76.76L2.7 1.29 1.29 2.7l1.76 1.76 1.41 1.41 1 1 5.53 5.53 1.59 1.59 5.53 5.53 3.18 3.18 1.41-1.41L19.41 18c.99-1.44 1.59-3.16 1.59-5m-4 1h-1.59l-2-2H17zm-6-4.41V8h2v3.59zM3 13c0 4.88 4.12 9 9 9 1.63 0 3.17-.47 4.5-1.26L4.26 8.5A8.8 8.8 0 0 0 3 13"/></svg>