<svg xmlns="http://www.w3.org/2000/svg" width="24" height="24"><!--Boxicons v3.0 https://boxicons.com | License  https://docs.boxicons.com/free--><path d="M2.99 13.11 2 13l.02.17a9.996 9.996 0 0 0 8.82 8.7L12 22c-.59-4.69-4.31-8.37-9.01-8.89M12 22l1.16-.13c4.6-.51 8.24-4.11 8.82-8.7L22 13l-.99.11c-4.7.52-8.43 4.2-9.01 8.89M5.95 12.51c.69 1.18 2.2 1.58 3.39.91.06-.03.11-.08.17-.12 0 .07-.02.14-.02.21a2.5 2.5 0 0 0 5 0c0-.07-.02-.14-.02-.21.06.04.11.09.17.12 1.2.68 2.73.26 3.41-.94.68-1.19.27-2.7-.91-3.39-.06-.03-.13-.06-.19-.08.06-.03.13-.05.19-.09 1.2-.69 1.61-2.22.92-3.41a2.493 2.493 0 0 0-3.41-.92c-.06.04-.11.08-.17.12 0-.07.02-.14.02-.21a2.5 2.5 0 0 0-5 0c0 .07.02.14.02.21-.06-.04-.11-.09-.17-.12-1.2-.68-2.73-.26-3.41.94-.68 1.19-.27 2.7.91 3.39.06.04.13.06.19.09-.06.03-.13.05-.19.08-1.19.7-1.59 2.23-.89 3.42Zm6.04-6.01a2.5 2.5 0 0 1 0 5 2.5 2.5 0 0 1 0-5"/></svg>