<svg xmlns="http://www.w3.org/2000/svg" width="24" height="24"><!--Boxicons v3.0 https://boxicons.com | License  https://docs.boxicons.com/free--><path d="M2 9.5c0 3.1 1.64 5.77 3.98 6.91 0-.15-.02-.3-.02-.45.01-1.98.7-3.96 1.91-5.64-.05-.06-.09-.13-.15-.19-.54-.68-1.22-1.52-1.22-3.12s.68-2.44 1.22-3.12c.47-.59.78-.98.78-1.87-3.58 0-6.5 3.36-6.5 7.5ZM10.48 2.36c-.09 1.37-.7 2.14-1.2 2.77-.47.59-.78.98-.78 1.87s.28 1.25.72 1.79c1.13-1.06 2.45-1.86 3.84-2.31.42-.14.84-.24 1.26-.32-.77-1.81-2.15-3.19-3.84-3.8M15.97 15.15c-.11.88-.26 1.96-1.42 3.12s-2.25 1.3-3.12 1.42c-.66.09-1.17.15-1.75.64 1.15 1.14 2.68 1.7 4.29 1.7 1.95 0 4-.82 5.6-2.42 2.37-2.36 3.02-5.73 1.84-8.27-.97.76-1.88.89-2.63.98-.75.1-1.29.17-1.97.85s-.75 1.22-.85 1.97Z"/><path d="M13.69 8.38a8.3 8.3 0 0 0-3.3 2.04c-1.53 1.53-2.41 3.55-2.42 5.55 0 .97.2 1.89.58 2.72.97-.76 1.88-.88 2.63-.98s1.29-.17 1.97-.85.75-1.22.85-1.97c.11-.88.26-1.96 1.42-3.12s2.25-1.3 3.12-1.42c.67-.09 1.17-.15 1.75-.64-1.63-1.62-4.16-2.13-6.59-1.33Z"/></svg>