<svg xmlns="http://www.w3.org/2000/svg" width="24" height="24"><!--Boxicons v3.0 https://boxicons.com | License  https://docs.boxicons.com/free--><path d="M10.15 10.31c.13 1.23.8 2.29 1.87 2.97 1.33.85 3.09.81 4.38-.11.58-.42 1.03-.94 1.33-1.55a9.27 9.27 0 0 1 3.38-3.75 9.9 9.9 0 0 0-2.03-2.95 9.8 9.8 0 0 0-2.96-2.03c-.93 1.45-2.2 2.62-3.72 3.37-1.6.79-2.43 2.39-2.25 4.05"/><path d="M19.54 12.47c-.46.94-1.14 1.74-1.99 2.34a5.98 5.98 0 0 1-6.61.16 6.03 6.03 0 0 1-2.78-4.44c-.2-1.82.43-3.6 1.72-4.89q.705-.705 1.59-1.14a7.45 7.45 0 0 0 2.67-2.25c-3.22-.7-6.72.19-9.22 2.68-3.9 3.9-3.9 10.24 0 14.14s10.24 3.9 14.14 0c2.5-2.5 3.39-6 2.68-9.22a7.2 7.2 0 0 0-2.22 2.62Z"/></svg>