<svg xmlns="http://www.w3.org/2000/svg" width="24" height="24"><!--Boxicons v3.0 https://boxicons.com | License  https://docs.boxicons.com/free--><path d="M18.41 22h.37c.31-.01.6-.17.78-.43l2.27-3.27c.15-.22.21-.49.16-.76a1 1 0 0 0-.43-.65l-4.91-3.27c-.41-.27-.96-.21-1.29.15l-1.88 2.03c-.76-.45-2.03-1.26-3.03-2.26s-1.81-2.27-2.26-3.02l2.03-1.88c.36-.33.43-.88.15-1.29L7.1 2.44c-.15-.22-.38-.38-.64-.43-.27-.05-.54 0-.76.16L2.43 4.43c-.26.18-.42.47-.43.78-.03.71-.16 7.04 4.79 11.98 4.46 4.46 10.04 4.8 11.62 4.8ZM15.5 2c-1.74 0-3.37.68-4.6 1.9l1.41 1.41c.85-.85 1.98-1.32 3.18-1.32s2.33.47 3.18 1.32 1.32 1.98 1.32 3.18-.47 2.33-1.32 3.18l1.41 1.41c1.23-1.23 1.9-2.86 1.9-4.6s-.68-3.37-1.9-4.6-2.86-1.9-4.6-1.9Z"/><path d="M17.71 10.71a3.114 3.114 0 0 0 0-4.41c-1.18-1.18-3.24-1.18-4.41 0l1.41 1.41c.42-.42 1.16-.42 1.59 0 .44.44.44 1.15 0 1.59z"/></svg>