<svg xmlns="http://www.w3.org/2000/svg" width="24" height="24"><!--Boxicons v3.0 https://boxicons.com | License  https://docs.boxicons.com/free--><path d="M8.76 7.95c-.19.19-.19.51 0 .71l.1.1c.76.76 2.07.76 2.83 0l3.04-3.04.71.71-.9.9 5.78 5.78c2.29-2.36 2.27-6.01-.07-8.35-2.16-2.15-5.42-2.31-7.77-.54L8.77 7.96Z"/><path d="m9.59 15.81.71-.71 4 4 1.19-1.19-4.01-4.01.71-.71 4.01 4.01 1.19-1.19L13.38 12l.71-.71 4.01 4.01 1.51-1.5-5.79-5.78-1.43 1.43c-.57.57-1.32.88-2.12.88s-1.55-.31-2.12-.88l-.1-.1c-.58-.58-.58-1.53 0-2.12l3.21-3.24c-2.33-1.55-5.42-1.31-7.5.75-2.36 2.37-2.36 6.07 0 8.43l7.53 7.52c.19.19.45.29.71.29s.51-.1.71-.29l.89-.89-4-4Z"/></svg>