<svg xmlns="http://www.w3.org/2000/svg" width="24" height="24"><!--Boxicons v3.0 https://boxicons.com | License  https://docs.boxicons.com/free--><path d="M16.76 5.45C16.11 3.43 14.21 2 12.01 2s-4.1 1.43-4.75 3.45c-2.13 0-4.08 1.37-4.75 3.46-.68 2.1.1 4.34 1.82 5.59-.66 2.02.03 4.29 1.81 5.59.88.64 1.92.95 2.94.95s2.07-.32 2.94-.94a5.05 5.05 0 0 0 5.88 0 5 5 0 0 0 1.81-5.59 5.003 5.003 0 0 0-2.93-9.05ZM16 12.02A3.98 3.98 0 0 1 12.03 16c-2.27-.02-4.01-1.76-4.03-3.97.02-2.27 1.76-4.01 3.97-4.03 2.27.02 4.01 1.76 4.03 3.97z"/></svg>