<svg xmlns="http://www.w3.org/2000/svg" width="24" height="24"><!--Boxicons v3.0 https://boxicons.com | License  https://docs.boxicons.com/free--><path d="M19 6V3a1 1 0 0 0-1.36-.93L7.33 6zM21.2 13.53c.47-.09.8-.5.8-.98V9c0-.55-.45-1-1-1H3c-.55 0-1 .45-1 1v3.55c0 .48.33.89.8.98.7.14 1.2.76 1.2 1.47s-.5 1.33-1.2 1.47c-.47.09-.8.5-.8.98V21c0 .55.45 1 1 1h13v-1h1v1h4c.55 0 1-.45 1-1v-3.55c0-.48-.33-.89-.8-.98-.7-.14-1.2-.76-1.2-1.47s.5-1.33 1.2-1.47M17 20h-1v-2h1zm0-3h-1v-2h1zm0-3h-1v-2h1zm0-3h-1V9h1z"/></svg>