<svg xmlns="http://www.w3.org/2000/svg" width="24" height="24"><!--Boxicons v3.0 https://boxicons.com | License  https://docs.boxicons.com/free--><path d="m15.29 11.29-8 8c-.71.71-1.87.71-2.59 0s-.71-1.87 0-2.59l8-8a3.833 3.833 0 0 0 0-5.41 3.833 3.833 0 0 0-5.41 0l-5 5L3.7 9.7l5-5c.71-.71 1.87-.71 2.59 0s.71 1.87 0 2.59l-8 8a3.833 3.833 0 0 0 0 5.41c.75.75 1.73 1.12 2.71 1.12s1.96-.37 2.71-1.12l8-8c.71-.71 1.87-.71 2.59 0s.71 1.87 0 2.59l-5 5 1.41 1.41 5-5a3.833 3.833 0 0 0 0-5.41 3.833 3.833 0 0 0-5.41 0Z" class="b"/></svg>