<svg xmlns="http://www.w3.org/2000/svg" width="24" height="24"><!--Boxicons v3.0 https://boxicons.com | License  https://docs.boxicons.com/free--><path d="M19 9.09V6c0-.55-.45-1-1-1h-3.09L12.7 2.79a.996.996 0 0 0-1.41 0L9.08 5H5.99c-.55 0-1 .45-1 1v3.09L2.78 11.3a.996.996 0 0 0 0 1.41l2.21 2.21v3.09c0 .55.45 1 1 1h3.09l2.21 2.21c.2.2.45.29.71.29s.51-.1.71-.29l2.21-2.21h3.09c.55 0 1-.45 1-1v-3.09l2.21-2.21a.996.996 0 0 0 0-1.41l-2.21-2.21Zm-8 6.33-2.71-2.71L9.7 11.3l1.29 1.29 3.29-3.29 1.41 1.41-4.71 4.71Z"/></svg>