<svg xmlns="http://www.w3.org/2000/svg" width="24" height="24"><!--Boxicons v3.0 https://boxicons.com | License  https://docs.boxicons.com/free--><path d="M12 2c-4.41 0-8 3.59-8 8h2c0-3.31 2.69-6 6-6s6 2.69 6 6c0 1.77-.66 2.53-1.42 3.41-.74.86-1.58 1.83-1.58 3.59 0 2.44-2.61 3-3 3-1.65 0-3-1.35-3-3H7c0 2.76 2.24 5 5 5 1.69 0 5-1.51 5-5 0-1.02.44-1.52 1.09-2.28.85-.98 1.91-2.2 1.91-4.72 0-4.41-3.59-8-8-8"/><path d="M14.83 12.83C15.59 12.07 16 11.07 16 10s-.42-2.07-1.17-2.83S13.07 6 12 6s-2.07.42-2.83 1.17C8.41 7.93 8 8.93 8 10h2c0-.53.21-1.04.59-1.41.75-.76 2.07-.76 2.83 0a1.983 1.983 0 0 1 0 2.82z"/></svg>