<svg xmlns="http://www.w3.org/2000/svg" width="24" height="24"><!--Boxicons v3.0 https://boxicons.com | License  https://docs.boxicons.com/free--><path d="M10.97 20.39c1.2-1.2 1.8-3.1 1.52-4.84-.24-1.5-1.11-2.7-2.44-3.36-1.27-.64-2.99-.54-4.26.25-1.17.72-1.81 1.89-1.81 3.29 0 .3.02.59.04.86.08 1.03.11 1.42-1.47 2.21-.32.16-.53.47-.55.82s.14.69.43.89c1 .69 2.76 1.49 4.62 1.49 1.35 0 2.74-.42 3.92-1.6Z"/><path d="m16.67 2.91-7.88 7.88c.61.07 1.19.23 1.71.49 1.51.76 2.52 2.08 2.89 3.73l7.69-7.69c1.22-1.22 1.22-3.2 0-4.41s-3.2-1.22-4.41 0"/></svg>