<svg xmlns="http://www.w3.org/2000/svg" width="24" height="24"><!--Boxicons v3.0 https://boxicons.com | License  https://docs.boxicons.com/free--><path d="M19.73 18.32A9.94 9.94 0 0 0 22 12c0-4.09-2.47-7.61-6-9.16v2.24c2.39 1.39 4 3.96 4 6.92 0 1.85-.64 3.54-1.69 4.89l-1.42-1.42c.7-.98 1.12-2.17 1.12-3.47 0-1.77-.78-3.36-2-4.46v7.05l-2-2V4c0-.37-.2-.71-.53-.88s-.72-.15-1.03.05L7.73 6.32 2.71 1.29 1.3 2.7l4.29 4.29L14 15.4l2.9 2.9 1.42 1.42 2.97 2.97 1.41-1.41-2.98-2.98ZM2 9v6c0 1.1.9 2 2 2h2.7l5.75 3.83c.17.11.36.17.55.17.16 0 .32-.04.47-.12.33-.17.53-.51.53-.88v-1.76L3.02 7.27C2.41 7.61 2 8.26 2 9"/></svg>