<svg xmlns="http://www.w3.org/2000/svg" width="24" height="24"><!--Boxicons v3.0 https://boxicons.com | License  https://docs.boxicons.com/free--><path d="M20.27 17.61c.19-.28.37-.58.54-.88.06-.11.11-.23.17-.34a8 8 0 0 0 .44-1.06c.08-.23.15-.46.22-.69.04-.13.07-.26.1-.39.06-.25.1-.51.14-.77.02-.11.04-.23.05-.34.04-.37.07-.75.07-1.14 0-5.51-4.49-10-10-10S2 6.49 2 12s4.49 10 10 10c2.48 0 4.75-.92 6.5-2.42.1-.08.19-.17.29-.26.17-.16.33-.32.49-.48.11-.12.22-.23.32-.35.14-.16.27-.33.4-.5.09-.12.19-.24.27-.36ZM8 12c0-1.86 1.28-3.41 3-3.86v3.4l-2.58 2.21A3.96 3.96 0 0 1 8 12m5-1V8.14A4 4 0 0 1 15.86 11zm-1.2 2.48 1.55 2.27c-.43.16-.89.25-1.36.25-.85 0-1.64-.27-2.28-.72l2.09-1.79ZM19.93 11h-2.02A5.99 5.99 0 0 0 13 6.09V4.07c3.61.45 6.48 3.32 6.93 6.93M11 4.07v2.02C8.17 6.57 6 9.03 6 12c0 1.13.32 2.18.86 3.09l-1.54 1.32a7.92 7.92 0 0 1-1.33-4.4c0-4.07 3.06-7.44 7-7.93ZM6.63 17.92l1.53-1.31C9.2 17.48 10.54 18 12 18c.88 0 1.73-.19 2.52-.56l1.14 1.66a7.956 7.956 0 0 1-9.02-1.19Z"/></svg>