<svg xmlns="http://www.w3.org/2000/svg" width="24" height="24"><!--Boxicons v3.0 https://boxicons.com | License  https://docs.boxicons.com/free--><path d="M5 7.08V8h2v-.92c0-1.07-.49-2.11-1.34-2.86C5.23 3.85 5 3.36 5 2.87V2H3v.87c0 1.07.49 2.11 1.34 2.86.43.37.66.86.66 1.36Zm4 0V8h2v-.92c0-1.07-.49-2.11-1.34-2.86C9.23 3.85 9 3.36 9 2.87V2H7v.87c0 1.07.49 2.11 1.34 2.86.43.37.66.86.66 1.36Zm4 0V8h2v-.92c0-1.07-.49-2.11-1.34-2.86-.43-.37-.66-.86-.66-1.35V2h-2v.87c0 1.07.49 2.11 1.34 2.86.43.37.66.86.66 1.36ZM6 22h8c1.65 0 3-1.35 3-3h2c1.1 0 2-.9 2-2v-4c0-1.1-.9-2-2-2h-2v-1c0-.55-.45-1-1-1H4c-.55 0-1 .45-1 1v9c0 1.65 1.35 3 3 3m13-9v4h-2v-4z"/></svg>