<svg xmlns="http://www.w3.org/2000/svg" width="24" height="24"><!--Boxicons v3.0 https://boxicons.com | License  https://docs.boxicons.com/free--><path d="M12 2C6.49 2 2 6.49 2 12s4.49 10 10 10 10-4.49 10-10S17.51 2 12 2m2.86 3.3c.13-.18.3-.3.38-.27s.13.19.1.36-.02.49 0 .72c.03.22.14.5.24.62s.14.25.08.3-.32.05-.58 0-.47-.38-.47-.75.11-.82.24-.99ZM11 4.07c-.24.33-.52.69-.73.9-.28.29-.73.7-.99.91s-.64.52-.84.69c-.19.17-.67.26-1.05.22-.34-.04-.93-.08-1.38-.09a7.95 7.95 0 0 1 4.98-2.63ZM8.09 11.9c.12.1.2.29.17.43s-.15.3-.25.36-.35.09-.55.05-.43-.06-.52-.05c-.09 0-.18-.03-.19-.08s.16-.26.38-.45c.22-.2.35-.52.3-.71-.06-.2-.1-.53-.1-.73s.11-.42.24-.47.32-.1.42-.1.22.05.28.11c.05.06.04.19-.03.3-.07.1-.18.41-.25.68s-.02.57.1.67Zm-1.4.06c-.26.19-.49.28-.52.2s0-.28.05-.44c.06-.16.23-.32.37-.36s.32-.06.38-.06.13.07.15.15c.02.09-.18.31-.43.5ZM12 20c-2.18 0-4.16-.88-5.6-2.3.72.18 1.66.26 2.27.16.7-.11 1.37.2 1.5.7s.57.95.97 1.01c.41.06.96 0 1.23-.14s.77-.22 1.1-.18 1 .06 1.48.05c.14 0 .27-.02.4-.05-1.02.47-2.16.75-3.35.75m7.48-5.18c-.15-.25-.3-.51-.38-.68-.14-.28-.38-.48-.54-.43s-.22.43-.12.84.24.87.31 1.02c.04.08.11.21.2.38A8 8 0 0 1 16 18.92c0-.01.02-.02.03-.03.11-.22.16-.53.1-.69s-.47-.21-.91-.12-.83-.14-.85-.52.42-.87 1-1.1l.46-.09.16-.03c.52-.06.9-.28.84-.48s-.23-.39-.39-.41-.52.01-.8.08-.64 0-.79-.14-.42.1-.6.56-.5 1.2-.71 1.64c-.21.45-.56.65-.76.45-.21-.2-.44-.62-.52-.95-.08-.32-.36-.66-.63-.76s-.36-.02-.19.18c.16.2.2.57.09.83s-.46.11-.76-.32-.68-.88-.83-.98c-.15-.11-.53-.11-.85 0s-.75.33-.96.5-.58.29-.82.27-.56-.11-.7-.19c-.14-.09-.33-.29-.42-.45s-.11-.51-.06-.76c.05-.26.36-.46.67-.46.32 0 .67-.02.78-.07s.2-.28.2-.53.27-.42.6-.38.63-.28.66-.71.24-.87.47-.99c.22-.12.59-.32.82-.46.23-.13.24-.29.03-.36-.21-.06-.31-.38-.22-.71s.47-.94.84-1.36.94-.93 1.27-1.14.88-.29 1.23-.19.51.39.36.65-.11.59.08.74c.2.15.49.05.66-.22s.41-.56.54-.63.43-.47.67-.88.44-1.05.44-1.41.05-.82.11-1.01c2.19 1.43 3.65 3.9 3.65 6.7 0 .99-.19 1.94-.52 2.82Z"/></svg>