<svg xmlns="http://www.w3.org/2000/svg" width="24" height="24"><!--Boxicons v3.0 https://boxicons.com | License  https://docs.boxicons.com/free--><path d="M21.65 12.94 19.99 9.8c-.1-4.53-3.64-7.8-8.5-7.8s-9.48 3.24-9.48 8.67c0 2.72 1.03 5.05 2.99 6.79V22h10v-2h2c1.1 0 2-.9 2-2v-3h1.26a1.5 1.5 0 0 0 1.39-2.06M14.16 11c0 .19-.02.38-.05.57l.33.19c.31.18.41.57.23.88l-.42.73c-.18.31-.57.41-.88.23l-.34-.2c-.29.25-.62.44-.97.57v.39c0 .35-.29.64-.64.64h-.84c-.35 0-.64-.29-.64-.64v-.39c-.35-.13-.68-.32-.97-.57l-.34.2c-.31.18-.7.07-.88-.23l-.42-.73c-.18-.31-.07-.7.23-.88l.33-.19c-.04-.19-.05-.38-.05-.57s.02-.38.05-.57l-.33-.19a.64.64 0 0 1-.23-.88l.42-.73c.18-.31.57-.41.88-.23l.34.2c.29-.25.62-.44.97-.57v-.39c0-.35.29-.64.64-.64h.84c.35 0 .64.29.64.64v.39c.35.13.68.32.97.57l.34-.2c.31-.18.7-.07.88.23l.42.73c.18.31.07.7-.23.88l-.33.19c.04.19.05.38.05.57"/><path d="M11 9.45c-.84 0-1.55.71-1.55 1.55s.71 1.55 1.55 1.55 1.55-.71 1.55-1.55-.71-1.55-1.55-1.55"/></svg>