<svg xmlns="http://www.w3.org/2000/svg" width="24" height="24"><!--Boxicons v3.0 https://boxicons.com | License  https://docs.boxicons.com/free--><path d="M5 22h14c1.1 0 2-.9 2-2V4c0-1.1-.9-2-2-2H5c-1.1 0-2 .9-2 2v16c0 1.1.9 2 2 2M18 4c.55 0 1 .45 1 1s-.45 1-1 1-1-.45-1-1 .45-1 1-1m-3 0c.55 0 1 .45 1 1s-.45 1-1 1-1-.45-1-1 .45-1 1-1m-3 4c2.76 0 5 2.24 5 5s-2.24 5-5 5-5-2.24-5-5 2.24-5 5-5"/><path d="M10.18 14.62c-.33.27-.78.65-.78 1.38h1c0-.25.11-.36.42-.62.33-.27.78-.65.78-1.38s-.45-1.11-.78-1.38c-.31-.26-.42-.37-.42-.62s.11-.36.42-.62c.33-.27.78-.65.78-1.38h-1c0 .24-.11.36-.42.62-.33.27-.78.65-.78 1.38s.45 1.11.78 1.38c.31.26.42.37.42.62s-.11.36-.42.62M13.18 14.62c-.33.27-.78.65-.78 1.38h1c0-.25.11-.36.42-.62.33-.27.78-.65.78-1.38s-.45-1.11-.78-1.38c-.31-.26-.42-.37-.42-.62s.11-.36.42-.62c.33-.27.78-.65.78-1.38h-1c0 .24-.11.36-.42.62-.33.27-.78.65-.78 1.38s.45 1.11.78 1.38c.31.26.42.37.42.62s-.11.36-.42.62"/></svg>