<svg xmlns="http://www.w3.org/2000/svg" width="24" height="24"><!--Boxicons v3.0 https://boxicons.com | License  https://docs.boxicons.com/free--><path d="M19.55 12.11 12 15.88l-7.55-3.77-.9 1.78L9.76 17l-6.21 3.11.9 1.78L12 18.12l7.55 3.77.9-1.78L14.24 17l6.21-3.11z"/><path d="M11.68 13.03c.11 0 .22.01.32.01 1.28 0 2.48-.48 3.42-1.36 1-.94 1.58-2.27 1.58-3.64 0-.94-.24-1.83-.71-2.67-.17-.3-.47-.5-.81-.55s-.69.06-.95.3c-.32.3-.73.45-1.16.41-.39-.03-.79-.29-1.07-.68-.31-.43-.32-.74-.29-.98.05-.43-.15-.85-.51-1.09-.36-.23-.83-.23-1.19 0-1.21.75-2.75 2.07-3.19 4.12-.31 1.44.04 2.95.94 4.15.88 1.17 2.2 1.89 3.62 1.98"/></svg>