<svg xmlns="http://www.w3.org/2000/svg" width="24" height="24"><!--Boxicons v3.0 https://boxicons.com | License  https://docs.boxicons.com/free--><path d="m20.29 7.29-1.9 1.9A7.9 7.9 0 0 0 15 6.58V4h1V2H8v2h1v2.58C5.98 7.79 4 10.68 4 14c0 4.16 3.12 7.58 7.21 7.95.27.04.52.05.79.05s.52-.01.74-.04C16.88 21.59 20 18.17 20 14c0-1.06-.22-2.06-.59-2.99l2.3-2.3L20.3 7.3Zm-10.01.96.71-.21V4h2v4.04l.71.21A5.97 5.97 0 0 1 17.99 14c0 .26-.04.5-.07.75-2.65-.02-3.91-.85-5.38-1.83-1.37-.91-2.92-1.93-5.62-2.13a5.9 5.9 0 0 1 3.35-2.54Z"/></svg>