<svg xmlns="http://www.w3.org/2000/svg" width="24" height="24"><!--Boxicons v3.0 https://boxicons.com | License  https://docs.boxicons.com/free--><path d="M12 2C9.34 2 6.83 3.04 4.93 4.93 3.04 6.82 2 9.33 2 12s1.04 5.17 2.93 7.07A9.93 9.93 0 0 0 12 22v-2c-2.13 0-4.14-.83-5.65-2.35C4.84 16.14 4 14.13 4 12s.83-4.14 2.35-5.65C7.86 4.84 9.87 4 12 4s4.14.83 5.65 2.35A7.95 7.95 0 0 1 20 12h2a9.95 9.95 0 0 0-2.93-7.07A9.93 9.93 0 0 0 12 2"/><path d="M17 8H8v9h2v-5.59l8.29 8.3 1.42-1.42-8.3-8.29H17z"/></svg>