<svg xmlns="http://www.w3.org/2000/svg" width="24" height="24"><!--Boxicons v3.0 https://boxicons.com | License  https://docs.boxicons.com/free--><path d="M19.07 4.93c-.45-.45-.95-.86-1.48-1.22-.54-.36-1.11-.67-1.7-.92-.6-.26-1.24-.45-1.88-.58-1.31-.27-2.72-.27-4.03 0-.64.13-1.27.33-1.88.58-.59.25-1.16.56-1.7.92-.53.36-1.03.77-1.48 1.22s-.86.95-1.22 1.48c-.36.54-.67 1.11-.92 1.7-.26.6-.45 1.24-.58 1.88-.13.66-.2 1.34-.2 2.01s.07 1.35.2 2.01c.13.64.33 1.27.58 1.88.25.59.56 1.16.92 1.7.36.53.77 1.03 1.22 1.48s.95.86 1.48 1.22c.54.36 1.11.67 1.7.92.6.26 1.24.45 1.88.58.66.13 1.33.2 2.01.2s1.36-.07 2.01-.2c.64-.13 1.27-.33 1.88-.58.59-.25 1.16-.56 1.7-.92.53-.36 1.03-.77 1.48-1.22s.86-.95 1.22-1.48c.36-.54.67-1.11.92-1.7.26-.6.45-1.24.58-1.88.13-.66.2-1.34.2-2.01h-2a7.85 7.85 0 0 1-.63 3.11c-.2.47-.45.93-.74 1.36-.29.42-.62.82-.98 1.18s-.76.69-1.18.98c-.43.29-.89.54-1.36.74-.48.2-.99.36-1.5.47-1.05.21-2.18.21-3.23 0a8 8 0 0 1-1.5-.47c-.47-.2-.93-.45-1.36-.74-.42-.29-.82-.62-1.18-.98s-.69-.76-.98-1.18c-.29-.43-.54-.89-.74-1.36-.2-.48-.36-.99-.47-1.5A8 8 0 0 1 3.97 12a7.85 7.85 0 0 1 .63-3.11c.2-.47.45-.93.74-1.36.29-.42.62-.82.98-1.18s.76-.69 1.18-.98c.43-.29.89-.54 1.36-.74.48-.2.99-.36 1.5-.47 1.05-.21 2.18-.21 3.23 0 .51.11 1.02.26 1.5.47.47.2.93.45 1.36.74.42.29.82.62 1.18.98.17.17.32.34.48.52L15.98 9h6V3l-2.45 2.45c-.15-.18-.31-.36-.48-.52Z"/><path d="M12.43 14.08c-.19.09-.41.13-.66.13-.29 0-.55-.06-.8-.17-.24-.12-.43-.27-.55-.46L9.4 14.59c.28.32.63.56 1.05.74.42.17.88.25 1.37.25.56 0 1.05-.1 1.46-.31s.73-.49.96-.86.35-.78.35-1.25q0-.645-.27-1.17c-.18-.35-.45-.64-.81-.85s-.79-.32-1.31-.32c-.23 0-.42.02-.59.06-.09.02-.16.06-.24.09l.14-1.23h2.7V8.41h-3.97l-.34 3.31.68.63c.17-.13.35-.22.55-.29q.3-.09.66-.09c.36 0 .46.04.65.13s.34.22.44.38c.11.17.16.37.16.6a1.04 1.04 0 0 1-.6.98Z"/></svg>