<svg xmlns="http://www.w3.org/2000/svg" width="24" height="24"><!--Boxicons v3.0 https://boxicons.com | License  https://docs.boxicons.com/free--><path d="M19 3H5c-1.1 0-2 .9-2 2v14c0 1.1.9 2 2 2h14c1.1 0 2-.9 2-2V5c0-1.1-.9-2-2-2M6 17H5v-1h1zm0-4H5v-1h1zm0-4H5V8h1zm2 10H7v-1h1zm0-4H7v-1h1zm0-4H7v-1h1zm0-4H7V6h1zm2 10H9v-1h1zm0-4H9v-1h1zm0-4H9V8h1zm2 10h-1v-1h1zm0-4h-1v-1h1zm0-4h-1v-1h1zm0-4h-1V6h1zm2 10h-1v-1h1zm0-4h-1v-1h1zm0-4h-1V8h1zm2 10h-1v-1h1zm0-4h-1v-1h1zm0-4h-1v-1h1zm0-4h-1V6h1zm2 10h-1v-1h1zm0-4h-1v-1h1zm0-4h-1V8h1z"/></svg>