<svg xmlns="http://www.w3.org/2000/svg" width="24" height="24"><!--Boxicons v3.0 https://boxicons.com | License  https://docs.boxicons.com/free--><path d="M12 10.36a1.64 1.64 0 1 0 0 3.28 1.64 1.64 0 1 0 0-3.28"/><path d="M20 4h-8.59L10 2.59C9.63 2.22 9.11 2 8.59 2H4c-1.1 0-2 .9-2 2v14c0 1.1.9 2 2 2h16c1.1 0 2-.9 2-2V6c0-1.1-.9-2-2-2m-4.64 8c0 .2-.02.4-.06.61l.35.2c.32.19.44.61.25.93l-.45.77c-.19.32-.61.44-.93.25l-.36-.21c-.31.26-.66.47-1.04.61v.41c0 .38-.31.68-.68.68h-.89a.68.68 0 0 1-.68-.68v-.41c-.37-.14-.73-.34-1.04-.61l-.36.21c-.33.19-.74.08-.93-.25l-.45-.77a.675.675 0 0 1 .25-.93l.35-.2a3.1 3.1 0 0 1 0-1.22l-.35-.2a.686.686 0 0 1-.25-.93l.45-.77c.19-.33.61-.44.93-.25l.36.21c.31-.26.66-.47 1.04-.61v-.41c0-.38.31-.68.68-.68h.89c.38 0 .68.31.68.68v.41c.37.14.73.34 1.04.61l.36-.21c.32-.19.74-.08.93.25l.45.77c.19.33.08.74-.25.93l-.35.2c.04.2.06.4.06.61"/></svg>