<svg xmlns="http://www.w3.org/2000/svg" width="24" height="24"><!--Boxicons v3.0 https://boxicons.com | License  https://docs.boxicons.com/free--><path d="m17.5 10.91.79.79c.39.39 1.02.39 1.41 0l2-2a.996.996 0 0 0 0-1.41l-6-6a.996.996 0 0 0-1.41 0l-2 2a.996.996 0 0 0 0 1.41l.79.79-2.59 2.59-7.78-7.79L1.3 2.7l6.36 6.36 7.28 7.28 6.36 6.36 1.41-1.41-7.79-7.79 2.59-2.59ZM5.29 11.29a.996.996 0 0 0 0 1.41l2.29 2.29-5.29 5.29 1.41 1.41 5.29-5.29 2.29 2.29c.2.2.45.29.71.29s.51-.1.71-.29l.88-.88-7.41-7.41-.88.88Z"/></svg>