<svg xmlns="http://www.w3.org/2000/svg" width="24" height="24"><!--Boxicons v3.0 https://boxicons.com | License  https://docs.boxicons.com/free--><path d="M12 7c-2.97 0-5.43 2.17-5.91 5H2v2h20v-2h-4.09c-.48-2.83-2.94-5-5.91-5M11 2h2v3h-2zM17.29 5.29l-1 1L17 7l.71.71 1-1 1-1L19 5l-.71-.71zM5 5l-.71.71 1 1 1 1L7 7l.71-.71-1-1-1-1zM16 16a1 1 0 1 0 0 2 1 1 0 1 0 0-2M20 16a1 1 0 1 0 0 2 1 1 0 1 0 0-2M16 19a1 1 0 1 0 0 2 1 1 0 1 0 0-2M12 17a1 1 0 1 0 0 2 1 1 0 1 0 0-2M12 20a1 1 0 1 0 0 2 1 1 0 1 0 0-2M8 19a1 1 0 1 0 0 2 1 1 0 1 0 0-2M8 16a1 1 0 1 0 0 2 1 1 0 1 0 0-2M4 16a1 1 0 1 0 0 2 1 1 0 1 0 0-2"/></svg>