<svg xmlns="http://www.w3.org/2000/svg" width="24" height="24"><!--Boxicons v3.0 https://boxicons.com | License  https://docs.boxicons.com/free--><path d="M11.9 16.21c.23 0 .45 0 .68-.05 1.05-.2 1.93-.99 2.27-2 .25-.71.2-1.49-.11-2.17a.36.36 0 0 0-.41-.2c-.45.11-.76.34-1.12.6-.59.43-1.32.97-2.69.97-.61 0-1.09-.11-1.49-.27a3.01 3.01 0 0 0 2.9 3.12Z"/><path d="M5 22h14c1.1 0 2-.9 2-2V4c0-1.1-.9-2-2-2H5c-1.1 0-2 .9-2 2v16c0 1.1.9 2 2 2M18 4c.55 0 1 .45 1 1s-.45 1-1 1-1-.45-1-1 .45-1 1-1m-3 0c.55 0 1 .45 1 1s-.45 1-1 1-1-.45-1-1 .45-1 1-1m-3 4c2.76 0 5 2.24 5 5s-2.24 5-5 5-5-2.24-5-5 2.24-5 5-5"/></svg>