<svg xmlns="http://www.w3.org/2000/svg" width="24" height="24"><!--Boxicons v3.0 https://boxicons.com | License  https://docs.boxicons.com/free--><path d="M12 9a3 3 0 1 0 0 6 3 3 0 1 0 0-6"/><path d="m17.37 19.29-2.57-4.44c-.72.71-1.71 1.15-2.8 1.15s-2.08-.44-2.8-1.15l-2.57 4.44a.993.993 0 0 0 .36 1.36c3.02 1.76 6.99 1.76 10.01 0a.99.99 0 0 0 .36-1.36ZM3 13h5.14A4 4 0 0 1 8 12c0-1.84 1.25-3.37 2.94-3.84L8.37 3.71a1 1 0 0 0-.87-.5c-.17 0-.34.04-.5.13A9.9 9.9 0 0 0 3.33 7c-.88 1.53-1.34 3.26-1.34 5.01 0 .55.45 1 1 1ZM16 12c0 .35-.06.68-.14 1H21c.55 0 1-.44 1-.99 0-1.75-.45-3.48-1.34-5.01a9.9 9.9 0 0 0-3.67-3.66 1 1 0 0 0-.5-.13c-.35 0-.68.18-.87.5l-2.57 4.45c1.69.47 2.94 2 2.94 3.84Z"/></svg>