<svg xmlns="http://www.w3.org/2000/svg" width="24" height="24"><!--Boxicons v3.0 https://boxicons.com | License  https://docs.boxicons.com/free--><path d="m17.54 3.64-2.9 2.9-9.88-1.16c-.15-.02-.3.03-.41.14l-.59.59c-.24.24-.17.66.14.8l7.01 3.36-3.25 3.25-3.27-.65a.5.5 0 0 0-.45.14l-.7.7c-.25.25-.17.67.16.81l4.27 1.83 1.83 4.27c.14.33.56.41.81.16l.7-.7c.12-.12.17-.29.14-.45l-.65-3.27 3.31-3.31 3.31 7.06c.15.31.56.39.81.14l.66-.66c.11-.11.16-.26.14-.41L17.57 9.3l2.75-2.75c.7-.7.88-1.84.29-2.65a2.005 2.005 0 0 0-3.05-.26Z"/></svg>