<svg xmlns="http://www.w3.org/2000/svg" width="24" height="24"><!--Boxicons v3.0 https://boxicons.com | License  https://docs.boxicons.com/free--><path d="M8 2c-.45 0-.84.3-.96.73l-.38 1.36c6.95.77 12.48 6.3 13.25 13.25l1.36-.38c.43-.12.73-.51.73-.96C22 8.28 15.72 2 8 2"/><path d="M6.11 6.06 2.03 20.74c-.1.35 0 .72.26.97a1.01 1.01 0 0 0 .98.25l14.68-4.08C17.41 11.6 12.4 6.59 6.12 6.05ZM7 18.5c-.83 0-1.5-.67-1.5-1.5s.67-1.5 1.5-1.5 1.5.67 1.5 1.5-.67 1.5-1.5 1.5m1-6c-.83 0-1.5-.67-1.5-1.5S7.17 9.5 8 9.5s1.5.67 1.5 1.5-.67 1.5-1.5 1.5m4.5 4c-1.1 0-2-.9-2-2s.9-2 2-2 2 .9 2 2-.9 2-2 2"/></svg>