<svg xmlns="http://www.w3.org/2000/svg" width="24" height="24"><!--Boxicons v3.0 https://boxicons.com | License  https://docs.boxicons.com/free--><path d="M16.72 7.33v-.04h-.05A7.54 7.54 0 0 0 9.5 2.01C5.36 2.01 2 5.37 2 9.51c0 3.29 2.19 6.21 5.28 7.17v.04h.05c.96 3.1 3.88 5.28 7.17 5.28 4.14 0 7.5-3.36 7.5-7.5 0-3.29-2.19-6.21-5.28-7.17M4 9.5C4 6.47 6.47 4 9.5 4c2.09 0 3.97 1.2 4.9 3-.13 0-.25.02-.37.02-.11 0-.22 0-.34.02-.14.01-.28.04-.41.06-.11.02-.22.03-.33.05-.13.03-.26.07-.4.1-.11.03-.21.05-.32.08-.13.04-.25.09-.38.14-.1.04-.2.07-.3.11-.13.05-.25.12-.37.18-.09.05-.19.09-.28.14-.12.07-.24.14-.36.22-.08.05-.17.1-.25.16-.12.08-.24.18-.36.27l-.22.16c-.14.12-.28.25-.41.37-.08.08-.16.16-.23.24-.12.13-.25.26-.36.4l-.18.24c-.08.11-.17.22-.25.33-.06.09-.11.19-.17.28-.07.11-.14.22-.2.33-.06.1-.1.21-.15.31-.05.11-.11.22-.16.34-.05.11-.08.22-.12.33-.04.12-.09.23-.13.35-.04.11-.06.23-.09.35s-.07.24-.09.36c-.03.12-.04.24-.06.36l-.06.37c-.01.12-.02.25-.02.38 0 .11-.02.22-.02.33-1.8-.93-3-2.81-3-4.9ZM14.5 20c-2.09 0-3.97-1.2-4.9-3 .11 0 .22-.01.33-.02.13 0 .25-.01.38-.02s.25-.04.37-.06.24-.03.36-.06l.36-.09.35-.09c.12-.04.24-.09.35-.13l.33-.12c.12-.05.23-.11.35-.17.1-.05.2-.09.3-.15.12-.06.23-.14.34-.21.09-.06.18-.11.27-.17.12-.08.23-.17.34-.25.08-.06.16-.11.23-.18.14-.12.27-.24.4-.36l.24-.24c.12-.13.25-.26.36-.4.06-.07.12-.16.17-.23.09-.11.18-.22.25-.34.06-.09.11-.18.16-.26.07-.12.15-.23.21-.35.05-.09.1-.2.14-.29.06-.12.12-.23.17-.36.04-.1.08-.21.12-.32.05-.12.09-.24.13-.37.03-.11.06-.22.09-.34s.07-.25.1-.37l.06-.36.06-.38c.01-.12.02-.25.02-.38 0-.11.02-.22.02-.34 1.8.93 3 2.81 3 4.9 0 3.03-2.47 5.5-5.5 5.5Z"/></svg>