<svg xmlns="http://www.w3.org/2000/svg" width="24" height="24"><!--Boxicons v3.0 https://boxicons.com | License  https://docs.boxicons.com/free--><path d="M22 9c0-1.65-1.35-3-3-3s-3 1.35-3 3c0 .37.07.73.2 1.06l-.76 1.27-1.01-4.57c.51-.69.7-1.57.51-2.44a3.01 3.01 0 0 0-2.33-2.27c-.9-.17-1.81.05-2.5.62-.7.57-1.09 1.42-1.09 2.32 0 .64.21 1.26.58 1.77l-1.02 4.57-.76-1.27c.13-.34.2-.7.2-1.06 0-1.65-1.35-3-3-3s-3 1.35-3 3c0 1.06.56 2.02 1.45 2.56L4.46 17h-.44c-1.1 0-2 .9-2 2v1c0 1.1.9 2 2 2h16c1.1 0 2-.9 2-2v-1c0-1.1-.9-2-2-2h-.44l.99-5.44c.89-.54 1.45-1.5 1.45-2.56Z"/></svg>