<svg xmlns="http://www.w3.org/2000/svg" width="24" height="24"><!--Boxicons v3.0 https://boxicons.com | License  https://docs.boxicons.com/free--><path d="M6 2h12v2H6zM19 6H5c-1.1 0-2 .9-2 2v12c0 1.1.9 2 2 2h14c1.1 0 2-.9 2-2V8c0-1.1-.9-2-2-2m-2.5 11.25c0 .96-.78 1.75-1.75 1.75S13 18.21 13 17.25s.78-1.75 1.75-1.75c.27 0 .52.07.75.18v-4.75l-5-.83v6.16c0 .96-.78 1.75-1.75 1.75S7 17.22 7 16.26s.78-1.75 1.75-1.75c.27 0 .52.07.75.18V9.51c0-.15.06-.29.18-.38s.26-.13.41-.11l6 1c.24.04.42.25.42.49v6.75Z"/></svg>