<svg xmlns="http://www.w3.org/2000/svg" width="24" height="24"><!--Boxicons v3.0 https://boxicons.com | License  https://docs.boxicons.com/free--><path d="M17.65 17.65C16.14 19.16 14.13 20 12 20s-4.14-.83-5.65-2.35C4.84 16.14 4 14.13 4 12s.83-4.14 2.35-5.65A7.95 7.95 0 0 1 12 4V2C9.34 2 6.83 3.04 4.93 4.93 3.04 6.82 2 9.33 2 12s1.04 5.17 2.93 7.07C6.82 20.96 9.33 22 12 22s5.18-1.04 7.07-2.93A9.93 9.93 0 0 0 22 12h-2c0 2.13-.83 4.14-2.35 5.65"/><path d="M18.29 4.29 10 12.59V7H8v9h9v-2h-5.59l8.3-8.29z"/></svg>