<svg xmlns="http://www.w3.org/2000/svg" xml:space="preserve" width="24" height="24"><!--Boxicons v3.0 https://boxicons.com | License  https://docs.boxicons.com/free--><path d="M7 22c2.8 0 5-2.2 5-5 0-.8-.2-1.6-.6-2.3 1.5.1 3.2-.1 4.4-1.8.9-1.2 2.4-1.2 3.4 0 .5.7.8 1.6.8 2.6s-.3 1.9-.8 2.6c-.9 1.2-2.4 1.2-3.4 0l-1.6 1.2c.9 1.1 2 1.7 3.3 1.7s2.4-.6 3.3-1.7c.8-1 1.2-2.4 1.2-3.8s-.4-2.8-1.2-3.8c-.9-1.1-2-1.7-3.3-1.7s-2.4.6-3.3 1.7c-1.1 1.4-3 1-4 .7.5-.7.8-1.5.8-2.4 0-2.2-1.8-4-4-4s-4 1.8-4 4h2c0-1.1.9-2 2-2s2 .9 2 2-.9 2-2 2c-.6 0-1 .4-1 1s.4 1 1 1c1.6 0 3 1.4 3 3s-1.4 3-3 3-3-1.4-3-3H2c0 2.8 2.2 5 5 5M13 3h-2c0 2.8 2.5 5 5.5 5S22 5.8 22 3h-2c0 1.7-1.6 3-3.5 3S13 4.7 13 3" class="st0"/><path d="m15 3.5.8-.8.7-.7.8.7.7.8-.7.7-.8.8-.7-.8z" class="st0"/></svg>