<svg xmlns="http://www.w3.org/2000/svg" width="24" height="24"><!--Boxicons v3.0 https://boxicons.com | License  https://docs.boxicons.com/free--><path d="M6.29 14.29 8.58 12H5.99v-2h4V7c0-1.1-.9-2-2-2h-1c-2.76 0-5 2.24-5 5v8.82c0 .59.26 1.15.71 1.53.36.31.82.47 1.29.47.11 0 .22 0 .33-.03l4-.67c.97-.16 1.67-.99 1.67-1.97v-4.74L7.7 15.7zM17 5h-1c-1.1 0-2 .9-2 2v3h4v2h-2.59l2.29 2.29-1.41 1.41L14 13.41v4.74c0 .98.7 1.81 1.67 1.97l4 .67q.165.03.33.03c.47 0 .93-.17 1.29-.47.45-.38.71-.94.71-1.53V10c0-2.76-2.24-5-5-5M13.41 10H13V2h-2v8h-1v3.41L11.41 12h1.18L14 13.41V10z"/></svg>