<svg xmlns="http://www.w3.org/2000/svg" width="24" height="24"><!--Boxicons v3.0 https://boxicons.com | License  https://docs.boxicons.com/free--><path d="M8.5 13a1.5 1.5 0 1 0 0 3 1.5 1.5 0 1 0 0-3M15.5 13a1.5 1.5 0 1 0 0 3 1.5 1.5 0 1 0 0-3"/><path d="M23 5.5C23 3.02 20.98 1 18.5 1c-1.66 0-3.14.93-3.92 2.35C13.76 3.13 12.89 3 12 3 6.49 3 2 7.49 2 13s4.49 10 10 10 10-4.49 10-10c0-1.39-.29-2.71-.8-3.92C22.31 8.24 23 6.93 23 5.5M12 21c-4.41 0-8-3.59-8-8 0-.5.05-1 .14-1.48.92.31 1.87.48 2.86.48.31 0 .62-.02.93-.05.11-.01.23-.04.34-.05.18-.03.37-.05.55-.08h.03c.12-.03.25-.06.37-.1.17-.04.33-.08.5-.13s.33-.12.49-.18c.1-.04.21-.07.31-.11.01 0 .02-.01.04-.02.16-.07.32-.15.48-.23.11-.05.21-.1.32-.16.15-.08.29-.17.44-.26.08-.05.17-.1.26-.16.03-.02.05-.04.07-.05.12-.08.24-.18.36-.27s.25-.19.37-.29l.28-.25c.09-.08.18-.15.26-.24.05-.05.1-.11.14-.16.03-.03.06-.06.09-.08a9.07 9.07 0 0 0 6.4 3.82v.06c0 4.41-3.59 8-8 8Z"/></svg>