<svg xmlns="http://www.w3.org/2000/svg" width="24" height="24"><!--Boxicons v3.0 https://boxicons.com | License  https://docs.boxicons.com/free--><path d="M12 7a5 5 0 1 0 0 10 5 5 0 1 0 0-10"/><path d="M19.37 15.11c-.4.95-.98 1.81-1.71 2.54s-1.59 1.31-2.54 1.72c-1.94.82-4.18.83-6.12.04C8.95 18.07 7.86 17 6.51 17s-2.5 1.11-2.5 2.5S5.12 22 6.51 22c.69 0 1.32-.28 1.77-.73 1.19.48 2.44.73 3.73.73s2.66-.26 3.89-.79c1.19-.5 2.26-1.22 3.18-2.14s1.64-1.99 2.14-3.18c.52-1.23.79-2.54.79-3.89h-2c0 1.08-.21 2.13-.63 3.11ZM4.63 8.89c.4-.95.98-1.81 1.71-2.54s1.59-1.31 2.54-1.72c1.94-.82 4.18-.83 6.12-.04C15.05 5.93 16.14 7 17.49 7s2.5-1.11 2.5-2.5S18.88 2 17.49 2c-.69 0-1.32.28-1.77.73-2.43-.98-5.21-.96-7.63.06-1.19.5-2.26 1.22-3.18 2.14S3.27 6.92 2.77 8.11A9.95 9.95 0 0 0 1.98 12h2c0-1.08.21-2.13.63-3.11Z"/></svg>