<svg xmlns="http://www.w3.org/2000/svg" width="24" height="24"><!--Boxicons v3.0 https://boxicons.com | License  https://docs.boxicons.com/free--><path d="M17 15c-1.6 0-2.45-.68-3.12-1.22-.57-.45-.98-.78-1.88-.78s-1.29.31-1.88.78C9.44 14.32 8.6 15 7 15s-2.44-.68-3.12-1.22c-.59-.47-.97-.78-1.87-.78v7c0 .55.45 1 1 1h18c.55 0 1-.45 1-1v-7c-.9 0-1.29.31-1.88.78C19.45 14.32 18.6 15 17 15m2-10h-6V2h-2v3H5C3.35 5 2 6.35 2 8v3c1.6 0 2.44.68 3.12 1.22.59.47.97.78 1.87.78s1.29-.31 1.88-.78c.68-.54 1.52-1.22 3.12-1.22s2.45.68 3.13 1.22c.59.47.98.78 1.88.78s1.31-.33 1.88-.78C19.56 11.68 20.4 11 22 11V8c0-1.65-1.35-3-3-3"/></svg>