<svg xmlns="http://www.w3.org/2000/svg" width="24" height="24"><!--Boxicons v3.0 https://boxicons.com | License  https://docs.boxicons.com/free--><path d="M12 22c5.51 0 10-4.49 10-10S17.51 2 12 2 2 6.49 2 12s4.49 10 10 10m-1.57-11.93c.43-.35.97-.57 1.57-.57s1.14.22 1.57.57l.36.36c.35.43.57.97.57 1.57s-.22 1.14-.57 1.57l-.36.36c-.43.35-.97.57-1.57.57s-1.14-.22-1.57-.57l-.36-.36c-.35-.43-.57-.97-.57-1.57s.22-1.14.57-1.57zM7.1 18.31l2.51-2.51c.69.44 1.51.7 2.39.7s1.69-.26 2.39-.7l2.51 2.51C15.54 19.36 13.85 20 12 20s-3.54-.63-4.9-1.69m9.8-12.62L14.39 8.2c-.69-.44-1.51-.7-2.39-.7s-1.69.26-2.39.7L7.1 5.69C8.46 4.64 10.15 4 12 4s3.54.63 4.9 1.69"/></svg>