<svg xmlns="http://www.w3.org/2000/svg" width="24" height="24"><!--Boxicons v3.0 https://boxicons.com | License  https://docs.boxicons.com/free--><path d="M22 12.5v-1h-1.03c-.04-.78-.18-1.54-.41-2.26l.95-.37-.36-.93-.95.37c-.38-.85-.89-1.62-1.5-2.3l.73-.73-.71-.71-.73.73c-.57-.51-1.2-.95-1.89-1.3l.42-.93-.91-.41-.42.94a8.9 8.9 0 0 0-2.69-.57V2h-1v1.03c-.78.04-1.54.18-2.26.41l-.37-.95-.93.36.37.95c-.85.38-1.62.89-2.3 1.5l-.73-.73-.71.71.73.73c-.51.57-.95 1.2-1.3 1.89l-.93-.42-.41.91.94.42a8.9 8.9 0 0 0-.57 2.69H2v1h1.03c.04.78.18 1.54.41 2.26l-.95.37.36.93.95-.37c.38.85.89 1.62 1.5 2.3l-.73.73.71.71.73-.73c.57.51 1.2.95 1.89 1.3l-.42.93.91.41.42-.94a8.9 8.9 0 0 0 2.69.57V22h1v-1.03c.78-.04 1.54-.18 2.26-.41l.37.95.93-.36-.37-.95c.85-.38 1.62-.89 2.3-1.5l.73.73.71-.71-.73-.73c.51-.57.95-1.2 1.3-1.89l.93.42.41-.91-.94-.42a8.9 8.9 0 0 0 .57-2.69zM8.69 18.17l1.41-3.86c-.67-.55-1.1-1.37-1.1-2.3 0-.56.16-1.07.42-1.51L6.78 7.36q.675-.75 1.53-1.29l2.64 3.14c.33-.12.68-.2 1.05-.2 1.12 0 2.08.62 2.6 1.53l4.05-.71c.21.62.32 1.28.34 1.97l-4.04.71a2.99 2.99 0 0 1-2.95 2.5h-.03l-1.4 3.85c-.67-.14-1.3-.37-1.88-.69"/><path d="M12 11a1 1 0 1 0 0 2 1 1 0 1 0 0-2"/></svg>