<svg xmlns="http://www.w3.org/2000/svg" width="24" height="24"><!--Boxicons v3.0 https://boxicons.com | License  https://docs.boxicons.com/free--><path d="M17.46 8.32c-.31 1.09-1.13 3.08-3.21 4.24.77-1.85 1.12-3.89 0-6.11-.76-1.5-2.65-3.08-3.73-3.89-.31-.23-.73-.04-.79.34-.15.96-.73 2.62-2.79 4.66C4.52 9.95 3 12.39 3 14.78c0 2.77 1.74 6.26 4.46 7.05.44.13.79-.34.58-.74-2.19-4.05 1.71-7.43 1.71-7.43 0 5 2.25 8.33 5.62 8.33 1.87 0 5.62-1.11 5.62-7.22 0-3.59-1.73-5.74-2.72-6.68a.5.5 0 0 0-.83.22Z"/></svg>