<svg xmlns="http://www.w3.org/2000/svg" width="24" height="24"><!--Boxicons v3.0 https://boxicons.com | License  https://docs.boxicons.com/free--><path d="M17.44 5.14q-.24-.57-.69-1.02a3.19 3.19 0 0 0-2.65-.92c-.1.01-.19.04-.29.06l-.16.26.04.02-6.77 10.75.68.68 9.84-9.84Zm3.31 5.03a3.16 3.16 0 0 0-.87-2.91c-.3-.3-.65-.54-1.03-.7l-9.83 9.83.69.69 11.05-6.91ZM3.46 20.54C4.44 21.51 5.72 22 7 22s2.46-.46 3.42-1.37l-7.05-7.05c-1.84 1.96-1.82 5.05.09 6.96m7.69-2.01.73.73 8.07-2.37c1.38-.4 2.31-1.64 2.31-3.09 0-.67-.21-1.31-.6-1.85l-10.52 6.58ZM9.39 1.83a3.17 3.17 0 0 0-2.28 2.21l-2.32 7.9.76.76 6.48-10.37c-.76-.54-1.71-.74-2.64-.5"/></svg>