<svg xmlns="http://www.w3.org/2000/svg" width="24" height="24"><!--Boxicons v3.0 https://boxicons.com | License  https://docs.boxicons.com/free--><path d="M16.71 2.29A1 1 0 0 0 16 2H8c-.27 0-.52.11-.71.29l-5 5A1 1 0 0 0 2 8v8c0 .27.11.52.29.71l5 5c.19.19.44.29.71.29h8c.27 0 .52-.11.71-.29l5-5A1 1 0 0 0 22 16V8c0-.27-.11-.52-.29-.71zM13 18h-2v-2h2zm0-4.34V14h-2v-1c0-.43.27-.8.67-.94.58-.2 2.24-1.03 2.24-2.07 0-.82-.54-1.57-1.32-1.86-1.04-.38-2.28.19-2.65 1.21l-1.88-.68c.75-2.06 3.13-3.16 5.21-2.41 1.56.57 2.62 2.07 2.64 3.73 0 1.98-1.87 3.17-2.91 3.68"/></svg>