<svg xmlns="http://www.w3.org/2000/svg" width="24" height="24"><!--Boxicons v3.0 https://boxicons.com | License  https://docs.boxicons.com/free--><path d="M9.88 18.36a3 3 0 0 1-4.24 0 3 3 0 0 1 0-4.24l2.83-2.83-1.41-1.41-2.83 2.83a5.003 5.003 0 0 0 0 7.07c.98.97 2.25 1.46 3.54 1.46s2.56-.49 3.54-1.46l2.83-2.83-1.41-1.41-2.83 2.83Zm2.83-14.14L9.88 7.05l1.41 1.41 2.83-2.83a3 3 0 0 1 4.24 0 3 3 0 0 1 0 4.24l-2.83 2.83 1.41 1.41 2.83-2.83a5.003 5.003 0 0 0 0-7.07 5.003 5.003 0 0 0-7.07 0Z"/><path d="m16.95 8.46-.71-.7-.7-.71-4.25 4.24-4.24 4.25.71.7.7.71 4.25-4.24z"/></svg>