<svg xmlns="http://www.w3.org/2000/svg" width="24" height="24"><!--Boxicons v3.0 https://boxicons.com | License  https://docs.boxicons.com/free--><path d="M4.22 19.78c.97.97 2.25 1.46 3.54 1.46s2.56-.49 3.54-1.46l2.83-2.83-1.41-1.41-2.83 2.83a3 3 0 0 1-4.24 0 3 3 0 0 1 0-4.24l2.83-2.83-1.41-1.41-2.83 2.83a5.003 5.003 0 0 0 0 7.07ZM19.78 4.22a5.003 5.003 0 0 0-7.07 0L9.88 7.05l1.41 1.41 2.83-2.83a3 3 0 0 1 4.24 0 3 3 0 0 1 0 4.24l-2.83 2.83 1.41 1.41 2.83-2.83a5.003 5.003 0 0 0 0-7.07ZM7 2h2v4H7zM2 7h4v2H2zm13 11h2v4h-2zm3-3h4v2h-4z"/></svg>