<svg xmlns="http://www.w3.org/2000/svg" width="24" height="24"><!--Boxicons v3.0 https://boxicons.com | License  https://docs.boxicons.com/free--><path d="M6.97 17.68C6.82 16.73 6 16 5 16c-1.1 0-2 .9-2 2s.9 2 2 2h.68c1.79 0 3.45-.97 4.34-2.52L12 14.02l2.47 4.32a3.32 3.32 0 0 0 2.87 1.67c1.43 0 2.69-.91 3.14-2.26l.47-1.42-1.9-.63-.48 1.42a1.304 1.304 0 0 1-2.37.23l-3.05-5.34 2.57-4.49c.31-.54.78-.94 1.32-1.2.15.95.97 1.68 1.97 1.68 1.1 0 2-.9 2-2s-.9-2-2-2h-.68c-1.79 0-3.45.97-4.34 2.52l-1.98 3.46-2.47-4.32a3.32 3.32 0 0 0-2.87-1.67c-1.43 0-2.69.91-3.14 2.26l-.47 1.42 1.9.63.48-1.42a1.304 1.304 0 0 1 2.37-.23l3.05 5.34-2.57 4.49c-.31.54-.78.94-1.32 1.2"/></svg>