<svg xmlns="http://www.w3.org/2000/svg" width="24" height="24"><!--Boxicons v3.0 https://boxicons.com | License  https://docs.boxicons.com/free--><path d="m8.06 12.3-2.1-2.1c-.49.5-1.16.79-1.88.8-.64 0-1.08.45-1.08 1s.45 1 1 1h.07c1.08 0 2.05.65 2.46 1.64l.02.05c.42 1 .19 2.16-.58 2.93l-.04.04a.996.996 0 1 0 1.41 1.41l.04-.04c.77-.77 1.92-1 2.93-.58l.14.06c.94.39 1.55 1.3 1.55 2.32v.09c0 .64.45 1.09 1 1.09s1-.45 1-1v-.17c0-.7.29-1.34.78-1.81L8.7 12.95c-.3-.1-.54-.33-.63-.63ZM19.47 14.64c.4-.97 1.31-1.64 2.36-1.64h.08c.64 0 1.09-.45 1.09-1s-.45-1-1-1h-.17c-1.05 0-1.96-.67-2.36-1.64l-.02-.05c-.41-.98-.25-2.1.5-2.85l.12-.12a.996.996 0 1 0-1.41-1.41l-.12.12c-.75.75-1.87.91-2.85.5l-.05-.02C14.67 5.13 14 4.22 14 3.17v-.08c0-.64-.45-1.08-1-1.08s-1 .45-1 1v.04c0 1.1-.66 2.08-1.67 2.5s-2.18.19-2.95-.59l-.02-.03c-.32-.32-.79-.36-1.17-.17L2.71 1.29 1.3 2.7l5.46 5.46 6.6 6.6 1.4 1.4 2.09 2.09 4.46 4.46 1.41-1.41-2.47-2.47c.2-.38.15-.85-.17-1.16l-.12-.12c-.75-.75-.91-1.87-.5-2.85l.02-.05ZM15 7.99c1.1 0 2 .9 2 2s-.9 2-2 2-2-.9-2-2 .9-2 2-2"/></svg>