<svg xmlns="http://www.w3.org/2000/svg" width="24" height="24"><!--Boxicons v3.0 https://boxicons.com | License  https://docs.boxicons.com/free--><path d="M17 11c-.4 0-.75.23-.91.59l-4 9 1.83.81 1.07-2.41h4.03l1.07 2.41 1.83-.81-4-9a1 1 0 0 0-.91-.59Zm-1.13 6L17 14.46 18.13 17zM12.25 14.97l.49-1.94c-.13-.03-1.6-.43-3.17-1.42 1.4-1.41 2.49-3.26 2.74-5.61h1.68V4h-5V2h-2v2H2v2h8.3c-.25 1.91-1.19 3.34-2.31 4.4C7.3 9.75 6.68 8.96 6.25 8H4.12c.5 1.44 1.33 2.63 2.3 3.61-1.57.99-3.04 1.39-3.17 1.42l.49 1.94c1.18-.3 2.76-.96 4.26-2.02 1.49 1.06 3.08 1.72 4.25 2.02"/></svg>