<svg xmlns="http://www.w3.org/2000/svg" width="24" height="24"><!--Boxicons v3.0 https://boxicons.com | License  https://docs.boxicons.com/free--><path d="M8.5 12a1.5 1.5 0 1 0 0 3 1.5 1.5 0 1 0 0-3M15.5 12a1.5 1.5 0 1 0 0 3 1.5 1.5 0 1 0 0-3"/><path d="M12 2C6.49 2 2 6.49 2 12s4.49 10 10 10 10-4.49 10-10S17.51 2 12 2m0 18c-4.41 0-8-3.59-8-8a7.99 7.99 0 0 1 5.09-7.44A3.5 3.5 0 0 0 8.5 6.5c0 .93.36 1.81 1.03 2.47.66.66 1.54 1.03 2.47 1.03s1.75-.35 2.41-.97.02-.02.04-.04c0 0 .02-.01.02-.02.34-.37.53-.85.53-1.35 0-.53-.21-1.04-.59-1.41-.76-.76-2.07-.76-2.83 0-.38.38-.59.88-.59 1.41h1c0-.27.1-.52.29-.71.38-.38 1.04-.38 1.41 0a.99.99 0 0 1 .02 1.38c-.95.91-2.56.9-3.5-.03-.47-.47-.73-1.1-.73-1.77s.26-1.29.73-1.77 1.1-.73 1.77-.73c4.41 0 8 3.59 8 8s-3.59 8-8 8Z"/></svg>