<svg xmlns="http://www.w3.org/2000/svg" width="24" height="24"><!--Boxicons v3.0 https://boxicons.com | License  https://docs.boxicons.com/free--><path d="M16 2H8C4.69 2 2 4.69 2 8c0 .55.45 1 1 1h18c.55 0 1-.45 1-1 0-3.31-2.69-6-6-6M21 15H3c-.55 0-1 .45-1 1 0 3.31 2.69 6 6 6h8c3.31 0 6-2.69 6-6 0-.55-.45-1-1-1M17 10c-1.6 0-2.45.68-3.12 1.22-.59.47-.98.78-1.87.78s-1.31-.33-1.88-.78C9.45 10.68 8.61 10 7.01 10s-2.45.68-3.13 1.22c-.59.47-.98.78-1.88.78v2c1.6 0 2.45-.68 3.12-1.22.57-.45.98-.78 1.88-.78s1.29.31 1.88.78c.68.54 1.53 1.22 3.13 1.22s2.45-.68 3.12-1.22c.59-.47.98-.78 1.88-.78s1.29.31 1.87.78C19.56 13.32 20.4 14 22 14v-2c-.9 0-1.29-.31-1.87-.78-.68-.54-1.52-1.22-3.12-1.22Z"/></svg>