<svg xmlns="http://www.w3.org/2000/svg" width="24" height="24"><!--Boxicons v3.0 https://boxicons.com | License  https://docs.boxicons.com/free--><path d="M2.21 14h6.33L3.96 6.07A10.08 10.08 0 0 0 2.21 14M15.16 2.53 12 8h9.16c-.15-.34-.31-.67-.5-1a9.92 9.92 0 0 0-5.5-4.47M21.79 10h-6.33l4.58 7.93c1.66-2.26 2.31-5.16 1.75-7.93M17 20.66c.59-.34 1.14-.74 1.63-1.17L15.46 14l-4.58 7.92c.37.04.75.07 1.13.07 1.7 0 3.41-.43 4.98-1.34ZM7 3.34c-.59.34-1.14.74-1.63 1.17L8.54 10l4.57-7.92A9.94 9.94 0 0 0 7 3.34M3.34 17c1.27 2.2 3.27 3.72 5.51 4.46L12 16H2.84c.15.34.31.67.5 1"/></svg>