<svg xmlns="http://www.w3.org/2000/svg" width="24" height="24"><!--Boxicons v3.0 https://boxicons.com | License  https://docs.boxicons.com/free--><path d="M12 2C6.49 2 2 6.49 2 12s4.49 10 10 10 10-4.49 10-10S17.51 2 12 2M6.43 8.45c.28-.28.66-.44 1.05-.44.37 0 .73.13 1.01.37.27-.25.63-.39 1-.39.39 0 .77.15 1.06.42.59.57.6 1.48.02 2.06l-2.04 2.02-2.07-1.99c-.6-.57-.6-1.47-.02-2.06ZM12 18c-4 0-5-4-5-4h10s-1 4-5 4m5.57-7.52-2.04 2.02-2.07-1.99c-.6-.57-.6-1.47-.02-2.06.28-.28.66-.44 1.05-.44.37 0 .73.13 1.01.37.27-.25.63-.39 1-.39.39 0 .77.15 1.06.42.59.57.6 1.48.02 2.06Z"/></svg>