<svg xmlns="http://www.w3.org/2000/svg" width="24" height="24"><!--Boxicons v3.0 https://boxicons.com | License  https://docs.boxicons.com/free--><path d="M21.27 16.96c.43-.12.73-.51.73-.96C22 8.28 15.72 2 8 2c-.45 0-.84.3-.96.73l-.38 1.36c6.95.77 12.48 6.3 13.25 13.25z"/><path d="M6.11 6.06 2.03 20.74c-.1.35 0 .72.26.97a1.01 1.01 0 0 0 .98.25l14.68-4.08C17.41 11.6 12.4 6.59 6.12 6.05ZM6 19c-.55 0-1-.45-1-1s.45-1 1-1 1 .45 1 1-.45 1-1 1m1-4c-.55 0-1-.45-1-1s.45-1 1-1 1 .45 1 1-.45 1-1 1m1-5c0-.55.45-1 1-1s1 .45 1 1-.45 1-1 1-1-.45-1-1m2 8c-.55 0-1-.45-1-1s.45-1 1-1 1 .45 1 1-.45 1-1 1m1.5-4c-.55 0-1-.45-1-1s.45-1 1-1 1 .45 1 1-.45 1-1 1m3.5 2c0 .55-.45 1-1 1s-1-.45-1-1 .45-1 1-1 1 .45 1 1"/></svg>