<svg xmlns="http://www.w3.org/2000/svg" width="24" height="24"><!--Boxicons v3.0 https://boxicons.com | License  https://docs.boxicons.com/free--><path d="M21.92 11.61c-.16-.37-.52-.61-.92-.61h-3.3l4.17-7.51c.22-.39.15-.88-.17-1.19s-.8-.38-1.19-.17L13.4 6.08l.58-2.88c.08-.42-.11-.84-.47-1.06-.37-.22-.83-.17-1.16.1L4.19 9.2c-2.92 2.92-2.92 7.68 0 10.61 1.42 1.42 3.3 2.2 5.3 2.2s3.89-.78 5.31-2.21l6.9-7.1a1 1 0 0 0 .2-1.09ZM9.5 18C7.57 18 6 16.43 6 14.5c0-1.4.83-2.6 2.02-3.16 0 .05-.02.1-.02.16 0 .83.67 1.5 1.5 1.5s1.5-.67 1.5-1.5c0-.05-.01-.11-.02-.16C12.17 11.9 13 13.1 13 14.5c0 1.93-1.57 3.5-3.5 3.5"/></svg>