<svg xmlns="http://www.w3.org/2000/svg" width="24" height="24"><!--Boxicons v3.0 https://boxicons.com | License  https://docs.boxicons.com/free--><path d="m21.49 8.72-1.91-1.1v-2.2c0-.55-.45-1-1-1h-2.2l-.41-.71-.7-1.2a1 1 0 0 0-1.37-.37l-1.91 1.1-1.91-1.1c-.48-.28-1.09-.11-1.37.37l-.7 1.2-.41.7H5.4c-.55 0-1 .45-1 1v2.2l-1.91 1.1a1 1 0 0 0-.37 1.37l.7 1.2.41.7-.41.7-.7 1.21a.998.998 0 0 0 .37 1.37l1.91 1.1v2.2c0 .55.45 1 1 1h2.2l.41.71.7 1.2c.19.32.52.5.87.5.17 0 .34-.04.5-.13l1.91-1.1 1.91 1.1c.23.13.5.17.76.1s.47-.24.61-.47l.7-1.2.41-.7h2.2c.55 0 1-.45 1-1v-2.2l1.91-1.1c.48-.28.64-.89.37-1.37l-1.1-1.91 1.1-1.91c.28-.48.11-1.09-.37-1.37Z"/></svg>