<svg xmlns="http://www.w3.org/2000/svg" width="24" height="24"><!--Boxicons v3.0 https://boxicons.com | License  https://docs.boxicons.com/free--><path d="M16.91 2.29a.996.996 0 0 0-1.41 0l-1.69 1.69-1.09-1.09a.996.996 0 0 0-1.41 0l-2.4 2.4a.996.996 0 0 0 0 1.41l3.49 3.49-2.19 2.19-3.49-3.49a.996.996 0 0 0-1.41 0l-2.4 2.4a.996.996 0 0 0 0 1.41L4 13.79l-1.69 1.69a.996.996 0 0 0 0 1.41l4.8 4.8c.2.2.45.29.71.29s.51-.1.71-.29L10.22 20l1.09 1.09c.2.2.45.29.71.29s.51-.1.71-.29l2.4-2.4a.996.996 0 0 0 0-1.41l-3.49-3.49 2.19-2.19 3.49 3.49c.2.2.45.29.71.29s.51-.1.71-.29l2.4-2.4a.996.996 0 0 0 0-1.41l-1.09-1.09 1.69-1.69a.996.996 0 0 0 0-1.41l-4.8-4.8Z" class="b"/></svg>