<svg xmlns="http://www.w3.org/2000/svg" width="24" height="24"><!--Boxicons v3.0 https://boxicons.com | License  https://docs.boxicons.com/free--><path d="M12 2C6.49 2 2 6.49 2 12c0 2.12.68 4.19 1.93 5.9l-1.75 2.53c-.21.31-.24.7-.06 1.03.17.33.51.54.89.54h9c5.51 0 10-4.49 10-10S17.51 2 12 2m1 15h-2v-2h2zm1.47-4.03c-.42.42-.92.72-1.47.88v.14h-2v-1c0-.55.45-1 1-1a1.499 1.499 0 0 0 1.06-2.56c-.57-.57-1.55-.57-2.12 0-.28.28-.44.66-.44 1.06h-2c0-.93.36-1.81 1.03-2.47 1.32-1.32 3.63-1.32 4.95 0 .66.66 1.03 1.54 1.03 2.47s-.36 1.81-1.03 2.47Z"/></svg>