<svg xmlns="http://www.w3.org/2000/svg" width="24" height="24"><!--Boxicons v3.0 https://boxicons.com | License  https://docs.boxicons.com/free--><path d="M12 2C6.49 2 2 6.49 2 12s4.49 10 10 10 10-4.49 10-10S17.51 2 12 2m5.71 13.53c-.28.65-1.21 1.75-2.06 2.45l-.96.8c-.63.52-1.24.96-1.56 1.13-.08.01-.17.03-.25.04-.08-.16 0-.83.19-1.6.22-.86.18-1.77-.09-2s-.63-.73-.81-1.1-.22-1.02-.09-1.45.09-.86-.1-.97-.53-.33-.76-.51-.76-.44-1.19-.59-1.06-.57-1.42-.94-.81-1.16-1.02-1.76-.2-1.67.02-2.38c.18-.58.22-1.13.13-1.4.67-.42 1.41-.75 2.19-.96.31.02.71-.02 1.11-.16.08-.03.15-.06.22-.08.24-.02.49-.04.74-.04.97 0 1.89.18 2.75.5v.06c0 .3-.04.63-.1.73-.07.09-.36 0-.66-.21-.29-.21-.61-.24-.71-.07-.09.17-.04.44.12.6s.56.49.88.73.32.56-.02.71-.86.59-1.17.98-.63.95-.71 1.24-.2.61-.26.71-.2.06-.29-.09c-.09-.14-.38-.32-.63-.4-.26-.08-.73 0-1.05.16s-.46.58-.31.93.46.45.69.22.5-.2.61.06.45.73.76 1.04.71.46.89.33.78-.12 1.33.02 1.29.43 1.64.66 1.05.65 1.55.93.68 1.05.4 1.69Z"/></svg>