<svg xmlns="http://www.w3.org/2000/svg" width="24" height="24"><!--Boxicons v3.0 https://boxicons.com | License  https://docs.boxicons.com/free--><path d="M16.68 7.32C15.73 4.2 12.81 2 9.5 2 5.36 2 2 5.36 2 9.5c0 3.3 2.2 6.22 5.32 7.18C8.27 19.8 11.19 22 14.5 22c4.14 0 7.5-3.36 7.5-7.5 0-3.3-2.2-6.23-5.32-7.18M4 9.5C4 6.47 6.47 4 9.5 4c2.58 0 4.84 1.83 5.38 4.34.08.39.12.77.12 1.16 0 .2-.01.41-.04.61 0 .05-.01.09-.02.13-.02.16-.05.31-.08.47 0 .04-.02.07-.03.11-.04.17-.09.33-.15.5 0 .01 0 .03-.01.04-.82 2.26-3.1 3.83-5.64 3.63h-.06q-.315-.03-.63-.09a5.53 5.53 0 0 1-4.35-5.38Z"/></svg>