<svg xmlns="http://www.w3.org/2000/svg" width="24" height="24"><!--Boxicons v3.0 https://boxicons.com | License  https://docs.boxicons.com/free--><path d="M21 3h-2.42c-.94 0-1.87-.15-2.76-.45-1.1-.37-2.24-.55-3.4-.55H6.83C5.27 2 4 3.27 4 4.83c0 .46.11.9.31 1.28a2.83 2.83 0 0 0-1 3.67c-.79.5-1.31 1.39-1.31 2.39C2 13.73 3.27 15 4.83 15h4.02c.32 0 .61.14.8.4.19.25.25.57.16.88l-.54 1.9c-.26.91-.08 1.87.49 2.63S11.21 22 12.16 22h1.35c.45 0 .84-.3.96-.73l1.15-4.01a3.98 3.98 0 0 1 3.13-2.84l2.44-.44c.48-.09.82-.5.82-.98V4c0-.55-.45-1-1-1Z"/></svg>