<svg xmlns="http://www.w3.org/2000/svg" width="24" height="24"><!--Boxicons v3.0 https://boxicons.com | License  https://docs.boxicons.com/free--><path d="M7 19.66V21c0 .55.45 1 1 1h8c.55 0 1-.45 1-1v-1.34c3.1-1.78 5-5.05 5-8.66 0-.55-.45-1-1-1a3.58 3.58 0 0 0-1.8-2.99c-.24-1.77-1.78-3.13-3.63-3.13-.34 0-.68.05-1.01.14-.68-.65-1.58-1.01-2.54-1.01s-1.87.37-2.54 1.01c-.33-.09-.67-.14-1.01-.14H8.4c-1.82.04-3.32 1.39-3.56 3.13A3.59 3.59 0 0 0 3.04 10c-.55 0-1 .45-1 1 0 3.61 1.9 6.87 5 8.66ZM6.11 8.61l.83-.25-.16-.85c0-.88.73-1.6 1.63-1.62.95.02 1.72.79 1.72 1.75h2c0-.93-.35-1.77-.92-2.43.24-.13.51-.2.79-.2.57 0 1.1.28 1.42.76l.51.77.81-.44c.25-.14.53-.21.83-.21.92 0 1.67.73 1.67 1.6l-.16.85.82.28c.62.21 1.03.76 1.09 1.39H5.02c.05-.63.47-1.19 1.09-1.39Z"/></svg>