<svg xmlns="http://www.w3.org/2000/svg" width="24" height="24"><!--Boxicons v3.0 https://boxicons.com | License  https://docs.boxicons.com/free--><path d="M12 10a2 2 0 1 0 0 4 2 2 0 1 0 0-4M10.5 15l.12 1.63.08 1.23.15 2.05.15 2.04V22h2v-.05l.15-2.04.15-2.05.08-1.23.12-1.63z"/><path d="M12 2C6.49 2 2 6.49 2 12c0 4.45 2.93 8.23 6.96 9.52l-.16-2.2C5.98 18.08 4 15.27 4 11.99c0-4.41 3.59-8 8-8s8 3.59 8 8c0 3.27-1.98 6.09-4.8 7.33l-.16 2.2C19.07 20.23 22 16.45 22 12c0-5.51-4.49-10-10-10"/><path d="m15.6 13.72-.1 1.42-.13 1.82A6 6 0 0 0 18.01 12c0-3.31-2.69-6-6-6s-6 2.69-6 6c0 2.06 1.05 3.88 2.64 4.96l-.13-1.82-.1-1.42c-.25-.52-.4-1.1-.4-1.72 0-2.21 1.79-4 4-4s4 1.79 4 4c0 .62-.15 1.2-.4 1.72Z"/></svg>