<svg xmlns="http://www.w3.org/2000/svg" width="24" height="24"><!--Boxicons v3.0 https://boxicons.com | License  https://docs.boxicons.com/free--><path d="m20.77 9.16-1.37-4.1a2.99 2.99 0 0 0-2.85-2.05H7.44a3 3 0 0 0-2.85 2.05l-1.37 4.1c-.72.3-1.23 1.02-1.23 1.84v5c0 .75.42 1.4 1.04 1.74-.01.07-.04.13-.04.2V20c0 .55.45 1 1 1h1c.55 0 1-.45 1-1v-2h12v2c0 .55.45 1 1 1h1c.55 0 1-.45 1-1v-2.06c0-.07-.03-.13-.04-.2.62-.34 1.04-.99 1.04-1.74v-5c0-.83-.51-1.54-1.23-1.84ZM20 13.5c0 .83-.67 1.5-1.5 1.5s-1.5-.67-1.5-1.5.67-1.5 1.5-1.5 1.5.67 1.5 1.5M5.5 12c.83 0 1.5.67 1.5 1.5S6.33 15 5.5 15 4 14.33 4 13.5 4.67 12 5.5 12m1.94-7h9.12a1 1 0 0 1 .95.68L18.62 9H5.39L6.5 5.68A1 1 0 0 1 7.45 5Z"/></svg>