<svg xmlns="http://www.w3.org/2000/svg" width="24" height="24"><!--Boxicons v3.0 https://boxicons.com | License  https://docs.boxicons.com/free--><path d="M21 10h-.61a5.01 5.01 0 0 0-3.47-3.79C16.54 3.83 14.49 2 12 2S7.52 3.77 7.09 6.09C5.09 6.46 3.5 8.01 3.1 10H3c-.55 0-1 .45-1 1 0 3.61 1.9 6.87 5 8.66V21c0 .55.45 1 1 1h8c.55 0 1-.45 1-1v-1.34c3.1-1.78 5-5.05 5-8.66 0-.55-.45-1-1-1m-2.67 0H12.9c-.02-.11-.05-.21-.08-.32.01-.02.02-.05.03-.07.03-.06.07-.12.1-.18.04-.07.08-.13.13-.2.04-.05.08-.11.12-.16.05-.06.1-.12.16-.17l.14-.14.18-.15c.05-.04.1-.08.16-.11.07-.05.14-.09.21-.13.05-.03.11-.06.16-.09.08-.04.16-.07.24-.1.05-.02.11-.04.16-.06.09-.03.19-.05.29-.07.05 0 .09-.02.14-.03q.225-.03.45-.03c.13 0 .26 0 .37.02 1.15.15 2.08.94 2.45 1.98ZM12 4c1.32 0 2.44.86 2.84 2.04-.02 0-.03 0-.05.01-.28.04-.56.1-.82.19-.03 0-.05.02-.08.03-.24.08-.46.18-.68.29-.08.04-.16.1-.24.14-.16.09-.31.19-.46.3-.08.06-.16.13-.24.2-.13.11-.26.23-.38.36-.04.04-.09.08-.13.12l-.15-.15c-.09-.1-.18-.19-.28-.27a6 6 0 0 0-.6-.46c-.1-.07-.21-.13-.32-.19-.12-.06-.23-.12-.35-.18a5 5 0 0 0-.72-.26c-.06-.02-.12-.05-.19-.06a3 3 0 0 1 2.87-2.13ZM8 8c.16 0 .31.01.47.04 1.07.17 1.98.9 2.35 1.94V10H5.17C5.58 8.84 6.7 8 8 8"/></svg>