<svg xmlns="http://www.w3.org/2000/svg" width="24" height="24"><!--Boxicons v3.0 https://boxicons.com | License  https://docs.boxicons.com/free--><path d="M17 4H7C4.24 4 2 6.24 2 9v7.88a3.124 3.124 0 0 0 5.33 2.21l1.96-1.96c.71-.71 1.7-1.12 2.71-1.12s1.99.41 2.71 1.12l1.96 1.96A3.124 3.124 0 0 0 22 16.88V9c0-2.76-2.24-5-5-5M7 12c-1.1 0-2-.9-2-2s.9-2 2-2 2 .9 2 2-.9 2-2 2m9.5-5c.55 0 1 .45 1 1s-.45 1-1 1-1-.45-1-1 .45-1 1-1m-2 4c-.55 0-1-.45-1-1s.45-1 1-1 1 .45 1 1-.45 1-1 1m2 2c-.55 0-1-.45-1-1s.45-1 1-1 1 .45 1 1-.45 1-1 1m2-2c-.55 0-1-.45-1-1s.45-1 1-1 1 .45 1 1-.45 1-1 1"/></svg>