<svg xmlns="http://www.w3.org/2000/svg" width="24" height="24"><!--Boxicons v3.0 https://boxicons.com | License  https://docs.boxicons.com/free--><path d="M13.4 2.1c-3.15-.42-6.24.6-8.47 2.83S1.67 10.25 2.1 13.4c.53 3.89 3.46 7.21 7.29 8.25.86.23 1.75.35 2.62.35h.14c1.03-.02 1.97-.55 2.52-1.43.54-.88.6-1.95.15-2.88l-.2-.42c-.45-.94-.1-1.8.39-2.28s1.34-.84 2.28-.39l.41.2c.93.45 2.01.39 2.88-.15a3 3 0 0 0 1.43-2.52c.01-.92-.11-1.85-.35-2.76-1.04-3.83-4.35-6.75-8.25-7.29ZM7.33 14.76c-.55 0-1-.45-1-1s.45-1 1-1 1 .45 1 1-.45 1-1 1m.07-3.58c-.62 0-1.12-.5-1.12-1.12s.5-1.12 1.12-1.12 1.12.5 1.12 1.12-.5 1.12-1.12 1.12m2.81-2.61a1.25 1.25 0 1 1 0-2.5 1.25 1.25 0 0 1 0 2.5m4.06.36c-.76 0-1.38-.62-1.38-1.38s.62-1.38 1.38-1.38 1.38.62 1.38 1.38-.62 1.38-1.38 1.38"/></svg>