<svg xmlns="http://www.w3.org/2000/svg" width="24" height="24"><!--Boxicons v3.0 https://boxicons.com | License  https://docs.boxicons.com/free--><path d="M9.95 17.97C10.54 20.55 11.42 22 12 22s1.46-1.46 2.05-4.03c-1.36-.09-2.74-.09-4.1 0M9.59 15.98c1.6-.11 3.21-.11 4.81 0 .12-.91.21-1.9.24-2.98h-5.3c.03 1.08.12 2.07.24 2.98ZM12 8.11c-.81 0-1.61-.03-2.41-.09-.12.9-.21 1.9-.24 2.97h5.3c-.03-1.08-.12-2.07-.24-2.97-.8.06-1.6.09-2.41.09M19.32 5.21a9.93 9.93 0 0 0-4.39-2.77c.47.94.84 2.1 1.12 3.39 1.11-.14 2.2-.36 3.27-.62M16.39 16.19c1.44.19 2.85.49 4.22.86a9.9 9.9 0 0 0 1.34-4.06h-5.3c-.03 1.09-.12 2.16-.26 3.19ZM16.39 7.81c.14 1.03.22 2.1.26 3.19h5.3a9.95 9.95 0 0 0-1.34-4.06c-1.38.38-2.78.68-4.22.87M4.68 18.79a9.93 9.93 0 0 0 4.39 2.77c-.47-.94-.84-2.1-1.12-3.39-1.11.14-2.2.36-3.27.62M14.93 21.56c1.7-.52 3.21-1.49 4.39-2.77a30 30 0 0 0-3.27-.62c-.28 1.29-.66 2.45-1.12 3.39M7.61 7.81a31 31 0 0 1-4.22-.87A9.9 9.9 0 0 0 2.05 11h5.3c.03-1.08.12-2.16.26-3.19M14.05 6.03C13.46 3.45 12.58 2 12 2s-1.46 1.46-2.05 4.03c1.36.09 2.74.09 4.1 0M7.95 5.83c.28-1.29.66-2.45 1.12-3.39-1.7.52-3.21 1.49-4.39 2.77 1.07.26 2.16.48 3.27.62M7.35 13h-5.3c.15 1.47.62 2.84 1.34 4.06 1.37-.38 2.78-.67 4.22-.86-.14-1.03-.22-2.11-.26-3.19Z"/></svg>