<svg xmlns="http://www.w3.org/2000/svg" width="24" height="24"><!--Boxicons v3.0 https://boxicons.com | License  https://docs.boxicons.com/free--><path d="M19 8c1.1 0 2-.9 2-2s-.9-2-2-2-2 .9-2 2 .9 2 2 2M17 14c-.9 0-1.29-.31-1.88-.78-.68-.54-1.52-1.22-3.13-1.22s-2.44.68-3.12 1.22c-.59.47-.98.78-1.88.78s-1.29-.31-1.87-.78C4.44 12.68 3.6 12 2 12v2c.9 0 1.29.31 1.87.78.68.54 1.52 1.22 3.12 1.22s2.45-.68 3.12-1.22c.59-.47.98-.78 1.87-.78s1.31.33 1.88.78c.68.54 1.52 1.22 3.13 1.22s2.45-.68 3.13-1.22c.59-.47.98-.78 1.88-.78v-2c-1.6 0-2.45.68-3.13 1.22-.57.45-.98.78-1.88.78Z"/><path d="m11.03 5.45 2.04 2.04-2.56 2.74c.41-.14.89-.23 1.48-.23 1.6 0 2.45.68 3.13 1.22.59.47.98.78 1.88.78s1.31-.33 1.88-.78c.13-.11.28-.22.43-.33l-6.85-6.85c-.38-.39-.93-.59-1.46-.59-.54.01-1.07.25-1.43.65L5.28 8.82l1.48 1.35 4.29-4.72ZM17 19c-.9 0-1.29-.31-1.88-.78-.68-.54-1.52-1.22-3.13-1.22s-2.44.68-3.12 1.22c-.59.47-.98.78-1.88.78s-1.29-.31-1.87-.78C4.44 17.68 3.6 17 2 17v2c.9 0 1.29.31 1.87.78.68.54 1.52 1.22 3.12 1.22s2.45-.68 3.12-1.22c.59-.47.98-.78 1.87-.78s1.31.33 1.88.78c.68.54 1.52 1.22 3.13 1.22s2.45-.68 3.13-1.22c.59-.47.98-.78 1.88-.78v-2c-1.6 0-2.45.68-3.13 1.22-.57.45-.98.78-1.88.78Z"/></svg>