<svg xmlns="http://www.w3.org/2000/svg" width="24" height="24"><!--Boxicons v3.0 https://boxicons.com | License  https://docs.boxicons.com/free--><path d="M19.03 4.97c-.18-.68-.53-1.3-1.03-1.8A3.996 3.996 0 0 0 11.18 6c0 .73.19 1.42.55 2.03l-3.71 3.71c-1.53-.9-3.54-.7-4.85.62-.75.75-1.17 1.76-1.17 2.83s.42 2.07 1.17 2.83c.5.5 1.12.85 1.8 1.03a3.974 3.974 0 0 0 3.86 2.97c1.07 0 2.07-.42 2.83-1.17a4.006 4.006 0 0 0 .62-4.85l3.71-3.71c1.5.89 3.59.65 4.86-.62a3.996 3.996 0 0 0 0-5.65c-.5-.5-1.12-.85-1.8-1.03Z"/></svg>