<svg xmlns="http://www.w3.org/2000/svg" width="24" height="24"><!--Boxicons v3.0 https://boxicons.com | License  https://docs.boxicons.com/free--><path d="M3 22h10c.55 0 1-.45 1-1v-5.76c0-1.71-.67-3.32-1.88-4.54a3.8 3.8 0 0 1-1.11-2.42l.57-.86c.67 1.35 2 2.57 4.42 2.57v-2c-1.88 0-2.58-1.11-2.84-2H15c.55 0 1-.45 1-1v-2c0-.55-.45-1-1-1H7.3c-.4 0-.78.12-1.11.34L4.27 3.61c-.45.3-.75.75-.85 1.27-.11.52 0 1.06.3 1.5l1.27 1.9c-.07.91-.46 1.77-1.11 2.42A6.38 6.38 0 0 0 2 15.24V21c0 .55.45 1 1 1m2.29-9.88C6.39 11.02 7 9.56 7 8h2c0 1.56.61 3.02 1.71 4.12.83.83 1.29 1.94 1.29 3.12v.72c-1.66-.11-2.62-.49-3.63-.89-1.11-.44-2.25-.89-4.19-1.03.2-.72.57-1.38 1.11-1.92M17 3h2v2h-2zM20 3h2v2h-2zM20 6h2v2h-2z"/></svg>