<svg xmlns="http://www.w3.org/2000/svg" width="24" height="24"><!--Boxicons v3.0 https://boxicons.com | License  https://docs.boxicons.com/free--><path d="M8.03 12.27 2.12 6.36c-.07.2-.12.42-.12.64v11c0 1.1.9 2 2 2h11.76l-4.03-4.03c-1.95-.14-3.56-1.75-3.7-3.7M22 18V7c0-1.1-.9-2-2-2h-2.59L14.7 2.29a1 1 0 0 0-.71-.29h-4c-.27 0-.52.11-.71.29L6.57 5H6.4L2.71 1.29 1.3 2.7l2.33 2.33 4.95 4.95 1.5 1.5 2.43 2.43 1.5 1.5 4.58 4.58 2.71 2.71 1.41-1.41-1.62-1.62c.55-.36.91-.97.91-1.67m-8.08-5.49c.05-.16.08-.33.08-.51 0-1.07-.93-2-2-2-.17 0-.34.03-.51.08L9.98 8.57c.59-.36 1.28-.57 2.01-.57 2.17 0 4 1.83 4 4 0 .73-.21 1.42-.57 2.01l-1.51-1.51Z"/></svg>