<svg xmlns="http://www.w3.org/2000/svg" width="24" height="24"><!--Boxicons v3.0 https://boxicons.com | License  https://docs.boxicons.com/free--><path d="M17 5H9c-3.86 0-7 3.14-7 7s3.14 7 7 7h9v-2H9c-2.76 0-5-2.24-5-5s2.24-5 5-5h8c.79 0 1.54.31 2.11.89a2.967 2.967 0 0 1 .01 4.23 3 3 0 0 1-2.12.89H9c-.26 0-.5-.11-.7-.3-.19-.2-.3-.44-.3-.7s.11-.51.3-.7.44-.3.7-.3h8v-2H9c-.79 0-1.54.32-2.11.89S6 11.22 6 12.01s.31 1.54.89 2.11c.57.57 1.32.89 2.11.89h8c1.32 0 2.58-.52 3.53-1.47S22 11.34 22 10.01s-.52-2.58-1.47-3.53a4.95 4.95 0 0 0-3.52-1.47Z"/></svg>