<svg xmlns="http://www.w3.org/2000/svg" width="24" height="24"><!--Boxicons v3.0 https://boxicons.com | License  https://docs.boxicons.com/free--><path d="m21.55 11.17-1.26-.84a1.04 1.04 0 0 1-.45-.65v-.03c-.06-.3 0-.59.15-.83l.84-1.26c.21-.31.22-.7.05-1.03A.98.98 0 0 0 20 6h-2.07c-.21 0-.4-.06-.52-.15-.01 0-.02-.02-.04-.03-.17-.14-.28-.28-.34-.43l-1.1-2.76c-.11-.27-.33-.48-.61-.58-.28-.09-.58-.06-.83.09l-2.52 1.51c-.39.24-.78.38-1.18.43-1 .13-2.01-.15-2.79-.78L6.64 2.21a1.004 1.004 0 0 0-1.63.78v4.49c0 .1-.05.2-.09.27 0 0 0 .02-.01.02a.47.47 0 0 1-.4.22h-1.5c-.4 0-.77.24-.92.62-.16.37-.07.8.22 1.09l1.42 1.42c.19.19.31.4.33.62.05.45-.1.89-.41 1.2l-1.34 1.34c-.29.29-.37.72-.22 1.09s.52.62.92.62H6.1c.2 0 .39.06.54.18.24.19.37.45.37.72v4.09c0 .4.24.77.62.92a.995.995 0 0 0 1.09-.21l2.76-2.76c.57-.57 1.28-.94 2.1-1.08.92-.16 1.88-.02 2.71.4l1.27.64a.995.995 0 0 0 1.42-1.09l-.45-2.23c-.05-.26 0-.54.17-.75.08-.11.16-.19.25-.25l2.6-1.73c.28-.19.45-.5.45-.83s-.17-.65-.45-.83Z"/></svg>