<svg xmlns="http://www.w3.org/2000/svg" width="24" height="24"><!--Boxicons v3.0 https://boxicons.com | License  https://docs.boxicons.com/free--><path d="M12 10a2 2 0 1 0 0 4 2 2 0 1 0 0-4"/><path d="M19 3H5c-1.1 0-2 .9-2 2v14c0 1.1.9 2 2 2h14c1.1 0 2-.9 2-2V5c0-1.1-.9-2-2-2m-3 9c0 .74-.22 1.42-.57 2.02l1.77 1.77-1.41 1.41-1.77-1.77c-.59.35-1.28.57-2.02.57s-1.42-.22-2.02-.57L8.21 17.2 6.8 15.79l1.77-1.77C8.22 13.43 8 12.74 8 12s.22-1.42.57-2.02L6.8 8.21 8.21 6.8l1.77 1.77C10.57 8.22 11.26 8 12 8s1.42.22 2.02.57l1.77-1.77 1.41 1.41-1.77 1.77c.35.59.57 1.28.57 2.02"/></svg>