<svg xmlns="http://www.w3.org/2000/svg" width="24" height="24"><!--Boxicons v3.0 https://boxicons.com | License  https://docs.boxicons.com/free--><path d="M7 19.66V21c0 .55.45 1 1 1h8c.55 0 1-.45 1-1v-1.34c3.1-1.78 5-5.05 5-8.66 0-.55-.45-1-1-1H3c-.55 0-1 .45-1 1 0 3.61 1.9 6.87 5 8.66M10 9V7.93c0-1.19-.46-2.31-1.28-3.16C8.26 4.3 8 3.67 8 3.01V1.99H6v1.02c0 1.19.46 2.31 1.28 3.16.46.47.72 1.1.72 1.76V9zm4 0V7.93c0-1.19-.46-2.31-1.28-3.16-.46-.47-.72-1.1-.72-1.76V1.99h-2v1.02c0 1.19.46 2.31 1.28 3.16.46.47.72 1.1.72 1.76V9zm4 0V7.93c0-1.19-.46-2.31-1.28-3.16-.46-.47-.72-1.1-.72-1.76V1.99h-2v1.02c0 1.19.46 2.31 1.28 3.16.46.47.72 1.1.72 1.76V9z"/></svg>