<svg xmlns="http://www.w3.org/2000/svg" width="24" height="24"><!--Boxicons v3.0 https://boxicons.com | License  https://docs.boxicons.com/free--><path d="M5 5a2 2 0 1 0 0 4 2 2 0 1 0 0-4M19.5 10h-.7c-.84 0-1.61.42-2.08 1.11L13.46 16h-2.93l-3.26-4.89C6.81 10.41 6.03 10 5.19 10h-.7a2.5 2.5 0 0 0-2.5 2.5V18h5v-3.7l1.87 2.81c.37.56.99.89 1.66.89h2.93c.67 0 1.29-.33 1.66-.89l1.87-2.81V18h5v-5.5a2.5 2.5 0 0 0-2.5-2.5ZM19 5a2 2 0 1 0 0 4 2 2 0 1 0 0-4"/><path d="M14.51 10.17c.65-.67.65-1.74 0-2.41-.66-.67-1.69-.67-2.34 0l-.17.17-.17-.17c-.65-.67-1.69-.67-2.34 0-.65.68-.65 1.74 0 2.41L12 12.75z"/></svg>