<svg xmlns="http://www.w3.org/2000/svg" width="24" height="24"><!--Boxicons v3.0 https://boxicons.com | License  https://docs.boxicons.com/free--><path d="M20 16.18V13c0-1.1-.9-2-2-2h-5V7.82c1.16-.41 2-1.51 2-2.82 0-1.65-1.35-3-3-3S9 3.35 9 5c0 1.3.84 2.4 2 2.82V11H6c-1.1 0-2 .9-2 2v3.18c-1.16.41-2 1.51-2 2.82 0 1.65 1.35 3 3 3s3-1.35 3-3c0-1.3-.84-2.4-2-2.82V13h5v3.18c-1.16.41-2 1.51-2 2.82 0 1.65 1.35 3 3 3s3-1.35 3-3c0-1.3-.84-2.4-2-2.82V13h5v3.18c-1.16.41-2 1.51-2 2.82 0 1.65 1.35 3 3 3s3-1.35 3-3c0-1.3-.84-2.4-2-2.82M12 6c-.55 0-1-.45-1-1s.45-1 1-1 1 .45 1 1-.45 1-1 1"/></svg>