<svg xmlns="http://www.w3.org/2000/svg" width="24" height="24"><!--Boxicons v3.0 https://boxicons.com | License  https://docs.boxicons.com/free--><path d="M16.75 8.5c-.2 0-.4.01-.6.04A6.45 6.45 0 0 0 11 6c-3.11 0-5.79 2.25-6.38 5.25A3.96 3.96 0 0 0 2 15c0 2.21 1.79 4 4 4h10.75c2.89 0 5.25-2.36 5.25-5.25S19.64 8.5 16.75 8.5M21 6c-1.65 0-3-1.35-3-3 0-.55-.45-1-1-1-.34 0-.67.03-1.01.1-.32.07-.64.17-.94.29a5 5 0 0 0-1.59 1.07c-.23.22-.43.47-.61.74 1.58.35 3.02 1.14 4.17 2.3 1.83.07 3.48.82 4.72 2 .05-.17.12-.33.16-.5.07-.33.1-.67.1-1 0-.55-.45-1-1-1"/></svg>