<svg xmlns="http://www.w3.org/2000/svg" width="24" height="24"><!--Boxicons v3.0 https://boxicons.com | License  https://docs.boxicons.com/free--><path d="M20.05 14.68C19.98 14.9 18.16 20 12 20c-1.78 0-2.8-.62-3.15-1.89A4 4 0 0 1 8.73 17c3.72-.4 8.03-2.57 9.53-5.18.92-1.6.72-3.25-.56-4.53-1.38-1.38-3.27-1.54-5.17-.44-2.42 1.4-4.83 4.89-5.58 8.2q-.45-.045-.87-.15c-1.43-.38-2.1-1.3-2.1-2.9 0-5.26 6.33-8.05 6.4-8.08l.92-.4-.79-1.83-.92.39c-.31.13-7.61 3.33-7.61 9.92 0 2.49 1.27 4.21 3.58 4.83.36.1.75.16 1.15.2 0 .56.06 1.09.2 1.6.34 1.26 1.45 3.38 5.08 3.38 7.63 0 9.93-6.62 9.95-6.68l.32-.95-1.89-.63-.32.94Zm-6.52-6.1c.58-.34 1.07-.46 1.45-.46.72 0 1.13.41 1.3.58.64.64.71 1.29.24 2.11-1.05 1.82-4.42 3.68-7.47 4.15.72-2.5 2.52-5.26 4.48-6.39Z"/></svg>