<svg xmlns="http://www.w3.org/2000/svg" width="24" height="24"><!--Boxicons v3.0 https://boxicons.com | License  https://docs.boxicons.com/free--><path d="M8.5 12a1.5 1.5 0 1 0 0 3 1.5 1.5 0 1 0 0-3M15.5 12a1.5 1.5 0 1 0 0 3 1.5 1.5 0 1 0 0-3"/><path d="M12 2C6.49 2 2 6.49 2 12s4.49 10 10 10 10-4.49 10-10S17.51 2 12 2m0 18c-4.09 0-7.48-3.09-7.94-7.07l3.06-2.45A4.98 4.98 0 0 0 9 6.58V4.59c.93-.38 1.94-.59 3-.59s2.07.21 3 .59v1.99c0 1.53.68 2.95 1.88 3.91l3.06 2.45c-.46 3.97-3.85 7.07-7.94 7.07Z"/></svg>