<svg xmlns="http://www.w3.org/2000/svg" width="24" height="24"><!--Boxicons v3.0 https://boxicons.com | License  https://docs.boxicons.com/free--><path d="M17 2a2 2 0 1 0 0 4 2 2 0 1 0 0-4m-.35 9.46a2 2 0 0 0 1.52.7c.4 0 .81-.12 1.16-.38l2.76-1.97-1.16-1.63-2.76 1.97-1.96-2.28c-.43-.51-1.03-.86-1.69-.99l-3.65-.73c-.81-.16-1.65.2-2.09.9l-2.13 3.41 1.7 1.06 2.13-3.41 2.04.41L7.43 17H2v2h5.43c.7 0 1.36-.37 1.71-.97l1.92-3.2 5.14 1.03 1.83 6.41 1.92-.55-1.83-6.41a2 2 0 0 0-1.53-1.41l-3.01-.6 1.91-3.18 1.15 1.34Z"/></svg>