<svg xmlns="http://www.w3.org/2000/svg" width="24" height="24"><!--Boxicons v3.0 https://boxicons.com | License  https://docs.boxicons.com/free--><path d="M11 12c3.83 0 6.95-3.1 7-6.92A8 8 0 0 0 14 4H5c-.55 0-1-.45-1-1V2H2v1c0 1.65 1.35 3 3 3 0 3.31 2.69 6 6 6m-1-6c.55 0 1 .45 1 1s-.45 1-1 1-1-.45-1-1 .45-1 1-1"/><path d="M19.86 6.56c-.45 2.58-2.01 4.78-4.17 6.11.5.46.81 1.11.81 1.83A2.5 2.5 0 0 1 14 17h-4c0-1.1-.9-2-2-2H4c0 2 2 3.5 2 3.5S4 20 4 22h4c1.1 0 2-.9 2-2h4c4.42 0 8-3.58 8-8 0-2.1-.82-4.01-2.14-5.44"/></svg>