<svg xmlns="http://www.w3.org/2000/svg" width="24" height="24"><!--Boxicons v3.0 https://boxicons.com | License  https://docs.boxicons.com/free--><path d="M18.41 22h.37c.31-.01.6-.17.78-.43l2.27-3.27c.15-.22.21-.49.16-.76a1 1 0 0 0-.43-.65l-4.91-3.27c-.41-.27-.96-.21-1.29.15l-1.88 2.03c-.76-.45-2.03-1.26-3.03-2.26s-1.81-2.27-2.26-3.02l2.03-1.88c.36-.33.43-.88.15-1.29L7.1 2.44c-.15-.22-.38-.38-.64-.43-.27-.05-.54 0-.76.16L2.43 4.43c-.26.18-.42.47-.43.78-.03.71-.16 7.04 4.79 11.98 4.46 4.46 10.04 4.8 11.62 4.8ZM19 2h-2v3h-3v2h3v3h2V7h3V5h-3z"/></svg>