<svg xmlns="http://www.w3.org/2000/svg" width="24" height="24"><!--Boxicons v3.0 https://boxicons.com | License  https://docs.boxicons.com/free--><path d="M17.16 3.01A2.02 2.02 0 0 0 15.42 2H8.58c-.72 0-1.38.39-1.74 1.01l-3.43 6c-.35.61-.35 1.37 0 1.98l3.43 6c.35.62 1.02 1.01 1.74 1.01h6.84c.71 0 1.38-.39 1.74-1.01l3.43-6c.35-.61.35-1.37 0-1.98zM8.58 19c-.57 0-1.11-.17-1.58-.46V21c0 .35.18.67.47.85s.66.2.97.04l3.55-1.78 3.55 1.78a.997.997 0 0 0 1.45-.89v-2.46c-.47.29-1.01.46-1.58.46H8.57Z"/></svg>