<svg xmlns="http://www.w3.org/2000/svg" width="24" height="24"><!--Boxicons v3.0 https://boxicons.com | License  https://docs.boxicons.com/free--><path d="M22.02 8.75c-.37-1.57-1.36-2.89-2.78-3.71-.23-.13-.5-.17-.76-.1s-.47.24-.61.47c-.27.46-.7.79-1.21.93s-1.05.07-1.52-.2l-4.33-2.5c-.48-.28-1.09-.11-1.37.37l-2.5 4.33c-.28.48-.11 1.09.37 1.37l4.33 2.5c.46.27.79.7.93 1.21.14.52.07 1.05-.2 1.52-.13.23-.17.5-.1.76s.24.47.47.61c.92.53 1.93.8 2.94.8.56 0 1.12-.08 1.66-.25 1.56-.47 2.93-1.6 3.84-3.18s1.21-3.33.83-4.92ZM5.54 10.78 1.95 17c-.13.23-.17.5-.1.76s.24.47.47.61l2.38 1.37c.16.09.33.13.5.13.35 0 .68-.18.87-.5l3.5-6.06-3.24-1.87c-.3-.17-.56-.4-.78-.66Z"/></svg>