<svg xmlns="http://www.w3.org/2000/svg" width="24" height="24"><!--Boxicons v3.0 https://boxicons.com | License  https://docs.boxicons.com/free--><path d="M20 15c0 .55-.45 1-1 1s-1-.45-1-1c0-1.48.35-2.89.62-4.02.07-.3.14-.59.2-.85.23-1.06.18-2.17-.14-3.21a7.1 7.1 0 0 0-1.69-2.83V4h-.1c-1.28-1.25-3.01-2-4.9-2s-3.63.75-4.9 2h-.1v.09c-.76.77-1.35 1.73-1.69 2.83a6.36 6.36 0 0 0-.14 3.21c.06.26.13.54.2.85.28 1.13.62 2.54.62 4.02 0 .55-.45 1-1 1s-1-.45-1-1v-1h-2v.66c0 .66.16 1.32.5 1.88 1.07 1.73 3.2 1.75 4.5.94.58-.36 1.16-.64 1.75-.86C7.63 19.94 3.19 20 2.98 20v2c2.16 0 5.82-.9 7.32-3.92.32-.65.95-1.08 1.68-1.08s1.36.44 1.68 1.09c.67 1.35 1.82 2.39 3.43 3.08 1.92.82 3.81.83 3.89.83v-2c-.21 0-4.66-.07-5.76-3.38.59.23 1.18.5 1.76.87 1.3.81 3.43.79 4.5-.94.35-.56.5-1.22.5-1.88v-.66h-2v1Zm-10-3c-.55 0-1-.45-1-1s.45-1 1-1 1 .45 1 1-.45 1-1 1m4 0c-.55 0-1-.45-1-1s.45-1 1-1 1 .45 1 1-.45 1-1 1"/></svg>