<svg xmlns="http://www.w3.org/2000/svg" width="24" height="24"><!--Boxicons v3.0 https://boxicons.com | License  https://docs.boxicons.com/free--><path d="M20.55 15.17C20.42 15.08 17.24 13 12 13s-8.42 2.08-8.55 2.17c-.28.19-.45.5-.45.83v2.18c0 .91.44 1.77 1.18 2.3s1.69.67 2.55.37c3.29-1.12 7.25-1.12 10.54 0a2.85 2.85 0 0 0 2.55-.37c.74-.53 1.18-1.39 1.18-2.3V16c0-.33-.17-.65-.45-.83M12 11c1.47 0 2.8.15 3.96.37-.2-3.59-1.26-6.34-2.49-7.6q.03-.135.03-.27c0-.83-.67-1.5-1.5-1.5s-1.5.67-1.5 1.5q0 .135.03.27c-1.23 1.26-2.28 4.01-2.49 7.6C9.21 11.15 10.53 11 12 11M8 3.84C4.48 5.39 2 8.91 2 13v.79c.11-.1.21-.2.33-.29.22-.15 1.52-.97 3.69-1.63.1-3.26.83-6.08 1.98-8.03M16 3.84c1.15 1.95 1.88 4.76 1.98 8.03 2.17.66 3.46 1.48 3.68 1.63.13.08.23.19.34.29V13c0-4.09-2.47-7.61-6-9.16"/></svg>