<svg xmlns="http://www.w3.org/2000/svg" width="24" height="24"><!--Boxicons v3.0 https://boxicons.com | License  https://docs.boxicons.com/free--><path d="M16.09 3c-1.84-.06-3.48 1.04-4.46 2.6-.97 1.54-.88 2.87-.48 4.06l-7.82 7.73c-.21.21-.33.5-.33.8v1.68c0 .62.5 1.12 1.12 1.12H5.9c.3 0 .58-.12.8-.33l.63-.63a.55.55 0 0 0 .16-.4v-2.02l.73.73c.22.22.58.22.8 0l.56-.56a.55.55 0 0 0 .16-.4v-2.02l.73.73c.22.22.58.22.8 0l.56-.56a.55.55 0 0 0 .16-.4v-2.02l.72.52c.34.25.68.28.89.06l.77-.86c1.19.39 2.51.47 4.05-.53 1.57-1.02 2.67-2.69 2.56-4.56a5.055 5.055 0 0 0-4.9-4.76Zm1.43 6.65-3.18-3.18c.88-.88 2.3-.88 3.18 0s.88 2.3 0 3.18"/></svg>