<svg xmlns="http://www.w3.org/2000/svg" width="24" height="24"><!--Boxicons v3.0 https://boxicons.com | License  https://docs.boxicons.com/free--><path d="M20.5 5c-.83 0-1.5.67-1.5 1.5v7a2.5 2.5 0 0 1-2.5 2.5c-.64 0-1.22-.25-1.66-.65-.35.96-1.26 1.65-2.34 1.65a2.5 2.5 0 0 1-2.5-2.5v-10C10 3.67 9.33 3 8.5 3S7 3.67 7 4.5v11.81l-2.22-3.6c-.44-.71-1.36-.93-2.07-.49s-.93 1.36-.49 2.07l3.31 5.34A5 5 0 0 0 9.78 22H17c2.76 0 5-2.24 5-5V6.5c0-.83-.67-1.5-1.5-1.5"/><path d="M12.5 16c.83 0 1.5-.67 1.5-1.5v-4c0-.83-.67-1.5-1.5-1.5s-1.5.67-1.5 1.5v4c0 .83.67 1.5 1.5 1.5M16.5 15c.83 0 1.5-.67 1.5-1.5v-3c0-.83-.67-1.5-1.5-1.5s-1.5.67-1.5 1.5v3c0 .83.67 1.5 1.5 1.5"/></svg>