<svg xmlns="http://www.w3.org/2000/svg" width="24" height="24"><!--Boxicons v3.0 https://boxicons.com | License  https://docs.boxicons.com/free--><path d="M16.75 5.75a6.24 6.24 0 0 0-5.82 4c.1-.05.2-.08.31-.12 1.84-.61 3.81-.46 5.53.42 1.73.88 3 2.38 3.6 4.22.28.86.39 1.75.34 2.63.82-1.45 1.3-3.12 1.3-4.91s-.44-3.34-1.2-4.75c-1.09-.93-2.5-1.5-4.05-1.5Z"/><path d="M16.75 4.75c.92 0 1.79.18 2.6.49A9.95 9.95 0 0 0 12 2c-.6 0-1.19.06-1.76.17-1.28.78-2.25 1.95-2.71 3.39-.82 2.53.06 5.2 2.01 6.78-.01-.11-.03-.22-.03-.33 0-4 3.25-7.25 7.25-7.25ZM7.71 21.02c1.42.1 2.88-.27 4.12-1.17 2.15-1.56 3-4.24 2.36-6.67-.05.1-.11.19-.17.28a7.26 7.26 0 0 1-5.88 2.99 7.21 7.21 0 0 1-6.08-3.32c.4 3.49 2.6 6.44 5.64 7.89Z"/><path d="M2.09 10.7a6.23 6.23 0 0 0 2.39 3.56c2.15 1.56 4.95 1.54 7.06.19-.11-.02-.21-.05-.31-.09-.06 0-.12-.03-.17-.06-.01 0-.02 0-.04-.01-3.66-1.32-5.65-5.33-4.44-9.06.28-.86.71-1.64 1.27-2.32-3.06 1.41-5.29 4.32-5.74 7.78Zm11.72-.42c.08.08.14.16.21.25s.02.03.03.05.02.03.03.05c2.26 3.23 1.53 7.7-1.67 10.02-.76.55-1.59.91-2.45 1.13a9.93 9.93 0 0 0 9.29-2.94c.55-1.36.61-2.86.15-4.27-.82-2.52-3.1-4.16-5.6-4.3Z"/></svg>