<svg xmlns="http://www.w3.org/2000/svg" width="24" height="24"><!--Boxicons v3.0 https://boxicons.com | License  https://docs.boxicons.com/free--><path d="M19.03 2.13a4.75 4.75 0 0 0-5.54 1.55l-.68.91c-.38.5-1.23.5-1.6 0l-.68-.91a4.72 4.72 0 0 0-5.54-1.55 4.7 4.7 0 0 0-2.97 4.39c0 1.72.21 3.44.63 5.12l2.04 8.18A2.88 2.88 0 0 0 7.48 22h.12c1.28 0 2.41-.86 2.76-2.08l1.2-4.2c.12-.42.51-.72.95-.72s.83.29.95.72l1.2 4.2A2.88 2.88 0 0 0 17.42 22c1.41 0 2.6-1.01 2.83-2.4l1.33-7.99c.28-1.67.42-3.38.42-5.08 0-1.95-1.17-3.67-2.97-4.39Z"/></svg>