<svg xmlns="http://www.w3.org/2000/svg" width="24" height="24"><!--Boxicons v3.0 https://boxicons.com | License  https://docs.boxicons.com/free--><path d="M22 7.5C22 4.47 19.53 2 16.5 2c-1.86 0-3.5.93-4.5 2.35C11 2.93 9.36 2 7.5 2A5.51 5.51 0 0 0 2 7.5c0 1.86.93 3.5 2.35 4.5C2.93 13 2 14.64 2 16.5 2 19.53 4.47 22 7.5 22c1.86 0 3.5-.93 4.5-2.35 1 1.42 2.64 2.35 4.5 2.35 3.03 0 5.5-2.47 5.5-5.5 0-1.86-.93-3.5-2.35-4.5C21.07 11 22 9.36 22 7.5M12 16c-2.21 0-4-1.79-4-4s1.79-4 4-4 4 1.79 4 4-1.79 4-4 4"/></svg>