<svg xmlns="http://www.w3.org/2000/svg" width="24" height="24"><!--Boxicons v3.0 https://boxicons.com | License  https://docs.boxicons.com/free--><path d="M21.96 7.74s-.02-.05-.03-.07a1 1 0 0 0-.07-.17c-.02-.03-.04-.05-.06-.08-.03-.04-.06-.09-.1-.13-.03-.03-.06-.04-.08-.07-.04-.03-.07-.06-.11-.09h-.01l-9.01-5a.99.99 0 0 0-.97 0L2.58 7.1s-.06.02-.09.04A.99.99 0 0 0 2 8v8c0 .36.2.7.51.87l9 5s.1.04.14.06c.03.01.06.03.09.03a1.1 1.1 0 0 0 .5 0c.03 0 .06-.02.09-.03.05-.02.1-.03.14-.06l9-5c.32-.18.51-.51.51-.87V8c0-.09-.01-.18-.04-.26ZM12 4.15l6.94 3.86-2.24 1.25-6.84-3.91L12 4.16Zm0 7.71L5.08 8l2.74-1.52 6.84 3.91-2.65 1.47Zm8 3.56-7 3.89V13.6l3-1.67v3.08l2-1v-3.19l2-1.11z"/></svg>