<svg xmlns="http://www.w3.org/2000/svg" width="24" height="24"><!--Boxicons v3.0 https://boxicons.com | License  https://docs.boxicons.com/free--><path d="M11.29 9.71c.2.2.45.29.71.29s.51-.1.71-.29l2-2A1 1 0 0 0 15 7V3c0-.55-.45-1-1-1h-4c-.55 0-1 .45-1 1v4c0 .27.11.52.29.71zM21 9h-4c-.27 0-.52.11-.71.29l-2 2a.996.996 0 0 0 0 1.41l2 2c.19.19.44.29.71.29h4c.55 0 1-.45 1-1v-4c0-.55-.45-1-1-1ZM12.71 14.29a.996.996 0 0 0-1.41 0l-2 2a1 1 0 0 0-.29.71v4c0 .55.45 1 1 1h4c.55 0 1-.45 1-1v-4c0-.27-.11-.52-.29-.71l-2-2ZM9.71 11.29l-2-2A1 1 0 0 0 7 9H3c-.55 0-1 .45-1 1v4c0 .55.45 1 1 1h4c.27 0 .52-.11.71-.29l2-2a.996.996 0 0 0 0-1.41Z"/></svg>