<svg xmlns="http://www.w3.org/2000/svg" width="24" height="24"><!--Boxicons v3.0 https://boxicons.com | License  https://docs.boxicons.com/free--><path d="M22 11.96c-.02-.39-.26-.74-.63-.89L17.44 9.5l3.43-6a1 1 0 0 0-.16-1.2.985.985 0 0 0-1.2-.16l-6.34 3.62L9.71 2.3A1.002 1.002 0 0 0 8 3v3.82l-4.84-.81a1 1 0 0 0-1.05.53c-.2.39-.12.86.18 1.17l4.4 4.4-4.51 6.31c-.26.37-.25.86.03 1.21s.76.47 1.17.29l5.87-2.51.76 3.79c.08.41.4.72.81.79.06 0 .11.01.17.01.35 0 .67-.18.86-.49l2.5-4.16 6.15 3.51a1.005 1.005 0 0 0 1.33-1.43l-3.37-5.06 2.99-1.49a1 1 0 0 0 .55-.94Z"/></svg>