<svg xmlns="http://www.w3.org/2000/svg" width="24" height="24"><!--Boxicons v3.0 https://boxicons.com | License  https://docs.boxicons.com/free--><path d="M20 3H4c-1.1 0-2 .9-2 2v12c0 1.1.9 2 2 2h3v2c0 .36.19.69.51.87.15.09.32.13.49.13s.36-.05.51-.14L13.27 19h6.72c1.1 0 2-.9 2-2V5c0-1.1-.9-2-2-2Zm-7 13h-2v-2h2zm1.47-4.03c-.42.42-.92.72-1.47.88v.14h-2v-1c0-.55.45-1 1-1a1.499 1.499 0 0 0 1.06-2.56c-.57-.57-1.55-.57-2.12 0-.28.28-.44.66-.44 1.06h-2c0-.93.36-1.81 1.03-2.47 1.32-1.32 3.63-1.32 4.95 0 .66.66 1.03 1.54 1.03 2.47s-.36 1.81-1.03 2.47Z"/></svg>