<svg xmlns="http://www.w3.org/2000/svg" width="24" height="24"><!--Boxicons v3.0 https://boxicons.com | License  https://docs.boxicons.com/free--><path d="m8.22 13.92.52-.15c1.06-.31 1.92-1.1 2.32-2.13a5.58 5.58 0 0 1 3.63-3.33l.52-.15c1.06-.31 1.92-1.1 2.32-2.13l.74-1.91-2.16-1.87c-.25-.21-.58-.29-.9-.21s-.57.31-.69.61l-.69 1.8c-.32.84-1.03 1.49-1.89 1.73l-.45.13a4.89 4.89 0 0 0-3.2 2.94c-.32.84-1.03 1.48-1.89 1.73l-.45.13a4.89 4.89 0 0 0-3.2 2.94l-.69 1.8c-.15.39-.04.84.28 1.11l1.77 1.53.48-1.24a5.58 5.58 0 0 1 3.63-3.33M19.88 5.51l-.48 1.24a5.58 5.58 0 0 1-3.63 3.33l-.52.15c-1.06.31-1.92 1.1-2.32 2.13a5.58 5.58 0 0 1-3.63 3.33l-.52.15c-1.06.31-1.92 1.1-2.32 2.13l-.74 1.91 2.16 1.87c.18.16.42.24.66.24.08 0 .16 0 .24-.03.32-.08.57-.31.69-.61l.69-1.8c.32-.84 1.03-1.49 1.89-1.73l.45-.13a4.89 4.89 0 0 0 3.2-2.94c.32-.84 1.03-1.48 1.89-1.73l.45-.13a4.89 4.89 0 0 0 3.2-2.94l.69-1.8c.15-.39.04-.84-.28-1.11z"/></svg>