<svg xmlns="http://www.w3.org/2000/svg" width="24" height="24"><!--Boxicons v3.0 https://boxicons.com | License  https://docs.boxicons.com/free--><path d="M8.5 1.5C6.92 1.5 5.6 2.56 5.16 4H2v2h3.16c.43 1.44 1.76 2.5 3.34 2.5s2.9-1.06 3.34-2.5H22V4H11.84A3.495 3.495 0 0 0 8.5 1.5M8.5 15.5c-1.58 0-2.9 1.06-3.34 2.5H2v2h3.16c.43 1.44 1.76 2.5 3.34 2.5s2.9-1.06 3.34-2.5H22v-2H11.84a3.495 3.495 0 0 0-3.34-2.5M16.5 8.5c-1.58 0-2.9 1.06-3.34 2.5H2v2h11.16c.43 1.44 1.76 2.5 3.34 2.5s2.9-1.06 3.34-2.5H22v-2h-2.16a3.495 3.495 0 0 0-3.34-2.5"/></svg>