<svg xmlns="http://www.w3.org/2000/svg" width="24" height="24"><!--Boxicons v3.0 https://boxicons.com | License  https://docs.boxicons.com/free--><path d="M22 8c0-1.1-.9-2-2-2h-1V4c0-1.1-.9-2-2-2H7c-1.1 0-2 .9-2 2v2H4c-1.1 0-2 .9-2 2v1h20zm-5-2H7V4h10zM7.5 15a1.5 1.5 0 1 0 0 3 1.5 1.5 0 1 0 0-3M16.5 15a1.5 1.5 0 1 0 0 3 1.5 1.5 0 1 0 0-3"/><path d="M4 22h16c1.1 0 2-.9 2-2v-9H2v9c0 1.1.9 2 2 2m12.5-9c1.93 0 3.5 1.57 3.5 3.5S18.43 20 16.5 20 13 18.43 13 16.5s1.57-3.5 3.5-3.5m-9 0c1.93 0 3.5 1.57 3.5 3.5S9.43 20 7.5 20 4 18.43 4 16.5 5.57 13 7.5 13"/></svg>