<svg xmlns="http://www.w3.org/2000/svg" width="24" height="24"><!--Boxicons v3.0 https://boxicons.com | License  https://docs.boxicons.com/free--><path d="M14.26 14h.24c.38 0 .72-.21.89-.55s.13-.74-.09-1.05L13.5 10c.38 0 .72-.21.89-.55s.13-.74-.09-1.05l-4.5-6c-.38-.5-1.22-.5-1.6 0l-4.5 6c-.23.3-.26.71-.09 1.05a1 1 0 0 0 .89.55l-1.8 2.4c-.23.3-.26.71-.09 1.05a1 1 0 0 0 .89.55h.2l-1.54 2.47c-.19.31-.2.7-.03 1.01.18.32.51.52.88.52h5v4h2v-4h5c.37 0 .7-.2.88-.52.17-.32.16-.71-.04-1.02L14.27 14Z"/><path d="M15 19h-1v3h2v-3.27c-.3.17-.64.27-1 .27M21.84 16.46 20.26 14h.24c.38 0 .72-.21.89-.55s.13-.74-.09-1.05L19.5 10c.38 0 .72-.21.89-.55s.13-.74-.09-1.05l-4.5-6c-.38-.5-1.22-.5-1.6 0l-1.58 2.1 2.47 3.3a1.994 1.994 0 0 1-.1 2.53l1.1 1.47a1.994 1.994 0 0 1-.31 2.73l.89 1.39c.4.61.43 1.4.07 2.04 0 .01-.02.03-.03.04h4.27c.37 0 .7-.2.88-.52.17-.32.16-.71-.04-1.02Z"/></svg>