<svg xmlns="http://www.w3.org/2000/svg" width="24" height="24"><!--Boxicons v3.0 https://boxicons.com | License  https://docs.boxicons.com/free--><path d="M16.75 8.5c-.2 0-.4.01-.6.04A6.45 6.45 0 0 0 11 6c-3.11 0-5.79 2.25-6.38 5.25A3.96 3.96 0 0 0 2 15c0 2.21 1.79 4 4 4h10.75c2.89 0 5.25-2.36 5.25-5.25S19.64 8.5 16.75 8.5M21.61 6.05a5 5 0 0 0-1.07-1.59c-.23-.23-.48-.43-.74-.61-.27-.18-.55-.34-.85-.46-.3-.13-.62-.23-.94-.29-.66-.13-1.35-.13-2.01 0-.32.07-.64.17-.94.29a4.7 4.7 0 0 0-1.5 1c1.31.41 2.49 1.13 3.47 2.12 1.92.07 3.65.89 4.91 2.18.03-.23.07-.46.07-.69 0-.34-.03-.67-.1-1.01a6 6 0 0 0-.29-.94Z"/></svg>