<svg xmlns="http://www.w3.org/2000/svg" width="24" height="24"><!--Boxicons v3.0 https://boxicons.com | License  https://docs.boxicons.com/free--><path d="M12 2C6.49 2 2 6.49 2 12s4.49 10 10 10 10-4.49 10-10S17.51 2 12 2m3.66 13.88c-.06.61-.42 1.56-.8 2.12-.38.55-1.36 1.08-2.18 1.17-.81.09-1.5-.19-1.53-.62s-.27-1.16-.54-1.63-.67-.44-.88.08c-.21.51-1.04.62-1.84.23-.8-.38-1.29-1.26-1.1-1.96.19-.69.11-1.38-.18-1.53s-.68-.57-.86-.94-.04-.49.31-.28.91.51 1.24.47c.03 0 .11-.04.11-.04.86-.34 1.55-.96 2.11-1.7.22-.29.46-.5.68-.54.44-.09 1.7.06 2.8.34s2.05.93 2.12 1.44.25 1.24.39 1.61.21 1.18.16 1.79Zm.7-9.14c-.53-.04-1.35-.28-1.84-.52-.45-.23-1.09-1.17-1.47-2.14 1.8.24 3.42 1.07 4.64 2.31-.35.23-.89.38-1.33.35"/></svg>