<svg xmlns="http://www.w3.org/2000/svg" width="24" height="24"><!--Boxicons v3.0 https://boxicons.com | License  https://docs.boxicons.com/free--><path d="M7 3.34C2.23 6.1.58 12.22 3.34 17c1.85 3.2 5.22 5 8.68 5 1.69 0 3.41-.43 4.98-1.34 4.77-2.76 6.42-8.89 3.66-13.66C17.9 2.22 11.78.58 7 3.34m8.5 4.16c.55 0 1 .45 1 1s-.45 1-1 1-1-.45-1-1 .45-1 1-1M6 12c0-.55.45-1 1-1s1 .45 1 1-.45 1-1 1-1-.45-1-1m2.5 4.5c-.55 0-1-.45-1-1s.45-1 1-1 1 .45 1 1-.45 1-1 1m0-7c-.55 0-1-.45-1-1s.45-1 1-1 1 .45 1 1-.45 1-1 1M12 18c-.55 0-1-.45-1-1s.45-1 1-1 1 .45 1 1-.45 1-1 1m0-10c-.55 0-1-.45-1-1s.45-1 1-1 1 .45 1 1-.45 1-1 1m3.5 8.5c-.55 0-1-.45-1-1s.45-1 1-1 1 .45 1 1-.45 1-1 1M17 13c-.55 0-1-.45-1-1s.45-1 1-1 1 .45 1 1-.45 1-1 1"/></svg>