<svg xmlns="http://www.w3.org/2000/svg" width="24" height="24"><!--Boxicons v3.0 https://boxicons.com | License  https://docs.boxicons.com/free--><path d="M21 5H3c-.55 0-1 .45-1 1v3.55c0 .48.33.89.8.98.7.14 1.2.76 1.2 1.47s-.5 1.33-1.2 1.47c-.47.09-.8.5-.8.98V18c0 .55.45 1 1 1h18c.55 0 1-.45 1-1v-3.55c0-.48-.33-.89-.8-.98-.7-.14-1.2-.76-1.2-1.47s.5-1.33 1.2-1.47c.47-.09.8-.5.8-.98V6c0-.55-.45-1-1-1m-6.53 10.25L12 13.6l-2.47 1.65.82-2.68-1.85-1.85 2.38-.21L12 8.25l1.12 2.26 2.38.21-1.85 1.85z"/></svg>