<svg xmlns="http://www.w3.org/2000/svg" width="24" height="24"><!--Boxicons v3.0 https://boxicons.com | License  https://docs.boxicons.com/free--><path d="M20.16 8.63a3.97 3.97 0 0 0-1.08-3.7c-.99-1-2.38-1.39-3.7-1.09C14.66 2.71 13.41 2 12.01 2s-2.65.71-3.37 1.84c-1.31-.3-2.71.09-3.7 1.08-1 .99-1.39 2.39-1.09 3.7-1.13.72-1.84 1.97-1.84 3.37s.71 2.65 1.84 3.37a3.97 3.97 0 0 0 1.08 3.7c.99 1 2.38 1.39 3.7 1.09.72 1.13 1.97 1.84 3.37 1.84s2.65-.71 3.37-1.84c1.32.3 2.71-.09 3.7-1.08 1-.99 1.39-2.39 1.09-3.7C21.29 14.65 22 13.4 22 12s-.71-2.65-1.84-3.37M16 12.02A3.98 3.98 0 0 1 12.03 16c-2.27-.02-4.01-1.76-4.03-3.97.02-2.27 1.76-4.01 3.97-4.03 2.27.02 4.01 1.76 4.03 3.97z"/></svg>