<svg xmlns="http://www.w3.org/2000/svg" width="24" height="24"><!--Boxicons v3.0 https://boxicons.com | License  https://docs.boxicons.com/free--><path d="m3.62 15.85.53.53-.73.73c.3.5.63.97 1.01 1.4L18.51 4.43c-.44-.38-.91-.71-1.4-1.01l-.73.73-.53-.53.57-.57A9.96 9.96 0 0 0 12 2C6.49 2 2 6.49 2 12c0 1.59.38 3.09 1.05 4.42zM14.8 4.67l.53.53-1.75 1.75-.53-.53zM12 7.47l.53.53-1.75 1.75-.53-.53zm-2.8 2.8.53.53-1.75 1.75-.53-.53zm-2.8 2.8.53.53-1.75 1.75-.53-.53zm13.98-4.92-.53-.53.73-.73c-.3-.5-.63-.97-1.01-1.4L5.49 19.57c.44.38.91.71 1.4 1.01l.73-.73.53.53-.57.57C8.92 21.61 10.41 22 12 22c5.51 0 10-4.49 10-10 0-1.59-.38-3.09-1.05-4.42zM9.2 19.33l-.53-.53 1.75-1.75.53.53zm2.8-2.8-.53-.53 1.75-1.75.53.53zm2.8-2.8-.53-.53 1.75-1.75.53.53zm2.8-2.8-.53-.53 1.75-1.75.53.53z"/></svg>