<svg xmlns="http://www.w3.org/2000/svg" width="24" height="24"><!--Boxicons v3.0 https://boxicons.com | License  https://docs.boxicons.com/free--><path d="M8.82 14c1.18 0 1.73-.48 2.43-.97.76-.53 1.89-.91 2.75-.51.38.17 1.54.51 2 .51 1 0 2.12-.89 1.99-2.29C17.74 8.09 15.15 6 12 6s-5.68 2.04-5.98 4.66c-.18 1.59.95 3.34 2.8 3.34m.68-5c.83 0 1.5.67 1.5 1.5S10.33 12 9.5 12 8 11.33 8 10.5 8.67 9 9.5 9"/><path d="M21.97 12.01c.02-.27.02-.55 0-.82C21.55 6.04 17.18 2 12 2s-9.45 3.88-9.95 9.02c-.04.44-.04.87 0 1.3v2.7c-.33 3.41 1.89 6.45 5.05 6.91a5.998 5.998 0 0 0 4.71-1.28c.8-.66 1.89-.75 2.84-.24.72.39 1.54.59 2.36.59h.01c1.27 0 2.48-.56 3.41-1.56 1.1-1.2 1.68-2.89 1.55-4.43l.03-3h-.03Zm-17.93-.8C4.44 7.1 7.86 4 12 4s7.64 3.23 7.97 7.35c.08 1-.26 2.02-.91 2.72-.39.42-1.06.93-2.06.93-.5 0-.98-.12-1.42-.36-1.67-.9-3.61-.72-5.05.45-.88.72-2 1.03-3.14.86-2.11-.31-3.58-2.39-3.35-4.74"/></svg>