<svg xmlns="http://www.w3.org/2000/svg" width="24" height="24"><!--Boxicons v3.0 https://boxicons.com | License  https://docs.boxicons.com/free--><path d="m16.8 2.94-2.04 2.04-.71-.71a3 3 0 0 0-4.24 0L8.39 5.68c-.19.19-.29.44-.29.71s.11.52.29.71l8.49 8.49c.19.19.44.29.71.29s.52-.11.71-.29l1.42-1.41c.57-.57.88-1.32.88-2.12s-.31-1.56-.88-2.12l-.71-.71 2.12-2.12c.57-.57.88-1.33.87-2.11.01-.89-.38-1.73-1.06-2.31-1.18-1-3-.88-4.14.26ZM7.24 7.35 2.29 12.3a.996.996 0 0 0 0 1.41l8 8c.2.2.45.29.71.29s.51-.1.71-.29l4.95-4.95z"/></svg>