<svg xmlns="http://www.w3.org/2000/svg" width="24" height="24"><!--Boxicons v3.0 https://boxicons.com | License  https://docs.boxicons.com/free--><path d="M12 2C6.49 2 2 6.49 2 12s4.49 10 10 10 10-4.49 10-10S17.51 2 12 2m-1.26 4.09c.3-.07 1.04.09 1.65.35.61.27 1.37.82 1.68 1.23.32.41.31.68 0 .61-.32-.08-.79-.14-1.04-.13-.25 0-.67-.21-.93-.48s-.8-.71-1.19-.97-.47-.54-.17-.61M4.93 8.56h-.14c.59-1.24 1.49-2.3 2.61-3.09-.07.34-.16.66-.26.83-.15.26-.24.64-.22.84.03.2.38.5.78.66s.62.41.48.55c-.13.14-.69.24-1.24.21-.55-.02-1.45-.02-2.02 0Zm8.61 7.88c-.13.02-.35-.21-.49-.5l-.03-.1-.03-.1c.42.02.77.18.78.35 0 .18-.09.33-.22.35Zm1.13-2.61c-.28.68-.82 1.24-1.19 1.23-.37 0-.95-.16-1.28-.35-.33-.18-.68-.45-.78-.6s-.51-.37-.91-.48-1.01-.02-1.33.21-.81.48-1.09.55c-.28.08-.67-.17-.88-.54s-.43-1.07-.5-1.55.21-1.06.62-1.27 1-.71 1.33-1.09c.32-.38.77-.86 1-1.07s.74-.33 1.13-.26.68.34.66.6c-.03.27.14.56.38.66s.59-.15.78-.55.49-.38.66.03.68 1.32 1.12 2c.45.68.58 1.8.29 2.49Zm3.69 2.28c-.23.34-.74.8-1.14 1.02s-.84.34-.98.28c-.14-.07-.06-.36.19-.64.25-.29.71-.65 1.02-.81s.61-.49.66-.74.22-.29.38-.09.11.64-.12.98Z"/></svg>