<svg xmlns="http://www.w3.org/2000/svg" width="24" height="24"><!--Boxicons v3.0 https://boxicons.com | License  https://docs.boxicons.com/free--><path d="M22 15.5v-.94c0-.15-.07-.3-.19-.39L14 8.01V4.12c0-1-.68-1.92-1.66-2.08-1.25-.2-2.34.76-2.34 1.97v4.1l-7.81 6.16c-.12.09-.19.24-.19.39v.84c0 .34.34.59.67.47L10 13.39v4.6l-2.78 1.85c-.14.09-.22.25-.22.42v.99c0 .35.36.6.69.46L12 19.98l4.31 1.73c.33.13.69-.11.69-.46v-.99c0-.17-.08-.32-.22-.42L14 17.99v-4.68l7.33 2.65c.33.12.67-.12.67-.47Z"/></svg>