<svg xmlns="http://www.w3.org/2000/svg" width="24" height="24"><!--Boxicons v3.0 https://boxicons.com | License  https://docs.boxicons.com/free--><path d="m18.21 4.16-1.24 1.57c1.18.94 2.08 2.18 2.58 3.6l1.88-.67c-.63-1.77-1.74-3.33-3.22-4.5m-2.94-1.61a10.1 10.1 0 0 0-5.53-.29l.45 1.95c1.45-.33 3.01-.26 4.42.23l.65-1.89Zm-10.49 6c.65-1.36 1.67-2.5 2.94-3.31L6.65 3.55a10.1 10.1 0 0 0-3.68 4.13l1.8.87Zm.16 10.53a9.95 9.95 0 0 0 4.85 2.67l.44-1.95a8.03 8.03 0 0 1-3.88-2.14zm7.96.87.22 1.99c1.87-.21 3.64-.95 5.11-2.12l-1.25-1.56a8 8 0 0 1-4.09 1.7ZM20 12c0 1.51-.42 2.98-1.22 4.25l1.69 1.06c1-1.59 1.53-3.43 1.53-5.35h-.2l-1.8.03Zm-15.95-.88-1.99-.21a10 10 0 0 0-.06 1.1c0 1.53.33 2.99 1 4.36l1.8-.87a7.9 7.9 0 0 1-.75-4.36Z"/></svg>