<svg xmlns="http://www.w3.org/2000/svg" width="24" height="24"><!--Boxicons v3.0 https://boxicons.com | License  https://docs.boxicons.com/free--><path d="M21 13H3c-.55 0-1 .45-1 1v5c0 1.65 1.35 3 3 3h14c1.65 0 3-1.35 3-3v-5c0-.55-.45-1-1-1M5.5 2a2.5 2.5 0 1 0 0 5 2.5 2.5 0 1 0 0-5M16.89 6.45C17.41 5.41 18 4.24 18 2h-2c0 1.76-.41 2.59-.89 3.55C14.59 6.59 14 7.76 14 10h2c0-1.76.41-2.59.89-3.55M20 10c0-1.76.41-2.59.89-3.55C21.41 5.41 22 4.24 22 2h-2c0 1.76-.41 2.59-.89 3.55C18.59 6.59 18 7.76 18 10zM6.5 8c-2.31 0-4.2 1.75-4.45 4h9.56C9.86 9.74 8.81 8 6.5 8"/></svg>