<svg xmlns="http://www.w3.org/2000/svg" width="24" height="24"><!--Boxicons v3.0 https://boxicons.com | License  https://docs.boxicons.com/free--><path d="M5.5 2a3.5 3.5 0 1 0 0 7 3.5 3.5 0 1 0 0-7M18 13.63V9.56c.97.76 2.3 1.44 4 1.44V9c-2.18 0-3.58-1.71-4-2.3V5.56c.97.76 2.3 1.44 4 1.44V5c-2.62 0-4.12-2.48-4.14-2.5a.985.985 0 0 0-1.72.01C16.13 2.53 14.73 5 12.01 5v2c1.72 0 3.04-.66 4-1.41v1.12c-.4.58-1.74 2.29-4 2.29v2c1.72 0 3.04-.66 4-1.41V12H7.5v.04c-.35 0-.69.16-.87.47l-4.5 8c-.17.31-.17.69 0 1s.51.5.86.5h18c.36 0 .68-.19.86-.5s.18-.69 0-1l-3.87-6.88ZM4.71 20l2.79-4.96L10.29 20z"/></svg>