<svg xmlns="http://www.w3.org/2000/svg" width="24" height="24"><!--Boxicons v3.0 https://boxicons.com | License  https://docs.boxicons.com/free--><path d="m19.91 11.5 1.79-1.79a.996.996 0 0 0 0-1.41l-3-3a.996.996 0 0 0-1.41 0L15.5 7.09zM14.09 8.5 6.3 16.29a1 1 0 0 0-.29.71v3c0 .55.45 1 1 1h3c.27 0 .52-.11.71-.29l7.79-7.79-4.41-4.41ZM5 17c0-.3.07-.59.2-.85-.59-.56-.91-1.1-.94-1.61-.09-1.41 1.83-3 3.52-4.39C9.51 8.72 11.01 7.49 11.01 6 11 2.19 3.5 2 2 2v2c3.31 0 7 .83 7 2 0 .54-1.51 1.78-2.5 2.6-2.06 1.7-4.4 3.63-4.24 6.07.09 1.4 1 2.67 2.74 3.86z"/></svg>