<svg xmlns="http://www.w3.org/2000/svg" width="24" height="24"><!--Boxicons v3.0 https://boxicons.com | License  https://docs.boxicons.com/free--><path d="M4 13.62v.45c0 1.83 3.29 3.87 8 3.87s8-2.04 8-3.87v-.45c-1.81 1.41-4.69 2.32-8 2.32s-6.19-.9-8-2.32"/><path d="M4 9.55v.51c0 1.83 3.29 3.87 8 3.87s8-2.04 8-3.87v-.51c-1.81 1.41-4.69 2.32-8 2.32s-6.19-.9-8-2.32"/><path d="M12 2C8.02 2 4 3.37 4 6c0 1.83 3.29 3.87 8 3.87S20 7.83 20 6c0-2.63-4.02-4-8-4M4 17.62V18c0 2.63 4.02 4 8 4s8-1.37 8-4v-.38c-1.81 1.41-4.69 2.32-8 2.32s-6.19-.9-8-2.32"/></svg>