<svg xmlns="http://www.w3.org/2000/svg" width="24" height="24"><!--Boxicons v3.0 https://boxicons.com | License  https://docs.boxicons.com/free--><path d="M12 2C6.49 2 2 6.49 2 12s4.49 10 10 10 10-4.49 10-10S17.51 2 12 2m1 14.91V18h-2v-1.08c-2.34-.37-3-2-3-2.92h2c.01.14.16 1 2 1 1.38 0 2-.58 2-1 0-.32 0-1-2-1-3.48 0-4-1.88-4-3 0-1.29 1.03-2.58 3-2.91V6h2v1.12c1.73.41 2.4 1.85 2.4 2.88h-1l-1 .02C13.39 9.64 13.18 9 12 9c-1.3 0-2 .52-2 1 0 .37 0 1 2 1 3.48 0 4 1.88 4 3 0 1.29-1.03 2.58-3 2.91"/></svg>