<svg xmlns="http://www.w3.org/2000/svg" width="24" height="24"><!--Boxicons v3.0 https://boxicons.com | License  https://docs.boxicons.com/free--><path d="M5.5 15.5c1.07 0 2.02-.5 2.67-1.26l6.87 3.87c-.01.13-.04.26-.04.39 0 1.93 1.57 3.5 3.5 3.5s3.5-1.57 3.5-3.5-1.57-3.5-3.5-3.5c-1.07 0-2.02.5-2.67 1.26l-6.87-3.87c.01-.13.04-.26.04-.39s-.02-.26-.04-.39l6.87-3.87C16.47 8.5 17.42 9 18.5 9 20.43 9 22 7.43 22 5.5S20.43 2 18.5 2 15 3.57 15 5.5c0 .13.02.26.04.39L8.17 9.76A3.48 3.48 0 0 0 5.5 8.5C3.57 8.5 2 10.07 2 12s1.57 3.5 3.5 3.5m13 1.5c.83 0 1.5.67 1.5 1.5s-.67 1.5-1.5 1.5-1.5-.67-1.5-1.5.67-1.5 1.5-1.5m0-13c.83 0 1.5.67 1.5 1.5S19.33 7 18.5 7 17 6.33 17 5.5 17.67 4 18.5 4m-13 6.5c.83 0 1.5.67 1.5 1.5s-.67 1.5-1.5 1.5S4 12.83 4 12s.67-1.5 1.5-1.5"/></svg>