<svg xmlns="http://www.w3.org/2000/svg" width="24" height="24"><!--Boxicons v3.0 https://boxicons.com | License  https://docs.boxicons.com/free--><path d="m20.97 6.62-8.5-4.5a.98.98 0 0 0-.94 0l-8.5 4.5c-.33.17-.53.51-.53.88v9c0 .37.21.71.53.88l8.5 4.5c.15.08.31.12.47.12s.32-.04.47-.12l8.5-4.5c.33-.17.53-.51.53-.88v-9c0-.37-.21-.71-.53-.88M12 4.14l6.38 3.38-2.51 1.36c-.92-1.13-2.3-1.87-3.87-1.87s-2.95.74-3.87 1.87L5.62 7.52zM4.5 9.19l2.71 1.47c-.12.43-.21.88-.21 1.35 0 2.41 1.72 4.43 4 4.9v2.44l-6.5-3.44zM13 19.35v-2.44a5 5 0 0 0 4-4.9c0-.47-.09-.92-.21-1.35l2.71-1.47v6.72z"/></svg>