<svg xmlns="http://www.w3.org/2000/svg" width="24" height="24"><!--Boxicons v3.0 https://boxicons.com | License  https://docs.boxicons.com/free--><path d="M2.05 11.68c-.07.21-.07.43 0 .63.02.07 2.32 6.68 9.95 6.68.91 0 1.73-.1 2.49-.26L4.13 8.37c-1.49 1.65-2.06 3.28-2.08 3.31m19.9.64c.07-.21.07-.43 0-.63-.02-.07-2.32-6.68-9.95-6.68-1.84 0-3.36.39-4.61.97L2.71 1.29 1.3 2.7l4.32 4.32 3.69 3.69 3.98 3.98 3.33 3.33 4.68 4.68 1.41-1.41-4.32-4.32c2.61-1.95 3.55-4.61 3.56-4.65M12 9c1.64 0 3 1.36 3 3 0 .46-.11.89-.3 1.29l-3.98-3.98c.39-.19.83-.3 1.29-.3Z"/></svg>