<svg xmlns="http://www.w3.org/2000/svg" width="24" height="24"><!--Boxicons v3.0 https://boxicons.com | License  https://docs.boxicons.com/free--><path d="M8.15 9.69 5.9 19.81l.18.18 5.42-5.42v-.08c0-.83.67-1.5 1.5-1.5s1.5.67 1.5 1.5-.67 1.5-1.5 1.5h-.08L7.5 21.41l.18.18 10.12-2.25 1.42-5.21-5.87-5.87-5.21 1.42ZM19.41 5.5c-.78-.78-2.05-.78-2.83 0l-1.29 1.29-.29.29 5.41 5.41.29-.29 1.29-1.29c.78-.78.78-2.05 0-2.83L19.4 5.49ZM6.24 3.59C5.49 2.52 4.1 2 2 2v2c.95 0 2.17.13 2.6.74.66.93-.17 3.24-.97 5.48C2.87 12.36 2 14.78 2 17c0 1.73.53 2.91 1.59 3.51l.06.03.3-1.15.25-1.1c-.16-.4-.2-.93-.2-1.28 0-1.87.77-4.02 1.51-6.11 1.06-2.97 1.98-5.53.72-7.31Z"/></svg>