<svg xmlns="http://www.w3.org/2000/svg" width="24" height="24"><!--Boxicons v3.0 https://boxicons.com | License  https://docs.boxicons.com/free--><path d="m3.03 20.24.15.58.58.15c.15.04 1.79.43 4.04.43.65 0 1.35-.04 2.07-.12l-7.15-7.15c-.38 3.25.27 5.92.31 6.11M20.97 3.76l-.15-.58-.58-.15c-.2-.05-2.87-.69-6.12-.32l7.16 7.16c.38-3.25-.26-5.92-.31-6.11m-3.26 13.95c1.65-1.65 2.6-3.58 3.12-5.47l-9.07-9.07c-1.89.52-3.82 1.47-5.46 3.12-1.65 1.65-2.59 3.58-3.12 5.47l9.06 9.06c1.89-.52 3.82-1.46 5.48-3.11Zm-8-2L8.3 14.3l1.04-1.04-1.79-1.79 1.41-1.41 1.79 1.79 1.09-1.09-1.79-1.79 1.41-1.41 1.79 1.79 1.04-1.04 1.41 1.41-1.04 1.04 1.79 1.79-1.41 1.41-1.79-1.79-1.09 1.09 1.79 1.79-1.41 1.41-1.79-1.79z"/></svg>