<svg xmlns="http://www.w3.org/2000/svg" width="24" height="24"><!--Boxicons v3.0 https://boxicons.com | License  https://docs.boxicons.com/free--><path d="M12 6.99a5.01 5.01 0 1 0 0 10.02 5.01 5.01 0 1 0 0-10.02M13 19h-2v2h2zM11 5h2V3h-2zm-8 6h2v2H3zm16 0h2v2h-2zM6.34 19.07l.71-.71.71-.7-.71-.71-.71-.71-.7.71-.71.71.71.7zM17.66 4.93l-.71.71-.71.7.71.71.71.71.7-.71.71-.71-.71-.7zm-11.32 0-.7.71-.71.7.71.71.7.71.71-.71.71-.71-.71-.7zm11.32 14.14.7-.71.71-.7-.71-.71-.7-.71-.71.71-.71.71.71.7z"/></svg>