<svg xmlns="http://www.w3.org/2000/svg" width="24" height="24"><!--Boxicons v3.0 https://boxicons.com | License  https://docs.boxicons.com/free--><path d="M20.76 3.48C19.86 2.54 18.6 2 17.31 2H7.58c-1.83 0-3.4.59-4.42 1.66-.79.83-1.2 1.92-1.15 3.05.04.96.39 1.87 1 2.62v10.68c0 1.1.9 2 2 2h14c1.1 0 2-.9 2-2V9.33c.6-.75.95-1.66 1-2.62.05-1.19-.38-2.33-1.24-3.23ZM12 9c-.55 0-1-.45-1-1s.45-1 1-1 1 .45 1 1-.45 1-1 1m3.5 2c-.28 0-.5-.22-.5-.5s.22-.5.5-.5.5.22.5.5-.22.5-.5.5m.5-3c-.55 0-1-.45-1-1s.45-1 1-1 1 .45 1 1-.45 1-1 1"/></svg>