<svg xmlns="http://www.w3.org/2000/svg" width="24" height="24"><!--Boxicons v3.0 https://boxicons.com | License  https://docs.boxicons.com/free--><path d="M19.17 7.52c-.55.56-1.27 1.81-1.27 4.46h-2c0-2.93.79-4.62 1.61-5.59-.9-.49-1.89-.85-2.94-1.09-.86.89-1.87 2.76-1.87 6.68h-2c0-3.4.72-5.56 1.59-6.96-.1 0-.2-.01-.3-.01-1.13 0-2.23.17-3.27.48-.63 1.23-1.23 3.16-1.23 6.5h-2c0-2.32.28-4.06.67-5.39-2.49 1.46-4.17 3.78-4.17 6.29 0 3.43 4.39 6.12 10 6.12s10-2.69 10-6.12c0-2.03-1.1-3.93-2.83-5.36Z"/></svg>