<svg xmlns="http://www.w3.org/2000/svg" width="24" height="24"><!--Boxicons v3.0 https://boxicons.com | License  https://docs.boxicons.com/free--><path d="m12 10.5 4.1-3.89c.4-.49.65-1.1.65-1.78C16.75 3.27 15.47 2 13.9 2c-.73 0-1.39.28-1.9.74A2.87 2.87 0 0 0 10.1 2C8.53 2 7.25 3.27 7.25 4.83c0 .68.25 1.29.65 1.78zM12 13.5l-4.1 3.89c-.4.49-.65 1.1-.65 1.78 0 1.56 1.28 2.83 2.85 2.83.73 0 1.4-.28 1.9-.74.51.45 1.17.74 1.9.74 1.57 0 2.85-1.27 2.85-2.83 0-.68-.25-1.29-.65-1.78zM19.17 7.25c-.68 0-1.29.25-1.78.65L13.5 12l3.89 4.1c.49.4 1.1.65 1.78.65 1.56 0 2.83-1.28 2.83-2.85 0-.73-.28-1.39-.74-1.9.45-.51.74-1.17.74-1.9 0-1.57-1.27-2.85-2.83-2.85M6.61 7.9c-.49-.4-1.1-.65-1.78-.65C3.27 7.25 2 8.53 2 10.1c0 .73.28 1.39.74 1.9A2.87 2.87 0 0 0 2 13.9c0 1.57 1.27 2.85 2.83 2.85.68 0 1.29-.25 1.78-.65L10.5 12z"/></svg>