<svg xmlns="http://www.w3.org/2000/svg" width="24" height="24"><!--Boxicons v3.0 https://boxicons.com | License  https://docs.boxicons.com/free--><path d="M16.72 7.33v-.04h-.05A7.54 7.54 0 0 0 9.5 2.01C5.36 2.01 2 5.37 2 9.51c0 3.29 2.19 6.21 5.28 7.17v.04h.05c.96 3.1 3.88 5.28 7.17 5.28 4.14 0 7.5-3.36 7.5-7.5 0-3.29-2.19-6.21-5.28-7.17m-7.68 6.56s.02-.1.02-.15c.02-.15.05-.3.08-.45 0-.04.02-.08.03-.12.04-.16.09-.32.14-.47 0-.02.02-.04.02-.07.83-2.25 3.1-3.81 5.64-3.61a5.879 5.879 0 0 1-.01 1.08c0 .05-.02.1-.02.15-.02.15-.05.3-.08.45 0 .04-.02.08-.03.12-.04.16-.08.32-.14.47 0 .02-.02.05-.02.07-.83 2.25-3.1 3.81-5.64 3.61-.01-.16-.02-.32-.02-.48 0-.2.01-.41.03-.6"/></svg>