<svg xmlns="http://www.w3.org/2000/svg" width="24" height="24"><!--Boxicons v3.0 https://boxicons.com | License  https://docs.boxicons.com/free--><path d="M15.5 2a1.5 1.5 0 1 0 0 3 1.5 1.5 0 1 0 0-3M21 5a1 1 0 1 0 0 2 1 1 0 1 0 0-2"/><path d="M21.6 11.04a.97.97 0 0 0-.85-.17c-.29.07-.52.11-.74.11-1.65 0-3-1.35-3-2.95 0-.03.02-.13.02-.17.01-.32-.13-.62-.37-.82-.25-.2-.58-.27-.88-.19-.29.08-.53.11-.76.11-1.65 0-3-1.35-3-3.01 0-.22.03-.45.1-.72A.99.99 0 0 0 11.06 2C5.88 2.5 2 6.79 2 11.98 2 17.51 6.49 22 12 22s10-4.5 10-10.02v-.16c-.01-.31-.16-.59-.4-.78M9 8c.55 0 1 .45 1 1s-.45 1-1 1-1-.45-1-1 .45-1 1-1m-1.5 6c-.83 0-1.5-.67-1.5-1.5S6.67 11 7.5 11s1.5.67 1.5 1.5S8.33 14 7.5 14m3 4c-.83 0-1.5-.67-1.5-1.5s.67-1.5 1.5-1.5 1.5.67 1.5 1.5-.67 1.5-1.5 1.5m2-5c-.83 0-1.5-.67-1.5-1.5s.67-1.5 1.5-1.5 1.5.67 1.5 1.5-.67 1.5-1.5 1.5m2.5 3c-.55 0-1-.45-1-1s.45-1 1-1 1 .45 1 1-.45 1-1 1"/></svg>