<svg xmlns="http://www.w3.org/2000/svg" width="24" height="24"><!--Boxicons v3.0 https://boxicons.com | License  https://docs.boxicons.com/free--><path d="M12 10a2 2 0 1 0 0 4 2 2 0 1 0 0-4"/><path d="M12 6.5c-3.03 0-5.5 2.47-5.5 5.5s2.47 5.5 5.5 5.5 5.5-2.47 5.5-5.5-2.47-5.5-5.5-5.5m0 9c-1.93 0-3.5-1.57-3.5-3.5s1.57-3.5 3.5-3.5 3.5 1.57 3.5 3.5-1.57 3.5-3.5 3.5"/><path d="M20 12c0-4.41-3.59-8-8-8s-8 3.59-8 8 3.59 8 8 8 8-3.59 8-8m-8 7c-3.86 0-7-3.14-7-7s3.14-7 7-7 7 3.14 7 7-3.14 7-7 7M20.81 13.87l.98.21c.14-.68.22-1.38.22-2.08v-.04l-1 .04c0 .63-.07 1.26-.19 1.87ZM2.87 16.09c.29.63.64 1.24 1.05 1.81l.81-.59c-.37-.51-.69-1.05-.95-1.63zM3 12.02H2c0 .7.08 1.4.22 2.08l.98-.21c-.13-.61-.2-1.24-.2-1.87M19.28 17.29l.81.59c.41-.57.76-1.17 1.05-1.81l-.91-.41c-.25.57-.57 1.12-.94 1.63ZM8.92 21.52c.66.21 1.35.36 2.04.43l.1-1c-.63-.06-1.25-.19-1.84-.39l-.31.95ZM5.32 19.44c.52.47 1.09.88 1.69 1.23l.5-.87a9 9 0 0 1-1.52-1.1l-.67.75ZM16.5 19.79l.5.87c.6-.35 1.17-.76 1.69-1.23l-.67-.74c-.47.42-.98.79-1.52 1.11ZM12.95 20.95l.1.99c.69-.07 1.38-.22 2.04-.43l-.31-.95c-.6.19-1.21.33-1.84.39ZM3.77 8.36l-.91-.4c-.28.64-.5 1.31-.64 1.99l.98.21c.13-.61.32-1.22.58-1.79ZM16.97 3.32c-.6-.35-1.25-.63-1.91-.84l-.3.95c.6.19 1.18.45 1.72.76l.5-.87ZM12.91 3.05l.1-1c-.68-.07-1.4-.07-2.09 0l.11.99c.62-.07 1.27-.07 1.88 0ZM5.96 5.33l-.67-.74c-.52.47-.99.99-1.4 1.56l.81.59c.37-.51.79-.98 1.25-1.4ZM19.26 6.68l.81-.59c-.41-.56-.88-1.08-1.4-1.55l-.67.75c.47.42.89.89 1.26 1.39M9.19 3.45l-.31-.95c-.66.22-1.3.51-1.91.86l.5.86c.54-.32 1.12-.58 1.71-.77ZM21.77 9.88c-.15-.68-.37-1.35-.65-1.99l-.91.41c.26.57.46 1.17.59 1.79l.98-.21Z"/></svg>