<svg xmlns="http://www.w3.org/2000/svg" width="24" height="24"><!--Boxicons v3.0 https://boxicons.com | License  https://docs.boxicons.com/free--><path d="M20.95 9.73c-.6-.84-1.41-1.51-2.33-1.92-1.35-.6-2.28-1.41-2.78-2.39-1.09-2.17-2.9-3.36-5.23-3.42a6.21 6.21 0 0 0-6.16 4.27 6.16 6.16 0 0 0-.26 2.97c.18 1.11-.45 2.1-.84 2.59a6.19 6.19 0 0 0-1.25 5.02c.46 2.55 2.55 4.62 5.1 5.05.36.06.73.09 1.09.09 1.58 0 3.1-.59 4.27-1.68.77-.71 1.99-1.55 3.54-1.51 1.92.06 3.64-.8 4.78-2.34 1.46-1.97 1.48-4.74.06-6.74ZM11 15c-1.65 0-3-1.35-3-3s1.35-3 3-3 3 1.35 3 3-1.35 3-3 3"/></svg>