<svg xmlns="http://www.w3.org/2000/svg" width="24" height="24"><!--Boxicons v3.0 https://boxicons.com | License  https://docs.boxicons.com/free--><path d="M21.8 14.55C20.97 9.52 17.77 6 14 6h-4c-4.11 0-7.53 4.22-7.96 9.83-.04.56.15 1.12.53 1.53s.91.64 1.46.64h14.96v-.02c.82-.04 1.6-.41 2.13-1.04.57-.67.81-1.54.67-2.4ZM11 12.5c.28 0 .5.22.5.5s-.22.5-.5.5-.5-.22-.5-.5.22-.5.5-.5m1-2c.28 0 .5.22.5.5s-.22.5-.5.5-.5-.22-.5-.5.22-.5.5-.5m2 2c.28 0 .5.22.5.5s-.22.5-.5.5-.5-.22-.5-.5.22-.5.5-.5m5.61 3.15a1 1 0 0 1-.75.35c-.5 0-.91-.39-.98-.92 0-.06-.02-.12-.03-.18l-.06-.38c-.04-.25-.09-.5-.14-.74-.01-.06-.03-.11-.04-.17-.53-2.28-1.57-4.21-2.93-5.56 2.44.43 4.55 3.16 5.15 6.81.06.38-.11.65-.22.78Z"/></svg>