<svg xmlns="http://www.w3.org/2000/svg" width="24" height="24"><!--Boxicons v3.0 https://boxicons.com | License  https://docs.boxicons.com/free--><path d="M12 2C6.49 2 2 6.49 2 12s4.49 10 10 10c2.45 0 4.81-.9 6.65-2.54.35-.31.44-.82.21-1.23s-.71-.6-1.16-.47c-.56.16-1.13.25-1.7.25-3.31 0-6-2.69-6-6s2.69-6 6-6c.57 0 1.14.08 1.7.25.45.13.93-.06 1.16-.47s.14-.92-.21-1.23A9.98 9.98 0 0 0 12 2.02Z"/><path d="M18.62 10.76 17.5 8.5l-1.12 2.26-2.38.21 1.85 1.85-.82 2.68 2.47-1.65 2.47 1.65-.82-2.68L21 10.97z"/></svg>