<svg xmlns="http://www.w3.org/2000/svg" width="24" height="24"><!--Boxicons v3.0 https://boxicons.com | License  https://docs.boxicons.com/free--><path d="M19.17 9h-4.02c-.32 0-.61-.14-.8-.4a.99.99 0 0 1-.16-.88l.54-1.9c.26-.91.08-1.87-.49-2.63A2.97 2.97 0 0 0 11.84 2h-1.35c-.45 0-.84.3-.96.73L8.38 6.74a3.98 3.98 0 0 1-3.13 2.84l-2.44.44c-.48.09-.82.5-.82.98v9c0 .55.45 1 1 1h2.42c.94 0 1.87.15 2.76.45 1.1.37 2.24.55 3.4.55h5.59c1.56 0 2.83-1.27 2.83-2.83 0-.46-.11-.9-.31-1.28a2.83 2.83 0 0 0 1-3.67c.79-.5 1.31-1.39 1.31-2.39 0-1.56-1.27-2.83-2.83-2.83Z"/></svg>