<svg xmlns="http://www.w3.org/2000/svg" width="24" height="24"><!--Boxicons v3.0 https://boxicons.com | License  https://docs.boxicons.com/free--><path d="M17.62 16.36c1.06-2.31 2.72-4.36 3.61-6.83.09-.3.2-.61.18-1.14-.46-2.69-3.57-.95-4.96-.18-1.56.83-3.02 1.76-4.52 2.6 1.27-1.98 2.05-4.19-.15-5.77C7.29 2.77 3.4 9.48 2.5 13c2.4-1.74 4.39-3.97 6.89-5.15.26-.11.46-.12.57-.12q-.015.075-.06.18c-.1.31-.3.69-.53 1.07-.57.96-1.44 2.05-2.14 3.05-.23.35-.57.83-.68 1.41-.26 1.03.62 2.1 1.65 2.09.51.02 1.15-.2 1.47-.33 3.48-1.42 6.25-3.92 9.42-5.69-.09.27-.19.54-.27.78-.4 1.77-5.01 8.85-.2 7.86 1.04-.26 1.96-.71 2.87-1.16-.98.26-1.99.48-2.96.56-1.11.05-1.37-.13-.92-1.2Z"/></svg>