<svg xmlns="http://www.w3.org/2000/svg" width="24" height="24"><!--Boxicons v3.0 https://boxicons.com | License  https://docs.boxicons.com/free--><rect width="8" height="8" x="3" y="2.5" rx="1.5" ry="1.5"/><rect width="8" height="8" x="13" y="2.5" rx="1.5" ry="1.5"/><rect width="8" height="8" x="3" y="12.5" rx="1.5" ry="1.5"/><path d="M16.5 12c-1.93 0-3.5 1.57-3.5 3.5s1.57 3.5 3.5 3.5c.47 0 .91-.1 1.32-.26l1.72 1.72 1.41-1.41-1.57-1.57c.39-.56.61-1.24.61-1.97 0-1.93-1.57-3.5-3.5-3.5ZM15 15.5c0-.83.67-1.5 1.5-1.5s1.5.67 1.5 1.5-.67 1.5-1.5 1.5-1.5-.67-1.5-1.5"/></svg>