<svg xmlns="http://www.w3.org/2000/svg" width="24" height="24"><!--Boxicons v3.0 https://boxicons.com | License  https://docs.boxicons.com/free--><path d="M2 10v4c0 1.1.9 2 2 2h2V8H4c-1.1 0-2 .9-2 2M21.57 3.18a1 1 0 0 0-.93-.11L8 7.93v8.14l.82.31-.47 1.4c-.33 1 .17 2.09 1.16 2.49l3.14 1.26c.24.09.49.14.74.14.29 0 .58-.06.84-.19.5-.23.88-.66 1.05-1.18l.42-1.27 4.93 1.9c.12.04.24.07.36.07.2 0 .4-.06.57-.18.27-.19.43-.5.43-.82V4c0-.33-.16-.64-.43-.82Zm-8.18 16.5-3.14-1.26.44-1.32 3.15 1.21-.45 1.36Z"/></svg>