<svg xmlns="http://www.w3.org/2000/svg" width="24" height="24"><!--Boxicons v3.0 https://boxicons.com | License  https://docs.boxicons.com/free--><path d="m6.87 14.33-1.83 6.4c-.12.4.03.84.37 1.08.34.25.8.26 1.14.02L12 18.2l5.45 3.63a.99.99 0 0 0 1.14-.02c.34-.25.49-.68.37-1.08l-1.83-6.4 4.54-4.08c.3-.27.41-.69.28-1.06-.13-.38-.47-.64-.87-.68l-5.7-.45-2.47-5.46a.998.998 0 0 0-1.82 0L8.62 8.06l-5.7.45c-.4.03-.74.3-.87.68s-.02.8.28 1.06zm6.93-4.91c.15.33.47.56.83.59l3.97.32-3.27 2.94c-.28.26-.4.65-.29 1.02l1.25 4.38-3.74-2.49c-.17-.11-.36-.17-.55-.17-.03 0-.06.01-.09.01V5.62l.09-.2 1.8 3.98Z"/></svg>