<svg xmlns="http://www.w3.org/2000/svg" width="24" height="24"><!--Boxicons v3.0 https://boxicons.com | License  https://docs.boxicons.com/free--><path d="M12 6.99a5.01 5.01 0 1 0 0 10.02 5.01 5.01 0 1 0 0-10.02M11 22h2v-4h-2zm0-16h2V2h-2zm-9 5h4v2H2zm16 0h4v2h-4zM4.22 18.36l.71.71.71.71 1.41-1.42 1.41-1.41-.7-.71-.71-.7-1.41 1.41zM18.36 4.22l-1.41 1.42-1.41 1.41.7.71.71.7 1.41-1.41 1.42-1.41-.71-.71zm-9.9 2.83L7.05 5.64 5.64 4.22l-.71.71-.71.71 1.42 1.41 1.41 1.41.71-.7zm7.08 9.9 1.41 1.41 1.41 1.42.71-.71.71-.71-1.42-1.41-1.41-1.41-.71.7z"/></svg>