<svg xmlns="http://www.w3.org/2000/svg" width="24" height="24"><!--Boxicons v3.0 https://boxicons.com | License  https://docs.boxicons.com/free--><path d="M19 3H5c-1.1 0-2 .9-2 2v14c0 1.1.9 2 2 2h14c1.1 0 2-.9 2-2V5c0-1.1-.9-2-2-2m-2 16v-2h-2v2h-2v-2h-2v2H9v-2H7v2H5v-2h2v-2H5v-2h2v-2H5V9h2V7H5V5h2v2h2V5h2v2h2V5h2v2h2V5h2v14z"/><path d="M7 9h2v2H7zM9 7h2v2H9zM11 9h2v2h-2zM13 7h2v2h-2zM17 7h2v2h-2zM15 9h2v2h-2zM7 13h2v2H7zM9 11h2v2H9zM11 13h2v2h-2zM13 11h2v2h-2zM17 11h2v2h-2zM15 13h2v2h-2zM9 15h2v2H9zM13 15h2v2h-2zM17 15h2v2h-2z"/></svg>