<svg xmlns="http://www.w3.org/2000/svg" width="24" height="24"><!--Boxicons v3.0 https://boxicons.com | License  https://docs.boxicons.com/free--><path d="M21 11V8c0-1.1-.9-2-2-2h-6V4.61c.3-.27.5-.67.5-1.11 0-.83-.67-1.5-1.5-1.5s-1.5.67-1.5 1.5c0 .44.2.84.5 1.11V6H5c-1.1 0-2 .9-2 2v3c-.55 0-1 .45-1 1v4c0 .55.45 1 1 1v3c0 1.1.9 2 2 2h14c1.1 0 2-.9 2-2v-3c.55 0 1-.45 1-1v-4c0-.55-.45-1-1-1M7 12c0-1.1.67-2 1.5-2s1.5.9 1.5 2-.67 2-1.5 2S7 13.1 7 12m9 6H8v-2h8zm-.5-4c-.83 0-1.5-.9-1.5-2s.67-2 1.5-2 1.5.9 1.5 2-.67 2-1.5 2"/></svg>