<svg xmlns="http://www.w3.org/2000/svg" width="24" height="24"><!--Boxicons v3.0 https://boxicons.com | License  https://docs.boxicons.com/free--><path d="M15.16 2.01a.98.98 0 0 0-.67.12L2.5 9.14s-.08.07-.13.1c-.03.03-.07.05-.1.08-.07.08-.13.16-.17.26 0 .01-.02.02-.02.04-.05.11-.07.23-.07.36v10.03c0 .55.45 1 1 1h18c.55 0 1-.45 1-1v-10c0-5.42-4.47-7.59-6.84-7.99ZM6.5 18c-.83 0-1.5-.67-1.5-1.5S5.67 15 6.5 15s1.5.67 1.5 1.5S7.33 18 6.5 18m5-3c-.83 0-1.5-.67-1.5-1.5s.67-1.5 1.5-1.5 1.5.67 1.5 1.5-.67 1.5-1.5 1.5m5.5 3c-1.1 0-2-.9-2-2s.9-2 2-2 2 .9 2 2-.9 2-2 2M6.7 9l8.47-4.94c1.06.27 4.25 1.35 4.76 4.94z"/></svg>