<svg xmlns="http://www.w3.org/2000/svg" width="24" height="24"><!--Boxicons v3.0 https://boxicons.com | License  https://docs.boxicons.com/free--><path d="M12 6.99a5.01 5.01 0 1 0 0 10.02 5.01 5.01 0 1 0 0-10.02M13 19h-2v3h2zm0-17h-2v3h2zM2 11h3v2H2zm17 0h3v2h-3zM4.22 18.36l.71.71.71.71 1.06-1.06 1.06-1.06-.71-.71-.71-.71-1.06 1.06zM19.78 5.64l-.71-.71-.71-.71-1.06 1.06-1.06 1.06.71.71.71.71 1.06-1.06zm-12.02.7L6.7 5.28 5.64 4.22l-.71.71-.71.71L5.28 6.7l1.06 1.06.71-.71zm8.48 11.32 1.06 1.06 1.06 1.06.71-.71.71-.71-1.06-1.06-1.06-1.06-.71.71z"/></svg>