<svg xmlns="http://www.w3.org/2000/svg" width="24" height="24"><!--Boxicons v3.0 https://boxicons.com | License  https://docs.boxicons.com/free--><path d="m13.76 4.19.44-1.95c-1.45-.33-3-.32-4.45.01l.45 1.95a8.1 8.1 0 0 1 3.56-.01M20 12c0 1.21-.27 2.38-.79 3.47l1.8.87c.66-1.36.99-2.82.99-4.37h-.2zM2 12.02c0 1.52.34 2.98 1 4.33l1.8-.87a7.96 7.96 0 0 1-.8-3.47H2ZM13.79 19.8l.45 1.95c1.45-.33 2.84-1 4.01-1.93L17 18.26c-.93.75-2.04 1.28-3.2 1.55ZM7 5.76 5.75 4.2c-1.17.94-2.12 2.14-2.77 3.48l1.8.87a8.2 8.2 0 0 1 2.21-2.79ZM18.21 4.16l-1.24 1.57c.94.74 1.71 1.7 2.23 2.78l1.8-.88a10 10 0 0 0-2.79-3.46ZM5.78 19.83c1.17.93 2.56 1.6 4.01 1.93l.44-1.95a8 8 0 0 1-3.21-1.54l-1.25 1.56ZM12 6a6 6 0 1 0 0 12 6 6 0 1 0 0-12"/></svg>