<svg xmlns="http://www.w3.org/2000/svg" width="24" height="24"><!--Boxicons v3.0 https://boxicons.com | License  https://docs.boxicons.com/free--><path d="m19.85 8.14-.47-2.32c-.33-1.63-1.77-2.81-3.43-2.81s-3 1.09-3.39 2.65L9.51 17.87c-.17.67-.77 1.14-1.46 1.14s-1.33-.51-1.47-1.21l-.41-2.03A3.01 3.01 0 0 0 8 13.01c0-1.65-1.35-3-3-3s-3 1.35-3 3c0 1.36.91 2.5 2.15 2.86l.47 2.32C4.95 19.82 6.39 21 8.05 21s3-1.09 3.39-2.65l3.05-12.21c.17-.67.77-1.14 1.46-1.14s1.33.51 1.47 1.21l.41 2.03A3.01 3.01 0 0 0 16 11c0 1.65 1.35 3 3 3s3-1.35 3-3c0-1.36-.91-2.5-2.15-2.86"/></svg>