<svg xmlns="http://www.w3.org/2000/svg" width="24" height="24"><!--Boxicons v3.0 https://boxicons.com | License  https://docs.boxicons.com/free--><path d="M12 11.5c0 3.03 2.47 5.5 5.5 5.5.41 0 .81-.06 1.2-.15l.59.89c-.57.16-1.17.26-1.79.26-3.58 0-6.5-2.92-6.5-6.5a6.5 6.5 0 0 1 3.07-5.51l-1.01-1.56v-.02A5.54 5.54 0 0 0 8.5 2 5.51 5.51 0 0 0 3 7.5c0 .09.02.17.02.26C2.4 8.31 2 9.1 2 10h1.62a5.56 5.56 0 0 0 3.37 2.77c.2 1.65.99 5.22 4.01 6.63V22h2v-2.05c.27.03.55.05.85.05.41 0 .78-.04 1.15-.07V22h2v-2.4c1.22-.32 2.13-.78 2.75-1.17l1.42 2.13 1.66-1.11-8.22-12.62C13.05 7.8 12 9.53 12 11.5M7 8c-.55 0-1-.45-1-1s.45-1 1-1 1 .45 1 1-.45 1-1 1"/></svg>