<svg xmlns="http://www.w3.org/2000/svg" width="24" height="24"><!--Boxicons v3.0 https://boxicons.com | License  https://docs.boxicons.com/free--><path d="m20.34 8.45 1.11-.55c.27-.13.46-.38.53-.67s0-.59-.17-.83l-3-4c-.19-.25-.49-.4-.8-.4H6c-.31 0-.61.15-.8.4l-3 4c-.18.24-.24.54-.17.83s.26.53.53.67l1.11.55-1.13 2.26a5.1 5.1 0 0 0-.53 2.24v.59a6.03 6.03 0 0 0 3.89 5.62l3.43 1.29c.75.28 1.41.71 1.97 1.27.2.2.45.29.71.29s.51-.1.71-.29c.56-.56 1.22-.99 1.97-1.27l3.43-1.29a6.02 6.02 0 0 0 3.89-5.62v-.59c0-.77-.18-1.54-.53-2.24l-1.13-2.26Z"/></svg>