<svg xmlns="http://www.w3.org/2000/svg" width="24" height="24"><!--Boxicons v3.0 https://boxicons.com | License  https://docs.boxicons.com/free--><path d="M12.13 3.32c0 .32-.02.63-.05.94l-1.49-.16a6.8 6.8 0 0 0-.07-1.97c-4.32.64-7.75 4.06-8.4 8.39.65.11 1.33.14 1.98.07l.16 1.49a8.2 8.2 0 0 1-2.25-.06c.01 5.5 4.48 9.97 9.98 9.98a8.2 8.2 0 0 1-.06-2.25l1.49.16a6.8 6.8 0 0 0 .07 1.97c4.33-.64 7.75-4.07 8.4-8.39-.65-.11-1.33-.14-1.98-.07l-.16-1.49c.74-.08 1.51-.04 2.26.07 0-5.5-4.48-9.98-9.98-9.99.07.43.11.87.11 1.31Zm-1.51 4.93c-.31.47-.68.9-1.08 1.3s-.84.76-1.3 1.08c-.28.19-.57.36-.88.52l-.69-1.33A7.1 7.1 0 0 0 8.48 8.5c.33-.33.63-.69.89-1.08.16-.24.3-.48.44-.73l1.33.69c-.16.3-.33.6-.52.88Zm2.75 7.51c.31-.47.68-.9 1.08-1.3s.84-.76 1.3-1.08c.28-.19.57-.36.88-.52l.69 1.33a7.1 7.1 0 0 0-1.81 1.32 7 7 0 0 0-.89 1.08c-.16.24-.3.48-.44.73l-1.33-.69c.16-.3.33-.6.52-.88Z"/></svg>