<svg xmlns="http://www.w3.org/2000/svg" width="24" height="24"><!--Boxicons v3.0 https://boxicons.com | License  https://docs.boxicons.com/free--><path d="m21.48 7.12-9.02-5a.99.99 0 0 0-.97 0L2.52 7.08c-.32.18-.52.51-.52.87s.2.7.51.88l9.02 5.04c.15.08.32.13.49.13s.33-.04.49-.13l8.98-5c.32-.18.51-.51.51-.88s-.2-.7-.52-.87"/><path d="m12 15.86-8.51-4.73-.97 1.75 9 5c.15.08.32.13.49.13s.33-.04.49-.13l9-5-.97-1.75-8.51 4.73Z"/><path d="m12 19.86-8.51-4.73-.97 1.75 9 5c.15.08.32.13.49.13s.33-.04.49-.13l9-5-.97-1.75-8.51 4.73Z"/></svg>