<svg xmlns="http://www.w3.org/2000/svg" width="24" height="24"><!--Boxicons v3.0 https://boxicons.com | License  https://docs.boxicons.com/free--><path d="M12 2C9.33 2 6.82 3.04 4.93 4.93A9.93 9.93 0 0 0 2 12h2c0-2.13.83-4.14 2.35-5.65C7.86 4.84 9.87 4 12 4s4.14.83 5.65 2.35C19.16 7.86 20 9.87 20 12s-.83 4.14-2.35 5.65A7.95 7.95 0 0 1 12 20v2c2.66 0 5.17-1.04 7.07-2.93C20.96 17.18 22 14.67 22 12s-1.04-5.17-2.93-7.07A9.93 9.93 0 0 0 12 2"/><path d="m5.71 19.71 8.29-8.3V17h2V8H7v2h5.59l-8.3 8.29z"/></svg>