<svg xmlns="http://www.w3.org/2000/svg" width="24" height="24"><!--Boxicons v3.0 https://boxicons.com | License  https://docs.boxicons.com/free--><path d="M8.53 2.63C5.03 3.93 2.44 7.14 2.05 11h4.21c.11-3.01.89-5.89 2.26-8.37ZM15.97 11c-.19-4.14-1.97-7.25-3.25-8.96-.24-.02-.48-.04-.73-.04s-.47.02-.71.04C9.44 4.52 8.38 7.66 8.25 11h7.71Zm-.45-8.35A18.14 18.14 0 0 1 17.98 11h3.97c-.38-3.84-2.95-7.03-6.43-8.35m.13 18.65c3.42-1.34 5.93-4.51 6.3-8.3h-3.99c-.18 3.12-.97 5.96-2.32 8.3ZM2.05 13c.38 3.81 2.91 6.99 6.35 8.32-1.26-2.27-1.97-5.09-2.13-8.32zm6.23 0c.19 3.74 1.21 6.8 2.99 8.96.24.02.49.04.74.04s.5-.02.75-.04c1.88-2.26 3-5.39 3.22-8.96H8.29Z"/></svg>