<svg xmlns="http://www.w3.org/2000/svg" width="24" height="24"><!--Boxicons v3.0 https://boxicons.com | License  https://docs.boxicons.com/free--><path d="M12 2c-.66 0-1.32.07-1.95.19h-.07c-4.42.91-7.69 4.69-7.96 9.14-.02.22-.03.43-.03.66s0 .44.02.61c.27 4.5 3.55 8.28 7.97 9.19h.07c.63.13 1.28.19 1.95.19 5.51 0 10-4.49 10-10S17.51 2 12 2m-1.84 17.77a8.015 8.015 0 0 1-6.14-7.33c-.02-.14-.01-.29-.01-.44s0-.3.02-.49c.21-3.52 2.73-6.47 6.14-7.28 2.21.87 3.84 4.14 3.84 7.77s-1.64 6.9-3.84 7.77Z"/></svg>