<svg xmlns="http://www.w3.org/2000/svg" width="24" height="24"><!--Boxicons v3.0 https://boxicons.com | License  https://docs.boxicons.com/free--><path d="M20.79 9.02c-.21.05-4.9 1.12-8.8 6.26-3.97-5.13-8.57-6.21-8.77-6.26-.3-.07-.61 0-.84.2A1 1 0 0 0 2 10c0 7.29 3.92 12 10 12s10-4.82 10-12c0-.3-.14-.59-.37-.78-.24-.19-.55-.26-.84-.2"/><path d="M11.98 13.7c1.55-1.81 3.18-3.05 4.6-3.91-.49-1.65-1.55-4.05-3.85-6.47-.38-.4-1.07-.4-1.45 0-2.31 2.44-3.37 4.84-3.86 6.5 1.4.86 3.01 2.1 4.57 3.88Z"/></svg>