<svg xmlns="http://www.w3.org/2000/svg" xml:space="preserve" width="24" height="24"><!--Boxicons v3.0 https://boxicons.com | License  https://docs.boxicons.com/free--><path d="M12 2C6.5 2 2 6.5 2 12s4.5 10 10 10 10-4.5 10-10S17.5 2 12 2m6.5 12.2-1.1 1.1-2.2-2.2-2.2 2.2 2.2 2.2-1.1 1.1-2.1-2.3-2.2 2.2-1.1-1.1 2.2-2.2L8.7 13l-2.2 2.2-1.1-1.1L7.7 12 5.5 9.8l1.1-1.1 2.2 2.2L11 8.7 8.7 6.5l1.1-1.1L12 7.7l2.2-2.2 1.1 1.1-2.2 2.2 2.2 2.2 2.2-2.2 1.1 1.1-2.3 2.1z" class="st0"/><path d="m9.8 12 1.1-1.1L12 9.8l1.1 1.1 1.1 1.1-1.1 1.1-1.1 1.1-1.1-1.1z" class="st0"/></svg>