<svg xmlns="http://www.w3.org/2000/svg" width="24" height="24"><!--Boxicons v3.0 https://boxicons.com | License  https://docs.boxicons.com/free--><path d="m21.55 9.11-1.84.92v-.02H4.29v.02l-1.84-.92-.89 1.79 2.47 1.23c0 .12-.02.24-.02.37 0 .51.04 1.01.11 1.5H2.01v2h2.57c.17.5.37.97.6 1.42l-1.87 1.87 1.41 1.41 1.58-1.58c1.23 1.5 2.87 2.52 4.71 2.79v-8.92h2v8.92c1.84-.27 3.48-1.3 4.71-2.79l1.58 1.58 1.41-1.41-1.87-1.87c.23-.45.43-.93.6-1.42h2.57v-2H19.9c.07-.49.11-.99.11-1.5 0-.13-.02-.25-.02-.37l2.47-1.23-.89-1.79ZM4.96 8h14.09c-.37-.82-.86-1.56-1.41-2.22l2.07-2.07L18.3 2.3l-2.11 2.11C14.97 3.52 13.54 3 12.01 3s-2.96.52-4.18 1.41L5.72 2.3 4.31 3.71l2.07 2.07c-.55.66-1.04 1.4-1.41 2.22Z"/></svg>