<svg xmlns="http://www.w3.org/2000/svg" width="24" height="24"><!--Boxicons v3.0 https://boxicons.com | License  https://docs.boxicons.com/free--><path d="M4 18.84V22h2v-3.16c1.44-.43 2.5-1.76 2.5-3.34S7.44 12.6 6 12.16V2H4v10.16c-1.44.43-2.5 1.76-2.5 3.34s1.06 2.9 2.5 3.34M20 12.16V2h-2v10.16c-1.44.43-2.5 1.76-2.5 3.34s1.06 2.9 2.5 3.34V22h2v-3.16c1.44-.43 2.5-1.76 2.5-3.34s-1.06-2.9-2.5-3.34M13 22V10.84c1.44-.43 2.5-1.76 2.5-3.34S14.44 4.6 13 4.16V2h-2v2.16c-1.44.43-2.5 1.76-2.5 3.34s1.06 2.9 2.5 3.34V22z"/></svg>