<svg xmlns="http://www.w3.org/2000/svg" width="24" height="24"><!--Boxicons v3.0 https://boxicons.com | License  https://docs.boxicons.com/free--><path d="m11 13.94 1.58-1.13c.26-.19.42-.49.42-.81s-.16-.63-.42-.81L11 10.06 5.58 6.19A.997.997 0 0 0 4 7v10c0 .37.21.72.54.89.14.07.3.11.46.11.21 0 .41-.06.58-.19z"/><path d="m19.58 11.19-7-5A.997.997 0 0 0 11 7v1.83l2.16 1.54c.52.38.84.98.84 1.63s-.31 1.25-.84 1.63L11 15.17V17c0 .37.21.72.54.89.14.07.3.11.46.11.21 0 .41-.06.58-.19l7-5c.26-.19.42-.49.42-.81s-.16-.63-.42-.81"/></svg>