<svg xmlns="http://www.w3.org/2000/svg" width="24" height="24"><!--Boxicons v3.0 https://boxicons.com | License  https://docs.boxicons.com/free--><path d="M16.68 7.32A7.503 7.503 0 0 0 2 9.5c0 3.38 2.25 6.24 5.32 7.18A7.503 7.503 0 0 0 22 14.5c0-3.38-2.25-6.24-5.32-7.18M15 9.5c0 3.03-2.47 5.5-5.5 5.5-.16 0-.32-.01-.48-.02-.01-.16-.02-.32-.02-.48a5.51 5.51 0 0 1 5.98-5.48c.01.16.02.32.02.48m-11 0C4 6.47 6.47 4 9.5 4c2.13 0 3.98 1.22 4.9 3.01a7.51 7.51 0 0 0-7.39 7.39A5.51 5.51 0 0 1 4 9.5M14.5 20c-2.13 0-3.98-1.22-4.9-3.01a7.51 7.51 0 0 0 7.39-7.39c1.78.91 3.01 2.76 3.01 4.9 0 3.03-2.47 5.5-5.5 5.5"/></svg>