<svg xmlns="http://www.w3.org/2000/svg" width="24" height="24"><!--Boxicons v3.0 https://boxicons.com | License  https://docs.boxicons.com/free--><path d="M2 12c0 1.08.43 2.09 1.17 2.83-.11.38-.17.77-.17 1.17 0 1.96 1.41 3.59 3.31 3.93C6.86 21.16 8.11 22 9.5 22c.54 0 1.04-.13 1.5-.35V2.18c-.31-.11-.65-.18-1-.18-1.3 0-2.41.83-2.83 2.01A3.51 3.51 0 0 0 4 7.5c0 .33.05.65.14.96C2.87 9.14 2 10.49 2 12m17.86-3.54c.09-.31.14-.64.14-.96 0-1.82-1.39-3.32-3.17-3.48A3.01 3.01 0 0 0 14 2c-.35 0-.69.07-1 .18v19.47c.46.22.96.35 1.5.35 1.39 0 2.63-.83 3.19-2.06A4.006 4.006 0 0 0 21 16c0-.4-.06-.79-.17-1.17.75-.75 1.17-1.76 1.17-2.83 0-1.5-.86-2.86-2.14-3.54"/></svg>