<svg xmlns="http://www.w3.org/2000/svg" width="24" height="24"><!--Boxicons v3.0 https://boxicons.com | License  https://docs.boxicons.com/free--><path d="M2 15v6c0 .55.45 1 1 1h2v-9.12L2.55 14.1a1 1 0 0 0-.55.89ZM17.51 11.14 13 8.43V6h2V4h-2V2h-2v2H9v2h2v2.43l-4.51 2.71c-.3.18-.49.51-.49.86v10h4v-4c0-1.1.9-2 2-2s2 .9 2 2v4h4V12a.99.99 0 0 0-.49-.86M12 14c-.83 0-1.5-.67-1.5-1.5S11.17 11 12 11s1.5.67 1.5 1.5S12.83 14 12 14M21.45 14.11 19 12.89v9.12h2c.55 0 1-.45 1-1v-6c0-.38-.21-.72-.55-.89Z"/></svg>