<svg xmlns="http://www.w3.org/2000/svg" width="24" height="24"><!--Boxicons v3.0 https://boxicons.com | License  https://docs.boxicons.com/free--><path d="M19.87 5.83 8.28 2.72a2 2 0 0 0-2.45 1.41L2.72 15.72c-.28 1.06.35 2.16 1.41 2.45l11.59 3.11c.17.05.34.07.51.07.88 0 1.69-.59 1.93-1.48l3.11-11.59c.28-1.06-.35-2.16-1.41-2.45Zm-8.83 5.92c-.21.8-1.04 1.28-1.84 1.06-.8-.21-1.27-1.04-1.06-1.84s1.04-1.28 1.84-1.06c.8.21 1.27 1.04 1.06 1.84m4.83 1.29c-.21.8-1.04 1.27-1.84 1.06s-1.28-1.04-1.06-1.84c.21-.8 1.04-1.27 1.84-1.06s1.28 1.04 1.06 1.84"/></svg>