<svg xmlns="http://www.w3.org/2000/svg" width="24" height="24"><!--Boxicons v3.0 https://boxicons.com | License  https://docs.boxicons.com/free--><path d="M4 4h4V2H4c-1.1 0-2 .9-2 2v4h2zM4 16H2v4c0 1.1.9 2 2 2h4v-2H4zM20 20h-4v2h4c1.1 0 2-.9 2-2v-4h-2zM20 2h-4v2h4v4h2V4c0-1.1-.9-2-2-2"/><rect width="6" height="6" x="5" y="5" rx="1.5" ry="1.5"/><rect width="6" height="6" x="5" y="13" rx="1.5" ry="1.5"/><rect width="6" height="6" x="13" y="5" rx="1.5" ry="1.5"/><path d="M13 13h2v2h-2zM15 15h2v2h-2zM17 17h2v2h-2zM17 13h2v2h-2z"/></svg>