<svg xmlns="http://www.w3.org/2000/svg" width="24" height="24"><!--Boxicons v3.0 https://boxicons.com | License  https://docs.boxicons.com/free--><path d="M18.64 2.89c-.8.09-1.63.48-2.47 1.13-1.24-.65-2.62-1-4.06-1.02-2.42 0-4.69.88-6.4 2.55A8.95 8.95 0 0 0 3 11.89a9 9 0 0 0 .58 3.31c-1.07 1.2-2.07 3.68-.83 5.08.52.58 1.26.84 2.15.84 2.71 0 6.81-2.4 10.26-5.46 4.59-4.07 8.14-9.42 6.06-11.77a2.93 2.93 0 0 0-2.57-.98ZM4.24 18.94c-.22-.25 0-1.08.39-1.78.28.39.58.77.92 1.12.22.22.45.42.68.62-1.05.32-1.76.3-1.99.03Zm15.25-11.9c-.31-.47-.65-.93-1.05-1.34-.17-.17-.34-.33-.52-.48.39-.22.7-.32.92-.35.36-.04.63.06.86.32.22.25.17.91-.22 1.84Zm-3.34 9.73c-1.64 1.46-3.67 2.96-5.72 4.08.48.08.96.14 1.46.14h.12c2.37 0 4.59-.9 6.28-2.55 1.72-1.67 2.68-3.92 2.71-6.34 0-.23-.01-.45-.02-.68-1.28 1.84-2.97 3.68-4.83 5.34Z"/></svg>