<svg xmlns="http://www.w3.org/2000/svg" width="24" height="24"><!--Boxicons v3.0 https://boxicons.com | License  https://docs.boxicons.com/free--><path d="M20.66 7c-.74-1.29-2.41-1.86-4.67-1.63-.06 0-.12.02-.18.03C14.91 3.29 13.56 2 12 2S9.09 3.3 8.19 5.4c-.06 0-.12-.02-.18-.03-2.27-.24-3.92.34-4.67 1.63-.74 1.29-.42 3.01.93 4.86.04.05.08.1.11.14-.04.05-.08.1-.11.14-1.34 1.84-1.67 3.57-.93 4.86.63 1.1 1.93 1.68 3.7 1.68.31 0 .63-.02.97-.05.06 0 .12-.02.18-.03.9 2.11 2.25 3.4 3.81 3.4s2.91-1.3 3.81-3.4c.06 0 .12.02.18.03.34.04.66.05.97.05 1.77 0 3.07-.58 3.7-1.68.74-1.29.42-3.01-.93-4.86-.04-.05-.08-.1-.11-.14.04-.05.08-.1.11-.14 1.34-1.84 1.67-3.57.93-4.86M15 12c0 .59-.03 1.15-.07 1.69-.45.32-.93.62-1.43.91q-.75.435-1.5.78-.75-.345-1.5-.78c-.5-.29-.97-.59-1.43-.91C9.02 13.15 9 12.59 9 12s.03-1.15.07-1.69c.45-.32.93-.62 1.43-.91q.75-.435 1.5-.78.75.345 1.5.78c.5.29.97.59 1.43.91.05.54.07 1.1.07 1.69m-3-8c.56 0 1.23.66 1.8 1.83q-.885.255-1.8.63-.915-.375-1.8-.63C10.77 4.65 11.44 4 12 4M5.07 8c.25-.44.98-.68 1.98-.68.15 0 .32.02.49.03-.15.59-.27 1.21-.35 1.87-.52.4-1 .82-1.44 1.25-.7-1.03-.96-1.97-.67-2.47Zm0 8c-.29-.5-.03-1.44.67-2.47.44.43.92.85 1.44 1.25.09.66.21 1.29.36 1.87-1.24.09-2.18-.15-2.47-.66ZM12 20c-.56 0-1.23-.66-1.8-1.83q.885-.255 1.8-.63.915.375 1.8.63C13.23 19.35 12.56 20 12 20m6.93-4c-.29.5-1.22.75-2.47.66.15-.59.27-1.22.36-1.87.52-.4 1-.82 1.44-1.25.7 1.03.96 1.97.67 2.47Zm-2.11-6.78c-.09-.66-.21-1.28-.35-1.87.17-.01.33-.03.49-.03 1 0 1.73.24 1.98.68.29.5.03 1.44-.67 2.47-.44-.43-.92-.85-1.44-1.25Z"/><path d="M12 10.5a1.5 1.5 0 1 0 0 3 1.5 1.5 0 1 0 0-3"/></svg>