<svg xmlns="http://www.w3.org/2000/svg" width="24" height="24"><!--Boxicons v3.0 https://boxicons.com | License  https://docs.boxicons.com/free--><path d="m19.5 6.13-7-4a.98.98 0 0 0-.99 0l-7 4c-.15.08-.27.21-.36.35l-3 5 1.71 1.03.14-.24v8.72c0 .55.45 1 1 1h16c.55 0 1-.45 1-1v-8.72l.14.24 1.71-1.03-3-5a.93.93 0 0 0-.36-.35ZM12 7c1.1 0 2 .9 2 2s-.9 2-2 2-2-.9-2-2 .9-2 2-2m-4 7.62L11.17 17 8 19.38v-4.75Zm.83-.62h6.33l-3.17 2.38L8.82 14Zm7.17.62v4.75l-3.17-2.38L16 14.61ZM8.83 20 12 17.62 15.17 20H8.84Z"/></svg>