<svg xmlns="http://www.w3.org/2000/svg" width="24" height="24"><!--Boxicons v3.0 https://boxicons.com | License  https://docs.boxicons.com/free--><path d="M21.33 2.53c-.37-.14-.79-.05-1.07.22-.07.07-1.86 1.77-4.84.27-2.05-1.03-5.6-1.64-8.88 0-4.26 2.14-5.77 7.47-3.51 12.2.62-1.74 1.51-3.21 2.68-4.38 2.81-2.8 6.2-2.8 6.29-2.83v.34a9.75 9.75 0 0 0-4.29 2.49C5.25 13.3 4 17.05 4 22h2c0-1.15.07-2.18.21-3.12.66.41 1.39.72 2.17.9.66.16 1.32.22 1.97.22 2.43 0 4.64-.96 5.72-1.77 1.82-1.37 3.32-2.67 4.8-5.89 1.4-3.07 1.12-8.7 1.1-8.94a.99.99 0 0 0-.64-.87"/></svg>