<svg xmlns="http://www.w3.org/2000/svg" width="24" height="24"><!--Boxicons v3.0 https://boxicons.com | License  https://docs.boxicons.com/free--><path d="m14.5 11 3.84-4.1c.41-.41.66-.98.66-1.62s-.25-1.2-.66-1.62c-.41-.41-.97-.67-1.59-.67 0 0-1.12 0-2.25 1.14-1.13-1.15-2.25-1.14-2.25-1.14-.62 0-1.18.26-1.59.67S10 4.65 10 5.28s.25 1.2.66 1.62zM20.47 12.49l-.17-.06c-.8-.27-1.69-.11-2.35.42L14.01 16h-5v-1h4.07c.4 0 .64-.45.42-.78l-1.18-1.78c-.19-.28-.5-.45-.83-.45H3c-.55 0-1 .45-1 1v6c0 .55.45 1 1 1h10.76c.8 0 1.56-.32 2.12-.88l4.98-4.98c.53-.53.31-1.42-.39-1.66Z"/></svg>