<svg xmlns="http://www.w3.org/2000/svg" width="24" height="24"><!--Boxicons v3.0 https://boxicons.com | License  https://docs.boxicons.com/free--><path d="M19.17 5.11A2 2 0 0 0 17.38 4H13c-.55 0-1 .45-1 1v5H3c-.55 0-1 .45-1 1v4c0 1.1.9 2 2 2 0 1.65 1.35 3 3 3s3-1.35 3-3h4c0 1.65 1.35 3 3 3s3-1.35 3-3c1.1 0 2-.9 2-2v-3.76c0-.31-.07-.62-.21-.89zM14 6h3.38l2 4H14zM7 18a1.003 1.003 0 0 1-.87-1.5c.36-.62 1.33-.63 1.72-.02A.947.947 0 0 1 8 17c0 .55-.45 1-1 1m10 0a1.003 1.003 0 0 1-.87-1.5c.36-.62 1.33-.63 1.72-.02A.947.947 0 0 1 18 17c0 .55-.45 1-1 1"/></svg>