<svg xmlns="http://www.w3.org/2000/svg" width="24" height="24"><!--Boxicons v3.0 https://boxicons.com | License  https://docs.boxicons.com/free--><path d="M21.03 12.74c.57-.14.97-.65.97-1.24s-.4-1.1-.97-1.24L20 10c0-1.11-.31-2.14-.83-3.03l.44-.66c.33-.49.28-1.14-.12-1.57s-1.04-.54-1.55-.27l-.79.43c-.92-.57-1.99-.9-3.14-.9l-.26-1.03C13.61 2.4 13.1 2 12.51 2s-1.1.4-1.24.97L11.01 4h-2.5c-3.58 0-6.5 2.92-6.5 6.5S4.93 17 8.51 17h.5v4c0 .55.45 1 1 1h9c.55 0 1-.45 1-1v-2l1.03-.26c.57-.14.97-.65.97-1.24s-.4-1.1-.97-1.24L20.01 16v-3l1.03-.26ZM6.5 10c-.28 0-.5-.22-.5-.5s.22-.5.5-.5.5.22.5.5-.22.5-.5.5m6 1c-.83 0-1.5-.67-1.5-1.5S11.67 8 12.5 8s1.5.67 1.5 1.5-.67 1.5-1.5 1.5"/></svg>