<svg xmlns="http://www.w3.org/2000/svg" width="24" height="24"><!--Boxicons v3.0 https://boxicons.com | License  https://docs.boxicons.com/free--><path d="M17.55 6.17c-.35-.23-.8-.22-1.14.02-.34.25-.49.68-.37 1.08.27.95.75 3.7-.23 4.99-.38.5-.97.74-1.81.74-.6 0-1.4-.16-1.8-.91-.47-.88-.23-2.24.64-3.54 1.03-1.54 1.13-3.2.29-4.68a5.5 5.5 0 0 0-1.56-1.71.97.97 0 0 0-.81-.13c-.28.07-.51.26-.64.52-.58 1.17-1.86 2.22-3.09 3.23-.63.52-1.22 1-1.73 1.51C3.03 9.56 3.01 12.86 3.01 13c0 4.96 4.04 9 9 9s9-4.04 9-9c0-.19-.04-4.56-3.45-6.83Z"/></svg>