<svg xmlns="http://www.w3.org/2000/svg" width="24" height="24"><!--Boxicons v3.0 https://boxicons.com | License  https://docs.boxicons.com/free--><path d="M17.73 2.05c-1.13-.16-2.24.05-3.22.61a26.2 26.2 0 0 1-6.33 2.66c-3.17.89-5.55 3.55-6.07 6.76-.45 2.76.42 5.47 2.38 7.42a8.42 8.42 0 0 0 6 2.49c.47 0 .94-.04 1.42-.12 3.22-.52 5.87-2.9 6.76-6.06l.03-.11c.56-2.09 1.45-4.18 2.63-6.23.56-.97.77-2.08.61-3.22a4.985 4.985 0 0 0-4.21-4.21ZM10.5 17C8.57 17 7 15.43 7 13.5S8.57 10 10.5 10s3.5 1.57 3.5 3.5-1.57 3.5-3.5 3.5"/></svg>