<svg xmlns="http://www.w3.org/2000/svg" width="24" height="24"><!--Boxicons v3.0 https://boxicons.com | License  https://docs.boxicons.com/free--><path d="M11 2h2v3h-2zM19 11h3v2h-3zM17 12.76V12c0-2.76-2.24-5-5-5s-5 2.24-5 5H3c-.35 0-.67.18-.85.47s-.2.66-.04.97l4 8a1 1 0 0 0 .89.55h13c.35 0 .67-.18.85-.47s.2-.66.04-.97zM15.38 14l1 2h-4.01l-1-2zm-6.25 0 1 2H5.62l-1-2zm-2.51 4h4.51l1 2H7.62zm7.75 2-1-2h4.01l1 2zM16.24 6.34l.71.71.71.71 1.06-1.06 1.06-1.06-.71-.71-.71-.71-1.06 1.06zM4.93 4.93l-.71.71L5.28 6.7l1.06 1.06.71-.71.71-.71L6.7 5.28 5.64 4.22z"/></svg>