<svg xmlns="http://www.w3.org/2000/svg" width="24" height="24"><!--Boxicons v3.0 https://boxicons.com | License  https://docs.boxicons.com/free--><path d="M6.34 6.34c.73-.73 1.59-1.31 2.54-1.71.99-.42 2.03-.63 3.11-.63V2c-1.35 0-2.66.26-3.89.79-1.19.5-2.26 1.23-3.18 2.14-.92.92-1.64 1.99-2.14 3.18-.52 1.23-.79 2.54-.79 3.89s.26 2.66.79 3.89c.5 1.19 1.22 2.26 2.14 3.18.17.17.35.32.52.48L2.99 22h6v-6l-2.13 2.13c-.18-.15-.36-.31-.52-.48a8.1 8.1 0 0 1-1.72-2.54c-.42-.99-.63-2.03-.63-3.11s.21-2.13.63-3.11c.4-.95.98-1.81 1.72-2.54Zm12.73-1.41c-.17-.17-.35-.32-.52-.48L21 2h-6v6l2.13-2.13c.18.15.36.31.52.48.74.74 1.31 1.59 1.72 2.54.42.99.63 2.03.63 3.11s-.21 2.13-.63 3.11c-.4.95-.98 1.81-1.72 2.54-.73.73-1.59 1.31-2.54 1.71-.99.42-2.03.63-3.11.63v2c1.35 0 2.66-.26 3.89-.79 1.19-.5 2.26-1.23 3.18-2.14.92-.92 1.64-1.99 2.14-3.18.52-1.23.79-2.54.79-3.89s-.26-2.66-.79-3.89a9.9 9.9 0 0 0-2.14-3.18Z"/></svg>