<svg xmlns="http://www.w3.org/2000/svg" width="24" height="24"><!--Boxicons v3.0 https://boxicons.com | License  https://docs.boxicons.com/free--><path d="M20 17h-2.22c.59-1.1 1.22-2.61 1.22-4 0-2.02-.75-3.98-1.98-5.46C15.76 8.29 14 9.89 14 13h-2c0-3.44 1.76-5.64 3.5-6.87-.02-.01-.03-.03-.05-.04.03-.19.05-.39.05-.59 0-1.1-.5-2.11-1.38-2.78-.87-.67-2-.88-3.08-.59-1.17.32-2.12 1.29-2.43 2.49q-.195.75-.06 1.47C6.4 7.54 5 10.21 5 13c0 1.4.37 2.8 1.02 4H4c-1.1 0-2 .9-2 2v1c0 1.1.9 2 2 2h16c1.1 0 2-.9 2-2v-1c0-1.1-.9-2-2-2"/></svg>