<svg xmlns="http://www.w3.org/2000/svg" width="24" height="24"><!--Boxicons v3.0 https://boxicons.com | License  https://docs.boxicons.com/free--><path d="M12 9c-3.58 0-6.5 2.92-6.5 6.5S8.42 22 12 22s6.5-2.92 6.5-6.5S15.58 9 12 9m.65 9.69v.71h-1.3v-.7c-1.52-.24-1.95-1.3-1.95-1.9h1.3c0 .09.1.65 1.3.65.9 0 1.3-.38 1.3-.65 0-.21 0-.65-1.3-.65-2.26 0-2.6-1.22-2.6-1.95 0-.84.67-1.68 1.95-1.89v-.71h1.3v.73c1.13.27 1.56 1.2 1.56 1.87h-1.3c0-.24-.14-.65-.91-.65-.84 0-1.3.33-1.3.65 0 .24 0 .65 1.3.65 2.26 0 2.6 1.22 2.6 1.95 0 .84-.67 1.68-1.95 1.89M9.88 8 12 6.59 14.12 8l-.71-2.29L15 4.12l-2.04-.18L12 2l-.96 1.94L9 4.12l1.59 1.59zM20.3 7.62 19.5 6l-.8 1.62-1.7.14 1.32 1.33-.58 1.91 1.76-1.18L21.26 11l-.58-1.91L22 7.76zM5.68 9.09 7 7.76l-1.7-.14L4.5 6l-.8 1.62-1.7.14 1.32 1.33L2.74 11 4.5 9.82 6.26 11z"/></svg>