<svg xmlns="http://www.w3.org/2000/svg" width="24" height="24"><!--Boxicons v3.0 https://boxicons.com | License  https://docs.boxicons.com/free--><path d="m5 17.41 3-3 1.29 1.29c.39.39 1.02.39 1.41 0l5.29-5.29 3 3V14h2V5c0-1.1-.9-2-2-2H5c-1.1 0-2 .9-2 2v14c0 1.1.9 2 2 2h9v-2H5zM8.5 7c.83 0 1.5.67 1.5 1.5S9.33 10 8.5 10 7 9.33 7 8.5 7.67 7 8.5 7"/><path d="m21.72 18.07-1.94-.86-.86-1.94a.46.46 0 0 0-.42-.28c-.19-.02-.35.1-.43.27l-.86 1.87-1.95.94c-.16.08-.27.25-.26.43 0 .18.11.35.28.42l1.94.86.86 1.94a.471.471 0 0 0 .86 0l.86-1.94 1.94-.86a.471.471 0 0 0 0-.86Z"/></svg>