<svg xmlns="http://www.w3.org/2000/svg" width="24" height="24"><!--Boxicons v3.0 https://boxicons.com | License  https://docs.boxicons.com/free--><path d="M13.92 11.49c.05.16.08.33.08.51 0 1.08-.92 2-2 2s-2-.92-2-2 .92-2 2-2c.18 0 .34.03.51.08l2.29-2.29A4.87 4.87 0 0 0 12.15 7c-1.32 0-2.57.53-3.52 1.48S7.15 10.69 7.15 12s.53 2.56 1.48 3.52S10.83 17 12.15 17s2.57-.53 3.52-1.48l1.41 1.41C15.75 18.26 14 19 12.15 19s-3.6-.73-4.93-2.07C5.89 15.6 5.15 13.85 5.15 12s.73-3.6 2.07-4.93C8.55 5.74 10.3 5 12.15 5c1.48 0 2.9.48 4.09 1.35l2.05-2.05C16.56 2.87 14.36 2 12 2 6.58 2 2 6.58 2 12s4.58 10 10 10 10-4.58 10-10c0-2.36-.87-4.56-2.3-6.29z"/></svg>