<svg xmlns="http://www.w3.org/2000/svg" width="24" height="24"><!--Boxicons v3.0 https://boxicons.com | License  https://docs.boxicons.com/free--><path d="M19 4h-2V2h-2v2H9V2H7v2H5c-1.1 0-2 .9-2 2v1h18V6c0-1.1-.9-2-2-2M3 20c0 1.1.9 2 2 2h14c1.1 0 2-.9 2-2V8H3zm5.84-5c0-.19.02-.38.05-.57l-.33-.19a.64.64 0 0 1-.23-.88l.42-.73c.18-.31.57-.41.88-.23l.34.2c.29-.25.62-.44.97-.57v-.39c0-.35.29-.64.64-.64h.84c.35 0 .64.29.64.64v.39c.35.13.68.32.97.57l.34-.2c.31-.18.7-.07.88.23l.42.73c.18.31.07.7-.23.88l-.33.19c.04.19.05.38.05.57s-.02.38-.05.57l.33.19c.31.18.41.57.23.88l-.42.73c-.18.31-.57.41-.88.23l-.34-.2c-.29.25-.62.44-.97.57v.39c0 .35-.29.64-.64.64h-.84c-.35 0-.64-.29-.64-.64v-.39c-.35-.13-.68-.32-.97-.57l-.34.2c-.31.18-.7.07-.88-.23l-.42-.73c-.18-.31-.07-.7.23-.88l.33-.19c-.04-.19-.05-.38-.05-.57"/><path d="M12 16.55c.84 0 1.55-.71 1.55-1.55s-.71-1.55-1.55-1.55-1.55.71-1.55 1.55.71 1.55 1.55 1.55"/></svg>