<svg xmlns="http://www.w3.org/2000/svg" width="24" height="24"><!--Boxicons v3.0 https://boxicons.com | License  https://docs.boxicons.com/free--><path d="M12 8.89a2 2 0 1 0 0 4 2 2 0 1 0 0-4M16 13h2v3h-2zM6 13h2v3H6z"/><path d="m21.93 9.63-2-5A1 1 0 0 0 19 4h-5.59l-.71-.71a.996.996 0 0 0-1.41 0l-.71.71H4.99a1 1 0 0 0-.93.63l-2 5a1 1 0 0 0-.06.33V20c0 .55.45 1 1 1h18c.55 0 1-.45 1-1V9.96a.9.9 0 0 0-.06-.33ZM20 19h-6v-4h-4v4H4v-8h2c.27 0 .52-.11.71-.29l5-5 .29-.29.29.29 5 5c.19.19.44.29.71.29h2z"/></svg>