<svg xmlns="http://www.w3.org/2000/svg" width="24" height="24"><!--Boxicons v3.0 https://boxicons.com | License  https://docs.boxicons.com/free--><path d="M14 2a2 2 0 1 0 0 4 2 2 0 1 0 0-4M10.53 6.83 7.94 7.94c-.44.19-.79.52-1 .94L5.1 12.55l1.79.89 1.84-3.67 2.07-.89-1.71 8.54-3.69 2.77 1.2 1.6 3.69-2.77c.39-.3.67-.72.76-1.21l.44-2.2 2.6 1.95.93 4.63 1.96-.39-.92-4.62c-.1-.48-.37-.91-.76-1.21l-2.14-1.6.83-3.87.95 1.67c.25.43.64.75 1.1.9l2.64.88.63-1.9-2.64-.88-1.55-2.72c-.28-.49-.72-.87-1.24-1.08l-1.44-.57a2.48 2.48 0 0 0-1.91.02Z"/></svg>