<svg xmlns="http://www.w3.org/2000/svg" width="24" height="24"><!--Boxicons v3.0 https://boxicons.com | License  https://docs.boxicons.com/free--><path d="M21.68 14.45c-.67-.29-1.41-.45-2.18-.45a5.51 5.51 0 0 0-5.5 5.5c0 .78.16 1.51.45 2.18 3.54-.9 6.33-3.69 7.23-7.23M10 4.5c0-.78-.16-1.51-.45-2.18-3.54.9-6.33 3.69-7.23 7.23.67.29 1.41.45 2.18.45C7.53 10 10 7.53 10 4.5"/><path d="M12 2c-.14 0-.29.02-.43.02.27.78.43 1.61.43 2.48C12 8.64 8.64 12 4.5 12c-.87 0-1.7-.16-2.48-.43 0 .14-.02.28-.02.43 0 5.51 4.49 10 10 10 .14 0 .29-.02.43-.02-.27-.78-.43-1.61-.43-2.48 0-4.14 3.36-7.5 7.5-7.5.87 0 1.7.16 2.48.43 0-.14.02-.28.02-.43 0-5.51-4.49-10-10-10"/></svg>