<svg xmlns="http://www.w3.org/2000/svg" width="24" height="24"><!--Boxicons v3.0 https://boxicons.com | License  https://docs.boxicons.com/free--><path d="M6 3H5C3.35 3 2 4.35 2 6v4c0 1.65 1.35 3 3 3h2v6c0 1.1.9 2 2 2s2-.9 2-2V8c0-2.76-2.24-5-5-5m-.5 6.75c0 .41-.34.75-.75.75S4 10.16 4 9.75v-3.5c0-.41.34-.75.75-.75s.75.34.75.75zM19 3h-1c-2.76 0-5 2.24-5 5v11c0 1.1.9 2 2 2s2-.9 2-2v-6h2c1.65 0 3-1.35 3-3V6c0-1.65-1.35-3-3-3m1 6.75c0 .41-.34.75-.75.75s-.75-.34-.75-.75v-3.5c0-.41.34-.75.75-.75s.75.34.75.75z"/></svg>