<svg xmlns="http://www.w3.org/2000/svg" width="24" height="24"><!--Boxicons v3.0 https://boxicons.com | License  https://docs.boxicons.com/free--><path d="M19.5 20c.83 0 1.5-.75 1.5-1.67 0-1.5-1.5-3.33-1.5-3.33S18 16.82 18 18.33c0 .92.67 1.67 1.5 1.67m-10 2c.83 0 1.5-.75 1.5-1.67C11 18.83 9.5 17 9.5 17S8 18.82 8 20.33c0 .92.67 1.67 1.5 1.67m6.5-1.67c0-1.5-1.5-3.33-1.5-3.33S13 18.82 13 20.33c0 .92.67 1.67 1.5 1.67s1.5-.75 1.5-1.67M4.5 20c.83 0 1.5-.75 1.5-1.67C6 16.83 4.5 15 4.5 15S3 16.82 3 18.33c0 .92.67 1.67 1.5 1.67M13 4.07V2h-2v2.07C7.06 4.56 4 7.93 4 12H2v2h20v-2h-2c0-4.07-3.06-7.44-7-7.93"/></svg>