<svg xmlns="http://www.w3.org/2000/svg" width="24" height="24"><!--Boxicons v3.0 https://boxicons.com | License  https://docs.boxicons.com/free--><path d="M20 4V2h-2v2h-2v2h2v2h2V6h2V4zM21.45 11.61 12.9 7.33c-.56-.28-1.23-.28-1.79 0l-8.56 4.28c-.34.17-.55.52-.55.89s.21.72.55.89l8.55 4.28c.28.14.59.21.89.21s.61-.07.89-.21l8.55-4.28c.34-.17.55-.52.55-.89s-.21-.73-.55-.89Z"/><path d="m21.47 15.62-7.68 3.84c-.55.27-1.17.42-1.79.42s-1.24-.15-1.79-.42l-7.68-3.84c-.33.17-.53.51-.53.88s.21.72.55.89l8.55 4.28c.28.14.59.21.89.21s.61-.07.89-.21l8.55-4.28c.34-.17.55-.52.55-.89s-.21-.71-.53-.88Z"/></svg>