<svg xmlns="http://www.w3.org/2000/svg" width="24" height="24"><!--Boxicons v3.0 https://boxicons.com | License  https://docs.boxicons.com/free--><path d="M21 3.52C15.33 5.97 9.67.03 4 2.48c-.55.24-1 .97-1 1.52v18h2v-6.86c5.33-1.43 10.67 3.69 16 1.39.55-.24 1-.97 1-1.52V4c0-.55-.45-.71-1-.48m-1 8.35c-1 .27-2 .31-3 .2v3c-1-.1-2-.34-3-.62v-3c-1-.28-2-.62-3-.9v3c-1-.28-2-.52-3-.62v-3c-1-.1-2-.06-3 .2v-3c1-.27 2-.31 3-.2v-3c1 .1 2 .34 3 .62v3c1 .28 2 .62 3 .9v-3c1 .28 2 .52 3 .62v3c1 .1 2 .06 3-.2z"/><path d="M8 6.93v3c1 .1 2 .34 3 .62v-3c-1-.28-2-.52-3-.62M14 8.45v3c1 .28 2 .52 3 .62v-3c-1-.1-2-.34-3-.62"/></svg>