<svg xmlns="http://www.w3.org/2000/svg" width="24" height="24"><!--Boxicons v3.0 https://boxicons.com | License  https://docs.boxicons.com/free--><path d="M19 18.42c-.42 0-.59-.1-.89-.28-.4-.24-.94-.56-1.92-.56s-1.52.32-1.92.56c-.3.18-.46.28-.89.28s-.58-.09-.88-.28c-.4-.24-.94-.56-1.91-.56s-1.52.33-1.91.56c-.31.18-.46.28-.88.28s-.58-.09-.88-.28c-.4-.24-.94-.56-1.91-.56v2c.42 0 .58.09.88.28.4.24.94.56 1.91.56s1.52-.33 1.91-.56c.31-.18.46-.28.88-.28s.58.09.88.28c.4.24.94.56 1.91.56s1.52-.32 1.92-.56c.3-.18.46-.28.89-.28s.59.1.89.28c.4.24.94.56 1.92.56zM6 4v6c0 3.31 2.69 6 6 6s6-2.69 6-6V4h-2v6c0 2.21-1.79 4-4 4s-4-1.79-4-4V4z"/></svg>