<svg xmlns="http://www.w3.org/2000/svg" width="24" height="24"><!--Boxicons v3.0 https://boxicons.com | License  https://docs.boxicons.com/free--><path d="M7.05 7.05A6.96 6.96 0 0 1 12 5c1.86 0 3.62.73 4.95 2.05C18.27 8.38 19 10.13 19 12s-.73 3.62-2.05 4.95A6.96 6.96 0 0 1 12 19v2c2.4 0 4.66-.94 6.36-2.64S21 14.4 21 12s-.94-4.66-2.64-6.36A8.94 8.94 0 0 0 12 3c-2.4 0-4.66.94-6.36 2.64A8.94 8.94 0 0 0 3 12h2c0-1.86.73-3.62 2.05-4.95"/><path d="M10 20H5.41l7.3-7.29-1.42-1.42L4 18.59V14H2v8h8z"/></svg>