<svg xmlns="http://www.w3.org/2000/svg" width="24" height="24"><!--Boxicons v3.0 https://boxicons.com | License  https://docs.boxicons.com/free--><path d="M6.95 16.12a8.53 8.53 0 0 0 3.94 2.42v3.45h.56c2.65 0 4.63-1.4 4.96-3.46 3.27-1.05 5.6-3.75 5.6-6.54s-2.33-5.49-5.6-6.54c-.33-2.06-2.3-3.46-4.96-3.46h-.56v3.45c-1.48.41-2.85 1.26-3.94 2.42-1.16-.94-2.67-1.43-4.4-1.43h-.56v.56c0 2.01.82 3.73 2.39 5-1.57 1.27-2.39 2.99-2.39 5v.56h.56c1.73 0 3.24-.49 4.4-1.43M18 10c.55 0 1 .45 1 1s-.45 1-1 1-1-.45-1-1 .45-1 1-1m-3.39-1.89.71.71C14.47 9.67 14 10.8 14 12s.47 2.33 1.32 3.18l-.71.71C13.57 14.85 13 13.47 13 12s.57-2.85 1.61-3.89"/></svg>