<svg xmlns="http://www.w3.org/2000/svg" width="24" height="24"><!--Boxicons v3.0 https://boxicons.com | License  https://docs.boxicons.com/free--><path d="M10 19h4v2h-4zm6 2h3c.14 0 .27-.01.39-.04.13-.03.26-.07.38-.12s.24-.11.34-.19c.11-.07.2-.15.29-.24s.18-.19.25-.3.13-.22.19-.34c.05-.12.09-.25.11-.37.03-.13.04-.27.04-.41v-3h-2v3h-3v2Zm3-11h2v4h-2zm1.84-5.78c-.05-.12-.11-.23-.18-.34s-.16-.21-.24-.29c-.09-.09-.19-.17-.29-.24-.11-.07-.22-.14-.35-.19-.12-.05-.25-.09-.36-.11a2 2 0 0 0-.41-.04h-3v2h3v3h2v-3c0-.14-.01-.28-.04-.4-.03-.13-.07-.26-.12-.38ZM10 3h4v2h-4zM5 5h3V3H5c-.14 0-.27.01-.39.04-.13.03-.26.07-.38.12s-.24.11-.34.19c-.11.07-.2.15-.29.24s-.18.19-.25.3-.13.22-.19.34c-.05.12-.09.25-.11.37-.03.13-.04.27-.04.41v3h2v-3Zm-2 5h2v4H3zm0 9c0 .14.01.28.04.4a2.2 2.2 0 0 0 .3.72c.07.11.16.21.24.29.09.09.19.17.29.24.11.07.22.14.35.19.12.05.25.09.36.11.13.03.27.04.41.04h3v-2h-3v-3h-2v3Z"/></svg>