<svg xmlns="http://www.w3.org/2000/svg" width="24" height="24"><!--Boxicons v3.0 https://boxicons.com | License  https://docs.boxicons.com/free--><path d="M20.93 3.07c-1.27-1.27-3.42-1.42-6.06-.4-.94.36-1.9.86-2.87 1.46-.97-.61-1.93-1.1-2.87-1.46-2.63-1.01-4.79-.87-6.06.4C1.28 4.86 1.8 8.31 4.12 12c-2.32 3.69-2.84 7.14-1.05 8.93.71.71 1.7 1.07 2.89 1.07.94 0 2.01-.22 3.17-.67.94-.36 1.9-.86 2.87-1.46.97.61 1.93 1.1 2.87 1.46 1.16.45 2.23.67 3.17.67 1.19 0 2.18-.36 2.89-1.07 1.79-1.79 1.27-5.24-1.05-8.93 2.32-3.69 2.84-7.14 1.05-8.93M4.48 4.48C4.8 4.16 5.31 4 5.97 4c.68 0 1.52.18 2.44.53.58.22 1.18.51 1.79.85-.87.67-1.74 1.43-2.56 2.25-.84.84-1.58 1.69-2.25 2.55-1.45-2.6-1.79-4.82-.91-5.7M12 6.54c1 .72 2 1.56 2.95 2.51.97.97 1.8 1.97 2.5 2.95-.7.98-1.53 1.97-2.5 2.95C14 15.9 13 16.74 12 17.46c-1-.72-2-1.56-2.95-2.51-.97-.97-1.8-1.97-2.5-2.95.7-.98 1.53-1.97 2.5-2.95C10 8.1 11 7.26 12 6.54M8.41 19.46c-1.8.69-3.27.71-3.93.05-.88-.88-.54-3.1.91-5.7.66.85 1.41 1.71 2.25 2.55a25 25 0 0 0 2.56 2.25c-.61.34-1.2.63-1.79.85m11.1.05c-.66.66-2.13.64-3.93-.05-.58-.22-1.18-.51-1.79-.85.87-.67 1.74-1.43 2.56-2.25.84-.84 1.58-1.69 2.25-2.55 1.45 2.6 1.79 4.82.91 5.7m-.91-9.33c-.66-.85-1.41-1.71-2.25-2.55a25 25 0 0 0-2.56-2.25c.61-.34 1.2-.63 1.79-.85.92-.35 1.76-.53 2.44-.53s1.16.16 1.49.48c.88.88.54 3.1-.91 5.7"/><path d="M13.77 13.77c.98-.98.98-2.56 0-3.54s-2.56-.98-3.54 0-.98 2.56 0 3.54 2.56.98 3.54 0"/></svg>