<svg xmlns="http://www.w3.org/2000/svg" width="24" height="24"><!--Boxicons v3.0 https://boxicons.com | License  https://docs.boxicons.com/free--><path d="M20.45 13.11c-.54-.27-1.21-.61-2.45-.61-.07 0-.12.01-.19.01a5.992 5.992 0 0 0-11.78.99H6c-.76 0-1.09-.17-1.55-.39-.54-.27-1.21-.61-2.45-.61v2c.76 0 1.09.17 1.55.39.54.27 1.21.61 2.45.61s1.91-.34 2.45-.61c.46-.23.79-.39 1.55-.39s1.09.17 1.55.39c.54.27 1.21.61 2.45.61s1.91-.34 2.45-.61c.46-.23.79-.39 1.56-.39s1.1.17 1.55.39c.54.27 1.21.61 2.45.61v-2c-.76 0-1.1-.17-1.55-.39ZM11 3h2v3h-2zM17.71 8.71l1-1 1-1L19 6l-.71-.71-1 1-1 1L17 8zM6.29 8.71 7 8l.71-.71-1-1-1-1L5 6l-.71.71 1 1zM18 17c-1.24 0-1.91.34-2.45.61-.46.23-.79.39-1.55.39s-1.09-.17-1.55-.39c-.54-.27-1.21-.61-2.45-.61s-1.91.34-2.45.61c-.46.23-.79.39-1.55.39s-1.09-.17-1.55-.39C3.91 17.34 3.24 17 2 17v2c.76 0 1.09.17 1.55.39.54.27 1.21.61 2.45.61s1.91-.34 2.45-.61c.46-.23.79-.39 1.55-.39s1.09.17 1.55.39c.54.27 1.21.61 2.45.61s1.91-.34 2.45-.61c.46-.23.79-.39 1.56-.39s1.1.17 1.55.39c.54.27 1.21.61 2.45.61v-2c-.76 0-1.1-.17-1.55-.39-.54-.27-1.21-.61-2.45-.61Z"/></svg>