<svg xmlns="http://www.w3.org/2000/svg" width="24" height="24"><!--Boxicons v3.0 https://boxicons.com | License  https://docs.boxicons.com/free--><path d="M19 20H5V4h5V2H5c-1.1 0-2 .9-2 2v16c0 1.1.9 2 2 2h14c1.1 0 2-.9 2-2v-7h-2z"/><path d="M12 10a1 1 0 1 0 0 2 1 1 0 1 0 0-2M15 11h2c0-2.76-2.24-5-5-5v2c1.65 0 3 1.35 3 3"/><path d="M12 2v2c3.86 0 7 3.14 7 7h2c0-4.96-4.04-9-9-9M9.27 16.21c.09-.14.14-.31.14-.5s-.05-.35-.14-.5a.97.97 0 0 0-.38-.34q-.24-.12-.57-.12H7V18h.72v-1.34h.08L8.77 18h.86l-1.04-1.36c.11-.02.21-.05.31-.09.17-.08.29-.19.39-.33Zm-.7-.19c-.08.07-.19.11-.33.11h-.51v-.81h.52c.14 0 .25.04.33.11.08.08.11.17.11.29q0 .195-.12.3M9.93 18h.73v-1.27h1.45v-.62h-1.45v-.74h1.52v-.62H9.93zM12.65 14.75h.72V18h-.72zM15.97 14.87c-.21-.08-.43-.12-.68-.12h-1.3V18h1.31c.24 0 .47-.04.67-.12.21-.08.39-.19.54-.34.15-.14.27-.32.36-.51.08-.2.13-.42.13-.65s-.04-.46-.13-.65q-.12-.3-.36-.51a1.7 1.7 0 0 0-.54-.34Zm.17 2.03c-.08.15-.19.26-.34.34s-.32.12-.52.12h-.57v-1.98h.57q.3 0 .51.12c.15.08.26.19.34.34s.12.32.12.53-.04.38-.12.53Z"/></svg>