<svg xmlns="http://www.w3.org/2000/svg" width="24" height="24"><!--Boxicons v3.0 https://boxicons.com | License  https://docs.boxicons.com/free--><path d="m12.71 10.79-4.5-4.5a.996.996 0 0 0-1.41 0l-4.5 4.5a.996.996 0 0 0 0 1.41l4.5 4.5c.2.2.45.29.71.29s.51-.1.71-.29l4.5-4.5a.996.996 0 0 0 0-1.41ZM17.25 12.5a4.75 4.75 0 1 0 0 9.5 4.75 4.75 0 1 0 0-9.5M18.75 2c-.63 0-1.23.18-1.75.52-.52-.34-1.12-.52-1.75-.52C13.46 2 12 3.46 12 5.25c0 .77.29 1.53.87 2.19l3.44 3.28c.19.18.44.28.69.28s.5-.09.69-.28l3.5-3.35c.52-.6.8-1.35.8-2.13 0-1.79-1.46-3.25-3.25-3.25Z"/></svg>