<svg xmlns="http://www.w3.org/2000/svg" width="24" height="24"><!--Boxicons v3.0 https://boxicons.com | License  https://docs.boxicons.com/free--><path d="m21.8 6.4-2.7-3.6c-.38-.5-.97-.8-1.6-.8h-11c-.63 0-1.23.3-1.6.8L2.2 6.4c-.13.17-.2.38-.2.6v1c0 1.01.39 1.91 1 2.62V20c0 1.1.9 2 2 2h14c1.1 0 2-.9 2-2v-9.38c.61-.7 1-1.61 1-2.62V7c0-.22-.07-.43-.2-.6M10 7.12 10.78 4h2.44L14 7.12V8c0 1.1-.9 2-2 2s-2-.9-2-2zm-1.97-.37Q8 6.87 8 6.99v1c0 1.1-.9 2-2 2s-2-.9-2-2v-.67l2.5-3.33h2.22zM16 16.99h-3v3h-2v-3H8v-2h3v-3h2v3h3zm4-9c0 1.1-.9 2-2 2s-2-.9-2-2v-1c0-.08 0-.16-.03-.24l-.69-2.76h2.22L20 7.32z"/></svg>