<svg xmlns="http://www.w3.org/2000/svg" width="24" height="24"><!--Boxicons v3.0 https://boxicons.com | License  https://docs.boxicons.com/free--><path d="M12 2v2c2.13 0 4.14.83 5.65 2.35C19.16 7.86 20 9.87 20 12s-.83 4.14-2.35 5.65C16.14 19.16 14.13 20 12 20s-4.14-.83-5.65-2.35A7.95 7.95 0 0 1 4 12H2a9.95 9.95 0 0 0 2.93 7.07C6.82 20.96 9.33 22 12 22s5.17-1.04 7.07-2.93C20.96 17.18 22 14.67 22 12s-1.04-5.17-2.93-7.07A9.93 9.93 0 0 0 12 2"/><path d="M7 16h9V7h-2v5.59l-8.29-8.3-1.42 1.42 8.3 8.29H7z"/></svg>