<svg xmlns="http://www.w3.org/2000/svg" width="24" height="24"><!--Boxicons v3.0 https://boxicons.com | License  https://docs.boxicons.com/free--><path d="M18.01 14.06c.26 0 .51-.1.71-.29l2.47-2.47c.47-.47.73-1.1.73-1.77s-.26-1.3-.73-1.77l-1.77-1.77 2.12-2.12-1.41-1.41-2.12 2.12-1.77-1.77c-.94-.94-2.59-.95-3.54 0l-2.47 2.47a.996.996 0 0 0 0 1.41l7.07 7.07c.2.2.45.29.71.29Zm-4.95-1.71-2.12 2.12-1.41-1.41 2.12-2.12-1.41-1.41-2.12 2.12-1.41-1.41a.996.996 0 0 0-1.41 0l-2.47 2.47c-.47.47-.73 1.1-.73 1.77s.26 1.3.73 1.77l1.77 1.77-2.12 2.12 1.41 1.41 2.12-2.12 1.77 1.77c.47.47 1.1.73 1.77.73s1.29-.26 1.77-.73l2.47-2.47a.996.996 0 0 0 0-1.41l-1.41-1.41 2.12-2.12-1.41-1.41Z"/></svg>