<svg xmlns="http://www.w3.org/2000/svg" width="24" height="24"><!--Boxicons v3.0 https://boxicons.com | License  https://docs.boxicons.com/free--><path d="M19.1 7.8c-.38-.5-.97-.8-1.6-.8H15V6c0-1.1-.9-2-2-2H4c-1.1 0-2 .9-2 2v10c0 1.1.9 2 2 2 0 1.65 1.35 3 3 3s3-1.35 3-3h4c0 1.65 1.35 3 3 3s3-1.35 3-3c1.1 0 2-.9 2-2v-3.67c0-.43-.14-.86-.4-1.2zM7 19a1.003 1.003 0 0 1-.87-1.5c.36-.62 1.33-.63 1.72-.02A.947.947 0 0 1 8 18c0 .55-.45 1-1 1m5-7.5H9.5V14h-2v-2.5H5v-2h2.5V7h2v2.5H12zm5 7.5a1.003 1.003 0 0 1-.87-1.5c.36-.62 1.33-.63 1.72-.02A.947.947 0 0 1 18 18c0 .55-.45 1-1 1m-2-7V9h2.5l2.25 3z"/></svg>