<svg xmlns="http://www.w3.org/2000/svg" width="24" height="24"><!--Boxicons v3.0 https://boxicons.com | License  https://docs.boxicons.com/free--><path d="M12 2C6.49 2 2 6.49 2 12s4.49 10 10 10 10-4.49 10-10S17.51 2 12 2m0 18c-4.41 0-8-3.59-8-8s3.59-8 8-8 8 3.59 8 8-3.59 8-8 8" class="b"/><path d="M16.24 7.76c-.36-.36-.77-.67-1.2-.92l-8.21 8.2c.25.43.56.84.92 1.2s.77.67 1.2.92l8.21-8.21c-.25-.43-.56-.84-.92-1.2ZM12 6c-1.6 0-3.11.62-4.24 1.76a5.99 5.99 0 0 0-1.68 5.21l6.88-6.88c-.32-.05-.64-.08-.97-.08ZM12 18c1.6 0 3.11-.62 4.24-1.76a5.97 5.97 0 0 0 1.68-5.21l-6.88 6.88c.32.05.64.08.97.08Z" class="b"/></svg>