<svg xmlns="http://www.w3.org/2000/svg" width="24" height="24"><!--Boxicons v3.0 https://boxicons.com | License  https://docs.boxicons.com/free--><path d="M12 2C6.49 2 2 6.49 2 12s4.49 10 10 10 10-4.49 10-10S17.51 2 12 2m1.82 15.83c-.13-.03-.33-.08-.45-.11s-.33-.18-.47-.32l-.5-.5c-.14-.14-.29-.36-.34-.5s.01-.25.13-.25.37.11.57.24c.19.13.51.37.72.54.2.16.44.3.53.31.09 0 .14.15.1.33-.03.17-.16.29-.29.27Zm2.41-1.04c-.18.29-.56.52-.84.51s-.56-.16-.62-.34c-.07-.17.05-.42.26-.56s.54-.43.75-.65.49-.38.62-.36c.14.02.23.22.21.45s-.19.65-.38.94Zm.6-7.27c-.11.07-.29-.07-.4-.33s-.26-.18-.32.18c-.06.35-.03.81.07 1.02s.1.63.01.95-.46.79-.82 1.06-.82.51-1.01.55c-.2.04-.36.17-.37.31 0 .13.1.33.24.45.13.12.26.4.29.63.02.23-.14.53-.35.67-.22.14-.54.22-.72.17s-.24.12-.13.38.07.45-.08.43-.38-.13-.51-.26c-.13-.12-.29-.51-.35-.87-.06-.35-.25-.69-.41-.74s-.34-.25-.39-.45c-.05-.19-.2-.45-.33-.57s-.46-.19-.74-.15-.74.3-1.01.57c-.28.27-.56.72-.62 1-.07.27-.29.61-.5.75s-.6-.54-.88-1.5-.72-1.98-1-2.25c-.28-.28-1.17-.48-2-.45-.17 0-.3-.03-.42-.09.51-3.92 3.87-6.96 7.92-6.96 2.3 0 4.36.98 5.82 2.53-.02.08-.05.16-.1.24-.4.67-.72 1.53-.71 1.91s-.08.75-.18.82m1.35.31c-.18.35-.49.87-.68 1.16s-.35.3-.35.03.19-.96.41-1.51c.23-.56.47-1.01.55-1 .07 0 .19.17.27.35s-.02.63-.2.97"/></svg>