<svg xmlns="http://www.w3.org/2000/svg" width="24" height="24"><!--Boxicons v3.0 https://boxicons.com | License  https://docs.boxicons.com/free--><path d="M4 17h2.7l5.75 3.83c.17.11.36.17.55.17.16 0 .32-.04.47-.12.33-.17.53-.51.53-.88V4c0-.37-.2-.71-.53-.88s-.72-.15-1.03.05L6.69 7h-2.7c-1.1 0-2 .9-2 2v6c0 1.1.9 2 2 2ZM22 12c0-4.09-2.47-7.61-6-9.16v2.24c2.39 1.39 4 3.96 4 6.92s-1.61 5.53-4 6.92v2.24c3.53-1.55 6-5.07 6-9.16"/><path d="M18 12c0-1.77-.78-3.36-2-4.46v8.92c1.22-1.1 2-2.69 2-4.46"/></svg>