<svg xmlns="http://www.w3.org/2000/svg" width="24" height="24"><!--Boxicons v3.0 https://boxicons.com | License  https://docs.boxicons.com/free--><path d="m20.31 16.93-.9-1-.93 1h-5.66v-4.55h-1.86l2.28-5.14h2.21L16.24 9V7.24h2.72l.45 1.34.45-1.34h2.07v-.76c0-.45-.38-.86-.86-.86H2.86c-.48.03-.86.41-.86.86v11.03c0 .45.38.86.86.86h18.28c.45 0 .86-.38.86-.86v-.55z"/><path d="M20.55 16.41h1.42l-1.87-2 1.87-1.96h-1.38l-1.21 1.27-1.14-1.27h-1.45l1.9 2-1.9 1.96h1.38l1.21-1.27zM14.52 15.48v-.58h2.2v-.93h-2.2v-.59h2.27v-.93h-3.38v3.96h3.38v-.93zM20.9 11.86h1.07v-4l-1.66.04-.9 2.48-.89-2.48h-1.73v3.96h1.11V9.07l1.03 2.79h.97l1-2.79zM15.03 7.9h-1.41l-1.76 4h1.21l.31-.83h1.83l.34.83h1.24zm-1.28 2.28.52-1.31.52 1.31h-1.03Z"/><path d="m20.97 14.31 1 1.07.03-2.17z"/></svg>