<svg xmlns="http://www.w3.org/2000/svg" width="24" height="24"><!--Boxicons v3.0 https://boxicons.com | License  https://docs.boxicons.com/free--><path d="M8.78 16.29c-.55.16-.82.59-.87.77-.06.18-.21.65-.08 1.06.24.91 1.03.95 1.03.95H10v-2.78zM5.6 12.54c2.17-.47 1.88-3.07 1.81-3.64-.11-.88-1.14-2.41-2.54-2.28-1.76.16-2.02 2.7-2.02 2.7-.24 1.18.57 3.69 2.74 3.22ZM14.81 8.38c1.61.21 2.64-1.5 2.84-2.8.21-1.3-.83-2.8-1.96-3.06-1.14-.26-2.56 1.56-2.69 2.75-.16 1.46.21 2.91 1.81 3.11M18.74 8.07c-1.92 0-2.17 1.77-2.17 3.01s.1 2.85 2.48 2.8 2.12-2.7 2.12-3.32-.51-2.49-2.43-2.49M9.64 8.18c1.2 0 2.17-1.38 2.17-3.09S10.84 2 9.64 2 7.47 3.38 7.47 5.09s.97 3.09 2.17 3.09"/><path d="M18.74 16.02s-2.48-1.92-3.93-4c-1.97-3.06-4.76-1.82-5.69-.26s-2.38 2.54-2.58 2.8c-.21.26-3 1.76-2.38 4.52.62 2.75 2.8 2.7 2.8 2.7s1.6.16 3.46-.26c1.86-.41 3.47.1 3.47.1s4.35 1.46 5.53-1.35c1.19-2.8-.67-4.26-.67-4.26Zm-7.44 4.17H8.47c-1.22-.24-1.71-1.08-1.77-1.22s-.41-.81-.22-1.95c.53-1.71 2.03-1.83 2.03-1.83h1.51v-1.85l1.28.02zm5.27-.02h-3.25c-1.26-.33-1.32-1.22-1.32-1.22v-3.6l1.32-.02v3.23c.08.34.51.41.51.41h1.34v-3.62h1.4z"/></svg>