<svg xmlns="http://www.w3.org/2000/svg" width="24" height="24"><!--Boxicons v3.0 https://boxicons.com | License  https://docs.boxicons.com/free--><path d="M18.94 5.74A3.74 3.74 0 0 0 15.2 2H8.8a3.74 3.74 0 0 0-3.74 3.74c0 1.31.68 2.47 1.7 3.13a3.73 3.73 0 0 0 0 6.26c-1.02.67-1.7 1.82-1.7 3.13 0 2.07 1.69 3.74 3.75 3.74s3.79-1.68 3.79-3.77v-3.48c.67.61 1.55.99 2.53.99h.07A3.74 3.74 0 0 0 18.94 12c0-1.31-.68-2.47-1.7-3.13 1.02-.67 1.7-1.82 1.7-3.13M11.4 18.23c0 1.41-1.16 2.56-2.58 2.56s-2.55-1.14-2.55-2.53 1.13-2.52 2.52-2.53h2.61v2.49Zm0-3.7H8.79c-1.39 0-2.52-1.13-2.52-2.53S7.4 9.47 8.8 9.47h2.6zm0-6.26H8.8c-1.4 0-2.53-1.13-2.53-2.53S7.4 3.21 8.8 3.21h2.6zm6.33 3.74c0 1.4-1.13 2.53-2.53 2.53h-.07c-1.4 0-2.53-1.13-2.53-2.53s1.13-2.53 2.53-2.53h.07c1.4 0 2.53 1.13 2.53 2.53M15.2 8.27h-2.6V3.21h2.6c1.4 0 2.53 1.13 2.53 2.53S16.6 8.27 15.2 8.27"/></svg>