<svg xmlns="http://www.w3.org/2000/svg" width="24" height="24"><!--Boxicons v3.0 https://boxicons.com | License  https://docs.boxicons.com/free--><path d="M16.94 3H7.06C4.82 3 3 4.82 3 7.06v9.88C3 19.18 4.82 21 7.06 21h9.88c2.24 0 4.06-1.82 4.06-4.06V7.06C21 4.82 19.18 3 16.94 3m-.23 11.15c-1.26 1.45-4.07 3.21-4.72 3.48-.64.27-.55-.17-.52-.32.02-.09.09-.51.09-.51.02-.15.04-.39-.02-.54-.07-.17-.33-.25-.53-.3-2.88-.38-5.02-2.4-5.02-4.8 0-2.69 2.69-4.87 6-4.87s6 2.18 6 4.87c0 1.07-.42 2.04-1.29 3Z"/><path d="M16 9.85h-1.69c-.06 0-.11.05-.11.11v2.62c0 .07.05.12.11.12H16c.06 0 .11-.05.11-.11v-.43c0-.06-.05-.11-.11-.11h-1.15v-.44H16c.06 0 .11-.05.11-.11v-.43c0-.06-.05-.11-.11-.11h-1.15v-.44H16c.06 0 .11-.05.11-.11v-.43c0-.06-.05-.11-.11-.11ZM9.77 12.05H8.62V9.97c0-.06-.05-.11-.11-.11h-.43c-.06 0-.11.05-.11.11v2.62c0 .07.05.12.11.12h1.69c.06 0 .11-.05.11-.11v-.43c0-.06-.05-.11-.11-.11Z"/><rect width=".65" height="2.85" x="10.24" y="9.85" rx=".11" ry=".11"/><path d="M13.68 9.85h-.43c-.06 0-.11.05-.11.11v1.56l-1.2-1.62v-.01h-.42c-.06 0-.11.05-.11.11v2.62c0 .06.05.11.11.11h.43c.06 0 .11-.05.11-.11v-1.56l1.2 1.62.03.03h.45c.06 0 .11-.05.11-.11V9.98c0-.06-.05-.11-.11-.11Z"/></svg>