<svg xmlns="http://www.w3.org/2000/svg" width="24" height="24"><!--Boxicons v3.0 https://boxicons.com | License  https://docs.boxicons.com/free--><path d="M2.16 14.54h.15l-.14.58a.28.28 0 0 0 .01.2c.04.05.1.07.16.06.07 0 .14-.02.19-.06.05-.05.09-.12.11-.2l.14-.58h.15l-.14.6c-.02.11-.08.22-.17.29a.5.5 0 0 1-.31.1c-.13 0-.22-.03-.26-.09s-.06-.16-.03-.29l.14-.6ZM2.91 15.49l.24-.99.45.59s.02.03.04.05.02.04.04.06l.16-.66h.14l-.24.99-.46-.6-.04-.05-.03-.06-.16.67zM3.96 15.49l.23-.96h.15l-.23.96zM4.32 15.49l.23-.96h.52l-.03.13h-.37l-.06.24h.37l-.03.14h-.37l-.11.45zM5.01 15.49l.23-.96h.15l-.23.96zM5.38 15.49l.23-.96h.52l-.03.13h-.37l-.06.24h.37l-.03.14h-.37l-.07.31h.37l-.03.14h-.52ZM6.08 15.49l.23-.96h.2c.09 0 .19 0 .28.02.05.01.09.04.13.07.04.04.07.1.08.16.01.08 0 .15-.01.23-.02.08-.05.16-.1.23-.04.06-.1.12-.16.16-.05.03-.1.06-.16.07-.08.02-.16.02-.25.02zm.19-.14h.13c.05 0 .11 0 .16-.01.04 0 .07-.03.1-.05a.43.43 0 0 0 .17-.28c.01-.05.02-.11.01-.16 0-.04-.02-.08-.05-.12a.2.2 0 0 0-.08-.05.5.5 0 0 0-.17-.01h-.11zM7.68 15.06l-.1.43h-.14l.23-.96h.23s.1 0 .15.01c.03 0 .05.02.07.04.03.02.04.06.05.09v.12c-.01.04-.03.09-.06.13q-.03.06-.09.09c-.03.02-.06.03-.09.04-.05 0-.1.01-.15.01h-.09Zm.04-.13h.04c.06 0 .12 0 .18-.03.04-.02.06-.06.07-.1s0-.08-.02-.11c-.05-.03-.1-.04-.16-.03h-.04zM8.68 15.49l-.05-.25h-.37l-.17.25h-.16l.69-.99.21.99h-.16Zm-.33-.38h.26l-.04-.22v-.11c0 .02-.02.04-.03.06 0 .02-.02.03-.03.05l-.15.22ZM9.06 15.49l.1-.44-.19-.52h.16l.12.33v.03c0 .01 0 .03.01.04l.03-.04s.02-.03.03-.04l.28-.32h.15l-.44.52-.1.44zM10.5 15.02v-.13c0 .02-.02.04-.03.07-.01.02-.03.05-.04.07l-.37.51-.12-.52s0-.04-.01-.06v-.06c0 .02-.01.04-.02.06 0 .02-.02.05-.03.07l-.21.47h-.14l.46-1 .13.6v.05c0 .03 0 .06.01.08.02-.03.04-.06.07-.1 0 0 .01-.02.02-.03l.41-.6v1h-.15v-.48ZM10.75 15.49l.23-.96h.52l-.03.13h-.37l-.05.24h.37l-.03.14h-.37l-.07.31h.37l-.03.14h-.52ZM11.44 15.49l.24-.99.45.59s.02.03.04.05.02.04.04.06l.16-.66h.14l-.24.99-.46-.6-.03-.05-.03-.06-.16.67h-.14ZM12.99 14.67l-.2.82h-.15l.2-.82h-.25l.03-.13h.65l-.03.13zM13.15 15.3l.13-.06s.01.07.04.1c.03.02.07.04.11.03.04 0 .08-.01.12-.04.03-.03.06-.06.06-.1.01-.06-.02-.11-.1-.15 0 0-.02-.01-.03-.01a.4.4 0 0 1-.17-.14c-.02-.05-.03-.1-.01-.15.02-.08.06-.14.12-.19s.14-.08.22-.07c.06 0 .11.01.16.04.04.03.06.07.07.12l-.13.06s-.02-.05-.04-.07a.2.2 0 0 0-.07-.02c-.04 0-.07.01-.1.03q-.045.03-.06.09c-.01.06.03.11.12.16h.02c.06.03.12.07.16.13.02.05.03.1.01.16a.4.4 0 0 1-.14.22c-.07.05-.16.08-.24.08a.28.28 0 0 1-.18-.06c-.05-.04-.08-.1-.07-.16M14.27 15.49l.23-.96h.15l-.23.96zM14.64 15.49l.24-.99.45.58s.02.03.04.05.02.04.04.06l.16-.66h.14l-.24.99-.46-.6-.04-.05-.03-.06-.16.67h-.14ZM16.19 14.67l-.2.82h-.15l.2-.82h-.25l.03-.13h.65l-.03.13zM16.35 15.49l.23-.96h.52l-.03.13h-.37l-.06.24h.37l-.03.14h-.37l-.07.31h.37l-.03.14h-.52ZM17.29 15.06l-.1.43h-.14l.23-.96h.21s.09 0 .14.01c.03 0 .06.02.08.04s.04.06.04.09v.12c-.01.07-.05.13-.1.18a.37.37 0 0 1-.18.08l.22.43h-.17l-.21-.43h-.02Zm.04-.12h.03c.06 0 .11 0 .17-.03.03-.02.06-.06.06-.1.01-.05 0-.09-.02-.11-.04-.03-.1-.04-.15-.03h-.03zM17.78 15.49l.23-.96h.52l-.03.13h-.37l-.06.24h.37l-.03.14h-.37l-.11.45zM19.03 15.49l-.05-.25h-.37l-.17.25h-.16l.69-.99.21 1h-.16Zm-.33-.38h.26l-.04-.22v-.11c0 .02-.02.04-.03.06 0 .02-.02.03-.03.05l-.15.22ZM20.18 14.77s-.07-.07-.12-.08a.39.39 0 0 0-.41.07c-.08.07-.14.16-.16.26-.03.09-.01.18.03.26.05.07.13.11.21.1.06 0 .11-.01.16-.03.06-.02.12-.05.17-.09l-.04.18s-.1.05-.15.07c-.05.01-.11.02-.16.02-.07 0-.13-.01-.19-.04a.28.28 0 0 1-.13-.11.33.33 0 0 1-.07-.16c0-.07 0-.13.01-.2.02-.07.04-.14.08-.2s.09-.12.14-.16a.647.647 0 0 1 .39-.15c.05 0 .1 0 .15.02s.09.04.13.08zM20.2 15.49l.23-.96h.52l-.03.13h-.37l-.06.24h.37l-.03.14h-.37l-.07.31h.37l-.03.14h-.52ZM17.43 13.7h-1.04l1.45-5.24h1.04zM16.89 8.63q-.105-.15-.33-.15h-5.73l-.28 1.03h5.21l-.3 1.1h-5.21l-.86 3.12h1.04l.58-2.1h4.69c.15 0 .3-.05.41-.15.12-.09.21-.22.25-.37l.58-2.1c.05-.16.03-.28-.04-.38ZM8.76 13.37a.48.48 0 0 1-.46.35H2.92c-.13 0-.25-.05-.33-.15a.44.44 0 0 1-.05-.37l1.31-4.72h1.04L3.72 12.7h4.17l1.17-4.22h1.04l-1.36 4.89ZM19.75 8.48l1.32 2.62-2.77 2.62z"/><path d="m20.68 8.48-.25.9.82 1.63.07.13-.11.1-1.76 1.67-.22.81L22 11.1z"/></svg>