<svg xmlns="http://www.w3.org/2000/svg" width="24" height="24"><!--Boxicons v3.0 https://boxicons.com | License  https://docs.boxicons.com/free--><path d="m13.69 13.94.05-.19h-.91l-.05.19h.79c.1-.02.12 0 .12 0M13.87 13.35l.07-.22h-.91l-.14.46s.19-.17.49-.22c.05-.02.49-.02.49-.02M15.65 10.26c.17-.08.3-.25.34-.46.05-.22-.02-.39-.19-.46-.02 0-.44-.03-.44-.03l-.08-.02v.08l-.2.91v.05h.12c.15 0 .32-.02.46-.08M10.85 11.54c.07 0 .14-.05.19-.12.08-.1.14-.36.15-.42.07-.3.05-.49-.1-.49-.2 0-.27.25-.34.54-.02.1-.03.2-.03.29-.02.2.12.2.14.2M15.16 15.18h.46l.13-.46h-.45zM17.12 11.58c.07 0 .19-.05.24-.12a.35.35 0 0 0 .07-.15c.02-.08.05-.17.07-.25a.6.6 0 0 0 .03-.17c.02-.2-.05-.32-.19-.32-.2 0-.27.25-.34.54-.02.1-.03.2-.03.29.02.19.14.19.15.19M15.77 13.12l-.15.52s.17-.08.27-.1c.1-.03.24-.03.24-.03l.12-.39h-.47Z"/><path d="M20.98 5.59h-4.9c-.69 0-1.39.58-1.56 1.3l-.63 2.76c-.08-.05-.24-.05-.3-.05l.63-2.74c.12-.54.51-1 .96-1.25H10.6c-.69 0-1.39.58-1.56 1.3l-.61 2.66c-.12.02-.27.03-.32.03l.63-2.74c.12-.54.51-1 .96-1.25H5.91c-.69 0-1.39.58-1.56 1.3l-2.32 10.2c-.17.71.27 1.3.96 1.3h3.87a1 1 0 0 1-.25-.24c-.24-.3-.3-.69-.2-1.1l1.03-4.53h.32l-1.05 4.57c-.17.71.27 1.3.96 1.3h4.68a1 1 0 0 1-.25-.24c-.24-.3-.3-.69-.2-1.1l.19-.81h.32l-.19.85c-.17.71.27 1.3.96 1.3h4.9c.69 0 1.4-.58 1.56-1.3l2.32-10.2c.14-.74-.3-1.32-1-1.32m-3.57 4.57c.1.03.17.1.22.19 0-.02 0-.05.02-.07l.02-.02c.3-.05.39-.05.69-.12l.02.03c-.05.24-.12.49-.17.73-.12.51-.15.76-.2 1.03l-.03.02c-.3 0-.39 0-.68.02l-.02-.02.03-.1c-.1.08-.22.15-.34.15s-.22-.02-.36-.07c-.39-.15-.32-.59-.27-.83s.15-.47.34-.66c.27-.27.59-.34.73-.29m-2.96-.29.19-.93s.02-.07.02-.12c.08.02.3.02.85 0h.2c.42 0 .79 0 .98.27.07.1.1.22.1.36 0 .1-.02.2-.03.27-.07.34-.24.61-.49.79-.36.27-.83.27-1.23.27H15l-.05.05c0 .02-.1.42-.1.42s-.12.54-.14.64h-.74c.02-.07.47-2.03.47-2.03m-2.4 1.4c.12-.56.15-.78.19-1.07l.02-.02c.29-.03.36-.05.68-.12l.02.03-.05.19c.05-.03.1-.07.15-.1.15-.07.32-.1.41-.1.14 0 .29.03.36.2.05.15.02.32-.07.68l-.03.19c-.08.39-.1.46-.14.73l-.03.02c-.25 0-.34 0-.63.02l-.02-.02c.02-.12.05-.22.08-.34l.03-.15c.05-.24.1-.52.12-.61 0-.05.02-.19-.12-.19-.07 0-.12.03-.19.07-.03.14-.1.49-.14.66-.07.36-.08.39-.1.56l-.02.02c-.25 0-.36 0-.64.02l-.02-.03c.03-.2.08-.41.14-.63m.24 1.64-.12.41h-.88l-.1.08s-.05.02-.1.05c-.05.02-.15.08-.29.08h-.29l.12-.39h.08c.07 0 .12 0 .15-.02s.07-.07.1-.12l.17-.3h.64l-.12.22h.63v-.02Zm-5.56-2.11c-.08.32-.19.69-.58.93-.22.14-.56.22-.9.22-.27 0-.76-.05-.93-.36-.05-.1-.08-.2-.08-.34l.07-.47.03-.14.37-1.67.02-.1s.14.02.85.02v.02c-.07.2-.42 1.69-.42 1.69l-.07.44v.07c.02.22.15.34.39.34.14 0 .27-.05.37-.14.19-.15.24-.39.3-.71 0 0 .36-1.64.37-1.73.05.02.2.02.71.02v.02c-.07.2-.44 1.74-.44 1.74l-.07.15Zm2.05.19-.03.19c-.08.39-.1.46-.14.73l-.03.02c-.25 0-.34 0-.63.02l-.02-.02c.03-.12.05-.22.08-.34l.03-.15c.05-.24.1-.52.12-.61 0-.05.02-.19-.12-.19-.07 0-.12.03-.19.07-.03.14-.1.49-.14.66-.07.36-.08.39-.1.56l-.02.02c-.25 0-.36 0-.64.02l-.02-.03c.05-.2.1-.42.15-.63.12-.56.15-.78.19-1.07l.02-.02c.29-.03.36-.05.68-.12l.03.03-.05.19c.05-.03.1-.07.15-.1.15-.07.32-.1.41-.1.14 0 .29.03.36.2.02.14-.02.32-.1.68m1.07-.12c-.03.12-.05.24-.08.37-.05.25-.08.36-.08.42-.02.07-.02.1-.03.24l-.02.02-.02.02h-.34c-.1 0-.19 0-.32.02v-.02l-.02-.02c.03-.15.07-.2.08-.25s.03-.1.07-.25c.05-.2.07-.34.08-.46s.03-.22.05-.34h.02l.02-.02c.15-.02.25-.03.34-.05.1-.02.2-.03.36-.07v.03c-.05.1-.08.24-.1.36m.02-.52c-.17.12-.42.14-.56.07-.14-.08-.12-.25.05-.37s.42-.15.56-.07c.15.08.12.25-.05.37m.24.71c.05-.24.14-.49.34-.66.27-.25.61-.27.76-.27.24 0 .47.05.61.22.08.12.15.3.07.69-.03.12-.1.41-.27.61-.22.24-.51.32-.79.32-.12 0-.29-.02-.41-.07-.42-.17-.37-.61-.3-.85m1.35 4.68h-.73c-.05 0-.1-.02-.17-.02-.07-.02-.08-.05-.12-.08-.03-.05-.07-.08-.03-.17l.2-.71h-.36l.12-.41h.36l.1-.32h-.36l.12-.39h1.59l-.12.39h-.64l-.1.32h.66l-.12.41h-.64l-.15.54c-.02.05.15.07.22.07l.32-.05zm1.32 0h-.42c-.14 0-.24 0-.3-.02-.07 0-.14 0-.19-.03-.03-.03-.1-.08-.1-.14s.02-.12.05-.22l.78-2.64h.56l-.08.29s.17-.14.3-.19c.12-.05.41-.08.41-.08h.9l-.3 1.05c-.05.19-.12.29-.15.34s-.07.1-.15.14c-.08.03-.15.07-.2.07h-1.13l-.24.83c-.02.08-.03.12-.02.14.02.02.03.05.08.05l.39-.03-.17.46Zm1.39-1.1c-.02.08-.03.14-.1.19s-.14.1-.3.1l-.3.02v.29c0 .08.02.07.03.08s.03.02.03.03h.1l.29-.02-.12.41h-.34c-.24 0-.41 0-.47-.05-.05-.03-.07-.08-.07-.17l.02-1.1h.54v.22h.14c.05 0 .07 0 .08-.02s.03-.03.03-.05l.05-.17h.42zm1.88 1.1h-.58l.03-.14h-1.18l.12-.39h.12l.61-2.1.12-.42h.59l-.07.22s.15-.12.3-.15c.12-.03.73-.05.93-.05h.63v.24s.03.07.1.07h.14l-.12.39h-.34c-.29.02-.41-.1-.41-.25v-.24l-.07.22h-.2l-.61 2.06h.17l-.12.42h-.17v.12Zm2.62-1.83h-.63l-.1.32h.64l-.1.36h-.69l-.12.15h.27l.07.44c0 .05.02.07.02.08.02.02.1.02.15.02h.08l-.14.44h-.37c-.07 0-.12-.05-.15-.07s-.1-.07-.12-.15l-.07-.44-.3.44c-.1.14-.24.24-.46.24h-.44l.12-.39h.17c.05 0 .08-.02.12-.03s.07-.03.08-.08l.46-.66h-.59l.1-.36h.69l.1-.32h-.68l.12-.41h1.89l-.14.42Zm.39-1.23-.03.03-.24.42c-.08.15-.22.25-.44.25h-.39l.12-.39h.07s.07 0 .08-.02c.02 0 .03-.02.05-.05l.14-.22c.19-.3.24-.42.44-.78-.03-.39-.05-.51-.08-.76-.02-.15-.03-.3-.05-.46-.03-.3-.03-.27-.07-.46v-.03l.02-.02c.3-.03.3-.05.63-.12l.03.03.05.85v.05c.17-.39.17-.29.37-.78v-.02l.02-.02c.29-.03.34-.05.64-.12l.02.03c.05 0-1.2 2.2-1.37 2.55"/><path d="M15.36 14.45s.19-.1.27-.12c.1-.02.24-.03.24-.03l.12-.39h-.47l-.15.54Z"/></svg>