<svg xmlns="http://www.w3.org/2000/svg" width="24" height="24"><!--Boxicons v3.0 https://boxicons.com | License  https://docs.boxicons.com/free--><path d="M11.11 10.6c1.31-1.27 2.93-1.83 4.78-1.93-.11-1.13-.5-2.08-1.15-2.93-1.8-2.35-5.13-3.34-8.09-2.37-2.17.71-3.77 2.07-4.42 4.31-.7 2.42.24 4.78 2.47 6.35.35.25.4.46.29.83-.15.51-.24 1.05-.38 1.65.73-.46 1.35-.87 2-1.23.19-.11.47-.14.7-.12.66.06 1.33.15 2.05.24-.17-1.95.44-3.53 1.76-4.81Zm.7-3.54c.47 0 .84.36.85.82 0 .47-.35.84-.83.84-.47 0-.85-.36-.86-.82 0-.45.38-.84.84-.84M6.48 8.72a.816.816 0 0 1-.81-.85c.01-.46.4-.82.87-.8.46.01.84.41.82.86a.85.85 0 0 1-.87.8Z"/><path d="M12.56 10.35c-2.96 1.94-3.33 5.57-.77 7.94 1.35 1.25 2.98 1.75 4.8 1.57.6-.06 1.2-.39 1.77-.33s1.11.45 1.7.71c-.04-.16-.05-.31-.11-.44-.37-.67-.16-1.09.41-1.6 1.98-1.75 2.17-4.53.55-6.62-1.86-2.39-5.72-2.97-8.35-1.24Zm.82 3.41c-.37 0-.68-.3-.69-.67-.01-.39.31-.72.7-.72s.71.33.69.72c-.01.37-.32.66-.7.66Zm4.3 0c-.39 0-.69-.32-.68-.72.01-.37.32-.66.69-.66.39 0 .69.33.68.72-.01.37-.31.66-.69.66"/></svg>